<svg width="526" height="773" viewBox="0 0 526 773" fill="none" xmlns="http://www.w3.org/2000/svg">
<g clip-path="url(#clip0_151_2463)">
<g opacity="0.2">
<path opacity="0.4" d="M390.512 50.9067C384.295 50.9067 378.33 51.8812 372.769 53.6511C363.533 22.4198 334.636 -0.370605 300.41 -0.370605C258.74 -0.370605 224.959 33.4099 224.959 75.0802C224.959 88.0741 228.245 100.3 234.029 110.974H337.46H366.791H443.563C444.316 107.663 444.718 104.234 444.718 100.719C444.718 73.2084 420.449 50.9067 390.512 50.9067Z" fill="#D9D9D9"/>
</g>
<path opacity="0.2" d="M45.7302 129.459C46.9038 129.459 48.0661 129.506 49.2162 129.596C57.6957 105.415 80.7201 88.0728 107.798 88.0728C142.076 88.0728 169.864 115.861 169.864 150.139C169.864 150.532 169.848 150.919 169.84 151.31C173.349 150.549 177.02 150.139 180.803 150.139C204.411 150.139 223.747 165.894 225.424 185.867H158.552H136.182H85.6307H57.041H5.82971C3.94757 181.206 2.91357 176.136 2.91357 170.831C2.91263 147.982 22.0822 129.459 45.7302 129.459Z" fill="#D9D9D9"/>
<g opacity="0.25">
<path opacity="0.4" d="M325.175 320.033V327.052H318.438V332.851H314.183V352.687H304.254V460.413H314.183H318.438H325.175H339.359V352.687V332.851V327.052V320.033H325.175Z" fill="#D9D9D9"/>
<path opacity="0.4" d="M265.357 384.124V369.612H260.375V358.068H255.393V451.41H257.884H260.375H263.44H265.357H276.088V384.124H265.357Z" fill="#D9D9D9"/>
<path opacity="0.4" d="M370.589 369.947V364.6H367.481V359.495H362.186V329.172H361.339V359.495H353.078V364.6H349.406V369.947H345.734V459.641H349.406H370.589H373.13V369.947H370.589Z" fill="#D9D9D9"/>
<path opacity="0.4" d="M419.383 369.26V343.038H411.91V327.206H395.813V343.038H390.064V369.26H384.892V460.788H390.064H395.813H411.91H419.383H425.131V369.26H419.383Z" fill="#D9D9D9"/>
<path opacity="0.4" d="M471.786 388.08V377.949H461.038V350.196H435.447V377.949H430.328V457.24H435.447H451.057H461.038H471.786H497.378V388.08H471.786Z" fill="#D9D9D9"/>
<path opacity="0.4" d="M334.351 319.667V326.742H327.614V332.586H323.359V352.579H313.431V461.154H323.359H327.614H334.351H348.535V352.579V332.586V326.742V319.667H334.351Z" fill="#D9D9D9"/>
<path opacity="0.4" d="M274.533 384.264V369.637H269.551V358.002H264.569V452.08H267.06H269.551H272.617H274.533H285.264V384.264H274.533Z" fill="#D9D9D9"/>
<path opacity="0.4" d="M379.765 369.975V364.585H376.658V359.441H371.363V328.879H370.516V359.441H362.255V364.585H358.583V369.975H354.911V460.376H358.583H379.765H382.307V369.975H379.765Z" fill="#D9D9D9"/>
<path opacity="0.4" d="M428.559 369.282V342.853H421.086V326.897H404.99V342.853H399.242V369.282H394.068V461.532H399.242H404.99H421.086H428.559H434.308V369.282H428.559Z" fill="#D9D9D9"/>
<path opacity="0.4" d="M480.963 388.25V378.038H470.214V350.068H444.623V378.038H439.504V457.955H444.623H460.233H470.214H480.963H506.555V388.25H480.963Z" fill="#D9D9D9"/>
<g opacity="0.4">
<path opacity="0.4" d="M605.928 426.894H45.6074V461.81H605.928V426.894Z" fill="#D9D9D9"/>
<path opacity="0.4" d="M106.793 404.547H81.0308V461.81H106.793V404.547Z" fill="#D9D9D9"/>
<path opacity="0.4" d="M311.277 389.184H294.371V461.81H311.277V389.184Z" fill="#D9D9D9"/>
<path opacity="0.4" d="M340.258 380.804H321.742V461.81H340.258V380.804Z" fill="#D9D9D9"/>
<path opacity="0.4" d="M403.053 404.547H373.266V461.81H403.053V404.547Z" fill="#D9D9D9"/>
<path opacity="0.4" d="M502.075 394.072H423.984V461.81H502.075V394.072Z" fill="#D9D9D9"/>
<path opacity="0.4" d="M502.075 376.614H469.067V461.81H502.075V376.614Z" fill="#D9D9D9"/>
<path opacity="0.4" d="M152.681 389.184H130.944V461.81H152.681V389.184Z" fill="#D9D9D9"/>
<path opacity="0.4" d="M164.756 371.726H141.812V461.81H164.756V371.726Z" fill="#D9D9D9"/>
<path opacity="0.4" d="M275.049 409.436H188.103V461.811H275.049V409.436Z" fill="#D9D9D9"/>
</g>
<g opacity="0.4">
<path opacity="0.4" d="M556.748 454.106C553.112 454.106 549.621 454.479 546.352 455.156C537.744 443.504 518.163 435.366 495.381 435.366C484.97 435.366 475.233 437.071 466.9 440.028C451.166 429.74 428.035 423.239 402.244 423.239C374.407 423.239 349.671 430.812 333.987 442.547C326.814 425.033 303.753 412.215 276.41 412.215C250.423 412.215 228.306 423.795 220.019 439.979C215.018 435.718 207.787 433.039 199.745 433.039C185.851 433.039 174.387 441.031 172.648 451.375C163.364 444.659 148.732 440.326 132.268 440.326C108.325 440.326 88.2528 449.489 82.876 461.824H174.313H181.659H217.541H225.177H318.361H335.279H440.849H486.126H530.989H549.912H582.507C576.479 457.122 567.185 454.106 556.748 454.106Z" fill="#D9D9D9"/>
<path d="M199.644 438.975C194.158 438.975 189.111 440.403 185.093 442.793C180.789 436.226 172.657 431.792 163.326 431.792C149.504 431.792 138.299 441.512 138.299 453.502C138.299 456.452 138.98 459.262 140.209 461.827H176.756H186.443H222.529C223.063 460.318 223.352 458.732 223.352 457.093C223.353 447.086 212.738 438.975 199.644 438.975Z" fill="#D9D9D9"/>
<path d="M42.6785 443.049C47.1826 443.049 51.3262 444.221 54.6242 446.184C58.1577 440.792 64.8343 437.153 72.4955 437.153C83.8435 437.153 93.0426 445.133 93.0426 454.976C93.0426 457.398 92.4833 459.705 91.475 461.81H61.4688H53.5161H23.8881C23.4496 460.571 23.2124 459.269 23.2124 457.924C23.2124 449.709 31.9275 443.049 42.6785 443.049Z" fill="#D9D9D9"/>
<path d="M324.964 437.055C330.912 437.055 336.382 438.603 340.738 441.194C345.403 434.075 354.218 429.27 364.334 429.27C379.318 429.27 391.464 439.806 391.464 452.803C391.464 456.001 390.725 459.048 389.394 461.827H349.775H339.274H300.155C299.576 460.191 299.263 458.471 299.263 456.696C299.262 445.848 310.769 437.055 324.964 437.055Z" fill="#D9D9D9"/>
<path d="M540.079 461.843C541.787 458.526 542.745 454.854 542.745 450.987C542.745 436.269 528.991 424.338 512.023 424.338C495.056 424.338 481.302 436.269 481.302 450.987C481.302 454.854 482.26 458.526 483.968 461.843H540.079Z" fill="#D9D9D9"/>
<path d="M526.532 442.69C526.268 442.293 525.677 442.157 525.22 442.386L514.088 447.975V440.653C514.088 440.195 513.655 439.82 513.127 439.82C512.6 439.82 512.167 440.194 512.167 440.653V452.871L501.233 447.382C500.777 447.153 500.187 447.289 499.922 447.686C499.658 448.082 499.815 448.594 500.272 448.824L512.168 454.796V460.763C512.168 461.221 512.6 461.597 513.128 461.597C513.656 461.597 514.089 461.222 514.089 460.763V449.899L526.183 443.828C526.639 443.598 526.797 443.086 526.532 442.69Z" fill="#D9D9D9"/>
<path d="M177.221 442.92C176.957 442.524 176.366 442.387 175.909 442.616L164.776 448.205V440.884C164.776 440.426 164.344 440.051 163.816 440.051C163.289 440.051 162.856 440.426 162.856 440.884V453.102L151.922 447.613C151.465 447.384 150.875 447.52 150.61 447.917C150.346 448.313 150.503 448.826 150.96 449.055L162.855 455.027V460.994C162.855 461.452 163.287 461.827 163.815 461.827C164.343 461.827 164.776 461.452 164.776 460.994V450.131L176.87 444.059C177.328 443.829 177.485 443.317 177.221 442.92Z" fill="#D9D9D9"/>
<path d="M80.153 449.745C79.9841 449.493 79.6077 449.406 79.3162 449.552L72.2117 453.119V448.447C72.2117 448.154 71.936 447.915 71.599 447.915C71.262 447.915 70.9863 448.154 70.9863 448.447V456.243L64.0086 452.741C63.7171 452.594 63.3399 452.681 63.1718 452.934C63.0029 453.187 63.1036 453.514 63.395 453.661L70.9863 457.471V461.28C70.9863 461.572 71.262 461.811 71.599 461.811C71.936 461.811 72.2117 461.572 72.2117 461.28V454.347L79.9298 450.472C80.2213 450.325 80.322 449.998 80.153 449.745Z" fill="#D9D9D9"/>
<path d="M272.539 456.486V461.836H275.399V451.47L282.616 446.079C283.212 445.634 283.28 444.846 282.766 444.329C282.253 443.812 281.346 443.753 280.749 444.199L275.4 448.195V439.012L282.616 433.622C283.213 433.176 283.281 432.39 282.767 431.872C282.254 431.355 281.346 431.296 280.75 431.742L275.401 435.738V432.063C275.401 431.381 274.757 430.823 273.97 430.823C273.184 430.823 272.54 431.381 272.54 432.063V440.657L267.34 436.773C266.744 436.327 265.837 436.387 265.324 436.903C264.811 437.421 264.878 438.208 265.474 438.653L272.54 443.931V453.212L266.864 448.973C266.268 448.527 265.36 448.586 264.848 449.103C264.335 449.62 264.402 450.407 264.998 450.853L272.539 456.486Z" fill="#D9D9D9"/>
<path d="M238.138 450.246C237.617 449.856 236.822 449.908 236.372 450.361C235.923 450.813 235.982 451.503 236.504 451.892L242.822 456.611V461.836H245.326V461.002L251.929 456.07C252.451 455.681 252.51 454.991 252.061 454.538C251.611 454.086 250.818 454.034 250.296 454.424L245.326 458.136V450.011L251.513 445.39C252.034 445 252.094 444.311 251.645 443.858C251.195 443.406 250.401 443.354 249.879 443.744L245.327 447.144V439.62C245.327 439.023 244.763 438.534 244.074 438.534C243.386 438.534 242.823 439.022 242.823 439.62V442.838L238.139 439.339C237.618 438.95 236.823 439 236.373 439.453C235.924 439.905 235.983 440.595 236.505 440.985L242.823 445.703V453.744L238.138 450.246Z" fill="#D9D9D9"/>
<path d="M408.821 448.012C408.197 447.547 407.249 447.608 406.713 448.148C406.176 448.688 406.247 449.511 406.87 449.976L414.41 455.608V461.843H417.398V460.848L425.278 454.962C425.901 454.497 425.972 453.674 425.436 453.134C424.899 452.594 423.951 452.533 423.329 452.997L417.398 457.427V447.731L424.78 442.217C425.403 441.751 425.473 440.929 424.938 440.389C424.401 439.849 423.453 439.788 422.831 440.253L417.398 444.31V435.332C417.398 434.619 416.726 434.036 415.904 434.036C415.082 434.036 414.41 434.618 414.41 435.332V439.172L408.821 434.997C408.197 434.532 407.249 434.593 406.713 435.133C406.176 435.673 406.247 436.496 406.87 436.961L414.41 442.592V452.187L408.821 448.012Z" fill="#D9D9D9"/>
<path d="M457.613 451.023C458.1 450.659 458.842 450.707 459.261 451.13C459.68 451.553 459.625 452.196 459.138 452.56L453.24 456.966V461.844H450.902V461.065L444.738 456.461C444.251 456.097 444.195 455.453 444.615 455.031C445.034 454.609 445.777 454.56 446.263 454.925L450.903 458.39V450.805L445.128 446.491C444.641 446.127 444.585 445.484 445.005 445.062C445.424 444.639 446.166 444.591 446.653 444.955L450.902 448.13V441.106C450.902 440.548 451.428 440.092 452.071 440.092C452.713 440.092 453.239 440.548 453.239 441.106V444.11L457.612 440.844C458.1 440.48 458.841 440.528 459.26 440.951C459.679 441.374 459.624 442.017 459.137 442.381L453.239 446.786V454.289L457.613 451.023Z" fill="#D9D9D9"/>
<path d="M197.413 455.375C197.121 455.158 196.678 455.186 196.427 455.439C196.177 455.692 196.209 456.076 196.501 456.294L200.026 458.928V461.843H201.423V461.379L205.108 458.626C205.4 458.409 205.432 458.024 205.182 457.772C204.931 457.519 204.488 457.491 204.196 457.708L201.423 459.78V455.246L204.875 452.667C205.167 452.45 205.2 452.065 204.949 451.812C204.698 451.559 204.255 451.531 203.963 451.748L201.423 453.646V449.447C201.423 449.114 201.109 448.84 200.725 448.84C200.34 448.84 200.026 449.114 200.026 449.447V451.242L197.413 449.29C197.121 449.072 196.678 449.101 196.427 449.354C196.177 449.607 196.209 449.991 196.501 450.209L200.026 452.843V457.33L197.413 455.375Z" fill="#D9D9D9"/>
<path d="M37.6689 455.36C37.3775 455.143 36.9346 455.171 36.6834 455.424C36.4322 455.676 36.4654 456.061 36.7569 456.279L40.2825 458.912V461.828H41.6794V461.363L45.3643 458.61C45.6558 458.393 45.6882 458.008 45.4379 457.756C45.1866 457.503 44.7438 457.475 44.4523 457.692L41.6794 459.764V455.23L45.1315 452.652C45.423 452.434 45.4562 452.049 45.205 451.796C44.9547 451.543 44.5109 451.515 44.2195 451.732L41.6794 453.63V449.431C41.6794 449.098 41.3652 448.826 40.981 448.826C40.5967 448.826 40.2825 449.099 40.2825 449.431V451.227L37.6689 449.274C37.3775 449.057 36.9346 449.085 36.6834 449.338C36.4322 449.591 36.4654 449.975 36.7569 450.193L40.2825 452.827V457.313L37.6689 455.36Z" fill="#D9D9D9"/>
<path d="M360.672 455.375C360.38 455.158 359.937 455.186 359.686 455.439C359.435 455.692 359.468 456.076 359.76 456.294L363.285 458.928V461.843H364.683V461.379L368.368 458.626C368.66 458.409 368.692 458.024 368.442 457.772C368.191 457.519 367.748 457.491 367.456 457.708L364.683 459.78V455.246L368.135 452.667C368.427 452.45 368.459 452.065 368.209 451.812C367.958 451.559 367.515 451.531 367.223 451.748L364.683 453.646V449.447C364.683 449.114 364.369 448.84 363.985 448.84C363.601 448.84 363.286 449.114 363.286 449.447V451.242L360.673 449.29C360.381 449.072 359.938 449.101 359.687 449.354C359.436 449.607 359.469 449.991 359.761 450.209L363.286 452.843V457.33L360.672 455.375Z" fill="#D9D9D9"/>
<path d="M360.672 444.067C360.38 443.849 359.937 443.877 359.686 444.13C359.435 444.383 359.468 444.768 359.76 444.986L363.285 447.618V450.534H364.683V450.068L368.368 447.316C368.66 447.099 368.692 446.713 368.442 446.461C368.191 446.208 367.748 446.179 367.456 446.397L364.683 448.469V443.935L368.135 441.357C368.427 441.139 368.459 440.755 368.209 440.502C367.958 440.249 367.515 440.221 367.223 440.438L364.683 442.335V438.137C364.683 437.803 364.369 437.531 363.985 437.531C363.601 437.531 363.286 437.804 363.286 438.137V439.932L360.673 437.98C360.381 437.762 359.938 437.791 359.687 438.044C359.436 438.297 359.469 438.681 359.761 438.899L363.286 441.533V446.019L360.672 444.067Z" fill="#D9D9D9"/>
<path d="M323.84 459.343V461.597H325.437L328.689 459.168C328.981 458.951 329.014 458.566 328.763 458.313C328.511 458.06 328.069 458.032 327.777 458.249L325.237 460.147V455.948C325.237 455.614 324.923 455.342 324.539 455.342C324.154 455.342 323.84 455.615 323.84 455.948V457.743L321.227 455.791C320.935 455.574 320.492 455.602 320.241 455.855C319.99 456.108 320.023 456.492 320.314 456.709L323.84 459.343Z" fill="#D9D9D9"/>
<path d="M321.227 450.568C320.935 450.35 320.492 450.379 320.241 450.632C319.99 450.885 320.023 451.269 320.314 451.487L323.84 454.121V457.036H325.237V456.571L328.922 453.819C329.213 453.602 329.246 453.217 328.995 452.964C328.744 452.711 328.301 452.683 328.01 452.9L325.237 454.972V450.438L328.689 447.859C328.981 447.642 329.014 447.257 328.763 447.004C328.512 446.751 328.069 446.723 327.777 446.94L325.237 448.838V444.639C325.237 444.305 324.923 444.033 324.539 444.033C324.154 444.033 323.84 444.305 323.84 444.639V446.434L321.227 444.482C320.935 444.265 320.492 444.293 320.241 444.546C319.99 444.799 320.023 445.183 320.314 445.401L323.84 448.034V452.521L321.227 450.568Z" fill="#D9D9D9"/>
</g>
<path opacity="0.4" d="M348.534 319.667H343.245V380.171H348.534V319.667Z" fill="#D9D9D9"/>
<path opacity="0.4" d="M376.558 359.441H373.266V401.257H376.558V359.441Z" fill="#D9D9D9"/>
<path opacity="0.4" d="M420.87 326.897H416.075V370.542H420.87V326.897Z" fill="#D9D9D9"/>
<path opacity="0.4" d="M428.366 342.881H420.871V393.997H428.366V342.881Z" fill="#D9D9D9"/>
<path opacity="0.4" d="M452.309 350.068H444.624V372.985H452.309V350.068Z" fill="#D9D9D9"/>
<path opacity="0.4" d="M340.259 380.804H334.891V409.436H340.259V380.804Z" fill="#D9D9D9"/>
<path opacity="0.4" d="M403.054 404.546H397.272V415.804H403.054V404.546Z" fill="#D9D9D9"/>
<path opacity="0.4" d="M428.365 342.753H421.163V369.13H428.365V342.753Z" fill="#D9D9D9"/>
</g>
<path opacity="0.4" d="M424.286 667.072C401.597 667.15 401.168 666.864 398.366 667.853L397.992 667.118L385.312 667.094C385.312 667.094 382.797 669.568 384.228 670.776L380.534 670.571C380.534 670.571 326.538 694.426 323.391 695.518C320.831 696.406 268.285 712.183 268.285 712.183C267.388 709.599 253.731 695.618 253.731 695.618L225.927 671.124H225.107C225.789 670.752 226.95 670.394 228.025 670.036C229.875 669.421 232.969 668.838 234.383 668.189C234.725 668.032 235.017 667.863 234.847 667.698C234.61 667.467 233.489 667.287 232.236 667.199C230.983 667.111 229.6 667.099 228.248 667.091C220.949 667.046 213.635 667.073 206.352 667.17C205.871 667.177 205.377 667.183 204.938 667.218C204.162 667.279 203.68 667.416 203.338 667.551C202.135 668.026 203.271 668.527 203.86 669.035C204.359 669.465 204.985 670.503 205.619 671.123H202.808C201.792 682.292 207.906 689.694 212.515 693.618H159.911C159.911 693.618 179.197 705.669 175.727 721.395L158.661 721.085L165.686 725.014C167.6 725.231 169.41 725.453 171.137 725.682L129.88 738.353C122.091 737.968 115.034 737.624 108.781 737.322C89.5063 736.386 72 737.295 72 740.675C72 743.863 87.3053 744.587 107.326 745.266L107.274 745.295C107.274 745.295 117.136 746.335 139.862 747.966L139.885 747.968C144.191 748.278 148.963 748.608 154.212 748.956C155.305 749.278 156.588 749.583 158.059 749.871V750.615L159.034 750.582C158.791 751.433 157.991 752.335 155.858 753.197C155.888 752.794 153.256 752.957 146.17 753.428C140.642 753.795 136.975 754.211 134.537 754.596H134.535C134.535 754.596 134.517 754.599 134.484 754.604C132.024 754.995 130.831 755.353 130.259 755.597C126.811 756.662 123.979 758.461 133.769 760.42C151.309 763.932 160.679 764.58 160.679 764.58C160.679 764.58 169.705 763.315 166.039 761.659L165.951 761.661C168.502 761.492 171.329 761.191 174.289 760.669C176.241 760.324 178.164 759.914 180.008 759.473C181.405 759.689 182.265 759.82 182.265 759.82C196.25 759.867 199.968 755.23 194.05 754.557C190.91 754.2 188.623 753.96 186.951 753.798C187.066 753.748 187.183 753.699 187.299 753.65C187.939 753.385 189.097 752.92 190.638 752.367C191.157 752.357 191.661 752.336 192.171 752.319L192.443 752.399L192.94 752.296C195.407 752.201 197.787 752.044 200.053 751.811C200.353 751.78 200.639 751.744 200.932 751.711C201.689 751.748 202.455 751.784 203.226 751.82C214.303 752.352 225.73 752.814 237.166 753.151C237.5 753.163 237.687 753.168 237.687 753.168C237.687 753.168 237.728 753.169 237.789 753.17C238.116 753.18 238.445 753.191 238.772 753.2L297.769 754.159C299.298 754.183 311.227 754.497 324.348 754.845L361.336 755.836C361.367 755.837 361.385 755.837 361.385 755.837L364.954 755.974L367.9 756.123L368.604 755.789C369.167 756.209 370.228 756.48 370.228 756.48C375.429 757.469 376.528 758.32 376.528 758.32L377.569 760.563C382.559 760.63 382.708 759.665 382.708 759.665L382.718 757.99C382.982 757.9 383.218 757.812 383.438 757.724C386.415 757.878 388.701 757.887 390.496 757.733C390.653 757.922 391.342 758.089 392.372 758.154L398.117 758.514C399.583 758.605 401.184 758.455 401.672 758.18C402.161 757.904 401.361 757.604 399.897 757.513C401.355 757.601 402.935 757.451 403.421 757.178C403.904 756.905 403.123 756.609 401.684 756.514C403.146 756.603 404.736 756.453 405.223 756.179C405.712 755.903 404.912 755.603 403.445 755.512L397.699 755.152C397.435 755.136 397.168 755.13 396.903 755.128C396.914 755.111 396.927 755.095 396.935 755.078C397.152 755.106 397.387 755.132 397.651 755.149L403.397 755.508C404.863 755.6 406.463 755.449 406.952 755.174C407.44 754.899 406.64 754.599 405.173 754.507L399.428 754.148C398.255 754.074 397.008 754.157 396.301 754.333C395.263 753.976 392.936 753.698 388.519 753.459L382.54 753.136C379.419 752.967 376.233 753.065 373.734 753.354L374.992 752.758L369.44 752.409C369.44 752.409 369.064 752.383 368.388 752.339C369.571 751.211 369.807 750.364 368.835 750.319C307.636 747.284 264.531 745.127 264.531 745.127C294.68 735.688 383.132 699.352 383.132 699.352L361.625 697.882L405.651 671.965L395.767 671.417L402.036 671.754C402.036 671.754 417.666 668.517 438.701 668.496C438.706 668.495 446.977 666.995 424.286 667.072ZM395.884 756.149C395.795 756.143 395.704 756.141 395.614 756.137L395.63 756.127C395.714 756.134 395.795 756.143 395.884 756.149ZM394.122 757.151C393.977 757.142 393.829 757.136 393.682 757.132C393.697 757.127 393.712 757.122 393.728 757.117C393.855 757.13 393.982 757.142 394.122 757.151ZM196.754 751.498C196.845 751.503 196.938 751.508 197.03 751.513C196.834 751.531 196.637 751.547 196.439 751.564L196.754 751.498Z" fill="#D9D9D9"/>
<path d="M181.997 530.74L366.551 506.207L257.113 405.775L181.997 530.74Z" fill="white" stroke="#161A1D" stroke-width="1.5"/>
<path d="M165.516 167.69L158.909 166.984L161.158 154.366C161.259 154.461 161.366 154.562 161.478 154.672C162.239 155.413 163.212 156.487 164.072 157.82C165.72 160.373 166.914 163.803 165.516 167.69Z" fill="white" stroke="#161A1D" stroke-width="1.5"/>
<path d="M362.93 214.716C364.925 222.827 367.517 229.162 368.718 228.867C369.919 228.572 369.275 221.756 367.28 213.646C365.285 205.535 362.693 199.199 361.492 199.495C360.291 199.79 360.934 206.606 362.93 214.716Z" fill="white" stroke="#161A1D" stroke-width="1.5"/>
<path d="M200.08 224.868C200.08 224.868 255.697 311.377 274.517 360.686L280.852 358.86C280.852 358.86 247.411 273.779 200.08 224.868Z" fill="#F0F0F0"/>
<path d="M224.534 646.074C224.006 649.737 226.117 653.018 227.966 656.294C229.815 659.571 232.908 662.674 234.321 666.13C234.663 666.966 234.954 667.861 234.785 668.741C234.548 669.97 233.428 670.93 232.175 671.398C230.922 671.867 229.54 671.93 228.189 671.973C220.892 672.208 213.582 672.066 206.303 671.55C205.822 671.516 205.328 671.478 204.89 671.293C204.114 670.966 203.633 670.241 203.29 669.52C202.088 666.992 203.223 664.327 203.812 661.62C204.401 658.912 205.168 651.654 205.916 648.933C206.394 647.198 205.432 649.572 206.191 647.925C206.288 647.714 208.061 648.198 208.266 648.068C208.512 647.914 208.835 647.93 209.132 647.946C210.821 648.038 212.522 647.936 214.184 647.643C218.053 646.961 220.609 645.754 224.534 646.074Z" fill="#161A1D"/>
<path d="M401.904 647.149C401.904 647.149 417.527 664.38 438.552 664.495C438.552 664.495 446.821 672.483 424.141 672.069C401.461 671.652 401.032 673.175 398.232 667.912L397.858 671.825L385.184 671.956C385.184 671.956 382.637 658.625 384.121 652.237L401.904 647.149Z" fill="#161A1D"/>
<path d="M294.602 352.079L210.451 375.948C210.451 375.948 201.439 422.787 217.277 512.784C217.277 512.784 201.159 556.744 202.758 650.502H225.868L253.66 520.093C253.66 520.093 267.311 445.66 268.208 431.902C268.208 431.902 320.73 515.894 323.29 520.623C326.436 526.436 380.408 653.441 380.408 653.441L405.516 646.021L358.851 499.705C358.851 499.705 339.205 428.661 294.602 352.079Z" fill="white" stroke="#161A1D" stroke-width="1.5"/>
<path d="M158.022 234.777C158.022 234.777 214.27 334.492 226.788 417.039C238.286 492.867 232.85 530.74 232.85 530.74H159.873C159.873 530.74 181.801 457.762 174.676 365.89L107.259 255.611C107.259 255.611 122.289 247.173 158.022 234.777Z" fill="white" stroke="#161A1D" stroke-width="1.5"/>
<path d="M368.397 204.015L369.277 207.076C370.819 212.444 376.733 215.499 382.417 213.865L388.392 212.147C397.648 209.486 397.788 205.907 395.922 199.417L395.043 196.356C392.955 189.093 389.443 187.401 381.995 189.833L376.354 191.162C370.953 193.52 367.105 199.518 368.397 204.015Z" fill="white" stroke="#161A1D" stroke-width="1.5"/>
<path d="M382.594 188.021L382.584 179.107C382.584 179.107 382.435 173.972 377.447 174.327L376.407 186.268C376.407 186.268 375.307 190.797 370.108 196.065C370.108 196.065 365.424 202.41 370.514 209.175L373.151 212.066C373.151 212.066 391.882 204.899 382.594 188.021Z" fill="white" stroke="#161A1D" stroke-width="1.5"/>
<path d="M364.836 198.757L367.781 197.962L374.872 215.88L368.267 218.094L361.269 199.486L364.836 198.757Z" fill="white" stroke="#161A1D" stroke-width="1.5"/>
<path d="M186.867 245.567C186.867 245.567 229.605 325.184 165.654 363.585L158.631 384.503L180.224 382.412C180.224 382.412 233.948 333.021 192.4 243.06L186.867 245.567Z" fill="#70E000" stroke="#161A1D" stroke-width="1.5"/>
<path d="M332.534 58.8142C347.11 67.7636 376.706 91.8692 404.776 150.796C404.97 151.201 404.952 151.675 404.722 152.062C401.343 157.76 377.022 202.743 427.887 238.87C428.196 239.09 428.401 239.424 428.444 239.801C429.173 246.078 434.814 301.386 413.38 348.546C412.699 350.045 410.437 349.213 410.869 347.625C416.188 328.029 421.918 291.589 410.252 245.396C410.182 245.119 410.027 244.872 409.808 244.688C405.877 241.406 368.871 208.705 386.21 154.593C386.284 154.359 386.295 154.114 386.237 153.875C385.084 149.204 372.234 100.25 330.91 60.9275C329.741 59.8143 331.159 57.9699 332.534 58.8142Z" fill="white" stroke="#161A1D" stroke-width="1.5"/>
<path d="M392.214 196.038C391.725 194.572 392.525 192.973 393.991 192.485L399.734 190.572C401.2 190.083 402.799 190.883 403.288 192.349C403.777 193.816 402.977 195.415 401.51 195.903L395.768 197.817C394.302 198.304 392.703 197.504 392.214 196.038Z" fill="white" stroke="#161A1D" stroke-width="1.5"/>
<path d="M394.016 201.355C393.527 199.889 394.327 198.289 395.794 197.801L401.536 195.887C403.002 195.399 404.601 196.199 405.09 197.665C405.579 199.131 404.779 200.73 403.313 201.219L397.57 203.132C396.104 203.621 394.505 202.821 394.016 201.355Z" fill="white" stroke="#161A1D" stroke-width="1.5"/>
<path d="M395.744 206.704C395.255 205.238 396.055 203.639 397.521 203.15L403.264 201.237C404.73 200.748 406.329 201.548 406.818 203.014C407.306 204.48 406.506 206.079 405.04 206.568L399.298 208.481C397.831 208.969 396.232 208.17 395.744 206.704Z" fill="white" stroke="#161A1D" stroke-width="1.5"/>
<path d="M390.466 190.702C389.978 189.236 390.778 187.637 392.244 187.148L397.986 185.235C399.452 184.746 401.052 185.546 401.54 187.013C402.029 188.479 401.229 190.078 399.763 190.566L394.02 192.48C392.554 192.967 390.955 192.168 390.466 190.702Z" fill="white" stroke="#161A1D" stroke-width="1.5"/>
<path d="M184.629 444.826L216.612 433.825L213.356 471.517L206.98 476.592C200.03 482.123 190.712 483.664 182.351 480.665L180.195 479.892L184.629 444.826Z" fill="#70E000" stroke="#161A1D" stroke-width="1.5"/>
<path d="M185.057 261.778C185.42 270.122 186.716 276.843 187.952 276.79C189.188 276.736 189.895 269.927 189.532 261.582C189.169 253.238 187.873 246.517 186.637 246.571C185.402 246.625 184.693 253.433 185.057 261.778Z" fill="white" stroke="#161A1D" stroke-width="1.5"/>
<path d="M197.559 222.344C197.559 222.344 250.43 250.345 340.755 515.598L383.008 500.216C383.008 500.216 294.595 306.76 264.46 256.507C264.46 256.507 307.545 245.023 368.718 228.867L361.27 199.485C361.27 199.485 301.238 208.118 297.681 208.425C294.123 208.733 237.625 213.695 237.625 213.695C237.625 213.695 214.224 217.745 197.559 222.344Z" fill="white" stroke="#161A1D" stroke-width="1.5"/>
<path d="M157.203 236.859L139.013 243.475L169.877 278.873L162.061 292.597L195.426 330.223L196.367 327.331C196.367 327.331 197.733 323.623 197.738 322.736C197.76 319.389 171.389 260.543 157.203 236.859Z" fill="#F0F0F0"/>
<path d="M197.559 222.344C197.559 222.344 237.818 266.426 263.511 321.732L246.083 258.745L227.971 252.19L223.948 236.878L218.346 217.421L197.559 222.344Z" fill="white" stroke="#161A1D" stroke-width="1.5"/>
<path d="M412.962 338.453L217.106 236.497L215.628 236.007L336.151 66.1184L336.638 66.6222L217.687 235.484L413.112 337.825L412.962 338.453Z" fill="#161A1D"/>
<path d="M337.721 411.502L310.491 415.36L322.349 446.56L329.141 449.142C336.544 451.957 344.992 450.538 351.472 445.392L353.143 444.064L337.721 411.502Z" fill="#70E000" stroke="#161A1D" stroke-width="1.5"/>
<path d="M427.936 175.825L224.314 236.343L224.7 237.639L428.321 177.121L427.936 175.825Z" fill="#161A1D"/>
<path d="M416.362 168.03L427.939 176.728L423.7 190.126L451.19 169.818L416.362 168.03Z" fill="#70E000" stroke="#161A1D" stroke-width="1.5"/>
<path d="M209.121 236.011L217.441 239.047L212.34 246.842L230.523 241.438L236.304 233.964L227.031 230.688L209.121 236.011Z" fill="#70E000" stroke="#161A1D" stroke-width="1.5"/>
<path d="M228.391 273.721C227.656 273.616 226.932 273.625 226.231 273.723C225.785 270.117 220.628 232.267 199.997 220.926C191.868 216.456 182.408 216.764 171.881 221.842C160.579 227.293 153.688 235.012 151.401 244.786C147.14 263.018 160.017 282.538 163.555 287.456C159.066 292.427 165.313 304.28 166.034 305.605L166.032 305.606L166.082 305.714C170.451 315.31 178.465 331.252 183.048 330.219L183.046 330.207C183.243 330.346 183.472 330.448 183.728 330.485C184.588 330.608 185.385 330.011 185.508 329.149C185.631 328.289 185.033 327.492 184.173 327.369C183.427 327.262 182.731 327.699 182.478 328.378C180.497 328.361 174.796 320.319 167.791 304.935L167.728 304.797L167.733 304.795C165.706 301.146 161.37 291.045 165.582 288.155C166.706 287.383 167.881 287.181 169.173 287.536C172.983 288.584 176.892 294.299 178.531 297.771L178.519 297.777L178.58 297.885C185.992 310.843 190.433 321.747 189.108 323.65C188.403 323.45 187.632 323.767 187.282 324.443C186.884 325.216 187.186 326.165 187.958 326.563C188.731 326.962 189.68 326.66 190.078 325.887C190.197 325.658 190.247 325.412 190.247 325.171L190.254 325.179C190.682 324.795 190.935 324.223 191.038 323.495C191.781 318.289 184.913 305.19 180.296 297.107C178.729 293.732 174.517 287.059 169.669 285.726C168.036 285.277 166.482 285.468 165.038 286.286C161.617 281.441 149.228 262.348 153.229 245.209C155.381 236.017 161.931 228.725 172.695 223.533C182.642 218.736 191.522 218.411 199.089 222.571C219.45 233.761 224.344 273.765 224.392 274.167L224.573 274.146C222.041 275.11 220.096 277.38 219.687 280.25C219.086 284.456 222.008 288.353 226.214 288.953C230.42 289.553 234.316 286.63 234.917 282.424C235.519 278.217 232.596 274.321 228.391 273.721Z" fill="#161A1D"/>
<path d="M225.2 274.377L223.335 274.594C223.287 274.192 218.392 234.188 198.031 222.998C190.465 218.839 181.584 219.164 171.637 223.961C160.873 229.153 154.324 236.444 152.171 245.636C147.569 265.352 164.66 287.663 164.834 287.886L163.352 289.04C162.622 288.102 145.524 265.827 150.341 245.214C152.628 235.441 159.518 227.721 170.82 222.269C181.347 217.192 190.807 216.883 198.938 221.353C220.148 233.013 225.004 272.694 225.2 274.377Z" fill="#161A1D"/>
<path d="M227.332 274.148C231.538 274.748 234.461 278.645 233.861 282.85C233.261 287.056 229.364 289.979 225.158 289.379C220.953 288.779 218.03 284.883 218.63 280.677C219.23 276.471 223.126 273.548 227.332 274.148Z" fill="white" stroke="#161A1D" stroke-width="1.5"/>
<path d="M226.756 278.177C228.737 278.46 230.113 280.295 229.831 282.275C229.548 284.256 227.713 285.632 225.733 285.35C223.752 285.067 222.376 283.232 222.658 281.252C222.941 279.271 224.776 277.895 226.756 278.177Z" fill="white" stroke="#161A1D" stroke-width="1.5"/>
<path d="M179.254 297.569L177.549 298.357C175.953 294.903 171.98 289.028 168.113 287.964C166.821 287.61 165.646 287.812 164.522 288.583C160.31 291.473 164.646 301.574 166.673 305.223L165.031 306.135C164.7 305.539 156.987 291.476 163.459 287.034C165.046 285.945 166.779 285.649 168.611 286.152C173.475 287.491 177.7 294.205 179.254 297.569Z" fill="#161A1D"/>
<path d="M181.99 330.648C177.407 331.68 169.393 315.738 165.024 306.143L164.974 306.034L166.666 305.22L166.732 305.364C173.92 321.149 179.745 329.228 181.577 328.816L181.99 330.648Z" fill="#161A1D"/>
<path d="M183.114 327.798C183.975 327.921 184.573 328.718 184.45 329.579C184.328 330.439 183.53 331.037 182.67 330.915C181.81 330.792 181.211 329.995 181.335 329.134C181.458 328.273 182.254 327.675 183.114 327.798Z" fill="#B6BBBB"/>
<path d="M189.98 323.922C189.876 324.65 189.624 325.222 189.196 325.606L187.941 324.208C189.596 322.724 185.118 311.594 177.521 298.313L177.46 298.205L179.104 297.299L179.152 297.381C183.768 305.451 190.726 318.684 189.98 323.922Z" fill="#161A1D"/>
<path d="M186.223 324.871C185.824 325.644 186.128 326.593 186.9 326.991C187.672 327.389 188.621 327.086 189.019 326.315C189.419 325.542 189.115 324.593 188.343 324.195C187.571 323.796 186.622 324.098 186.223 324.871Z" fill="#B6BBBB"/>
<path d="M187.606 234.936C189.426 233.387 191.099 231.771 192.661 229.961C193.501 228.986 194.687 228.108 195.662 227.174C195.711 227.092 195.754 227.004 195.804 226.923C190.513 218.841 186.688 209.864 186.688 209.864L194.896 204.484C194.896 204.484 184.974 183.864 174.246 173.772C163.701 163.853 154.704 168.616 154.704 168.616C132.452 179.2 138.171 197.417 138.171 197.417C160.075 207.078 159.42 225 158.94 236.901C163.367 239.104 168.754 240.119 173.21 242.295L177.175 243.492C180.025 240.233 184.308 237.743 187.606 234.936Z" fill="white" stroke="#161A1D" stroke-width="1.5"/>
<path d="M134.509 206.103C134.509 206.103 118.19 191.675 133.745 175.092C151.276 156.399 160.642 152.945 160.642 152.945C160.642 152.945 165.842 163.508 158.133 169.946C150.422 176.387 139.001 187.787 143.208 195.793L134.509 206.103Z" fill="#161A1D"/>
<path d="M129.711 199.074C129.711 199.074 130.388 206.748 146.138 212.32C158.324 216.63 157.349 216.108 152.273 203.706C142.367 179.505 127.712 191.484 129.711 199.074Z" fill="#161A1D"/>
<path d="M176.822 204.926C176.822 204.926 154.431 202.029 152.197 200.512C149.963 198.995 147.677 195.596 149.753 193.732C151.616 192.059 169.95 189.379 169.95 189.379" fill="white"/>
<path d="M176.822 204.926C176.822 204.926 154.431 202.029 152.197 200.512C149.963 198.995 147.677 195.596 149.753 193.732C151.616 192.059 169.95 189.379 169.95 189.379" stroke="#161A1D" stroke-width="1.5"/>
<path d="M182.226 178.285C182.226 178.285 175.737 183.57 169.227 189.131C169.227 189.131 175.652 197.929 173.966 204.413L182.461 212.083C182.461 212.083 183.395 212.729 194.004 206.305C199.921 202.724 196.204 178.039 182.226 178.285Z" fill="white" stroke="#161A1D" stroke-width="1.5"/>
<path d="M181.81 241.434L186.894 246.197L192.781 243.377L191.671 236.895L183.782 232.932L181.81 241.434Z" fill="#70E000" stroke="#161A1D" stroke-width="1.5"/>
<path d="M158.029 227.29V236.504L181.892 246.828L183.936 233.141L196.134 241.359L197.559 223.529L192.399 217.789L183.365 231.908L158.029 227.29Z" fill="white" stroke="#161A1D" stroke-width="1.5"/>
<path d="M186.403 246.546C186.403 246.546 134.975 250.859 112.485 254.842C89.9945 258.825 72.0005 261.798 72.0005 280.208C72.0005 298.208 89.4992 303.046 108.766 298.065C128.033 293.085 154.83 286.114 187.689 276.791L186.403 246.546Z" fill="white" stroke="#161A1D" stroke-width="1.5"/>
<path d="M227.648 248.793C227.648 248.793 228.69 248.054 228.709 245.968C228.73 243.786 227.2 242.947 227.2 242.947C228.705 240.077 225.864 238.215 225.333 238.112C224.803 238.008 213.718 232.932 213.718 232.932C213.223 233.776 193.974 245.951 193.974 245.951L190.875 248.953L191.085 263.99L199.332 261.091C207.036 263.379 220.091 256.69 220.091 256.69L221.091 257.474C222.048 259.878 223.045 261.064 223.045 261.064L225.631 259.853C225.631 259.853 226.596 259.285 227.376 257.169C228.2 254.933 227.257 254.673 227.257 254.673C227.257 254.673 228.78 254.316 228.968 251.661C229.162 248.914 227.648 248.793 227.648 248.793Z" fill="white" stroke="#161A1D" stroke-width="1.5"/>
<path d="M213.718 232.932C213.718 232.932 221.535 236.143 220.09 256.69C220.09 256.69 208.518 263.371 200.191 261.274C200.191 261.274 189.34 257.51 193.559 246.933L213.718 232.932Z" fill="white" stroke="#161A1D" stroke-width="1.5"/>
<path d="M186.411 246.547L192.313 246.098L193.433 265.598L187.351 268.704L186.411 246.547Z" fill="white" stroke="#161A1D" stroke-width="1.5"/>
<path d="M309.02 513.854L318.441 512.601L268.21 431.901C267.945 441.578 253.417 521.245 253.417 521.245L256.626 520.819" stroke="#161A1D" stroke-width="1.5"/>
</g>
<defs>
<clipPath id="clip0_151_2463">
<rect width="526" height="773" fill="white"/>
</clipPath>
</defs>
</svg>
