<svg width="816" height="732" viewBox="0 0 816 732" fill="none" xmlns="http://www.w3.org/2000/svg">
<ellipse opacity="0.4" cx="153.686" cy="590.276" rx="45.1986" ry="10.7347" fill="#D9D9D9"/>
<path d="M107.949 502.923C124.053 508.855 161.726 517.161 183.593 502.923M107.949 502.923C109.907 508.855 112.981 518.589 115.352 527.078M107.949 502.923C105.051 495.731 113.076 493.347 125.43 493.525M141.639 559.179C146.737 559.068 152.57 558.802 158.166 557.87M141.639 559.179L139.097 583.016M141.639 559.179C138.134 559.255 135.012 558.765 132.288 557.87M183.593 502.923C183.911 511.08 183.783 530.383 180.732 542.333C179.214 548.282 175.024 552.113 169.608 554.591M183.593 502.923C177.688 501.43 170.618 499.811 163.198 498.345M115.352 527.078C117.215 533.747 118.643 539.648 118.755 542.333C118.997 548.133 123.647 555.034 132.288 557.87M115.352 527.078C124.432 530.256 146.407 535.659 161.662 531.845M169.608 554.591L198.849 591.279M169.608 554.591C166.166 556.166 162.228 557.194 158.166 557.87M158.166 557.87L173.104 604.946M132.288 557.87L107.949 606.853M163.198 498.345C165.123 475.927 177.555 425.529 196.624 407.222M163.198 498.345C159.04 497.523 154.773 496.749 150.538 496.071M150.538 496.071C149.267 452.27 149.013 361.806 158.166 350.364M150.538 496.071C146.66 495.45 142.809 494.91 139.097 494.489M139.097 494.489C134.117 470.708 117.133 418.185 93.2326 399.878M139.097 494.489C134.219 493.935 129.58 493.586 125.43 493.525M125.43 493.525C116.107 482.461 92.5025 460.079 72.6699 459.062" stroke="#161A1D" stroke-width="1.5"/>
<path d="M183.593 502.922C161.726 517.161 124.053 508.855 107.949 502.922C105.052 495.731 113.076 493.346 125.43 493.525C129.58 493.586 134.219 493.935 139.097 494.489C142.809 494.91 146.66 495.45 150.539 496.071C154.773 496.749 159.04 497.523 163.198 498.345C170.619 499.811 177.689 501.43 183.593 502.922Z" fill="#161A1D"/>
<path d="M175.965 405.666C163.888 425.901 145.199 467.77 167.066 473.364C186.563 478.352 190.051 437.574 209.02 415.282M175.965 405.666C177.555 404.077 184.865 379.922 219.508 384.689C254.152 389.457 264.322 476.705 209.02 415.282M175.965 405.666C189.95 403.886 201.254 406.657 209.02 415.282" stroke="#161A1D" stroke-width="1.5"/>
<path d="M136.148 356.474C123.181 422.582 138.161 442.923 147.272 444.83C171.427 447.055 151.722 388.892 171.427 360.605C191.133 332.318 152.358 273.838 136.148 356.474Z" stroke="#161A1D" stroke-width="1.5"/>
<path d="M107.984 397.403C138.281 426.456 136.875 455.856 132.105 467.326C119.392 471.394 92.9036 431.94 81.2486 411.705M107.984 397.403C106.657 396.13 105.269 394.859 103.818 393.589C60.5932 355.767 34.2133 422.512 57.4149 428.55C69.9187 431.805 74.6883 421.397 81.2486 411.705M107.984 397.403C93.7847 395.644 86.8613 403.413 81.2486 411.705" stroke="#161A1D" stroke-width="1.5"/>
<path d="M76.3789 445.527C115.057 449.32 119.996 474.599 117.379 487.385C113.247 491.834 103.394 494.377 90.9991 480.71C81.0828 469.777 63.3478 465.055 55.7199 464.061M76.3789 445.527C74.3537 445.329 72.2361 445.189 70.0222 445.113C20.6204 443.419 8.57804 500.55 55.7199 464.061M76.3789 445.527C68.5257 453.391 61.6539 459.468 55.7199 464.061" stroke="#161A1D" stroke-width="1.5"/>
<path fill-rule="evenodd" clip-rule="evenodd" d="M625.59 383.32C621.991 394.096 618.136 401.666 613.138 411.719L612.195 432.582L622.194 448.808L635.942 451.562C636.758 442.639 630.65 441.231 628.445 433.53C627.396 429.865 627.773 424.979 629.646 418.238L632.749 425.337C633.47 430.805 632.026 438.012 637 439.827C640.615 429.007 642.527 417.789 643.133 410.679C643.686 404.181 643.229 397.359 642.209 386.798L625.59 383.32Z" fill="white" stroke="#161A1D" stroke-width="1.5"/>
<path fill-rule="evenodd" clip-rule="evenodd" d="M677.254 155.732C662.356 162.449 648.659 164.242 641.066 179.161C634.518 192.027 629.768 226.849 627.567 263.705C625.205 303.279 624.385 351.142 621.611 390.71C627.014 394.839 641.329 394.851 645.751 393.028C653.807 328.354 659.247 277.454 661.557 212.213L669.093 164.4L677.254 155.732Z" fill="white" stroke="#161A1D" stroke-width="1.5"/>
<path fill-rule="evenodd" clip-rule="evenodd" d="M622.606 376.096C622.283 380.964 621.953 385.836 621.612 390.71C627.015 394.839 641.33 394.851 645.751 393.028C655.419 315.418 656.941 236.949 671.283 160.12C660.745 168.977 652.882 173.455 647.869 183.711C637.181 205.59 635.565 225.795 635.896 251.762C636.235 278.32 632.652 359.118 622.606 376.096Z" fill="#F0F0F0"/>
<path d="M755.716 677.928L758.064 391.366C758.388 351.605 753.112 322.598 723.348 277.254L666.018 308.22C668.401 333.841 659.298 347.032 660.935 367.733L721.93 681.032" stroke="#161A1D" stroke-width="1.5"/>
<path fill-rule="evenodd" clip-rule="evenodd" d="M722.348 277.254C752.112 322.598 757.388 351.605 757.064 391.366L754.716 677.928C738.595 621.495 731.354 478.7 728.691 450.8C705.332 443.662 685.056 433.543 669.892 418.878L659.935 367.732C658.298 347.033 667.401 333.841 665.018 308.22L722.348 277.254Z" fill="#F0F0F0"/>
<path d="M640.83 561.5C634.112 445.109 633.785 400.853 639.975 308.22L702.256 277.253C724.772 322.598 733.153 335.078 727.786 375.094C719.173 439.298 706.73 522.918 691.117 620.5" stroke="#161A1D" stroke-width="1.5"/>
<path fill-rule="evenodd" clip-rule="evenodd" d="M727.786 375.094C717.403 452.496 710.451 494.118 690.092 618.404C681.204 436.928 652.469 417.001 653.807 374.119L727.786 375.094Z" fill="#F0F0F0"/>
<path fill-rule="evenodd" clip-rule="evenodd" d="M733.478 154.723C702.38 142.958 685.013 145.528 676.106 159.375C667.204 173.215 655.735 203.409 650.131 235.35C640.861 288.174 639.551 351.176 637.472 379.007C652.289 384.16 663.809 386.673 679.236 387.143C694.603 310.307 715.635 231.4 733.478 154.723Z" fill="#F0F0F0"/>
<path fill-rule="evenodd" clip-rule="evenodd" d="M689.7 154.653C684.929 156.182 683.034 161.532 681.8 166.504C681.387 168.166 680.773 170.074 680.267 171.698C679.022 175.693 668.832 184.753 664.81 190.188C650.308 231.037 646.436 282.676 652.156 325.764C659.651 278.62 661.086 239.491 688.497 203.723C688.124 195.728 686.674 182.736 687.334 175.236C687.626 171.943 688.894 171.503 694.972 167.575C698.868 165.057 702.16 161.825 697.785 157.483C696.221 155.931 693.129 153.553 689.7 154.653Z" fill="#70E000" stroke="#161A1D" stroke-width="1.5"/>
<path fill-rule="evenodd" clip-rule="evenodd" d="M631.589 519.533C640.124 524.19 642.994 508.026 644.027 502.533C648.477 478.861 650.29 308.606 650.717 299.575C651.357 286.031 651.653 273.306 653.466 260.599C658.081 228.256 666.486 197.02 676.065 158.699C666.62 163.731 655.341 172.268 649.986 184.792C643.385 200.227 641.039 219.862 639.956 237.734C638.759 257.497 638.519 279.693 637.174 299.443C635.058 330.578 633.422 488.364 631.589 519.533Z" fill="white" stroke="#161A1D" stroke-width="1.5"/>
<path fill-rule="evenodd" clip-rule="evenodd" d="M775.389 534.379C772.824 484.552 760.538 319.159 764.375 271.148C767.377 233.61 774.385 194.161 759.274 179.539C739.948 160.843 732.77 150.58 726.606 152.561C720.848 154.412 716.266 168.145 701.854 189.153C682.326 217.617 659.244 248.108 656.543 268.996C653.666 291.238 656.727 320.232 658.94 356.862C660.451 381.872 674.655 522.826 689.808 527.977C706.708 533.724 756.118 534.228 775.389 534.379Z" fill="white" stroke="#161A1D" stroke-width="1.5"/>
<path fill-rule="evenodd" clip-rule="evenodd" d="M774.388 533.379C771.824 483.552 760.537 319.159 764.375 271.149C767.377 233.61 774.384 194.161 759.273 179.54C757.352 177.682 755.553 175.908 753.862 174.221L732.306 227.057C730.74 300.253 733.407 483.58 684.797 517.309C685.956 519.94 688.136 525.127 690.807 525.978C692.182 526.416 693.789 526.917 695.634 527.333C714.974 531.688 756.797 533.241 774.388 533.379Z" fill="#F0F0F0"/>
<path fill-rule="evenodd" clip-rule="evenodd" d="M772.459 360.969L690.242 351.73C685.6 351.208 681.444 354.666 680.924 359.307L674.886 413.178C674.366 417.819 677.825 421.976 682.463 422.496L764.681 431.735C769.32 432.256 773.479 428.8 773.999 424.158L780.037 370.286C780.556 365.646 777.1 361.49 772.459 360.969Z" fill="#70E000" stroke="#161A1D" stroke-width="1.5"/>
<path opacity="0.2" fill-rule="evenodd" clip-rule="evenodd" d="M740.562 387.972C747.915 391.239 753.451 394.759 755.347 398.623C759.985 408.076 752.309 420.327 737.341 421.611C724.697 422.697 707.076 420.271 698.712 418.982C680.29 416.139 679.399 397.803 699.521 386.567C680.425 372.275 699.05 360.541 716.914 358.128C732.008 356.091 760.231 362.786 757.262 375.746C756.414 379.44 746.484 385.627 740.562 387.972Z" fill="white"/>
<path opacity="0.1" fill-rule="evenodd" clip-rule="evenodd" d="M736.28 388.221C744.08 392.96 749.84 397.369 751.681 401.736C753.696 406.515 751.307 411.179 748.848 414.519C743.209 422.177 711.529 417.637 700.313 415.905C683.8 413.358 687.435 393.005 705.636 385.911C688.519 373.1 700.617 363.519 716.629 361.358C729.638 359.602 753.812 365.146 753.022 376.06C752.756 379.733 742.801 383.669 736.28 388.221Z" fill="white"/>
<path fill-rule="evenodd" clip-rule="evenodd" d="M676.466 419.028C677.844 420.903 679.985 422.219 682.464 422.496L764.682 431.736C769.321 432.256 773.48 428.801 774 424.158L780.038 370.287C780.34 367.588 779.297 365.054 777.459 363.303C745.86 368.203 697.975 391.997 676.466 419.028Z" fill="#161A1D"/>
<path fill-rule="evenodd" clip-rule="evenodd" d="M727.849 384.539C718.499 393.34 714.115 396.843 710.693 403.016C707.672 408.469 705.665 417.439 701.679 424.813C711.708 425.287 711.706 422.937 716.867 411.117C716.78 416.213 716.306 418.969 715.518 421.045C714.179 424.572 713.019 425.894 713.438 427.739C714.278 431.418 733.634 436.092 743.111 432.351C744.702 431.722 746.613 425.378 748.015 419.921C748.915 416.424 749.355 414.043 749.539 411.794C750.272 402.857 748.173 396.905 750.768 388.065L727.849 384.539Z" fill="white" stroke="#161A1D" stroke-width="1.5"/>
<path fill-rule="evenodd" clip-rule="evenodd" d="M750.365 397.828C736.45 397.184 728.886 391.923 725.277 385.76C743.4 318.841 744.257 277.91 729.134 226.939C717.41 187.418 714.935 188.631 725.684 149.814C728.638 148.769 731.746 146.323 734.13 147.619C756.1 159.557 781.663 166.859 787.048 193.796C791.152 214.326 790.215 241.499 788.768 261.288C784.538 319.152 774.228 352.104 750.365 397.828Z" fill="white" stroke="#161A1D" stroke-width="1.5"/>
<path fill-rule="evenodd" clip-rule="evenodd" d="M725.096 135.176C732.163 138.541 740.216 148.043 739.23 150.787C736.941 157.163 735.09 159.602 731.131 166.501L724.621 161.212C725.428 166.59 725.816 169.565 727.605 174.771C705.839 206.858 670.054 231.942 656.551 268.743C664.284 199.117 716.664 171.914 725.096 135.176Z" fill="white" stroke="#161A1D" stroke-width="1.5"/>
<path fill-rule="evenodd" clip-rule="evenodd" d="M684.074 146.768C679.513 149.966 668.004 158.774 665.662 163.529C663.72 167.472 663.296 171.315 662.107 176.464L667.938 177.006L658.852 187.448C652.643 223.918 650.885 259.507 650.852 297.692C651.169 238.201 682.307 153.769 684.074 146.768Z" fill="white" stroke="#161A1D" stroke-width="1.5"/>
<path fill-rule="evenodd" clip-rule="evenodd" d="M718.153 116.945C719.762 124.596 721.121 130.502 723.695 137.885C722.182 150.107 712.417 156.399 701.329 156.626C697.647 156.701 693.31 155.392 691.914 154.624C687.345 152.111 688.171 144.449 689.385 139.34C689.251 135.471 688.921 132.237 688.43 128.396L710.979 117.814L718.153 116.945Z" fill="white" stroke="#161A1D" stroke-width="1.5"/>
<path fill-rule="evenodd" clip-rule="evenodd" d="M721.252 129.783C716.84 139.706 700.131 152.271 691.589 154.53C696.766 156.149 700.229 166.255 701.996 175.345C709.837 166.538 718.292 156.597 724.285 146.336C728.673 138.825 725.219 134.756 721.252 129.783Z" fill="white" stroke="#161A1D" stroke-width="1.5"/>
<path fill-rule="evenodd" clip-rule="evenodd" d="M689.384 139.107C688.487 145.149 690.287 151.379 692.063 154.634C687.523 154.48 683.934 158.793 680.841 167.006C678.559 162.164 678.657 157.908 679.28 154.99C680.277 150.319 684.233 145.649 689.384 139.107Z" fill="white" stroke="#161A1D" stroke-width="1.5"/>
<path fill-rule="evenodd" clip-rule="evenodd" d="M720.518 109.371C726.766 109.178 727.847 106.818 728.355 102.507C728.88 98.0627 729.012 99.2256 730.858 95.4997C731.757 93.6889 732.241 92.0167 732.484 90.3698C733.301 84.8622 731.508 82.0239 730.725 78.0981C729.751 73.22 731.449 70.9138 731.621 67.5846C732.464 51.4535 716.451 41.078 703.73 51.2188C696.526 43.0817 688.304 44.709 681.791 50.6392C671.927 47.2967 663.703 49.7256 659.292 57.7975C650.741 73.449 664.347 84.1517 673.002 85.9302L701.986 98.2171L720.518 109.371Z" fill="#161A1D"/>
<path d="M730.186 95.1664L730.186 95.1658C731.049 93.4283 731.51 91.832 731.742 90.2597L731.742 90.2595C732.303 86.4743 731.605 84.1111 730.856 81.5716C730.737 81.1702 730.617 80.7644 730.501 80.3478C729.113 82.9975 726.969 84.8847 724.671 85.3781C723.201 85.6937 721.695 85.4258 720.377 84.4417C719.134 83.5143 718.111 81.9919 717.4 79.8534C712.802 77.5675 709.362 74.1811 707.775 69.6666L707.775 69.6665C706.816 66.9366 705.633 65.1252 704.123 64.3164C702.669 63.5378 700.683 63.5772 697.801 65.1264M730.186 95.1664L697.801 65.1264M730.186 95.1664C729.734 96.0787 729.388 96.6897 729.113 97.1656C729.078 97.2257 729.044 97.2845 729.01 97.3421C728.785 97.7308 728.588 98.069 728.427 98.4253C728.043 99.277 727.871 100.211 727.61 102.419L728.355 102.506L727.61 102.419C727.357 104.57 726.974 106.005 726.049 106.961C725.162 107.879 723.63 108.496 720.714 108.613L702.373 97.5742L702.327 97.5469L702.279 97.5262L673.295 85.2394L673.226 85.2102L673.153 85.1952C668.394 84.2176 662.083 80.4237 659.074 74.5988M730.186 95.1664L659.074 74.5988M697.801 65.1264C695.332 66.4537 692.982 67.8705 690.673 69.262C689.761 69.8122 688.855 70.3584 687.95 70.8936C684.777 72.7719 681.642 74.5035 678.43 75.7029C675.212 76.905 671.9 77.5794 668.369 77.3329C665.417 77.1268 662.345 76.2795 659.074 74.5988M697.801 65.1264L659.074 74.5988M730.695 77.9409L730.725 78.0978C730.806 78.5053 730.898 78.9012 730.997 79.2895L730.695 77.9409ZM730.695 77.9409C730.676 77.9989 730.657 78.0567 730.638 78.1142C730.638 78.1145 730.638 78.1148 730.638 78.1151C730.509 78.4994 730.365 78.8712 730.208 79.2295L730.695 77.9409Z" fill="white" stroke="#161A1D" stroke-width="1.5"/>
<path fill-rule="evenodd" clip-rule="evenodd" d="M669.639 84.8253C671.968 100.575 673.016 117.002 682.292 130.419C685.662 135.294 689.881 137.855 697.836 134.22C703.354 131.699 708.811 127.721 713.698 124.356C721.112 119.248 719.208 116.245 719.955 113.1C720.254 111.843 720.843 110.387 721.765 108.648C724.141 104.171 729.007 100.708 728.031 95.3331C727.133 90.3899 722.861 88.5823 721.714 92.3569C720.109 97.6367 715.852 106.892 714.929 81.1424C709.154 78.4877 707.875 77.2179 705.679 73.4603C703.53 69.7812 701.47 66.9866 697.311 70.5417C688.764 77.8499 681.493 84.719 669.639 84.8253Z" fill="white" stroke="#161A1D" stroke-width="1.5"/>
<path fill-rule="evenodd" clip-rule="evenodd" d="M587.919 314.805C581.454 309.631 575.715 305.968 569.13 300.362L574.523 276.946C579.724 278.18 584.183 277.151 587.85 278.543C598.528 282.596 606.879 290.317 610.09 295.289C614.851 302.664 609.695 313.013 605.274 320.572C600.27 329.133 593.372 319.168 587.919 314.805Z" fill="white" stroke="#161A1D" stroke-width="1.5"/>
<path d="M485.469 604.155C490.629 584.952 495.698 565.618 501.161 545.836C519.806 478.32 528.1 417.945 543.64 353.799L462.654 362.013C459.585 375.671 453.537 388.014 450.268 415.946C446.716 446.302 448.549 476.764 446.597 506.277C443.867 547.553 438.987 588.729 433.846 631.466" stroke="#161A1D" stroke-width="1.5"/>
<path d="M584.6 417.948C584.851 395.479 577.843 378.228 574.832 360.16L561.127 316.437L494.71 350.41C508.562 426.216 516.218 473.766 519.424 534.536" stroke="#161A1D" stroke-width="1.5"/>
<path fill-rule="evenodd" clip-rule="evenodd" d="M522.863 359.593C524.786 371.134 535.94 349.469 540.045 379.82C551.87 467.236 536.732 366.591 525.909 453.658C524.453 404.825 521.968 582.781 519.423 534.536C516.615 481.314 510.392 438.231 499.587 377.427L522.863 359.593Z" fill="#F0F0F0"/>
<path d="M559.02 164.87C564.772 171.309 568.352 177.017 570.637 183.046C572.924 189.08 573.93 195.478 574.482 203.325C575.884 223.25 574.813 242.157 573.777 260.429C573.459 266.056 573.143 271.623 572.905 277.141C572.579 284.658 572.512 292.072 572.622 299.4L573.372 299.389L572.622 299.4C572.657 301.728 572.69 304.82 572.729 308.402C572.902 324.559 573.183 350.693 574.222 361.682C570.488 367.473 563.501 372.048 554.558 375.245C545.521 378.475 534.576 380.266 523.214 380.508C500.618 380.989 476.598 375.346 462.751 363.004C466.686 339.786 460.715 313.507 454.52 286.24L454.5 286.152C448.246 258.625 441.757 230.043 444.689 202.21C445.03 198.975 446.847 196.067 449.214 193.135C450.113 192.022 451.074 190.925 452.049 189.812C452.356 189.462 452.664 189.11 452.972 188.756C454.252 187.284 455.523 185.775 456.627 184.203L456.013 183.772L456.627 184.203C460.958 178.034 468.987 170.049 477.645 162.37C486.189 154.794 495.294 147.56 501.947 142.735C504.02 142.983 506.024 143.211 507.964 143.433C517.759 144.551 525.95 145.486 533.461 147.799C542.477 150.576 550.507 155.343 559.02 164.87Z" fill="#F0F0F0" stroke="black" stroke-width="1.5"/>
<path fill-rule="evenodd" clip-rule="evenodd" d="M559.58 164.369C571.178 177.352 574.124 187.512 575.231 203.273C577.068 229.389 574.668 253.787 573.655 277.172C573.33 284.674 573.263 292.074 573.374 299.388C573.482 306.651 573.988 320.874 574.274 334.647C574.775 358.763 577.648 368.371 582.316 391.507C583.939 399.558 585.118 408.086 585.013 417.534C584.474 465.921 578.454 518.169 571.712 569.837C567.234 570.651 562.725 571.229 558.131 571.722C566.404 507.606 581.984 192.517 540.209 151.985C537.164 149.031 533.767 147.195 530.317 146.145C540.872 148.8 549.941 153.583 559.58 164.369ZM439.402 571.506C441.376 549.799 443.106 528.285 444.534 506.689C446.485 477.176 444.654 446.714 448.205 416.359C450.116 400.026 452.979 389.022 455.638 379.97C459 368.529 462.532 364.048 463.124 352.589C465.426 308.089 438.495 253.865 443.943 202.13C444.672 195.209 449.834 185.801 454.156 179.644C462.927 167.155 488.359 151.634 501.745 141.955C511.219 143.093 519.304 143.823 526.615 145.308C515.218 143.564 504.39 149.158 504.871 150.365C516.025 178.438 518.533 190.422 520.844 232.035C527.793 357.148 505.704 429.971 481.782 572.138C463.287 573.194 453.894 572.602 439.402 571.506Z" fill="white" stroke="#161A1D" stroke-width="1.5"/>
<path fill-rule="evenodd" clip-rule="evenodd" d="M445.46 240.859C445.503 255.305 449.848 270.708 453.382 284.618C458.823 308.579 464.207 331.66 463.124 352.589C462.532 364.049 459 368.529 455.638 379.97C452.979 389.022 450.117 400.026 448.205 416.36C444.654 446.713 446.485 477.176 444.534 506.689C443.106 528.286 441.376 549.799 439.402 571.507L441.392 571.656C444.392 561.68 447.378 551.259 450.132 540.737C463.248 490.645 458.622 466.874 464.23 422.112C468.413 388.713 478.738 373.147 479.462 337.455C490.504 340.769 506.139 338.629 520.009 333.56C521.419 315.104 522.178 296.153 522.139 276.043C507.223 277.291 486.334 279.9 479.361 273.402C470.397 265.054 486.63 238.133 488.789 221.748C494.223 180.493 445.391 217.539 445.46 240.859Z" fill="#F0F0F0"/>
<path fill-rule="evenodd" clip-rule="evenodd" d="M507.227 122.064C505.89 129.913 504.736 135.976 502.406 143.589C512.135 172.696 543.749 166.607 537.378 143.729C537.363 139.786 537.574 136.483 537.922 132.555L514.562 122.667L507.227 122.064Z" fill="white" stroke="#161A1D" stroke-width="1.5"/>
<path fill-rule="evenodd" clip-rule="evenodd" d="M505.1 123.768C483.22 106.406 482.702 88.3221 479.307 78.6925C473.358 61.8186 487.736 45.3307 504.964 47.2857C515.349 48.4644 538.619 51.4089 547.846 47.9297C560.836 62.4101 549.947 77.9554 542.006 82.1862L517.236 102.539L505.1 123.768Z" fill="#161A1D"/>
<path d="M544.051 72.4413C546.883 71.3863 549.649 69.6653 552.369 67.0655C551.121 73.646 546.034 79.1913 541.654 81.5241L541.588 81.5592L541.53 81.6066L516.761 101.96L516.661 102.042L516.594 102.152L504.748 121.803C499.576 118.325 495.409 115.334 492.035 111.126C488.85 107.156 486.34 102.06 484.433 94.3768C484.703 94.5452 484.988 94.6993 485.282 94.8369C486.465 95.3905 487.872 95.7107 489.276 95.5953C490.691 95.4789 492.103 94.9179 493.239 93.7164C494.327 92.5662 495.111 90.8824 495.451 88.5768C497.317 86.8812 499.185 85.095 500.63 83.1464C502.133 81.1207 503.211 78.8752 503.343 76.3196L503.343 76.3195C503.493 73.3758 504.127 71.261 505.372 70.032C506.572 68.8479 508.529 68.3144 511.792 68.9978L511.792 68.9978C514.587 69.5829 517.291 70.2898 519.947 70.9841C520.997 71.2585 522.039 71.531 523.076 71.7931C526.717 72.7134 530.278 73.5012 533.759 73.7474C537.247 73.9942 540.675 73.6987 544.051 72.4413Z" fill="white" stroke="#161A1D" stroke-width="1.5"/>
<path fill-rule="evenodd" clip-rule="evenodd" d="M544.974 80.1384C547.237 96.193 550.946 112.54 545.752 128.319C543.865 134.052 540.482 137.769 531.664 136.511C525.548 135.639 519.071 133.326 513.329 131.446C504.616 128.594 505.61 125.111 503.975 122.255C503.321 121.113 502.327 119.861 500.924 118.428C497.313 114.74 491.563 112.759 490.967 107.227C490.421 102.14 494.072 99.1439 496.281 102.5C499.369 107.195 506.194 115.009 499.676 89.5915C504.552 85.3341 505.436 83.7252 506.497 79.4216C507.537 75.2091 508.744 71.8856 513.83 74.1601C524.283 78.8357 533.364 83.4499 544.974 80.1384Z" fill="white" stroke="#161A1D" stroke-width="1.5"/>
<path fill-rule="evenodd" clip-rule="evenodd" d="M531.339 171.576C533.31 212.571 539.739 255.955 536.61 296.942L554.47 328.888L561.604 295.146C564.946 246.45 543.487 186.675 537.898 168.331C538.684 161.249 542.724 149.736 531.421 153.219C531.376 153.231 530.921 153.456 530.877 153.469C527.474 154.566 524.801 156.987 523.346 160.631C521.533 165.167 528.153 168.702 531.339 171.576Z" fill="white" stroke="#161A1D" stroke-width="1.5"/>
<path fill-rule="evenodd" clip-rule="evenodd" d="M537.624 140.228C537.134 144.055 534.177 149.648 530.949 153.438C537.315 152.307 540.996 159.938 542.112 166.949C542.433 159.981 544.554 151.366 543.451 147.867C543.09 146.718 540.078 142.199 537.624 140.228Z" fill="white" stroke="#161A1D" stroke-width="1.5"/>
<path fill-rule="evenodd" clip-rule="evenodd" d="M504.824 133.324C495.86 145.726 498.928 153.167 523.467 169.09C523.34 161.947 525.752 158.042 530.993 153.415C520.61 149.049 508.194 141.244 504.824 133.324Z" fill="white" stroke="#161A1D" stroke-width="1.5"/>
<path fill-rule="evenodd" clip-rule="evenodd" d="M607.448 289.434C595.336 286.988 586.68 283.923 576.221 284.52C571.969 284.763 567.059 286.04 562.054 287.385C555.823 289.06 551.788 291.034 547.131 291.278L545.285 313.703C555.651 313.092 556.423 310.888 566.734 315.221C579.799 320.713 582.494 320.657 594.326 316.179C600.023 314.024 603.564 303.625 606.17 298.233C611.059 296.108 612.669 292.306 607.448 289.434Z" fill="white" stroke="#161A1D" stroke-width="1.5"/>
<path fill-rule="evenodd" clip-rule="evenodd" d="M496.539 211.743C466.82 239.012 433.75 286.698 487.167 291.359C508.45 293.217 529.759 292.282 547.647 289.623C556.535 288.303 555.312 313.616 552.482 314.679C516.251 328.281 470.014 332.99 443.032 321.936C374.923 294.033 428.612 207.917 461.077 171.872C472.086 162.08 488.95 163.067 498.743 174.077C508.536 185.087 507.548 201.95 496.539 211.743Z" fill="white" stroke="#161A1D" stroke-width="1.5"/>
<path d="M248.105 503.43C253.036 473.84 254.906 445.15 261.482 414.717C267.531 386.714 273.31 376.37 277.699 362.678L371.279 343.3C349.569 407.607 322.212 475.401 297.134 543.089" stroke="#161A1D" stroke-width="1.5"/>
<path fill-rule="evenodd" clip-rule="evenodd" d="M308.271 93.7673C288.05 85.1773 277.723 94.0185 269.813 108.435C261.518 123.556 260.614 131.262 254.977 136.914C245.428 146.486 232.962 144.531 207.472 146.214C162.534 149.185 160.167 191.491 173.106 221.693C188.451 257.511 232.392 281.549 267.2 286.293C310.246 292.16 323.27 271.671 324.393 246.847C325.134 230.482 319.643 219.717 320.957 213.316C326.287 187.334 349.618 195.218 351.201 165.923C352.083 149.594 336.663 138.163 338.395 117.574C357.012 80.3391 321.653 80.7193 308.271 93.7673Z" stroke="#161A1D" stroke-width="1.5"/>
<path fill-rule="evenodd" clip-rule="evenodd" d="M171.287 217.084C171.854 218.645 172.46 220.185 173.105 221.693C188.451 257.511 232.392 281.549 267.2 286.293C310.246 292.16 323.269 271.671 324.393 246.847C325.133 230.482 319.643 219.717 320.957 213.316C326.287 187.334 349.618 195.218 351.201 165.923C352.083 149.594 336.663 138.163 338.395 117.574C338.758 116.849 339.092 116.143 339.415 115.446C329.474 118.181 316.24 116 301.596 108.822C298.04 117.512 298.288 127.077 297.467 136.515C287.996 131.056 285.208 138.037 284.536 148.186C283.561 162.904 283.049 166.326 278.181 168.698C247.744 183.524 245.182 186.414 220.776 215.039C203.245 235.596 192.995 231.051 171.287 217.084Z" fill="#161A1D"/>
<path d="M378.725 583.997C384.975 526.753 390.558 468.234 391.145 414.272C391.39 391.744 390.433 374.488 387.503 356.375L360.932 345.231L305.444 347.169C318.923 423.167 326.371 470.836 329.491 531.761C331.348 568.011 332.097 605.434 332.953 642.52" stroke="#161A1D" stroke-width="1.5"/>
<path fill-rule="evenodd" clip-rule="evenodd" d="M352.236 356.375C355.165 374.488 355.18 426.631 354.937 449.157C354.119 524.617 342.904 561.929 333.893 636.621C332.476 587.665 331.97 580.127 329.492 531.761C326.76 478.404 320.706 435.212 310.191 374.255L352.236 356.375Z" fill="#F0F0F0"/>
<path fill-rule="evenodd" clip-rule="evenodd" d="M275.969 246.142C278.05 282.994 266.593 358.736 264.472 394.769C304.561 403.361 353.869 405.177 392.62 391.977C390.668 353.534 383.11 265.873 375.851 226.029C372.604 208.2 364.401 188.795 350.206 184.672C340.055 181.723 328.859 180.486 317.514 180.94C292.642 181.937 268.254 189.302 250.478 210.916L275.969 246.142Z" fill="white" stroke="#161A1D" stroke-width="1.5"/>
<path fill-rule="evenodd" clip-rule="evenodd" d="M275.971 246.141C278.05 282.994 266.594 358.736 264.473 394.769L265.15 394.913C276.061 354.259 299.452 268.153 284.528 227.385C278.118 235.704 277.188 243.242 275.971 246.141Z" fill="#F0F0F0"/>
<path fill-rule="evenodd" clip-rule="evenodd" d="M303.779 160.083C303.779 170.743 303.681 173.697 300.986 184.011C303.796 194.553 322.503 200.795 327.1 184.133C325.534 179.119 325.594 175.638 325.764 171.501L317.14 163.727L303.779 160.083Z" fill="white" stroke="#161A1D" stroke-width="1.5"/>
<path fill-rule="evenodd" clip-rule="evenodd" d="M305.383 161.336C305.383 164.126 305.375 166.324 305.306 168.27C308.039 173.59 317.454 180.676 324.814 179.39C324.316 176.58 324.373 174.207 324.481 171.526L316.99 164.588L305.383 161.336Z" fill="#F0F0F0"/>
<path fill-rule="evenodd" clip-rule="evenodd" d="M341.856 121.159C343.09 138.078 345.446 151.897 339.368 164.858C334.159 175.962 326.212 174.826 318.022 170.773C309.666 166.637 305.246 164.018 299.586 156.869C297.533 155.742 295.182 155.612 292.886 153.237C289.468 149.704 287.238 143.411 290.046 139.335C291.296 137.521 294.29 138.841 296.284 142.28C298.779 146.577 300.236 142.393 300.295 139.316C300.457 130.849 302.754 125.578 304.445 116.786C315.684 122.502 330.582 129.87 341.856 121.159Z" fill="white" stroke="#161A1D" stroke-width="1.5"/>
<path fill-rule="evenodd" clip-rule="evenodd" d="M334.416 125.164C321.515 127.278 301.324 119.095 300.862 106.514C300.435 94.9507 313.645 87.1895 324.934 85.1402C355.886 79.52 362.693 120.529 334.416 125.164Z" fill="#161A1D"/>
<path fill-rule="evenodd" clip-rule="evenodd" d="M283.79 281.861L373.813 214.974C378.896 211.197 386.123 212.414 389.897 217.496L433.705 276.494C437.48 281.574 436.261 288.803 431.182 292.577L341.158 359.464C336.078 363.238 328.849 362.025 325.075 356.942L281.266 297.945C277.493 292.861 278.709 285.636 283.79 281.861Z" fill="#70E000" stroke="#161A1D" stroke-width="1.5"/>
<path fill-rule="evenodd" clip-rule="evenodd" d="M292.099 278.004L393.827 230.788C399.571 228.121 406.401 230.781 409.064 236.523L439.981 303.187C442.645 308.928 439.986 315.759 434.245 318.422L332.516 365.638C326.776 368.303 319.943 365.647 317.28 359.903L286.362 293.24C283.701 287.496 286.357 280.668 292.099 278.004Z" fill="#161A1D"/>
<path fill-rule="evenodd" clip-rule="evenodd" d="M344.716 299.007C336.667 306.367 331.063 313.273 330.286 319.056C328.388 333.202 343.52 345.653 363.316 340.87C380.039 336.832 401.649 326.141 411.847 320.887C434.309 309.314 427.573 285.357 396.877 279.561C415.282 252.98 386.294 245.899 362.291 250.477C342.012 254.345 308.604 275.083 317.993 290.468C320.668 294.853 336.095 298.538 344.716 299.007Z" fill="#161A1D"/>
<path opacity="0.1" fill-rule="evenodd" clip-rule="evenodd" d="M440.466 311.385C439.5 314.386 437.313 317 434.245 318.422L332.516 365.639C326.776 368.303 319.943 365.648 317.28 359.903L286.363 293.241C284.814 289.901 285.065 286.195 286.674 283.153C329.406 275.87 401.194 285.879 440.466 311.385Z" fill="white"/>
<path fill-rule="evenodd" clip-rule="evenodd" d="M413.217 322.169C409.136 317.908 403.5 312.097 401.319 311.15C395.473 308.609 393.307 315.237 389.765 326.217C387.382 333.604 386.997 333.794 390.862 340.494C393.181 344.509 396.362 349.104 399.461 347.171C403.242 344.809 411.875 337.895 415.097 333.019C417.821 328.902 418.241 327.415 413.217 322.169Z" fill="white" stroke="#161A1D" stroke-width="1.5"/>
<path fill-rule="evenodd" clip-rule="evenodd" d="M392.234 338.094C387.867 340.006 387.815 340.786 383.257 338.391C379.224 336.271 378.951 334 379.799 332.558C381.07 330.393 385.932 329.262 390.563 328.501C399.637 327.007 398.406 322.36 391.823 321.537C388.316 321.1 383.265 321.888 377.361 322.057C372.829 322.185 369.605 321.597 363.521 321.958C357.318 322.327 352.13 324.645 344.461 325.129L336.172 338.872C342.072 340.343 344.287 341.899 346.688 344.643C349.835 348.24 352.814 352.086 355.721 355.961C359.43 360.904 360.771 362.972 363.586 363.205C370.45 363.773 382.974 352.4 389.05 344.946C391.429 342.029 391.93 341.169 392.234 338.094Z" fill="white" stroke="#161A1D" stroke-width="1.5"/>
<path fill-rule="evenodd" clip-rule="evenodd" d="M240.365 222.776C208.205 263.926 188.985 307.576 263.077 332.264C278.87 337.527 320.648 345.79 344.276 345.172C349.885 345.024 354.204 325.916 347.477 323.315C330.574 316.776 297.08 305.495 284.547 299.949C243.543 281.807 258.524 275.039 287.254 246.999C297.909 235.93 300.13 216.897 289.062 206.243C281.835 199.29 278.679 188.781 271.844 192.576C260.503 198.871 247.412 213.759 240.365 222.776Z" fill="white" stroke="#161A1D" stroke-width="1.5"/>
<path fill-rule="evenodd" clip-rule="evenodd" d="M349.135 324.511C348.68 323.978 348.131 323.567 347.478 323.314C330.575 316.776 297.081 305.494 284.548 299.949C243.544 281.807 258.524 275.039 287.255 246.998C287.861 246.37 288.357 245.798 288.544 245.581C288.259 239.912 286.507 232.777 284.48 227.262C274.452 233.306 261.299 246.271 254.371 255.73C241.843 272.834 242.2 286.819 253.927 297.142C269.144 310.533 303.806 317.315 349.135 324.511Z" fill="#F0F0F0"/>
</svg>
