<svg width="643" height="651" viewBox="0 0 643 651" fill="none" xmlns="http://www.w3.org/2000/svg">
<path d="M93.9856 101.362C94.2238 101.08 94.5054 100.82 94.7653 100.553C145.647 50.0173 227.869 43.5199 293.522 64.1384C325.619 74.2094 350.8 102.509 380.977 116.551C391.02 121.208 401.603 124.276 413.176 124.593C443.454 125.424 471.732 105.404 501.931 107.707C540.482 110.595 563.187 149.58 568.674 184.233C577.727 241.533 551.506 303.706 518.86 349.484C500.942 374.637 480.778 397.854 461.43 421.851C446.421 440.528 436.53 468.777 456.377 488.183C482.727 513.934 490.835 456.945 521.9 469.954C599.241 502.333 590.419 571.747 572.861 601.462C556.834 628.643 525.935 646.879 494.43 649.457C489.428 649.868 484.401 649.868 479.399 649.457" stroke="#70E000" stroke-width="1.5" stroke-miterlimit="10"/>
<path opacity="0.2" d="M531.653 0C512.108 0.000721938 492.907 5.14619 475.98 14.9193C459.053 24.6924 444.997 38.7486 435.224 55.6758C425.448 72.6009 420.301 91.8023 420.301 111.348C420.301 130.894 425.448 150.095 435.224 167.02C444.997 183.948 459.053 198.004 475.98 207.777C492.907 217.55 512.108 222.695 531.653 222.696C551.199 222.695 570.4 217.55 587.327 207.777C604.254 198.004 618.31 183.948 628.083 167.02C637.855 150.094 643 130.893 643 111.348C643 91.803 637.855 72.6024 628.083 55.6758C618.31 38.7486 604.254 24.6924 587.327 14.9193C570.4 5.14619 551.199 0.000721938 531.653 0Z" fill="#D9D9D9"/>
<path d="M233.385 463.08C233.385 463.16 233.385 463.239 233.385 463.319C233.385 468.625 256.877 488.861 260.414 492.608" stroke="#CCDDE2" stroke-width="1.5" stroke-miterlimit="10"/>
<path d="M160.288 649.195C153.163 649.433 146.427 649.404 140.031 649.145C66.0033 640.055 10.3202 492.607 97.422 447.847" stroke="#70E000" stroke-width="1.5" stroke-miterlimit="10"/>
<path d="M246 266.804V117.332C245.994 113.002 244.246 108.851 241.138 105.79C238.031 102.728 233.818 101.006 229.423 101H17.5401C13.1518 101.015 8.94819 102.742 5.84868 105.802C2.7491 108.863 1.00579 113.008 1 117.332V413.697C1.00579 418.023 2.75511 422.171 5.86342 425.228C8.97172 428.285 13.1847 430.001 17.5767 430H229.46C231.515 430.013 233.553 429.628 235.457 428.866" stroke="black" stroke-width="1.5" stroke-linecap="round" stroke-linejoin="round"/>
<path d="M23.7633 112.1H223.487C230.497 112.1 236.18 117.783 236.18 124.793V406.781C236.18 413.792 230.497 419.474 223.487 419.474H23.7633C16.7534 419.474 11.0708 413.792 11.0708 406.781V124.793C11.0708 117.783 16.7535 112.1 23.7633 112.1Z" fill="white" stroke="black" stroke-width="1.5"/>
<path d="M30.3831 136.006H219.343C222.641 136.006 225.314 138.68 225.314 141.978V186.362C225.314 189.66 222.641 192.334 219.343 192.334H30.3831C27.0853 192.334 24.4119 189.66 24.4119 186.362V141.978C24.4119 138.68 27.0853 136.006 30.3831 136.006Z" fill="white" stroke="black" stroke-width="1.5"/>
<path d="M128.856 153.63C128.856 156.521 126.512 158.865 123.622 158.865C120.731 158.865 118.387 156.521 118.387 153.63C118.387 150.738 120.731 148.395 123.622 148.395C126.512 148.395 128.856 150.738 128.856 153.63Z" stroke="black" stroke-width="1.5"/>
<path d="M108.784 174.469L108.784 174.469C109.566 172.494 110.735 170.695 112.221 169.178C113.707 167.66 115.482 166.454 117.44 165.632L117.44 165.632C119.398 164.808 121.501 164.384 123.625 164.384C125.749 164.384 127.852 164.808 129.81 165.632L129.81 165.632C131.768 166.454 133.543 167.66 135.029 169.178C136.515 170.695 137.684 172.494 138.466 174.469L138.466 174.469C139.158 176.216 139.535 178.07 139.583 179.944H107.667C107.714 178.07 108.092 176.216 108.784 174.469Z" stroke="black" stroke-width="1.5"/>
<path d="M43.905 218.899H201.28" stroke="black" stroke-width="1.5" stroke-miterlimit="10"/>
<path d="M43.905 234.393H201.28" stroke="black" stroke-width="1.5" stroke-miterlimit="10"/>
<path d="M43.905 334.15H201.28" stroke="black" stroke-width="1.5" stroke-miterlimit="10"/>
<path d="M80.457 348.798H164.729" stroke="black" stroke-width="1.5" stroke-miterlimit="10"/>
<path d="M82.7246 292.972L70.6842 305.767L70.6841 305.767C69.7337 306.778 68.5931 307.591 67.328 308.161C66.0627 308.731 64.6983 309.045 63.3109 309.088C61.9244 309.13 60.5433 308.899 59.2458 308.407L59.2455 308.407C57.9481 307.916 56.7603 307.173 55.7497 306.222C54.7393 305.272 53.9257 304.131 53.3562 302.866C52.7865 301.601 52.4717 300.236 52.4293 298.849L51.6796 298.872L52.4293 298.849C52.3868 297.463 52.6186 296.082 53.1102 294.784C53.6015 293.486 54.3443 292.299 55.2949 291.288L55.2949 291.288L67.3284 278.493L82.7246 292.972Z" fill="#70E000" stroke="black" stroke-width="1.5"/>
<path d="M97.7362 272.399L97.7362 272.398C97.652 269.603 96.468 266.953 94.4417 265.026C92.3965 263.114 89.6777 262.089 86.8793 262.174L97.7362 272.399ZM97.7362 272.399C97.8212 275.195 96.7994 277.911 94.8926 279.958C94.8922 279.959 94.8917 279.959 94.8913 279.96L82.8529 292.766M97.7362 272.399L82.8529 292.766M82.8529 292.766L67.4568 278.287L79.5031 265.486C79.5033 265.486 79.5035 265.486 79.5037 265.486C81.4278 263.451 84.0793 262.261 86.8791 262.174L82.8529 292.766Z" stroke="black" stroke-width="1.5"/>
<path d="M144.386 271.044L145.855 270.743C145.855 270.74 145.854 270.738 145.854 270.735C145.778 270.359 145.901 269.811 146.316 269.091C146.721 268.388 147.341 267.633 148.055 266.902C149.488 265.437 151.184 264.189 151.969 263.765C154.991 262.183 158.88 261.969 162.462 262.951C166.045 263.933 169.212 266.081 170.856 269.087L170.857 269.087C172.766 272.572 172.877 276.453 171.737 280.455C170.594 284.469 168.201 288.568 165.161 292.41C159.217 299.925 150.931 306.295 145.187 308.964C143.371 307.555 135.885 301.725 129.314 294.424C125.702 290.41 122.403 285.991 120.471 281.655C118.537 277.314 118.022 273.174 119.768 269.605C121.592 265.877 123.934 263.614 126.406 262.41C128.881 261.204 131.547 261.031 134.07 261.59C139.168 262.719 143.514 266.783 144.383 271.032C144.384 271.036 144.385 271.04 144.386 271.044Z" fill="white" stroke="black" stroke-width="1.5"/>
<path d="M120.842 297.272H138.378" stroke="black" stroke-width="1.5" stroke-linecap="round" stroke-linejoin="round"/>
<path d="M129.606 306.037V288.501" stroke="black" stroke-width="1.5" stroke-linecap="round" stroke-linejoin="round"/>
<path d="M236.07 402.126C235.105 400.681 233.736 399.553 232.133 398.881C230.531 398.209 228.767 398.023 227.059 398.346L227.199 399.083L227.059 398.346C225.353 398.669 223.777 399.487 222.532 400.699C221.287 401.91 220.424 403.461 220.054 405.158C219.683 406.855 219.819 408.625 220.447 410.245L220.447 410.245C221.074 411.865 222.164 413.266 223.58 414.272C224.997 415.278 226.678 415.844 228.415 415.901L228.423 415.902L228.432 415.902C230.818 415.927 233.118 415.007 234.828 413.344C236.539 411.68 237.522 409.407 237.564 407.021L237.564 407.013L237.564 407.005C237.556 405.267 237.036 403.57 236.07 402.126ZM236.07 402.126L235.447 402.543M236.07 402.126C236.07 402.126 236.07 402.126 236.07 402.126L235.447 402.543M235.447 402.543C236.331 403.865 236.806 405.418 236.814 407.008M235.447 402.543C234.563 401.22 233.31 400.187 231.843 399.572L236.814 407.008M236.814 407.008C236.776 409.196 235.874 411.281 234.305 412.806C232.737 414.332 230.628 415.175 228.44 415.152L236.814 407.008ZM292.793 472.437C292.151 472.05 292.151 472.051 292.15 472.051L292.149 472.053L292.145 472.059L292.132 472.083C292.119 472.103 292.102 472.133 292.079 472.172C292.033 472.25 291.966 472.366 291.88 472.516C291.708 472.818 291.461 473.262 291.155 473.835C290.543 474.982 289.698 476.647 288.76 478.731C286.883 482.898 284.627 488.748 283.116 495.477C280.096 508.921 280.024 526.002 292.064 540.108L292.315 540.402L292.701 540.368C298.352 539.863 303.218 539.534 306.67 539.33C308.396 539.228 309.768 539.158 310.709 539.113C310.968 539.101 311.195 539.091 311.387 539.082C311.543 539.075 311.676 539.069 311.785 539.064C311.908 539.059 312 539.055 312.062 539.053L312.132 539.05L312.15 539.049L312.154 539.049L312.155 539.049L312.155 539.049L312.18 539.048L312.204 539.046C331.081 537.087 344.507 538.615 355.266 540.06C356.045 540.165 356.81 540.269 357.563 540.372C367.188 541.684 374.852 542.728 382.562 540.53C386.881 539.299 390.468 535.787 393.43 531.278C396.401 526.754 398.81 521.126 400.734 515.485C404.171 505.412 406.103 495.179 406.912 490.895C407.009 490.381 407.09 489.952 407.155 489.62C407.516 487.809 407.05 486.192 405.774 484.647C404.531 483.143 402.512 481.692 399.735 480.111C395.564 477.738 389.492 474.972 381.32 471.25C378.604 470.013 375.657 468.67 372.47 467.201C365.928 464.185 357.645 462.988 348.957 462.861C340.259 462.734 331.094 463.678 322.75 464.99C314.404 466.302 306.863 467.983 301.41 469.337C298.683 470.014 296.476 470.609 294.951 471.035C294.188 471.248 293.595 471.419 293.192 471.537C292.991 471.596 292.837 471.641 292.734 471.672L292.616 471.708L292.586 471.717L292.578 471.719L292.576 471.72C292.575 471.72 292.575 471.72 292.793 472.437ZM292.793 472.437L292.151 472.05L292.299 471.804L292.575 471.72L292.793 472.437ZM222.339 576.376C222.23 576.299 222.128 576.227 222.033 576.161C229 571.361 233.9 564.947 237.082 559.673C238.742 556.92 239.941 554.468 240.725 552.702C241.117 551.819 241.406 551.107 241.597 550.613C241.664 550.441 241.719 550.296 241.762 550.179L241.791 550.168L241.78 550.13C241.792 550.098 241.802 550.069 241.812 550.042C241.821 550.017 241.829 549.995 241.837 549.974C241.849 549.94 241.859 549.913 241.866 549.891L241.88 549.851L241.884 549.84L241.885 549.837L241.886 549.836C241.886 549.836 241.886 549.836 241.845 549.822C241.815 549.811 241.764 549.794 241.674 549.763L241.375 548.73C235.769 549.974 230.596 551.647 225.725 553.236L225.368 553.352C220.618 554.902 216.168 556.353 211.826 557.263L211.772 557.275L211.72 557.294C199.917 561.666 186.916 562.087 176.83 561.403C171.794 561.061 167.499 560.444 164.466 559.913C162.949 559.648 161.748 559.404 160.928 559.227C160.519 559.139 160.204 559.067 159.993 559.017C159.887 558.993 159.807 558.973 159.754 558.961L159.695 558.946L159.69 558.945C159.687 558.944 159.685 558.944 159.682 558.943C129.254 550.735 112.928 534.526 104.662 514.668C96.372 494.751 96.1541 471.08 98.1553 447.913C102.158 401.575 114.488 347.752 157.366 313.25C178.854 295.959 202.083 284.501 219.948 277.365C228.879 273.798 236.464 271.313 241.814 269.72C244.489 268.924 246.604 268.351 248.05 267.978C248.692 267.811 249.202 267.685 249.57 267.595L259.533 303.143L259.755 303.936L260.524 303.641L278.245 296.853L274.091 316.052L274.038 316.295L274.142 316.522L307.517 389.582L307.982 390.6L308.747 389.783L361.549 333.385L361.756 333.165L361.752 332.863L361.483 312.604L379.506 326.294L380.257 326.863L380.644 326.005L379.96 325.696C380.644 326.005 380.644 326.005 380.644 326.004L380.644 326.003L380.646 326L380.653 325.984L380.681 325.923L380.789 325.683L381.203 324.764L382.715 321.411C383.985 318.595 385.723 314.739 387.598 310.583C391.346 302.271 395.638 292.756 397.811 287.945C399.998 283.102 401.144 279.684 401.745 277.462C402.042 276.362 402.205 275.555 402.295 275.013C415.143 277.741 431.333 284.336 444.448 290.326C451.132 293.379 457.001 296.267 461.2 298.392C463.299 299.455 464.98 300.326 466.135 300.932C466.713 301.235 467.16 301.471 467.461 301.631C467.612 301.712 467.727 301.773 467.804 301.814L467.89 301.86L467.899 301.865C467.902 301.867 467.906 301.869 467.909 301.871C501.977 321.585 515.347 363.435 520.151 400.595C522.55 419.148 522.804 436.465 522.459 449.147C522.286 455.487 521.963 460.665 521.684 464.257C521.544 466.053 521.415 467.452 521.322 468.401C521.275 468.876 521.237 469.238 521.21 469.48C521.197 469.602 521.187 469.693 521.18 469.754L521.172 469.823L521.17 469.84L521.17 469.844C521.17 469.844 521.17 469.845 521.915 469.932L521.17 469.845L521.166 469.878L521.165 469.911L521.165 469.913L521.165 469.921L521.163 469.955L521.162 469.999C521.161 470.025 521.16 470.058 521.158 470.096C521.153 470.22 521.145 470.407 521.133 470.654C521.108 471.147 521.065 471.878 520.994 472.824C520.851 474.717 520.596 477.469 520.144 480.9C519.24 487.764 517.549 497.338 514.406 508.172C508.117 529.85 496.028 556.517 472.837 576.639C449.678 596.731 415.049 605.567 380.636 608.292C346.246 611.016 312.203 607.628 290.344 603.39C268.508 599.156 251.203 592.184 239.361 586.274C233.44 583.319 228.887 580.63 225.817 578.682C224.282 577.708 223.118 576.919 222.339 576.376Z" fill="white" stroke="black" stroke-width="1.5"/>
<path d="M228.439 392.171C236.857 392.171 243.708 398.842 243.708 407.043C243.708 415.244 236.857 421.915 228.439 421.915C220.022 421.915 213.178 415.244 213.178 407.043C213.178 398.842 220.022 392.171 228.439 392.171ZM228.439 386.966C217.134 386.966 207.972 395.954 207.972 407.043C207.972 418.132 217.134 427.12 228.439 427.12C239.745 427.12 248.906 418.132 248.906 407.043C248.906 395.954 239.738 386.958 228.439 386.958V386.966Z" fill="white"/>
<path d="M378.768 145.537C375.881 146.186 373.354 148.424 371.426 150.814C369.634 153.055 368.117 155.503 366.907 158.106C366.907 158.106 360.814 132.116 358.244 109.57C357.385 102.235 354.815 98.3075 351.689 96.3294C345.242 92.2433 336.528 96.611 336.528 96.611L307.578 112.378C302.024 115.438 295.91 117.349 289.602 117.995C286.654 118.334 283.677 118.334 280.729 117.995C264.782 110.111 264.551 79.0101 283.927 78.7936C284.511 79.3379 285.058 79.9191 285.566 80.5334C285.287 79.9602 285.027 79.3899 284.787 78.8225C285.87 78.8549 286.95 78.9762 288.014 79.1834C289.602 79.4939 291.082 81.1326 292.071 82.2805C286.924 72.2889 292.41 59.6983 302.553 55.8793C308.719 53.5618 315.613 54.0022 322.046 55.3595C323.064 55.5616 324.074 55.7999 325.092 56.0814C341.22 60.9473 355.342 69.4012 365.774 83.515C378.978 101.369 382.277 123.972 378.768 145.537Z" fill="#2E2E2E"/>
<path d="M194.899 415.554C180.205 481.005 226.415 482.322 292.491 472.179" stroke="black" stroke-width="1.5" stroke-linejoin="round"/>
<path d="M270.839 247.422H270.867" stroke="black" stroke-width="1.5" stroke-linejoin="round"/>
<path d="M411.292 418.457C411.292 418.457 412.736 452.598 406.96 486.428C404.34 501.87 400.217 517.247 393.785 529.289C392.058 532.47 389.52 535.138 386.429 537.021C383.338 538.903 379.803 539.935 376.184 540.01C369.588 540.13 362.991 539.867 356.425 539.223C299.839 533.91 246.806 545.569 208.131 558.383C205.533 559.235 202.919 559.957 200.291 560.549C224.686 582.684 287.444 623.603 406.101 605.858C565.649 582.034 515.785 371.351 515.785 371.351C511.454 348.653 497.924 327.58 481.659 311.618C463.235 293.569 427.514 281.636 403.228 274.077" fill="white"/>
<path d="M411.292 418.457C411.292 418.457 412.736 452.598 406.96 486.428C404.34 501.87 400.217 517.247 393.785 529.289C392.058 532.47 389.52 535.138 386.429 537.021C383.338 538.903 379.803 539.935 376.184 540.01C369.588 540.13 362.991 539.867 356.425 539.223C299.839 533.91 246.806 545.569 208.131 558.383C205.533 559.235 202.919 559.957 200.291 560.549C224.686 582.684 287.444 623.603 406.101 605.858C565.649 582.034 515.785 371.351 515.785 371.351C511.454 348.653 497.924 327.58 481.659 311.618C463.235 293.569 427.514 281.636 403.228 274.077" stroke="black" stroke-width="1.5" stroke-linejoin="round"/>
<path d="M317.887 234.412C317.887 234.412 269.344 225.749 275.849 168.499C278.737 143.029 284.303 127.45 289.566 117.963" stroke="black" stroke-width="1.5" stroke-linejoin="round"/>
<path d="M363.861 219.353C372.827 205.954 371.455 188.165 374.271 183.689C378.603 176.744 395.929 155.079 385.533 147.275C383.136 145.477 380.848 145.109 378.769 145.528C371.773 147.087 366.907 158.096 366.907 158.096C366.907 158.096 360.821 132.107 358.244 109.554C355.667 87.0002 336.521 96.602 336.521 96.602L307.571 112.362C302.019 115.429 295.905 117.341 289.595 117.985C286.293 118.374 282.956 118.347 279.661 117.906C257.281 115.019 255.837 72.6481 281.509 77.4778C283.097 77.7883 284.577 79.4271 285.566 80.575C280.412 70.5833 285.906 57.9928 296.049 54.1737C302.214 51.8563 309.109 52.2967 315.541 53.6539C335.626 57.8917 353.335 66.6481 365.774 83.5125C378.985 101.38 382.292 123.985 378.769 145.549" stroke="black" stroke-width="1.5" stroke-linejoin="round"/>
<path d="M311.823 180.643H301.42L302.099 172.399L304.878 139.023" stroke="black" stroke-width="1.5" stroke-linejoin="round"/>
<path d="M302.077 172.397H273.503C271.477 172.397 269.534 171.592 268.102 170.16C266.67 168.728 265.865 166.785 265.865 164.759V139.029H314.162M314.162 139.029V164.759C314.165 166.786 314.971 168.728 316.404 170.161C317.838 171.593 319.781 172.397 321.808 172.397H350.144C352.17 172.397 354.114 171.593 355.547 170.161C356.981 168.728 357.787 166.786 357.789 164.759V139.029H314.162Z" stroke="black" stroke-width="1.5" stroke-linejoin="round"/>
<path d="M311.823 190.591C311.823 190.591 319.194 193.19 327.431 180.614" stroke="black" stroke-width="1.5" stroke-linejoin="round"/>
<path d="M403.227 274.104L403.292 273.967C397.448 270.523 391.993 266.454 387.027 261.831C384.741 259.685 382.575 257.442 380.53 255.103C378.116 252.363 375.865 249.485 373.787 246.483L372.105 244.108" stroke="black" stroke-width="1.5" stroke-linejoin="round"/>
<path d="M343.191 309.003L332.116 293.748L320.306 278.183L345.097 263.182L372.126 244.108L380.508 255.103L383.323 258.807L376.487 267.564L323.099 336.09V336.119L313 348.673" stroke="black" stroke-width="1.5" stroke-linejoin="round"/>
<path d="M291.414 300.325L320.292 278.205L284.816 242.751L271.373 255.428L312.993 348.695L307.903 391.802M249.202 267.066C261.89 262.17 273.361 254.576 282.823 244.808L284.83 242.729" stroke="black" stroke-width="1.5" stroke-linejoin="round"/>
<path d="M332.117 296.348L318.971 311.097C318.541 311.443 318.045 311.699 317.514 311.847C316.982 311.995 316.426 312.034 315.879 311.962C315.333 311.889 314.806 311.705 314.332 311.423C313.859 311.14 313.447 310.765 313.123 310.318L303.882 290.45" stroke="black" stroke-width="1.5" stroke-linejoin="round"/>
<path d="M323.793 305.69L329.366 328.048" stroke="black" stroke-width="1.5" stroke-linejoin="round"/>
<path d="M309.975 303.552L300.987 321.774" stroke="black" stroke-width="1.5" stroke-linejoin="round"/>
<path d="M372.105 244.11L363.86 219.325C361.616 222.47 358.724 225.097 355.377 227.029" stroke="black" stroke-width="1.5" stroke-linejoin="round"/>
<path d="M290.497 219.325L284.83 242.731" stroke="black" stroke-width="1.5" stroke-linejoin="round"/>
<path d="M329.684 159.836C331.781 159.836 333.481 158.136 333.481 156.039C333.481 153.941 331.781 152.241 329.684 152.241C327.587 152.241 325.886 153.941 325.886 156.039C325.886 158.136 327.587 159.836 329.684 159.836Z" fill="black"/>
<path d="M296.568 159.836C298.666 159.836 300.366 158.136 300.366 156.039C300.366 153.941 298.666 152.241 296.568 152.241C294.471 152.241 292.771 153.941 292.771 156.039C292.771 158.136 294.471 159.836 296.568 159.836Z" fill="black"/>
<path d="M402.592 274.336C402.592 274.336 428.134 284.14 405.191 323.782C397.972 336.213 394.059 343.577 392.059 347.793" stroke="black" stroke-width="1.5" stroke-linejoin="round"/>
<path d="M348.397 435.076C348.397 435.076 338.412 430.607 338.716 427.856C339.019 425.106 359.103 359.417 373.051 350.912C386.999 342.408 395.936 349.743 395.936 349.743C395.936 349.743 409.48 357.078 405.401 376.231C401.322 395.384 376.343 441.133 376.343 441.133L366.546 437.783" stroke="black" stroke-width="1.5" stroke-linejoin="round"/>
<path d="M240.424 269.441C240.424 269.441 225.913 315.844 228.873 386.803" stroke="black" stroke-width="1.5" stroke-linejoin="round"/>
<path d="M228.524 427.921C240.498 427.862 250.158 418.471 250.102 406.944C250.045 395.417 240.293 386.121 228.32 386.179C216.347 386.237 206.686 395.629 206.743 407.156C206.799 418.682 216.551 427.979 228.524 427.921Z" stroke="black" stroke-width="1.5" stroke-linejoin="round"/>
<path d="M451.547 649.463V591.686V590.206" stroke="black" stroke-width="1.5" stroke-linejoin="round"/>
<path d="M179.124 649.254V562.556V562.527" stroke="black" stroke-width="1.5" stroke-linejoin="round"/>
<path d="M75.5474 649.072C75.5474 649.072 118.387 649.152 178.633 649.231C258.768 649.332 369.607 649.462 451.525 649.462C514.68 649.462 560.617 649.332 561.982 649.072" stroke="black" stroke-width="1.5" stroke-linejoin="round"/>
<path d="M356.093 435.857C356.093 438.357 354.066 440.384 351.566 440.384C349.066 440.384 347.039 438.357 347.039 435.857C347.039 433.356 349.066 431.329 351.566 431.329C354.066 431.329 356.093 433.356 356.093 435.857Z" fill="white" stroke="black" stroke-width="1.5"/>
<path d="M368.446 436.881C368.446 439.381 366.418 441.408 363.918 441.408C361.418 441.408 359.391 439.381 359.391 436.881C359.391 434.38 361.418 432.353 363.918 432.353C366.418 432.353 368.446 434.38 368.446 436.881Z" fill="white" stroke="black" stroke-width="1.5"/>
<path d="M586.633 40.0072L557.307 82.0856L555.559 80.8554L584.885 38.777L586.633 40.0072Z" fill="white" stroke="black" stroke-width="1.5"/>
<path d="M511.284 154.962L502.4 167.247L494.827 162.124L503.711 149.839L511.284 154.962Z" fill="white" stroke="black" stroke-width="1.5"/>
<path d="M520.763 152.972L520.765 152.967L561.987 94.0366L520.763 152.972ZM520.763 152.972C519.763 154.422 518.429 155.412 517.117 155.859M520.763 152.972L517.117 155.859M543.179 80.8858L543.176 80.8899L501.954 139.821C501.954 139.821 501.954 139.821 501.954 139.821C500.937 141.279 500.464 142.875 500.492 144.256C500.52 145.638 501.041 146.748 501.949 147.382C501.949 147.382 501.949 147.383 501.949 147.383L513.658 155.561L543.179 80.8858ZM543.179 80.8858C544.179 79.4355 545.513 78.4438 546.825 77.996C548.138 77.5478 549.371 77.6571 550.282 78.295L550.283 78.2952M543.179 80.8858L550.283 78.2952M550.283 78.2952L561.992 86.482L561.994 86.4829M550.283 78.2952L561.994 86.4829M561.994 86.4829C562.9 87.1137 563.421 88.2214 563.449 89.6023M561.994 86.4829L563.449 89.6023M517.117 155.859C515.804 156.306 514.57 156.197 513.659 155.562L517.117 155.859ZM563.449 89.6023C563.477 90.9826 563.004 92.5779 561.988 94.0357L563.449 89.6023Z" fill="white" stroke="black" stroke-width="1.5"/>
<path d="M511.539 180.571L511.543 180.566C512.343 179.401 512.714 178.122 512.693 177.018C512.672 175.913 512.266 175.052 511.591 174.572C511.591 174.572 511.59 174.571 511.589 174.571L484.894 155.877C484.504 155.628 484.061 155.475 483.601 155.431L511.539 180.571ZM511.539 180.571C510.826 181.625 509.803 182.433 508.612 182.88L508.598 182.886M511.539 180.571L508.598 182.886M508.598 182.886L508.585 182.891M508.598 182.886L508.585 182.891M508.585 182.891C508.155 183.072 507.686 183.145 507.22 183.103C506.758 183.062 506.314 182.909 505.924 182.657L479.223 163.96L479.223 163.959M508.585 182.891L479.223 163.959M479.223 163.959C478.531 163.475 478.121 162.61 478.102 161.504C478.082 160.4 478.461 159.122 479.27 157.965L479.27 157.965M479.223 163.959L479.27 157.965M479.27 157.965L479.278 157.954M479.27 157.965L479.278 157.954M479.278 157.954C479.993 156.892 481.02 156.08 482.218 155.631L482.225 155.628M479.278 157.954L482.225 155.628M482.225 155.628L482.233 155.625M482.225 155.628L482.233 155.625M482.233 155.625C482.667 155.452 483.136 155.386 483.601 155.431L482.233 155.625Z" fill="white" stroke="black" stroke-width="1.5"/>
<path d="M598.195 277.433C598.195 294.255 584.558 307.892 567.736 307.892C550.914 307.892 537.277 294.255 537.277 277.433C537.277 260.61 550.914 246.973 567.736 246.973C584.558 246.973 598.195 260.61 598.195 277.433Z" fill="white" stroke="black" stroke-width="1.5"/>
<path d="M566.985 269.175C566.985 274.308 562.825 278.467 557.693 278.467C552.561 278.467 548.401 274.308 548.401 269.175C548.401 264.044 552.561 259.883 557.693 259.883C562.825 259.883 566.985 264.043 566.985 269.175Z" fill="white" stroke="black" stroke-width="1.5"/>
<path d="M97.7552 560.974C97.7552 577.796 84.1178 591.433 67.2958 591.433C50.4737 591.433 36.8364 577.796 36.8364 560.974C36.8364 544.151 50.4737 530.514 67.2958 530.514C84.1178 530.514 97.7552 544.151 97.7552 560.974Z" fill="white" stroke="black" stroke-width="1.5"/>
<path d="M485.984 249.994C485.984 258.196 479.335 264.845 471.133 264.845C462.931 264.845 456.282 258.196 456.282 249.994C456.282 241.792 462.931 235.143 471.133 235.143C479.335 235.143 485.984 241.792 485.984 249.994Z" fill="white" stroke="black" stroke-width="1.5"/>
<path d="M68.7188 552.111C68.7188 557.242 64.5584 561.403 59.4267 561.403C54.295 561.403 50.1345 557.242 50.1345 552.111C50.1345 546.978 54.2949 542.818 59.4267 542.818C64.5584 542.818 68.7188 546.978 68.7188 552.111Z" fill="white" stroke="black" stroke-width="1.5"/>
<path d="M583.647 583.318C592.264 583.318 599.249 576.333 599.249 567.717C599.249 559.101 592.264 552.116 583.647 552.116C575.031 552.116 568.046 559.101 568.046 567.717C568.046 576.333 575.031 583.318 583.647 583.318Z" fill="#D7E8F0"/>
<path d="M470.383 246.232C470.383 248.888 468.23 251.041 465.574 251.041C462.918 251.041 460.765 248.888 460.765 246.232C460.765 243.576 462.918 241.423 465.574 241.423C468.23 241.423 470.383 243.576 470.383 246.232Z" fill="white" stroke="black" stroke-width="1.5"/>
<path d="M577.157 568.366C579.298 568.366 581.034 566.631 581.034 564.49C581.034 562.348 579.298 560.613 577.157 560.613C575.016 560.613 573.28 562.348 573.28 564.49C573.28 566.631 575.016 568.366 577.157 568.366Z" fill="white"/>
<path d="M230.743 53.9004C230.743 62.1025 224.094 68.7515 215.892 68.7515C207.69 68.7515 201.041 62.1025 201.041 53.9004C201.041 45.6983 207.69 39.0493 215.892 39.0493C224.094 39.0493 230.743 45.6983 230.743 53.9004Z" fill="white" stroke="black" stroke-width="1.5"/>
<path d="M218.333 52.513C218.333 55.1692 216.18 57.3219 213.524 57.3219C210.868 57.3219 208.715 55.1691 208.715 52.513C208.715 49.8569 210.868 47.7041 213.524 47.7041C216.18 47.7041 218.333 49.8568 218.333 52.513Z" fill="white" stroke="black" stroke-width="1.5"/>
<path d="M536.533 488.361C568.447 488.361 594.317 462.491 594.317 430.577C594.317 398.664 568.447 372.793 536.533 372.793C504.62 372.793 478.75 398.664 478.75 430.577C478.75 462.491 504.62 488.361 536.533 488.361Z" fill="white"/>
<path d="M580.284 430.579C580.284 454.742 560.696 474.329 536.534 474.329C512.371 474.329 492.783 454.742 492.783 430.579C492.783 406.416 512.371 386.829 536.534 386.829C560.696 386.829 580.284 406.416 580.284 430.579Z" stroke="black" stroke-width="1.5"/>
<path d="M536.72 421.42L535.25 421.719C535.125 421.103 535.237 420.472 535.471 419.871C532.09 411.492 517.076 405.506 510.002 419.952C502.742 434.778 532.267 457.626 535.711 460.292C535.846 460.396 535.941 460.469 535.992 460.51L536.72 421.42ZM536.72 421.42C536.72 421.42 536.72 421.419 536.72 421.419L536.72 421.42ZM556.064 443.089C550.119 450.605 541.834 456.975 536.095 459.64L536.719 421.417C536.644 421.041 536.767 420.491 537.184 419.768C537.59 419.065 538.211 418.31 538.926 417.58C540.365 416.112 542.068 414.865 542.867 414.444C545.894 412.86 549.783 412.646 553.366 413.628C556.949 414.609 560.117 416.757 561.764 419.763C563.672 423.248 563.782 427.129 562.641 431.132C561.498 435.147 559.103 439.247 556.064 443.089Z" fill="#70E000" stroke="black" stroke-width="1.5"/>
<path d="M238.214 407.594C238.214 412.799 233.995 417.018 228.79 417.018C223.585 417.018 219.365 412.799 219.365 407.594C219.365 402.389 223.585 398.17 228.79 398.17C233.995 398.17 238.214 402.389 238.214 407.594Z" fill="white" stroke="black" stroke-width="1.5"/>
</svg>
