<svg width="274" height="64" viewBox="0 0 274 64" fill="none" xmlns="http://www.w3.org/2000/svg">
<mask id="mask0_129_379" style="mask-type:alpha" maskUnits="userSpaceOnUse" x="-12" y="-18" width="76" height="76">
<circle cx="26.1815" cy="20.1819" r="37.8182" fill="#D9D9D9"/>
</mask>
<g mask="url(#mask0_129_379)">
<path d="M50.1488 27.2332L47.9498 28.6867C46.6081 26.699 44.8564 25.1336 42.6947 23.9906C40.5578 22.8228 38.2347 22.2389 35.7251 22.2389C31.6502 22.2389 28.1716 23.6801 25.2894 26.5623C22.4071 29.4446 20.966 32.9231 20.966 36.9981C20.966 41.073 22.4071 44.5515 25.2894 47.4338C28.1716 50.316 31.6502 51.7572 35.7251 51.7572C38.2347 51.7572 40.5578 51.1733 42.6947 50.0055C44.8564 48.8376 46.6081 47.2599 47.9498 45.2721L50.1115 46.8375C48.5213 49.1731 46.459 51.0242 43.9246 52.3908C41.3902 53.7574 38.6571 54.4406 35.7251 54.4406C33.3646 54.4406 31.1036 53.981 28.9419 53.0616C26.805 52.1423 24.9539 50.9 23.3886 49.3346C21.8232 47.7692 20.5809 45.9181 19.6615 43.7813C18.7422 41.6196 18.2825 39.3585 18.2825 36.9981C18.2825 34.6376 18.7422 32.3889 19.6615 30.2521C20.5809 28.0904 21.8232 26.2269 23.3886 24.6615C24.9539 23.0961 26.805 21.8538 28.9419 20.9345C31.1036 20.0151 33.3646 19.5555 35.7251 19.5555C38.6819 19.5555 41.4275 20.2512 43.9619 21.6426C46.4963 23.0092 48.5586 24.8727 50.1488 27.2332ZM54.584 24.177L52.3478 25.6305C50.5091 22.9471 48.1238 20.8226 45.1918 19.2573C42.2847 17.6671 39.1291 16.872 35.7251 16.872C32.0726 16.872 28.7058 17.7789 25.6248 19.5927C22.5438 21.3817 20.0963 23.8167 18.2825 26.8977C16.4935 29.9788 15.599 33.3455 15.599 36.9981C15.599 40.6506 16.4935 44.0173 18.2825 47.0984C20.0963 50.1794 22.5438 52.6268 25.6248 54.4406C28.7058 56.2296 32.0726 57.1241 35.7251 57.1241C39.1291 57.1241 42.2971 56.329 45.2291 54.7388C48.161 53.1486 50.5463 50.9993 52.385 48.291L54.584 49.8191C52.4968 52.9001 49.7885 55.3351 46.459 57.1241C43.1544 58.9131 39.5764 59.8076 35.7251 59.8076C31.6005 59.8076 27.7865 58.7889 24.2831 56.7514C20.7796 54.714 18.0092 51.9435 15.9717 48.4401C13.9343 44.9367 12.9156 41.1227 12.9156 36.9981C12.9156 32.8734 13.9343 29.0594 15.9717 25.556C18.0092 22.0526 20.7796 19.2821 24.2831 17.2447C27.7865 15.2072 31.6005 14.1885 35.7251 14.1885C39.5764 14.1885 43.1544 15.083 46.459 16.872C49.7885 18.661 52.4968 21.096 54.584 24.177ZM59.0564 21.1954L56.8202 22.6489C54.4846 19.22 51.4533 16.5117 47.7262 14.5239C44.024 12.5113 40.0236 11.505 35.7251 11.505C32.2714 11.505 28.9667 12.1759 25.8111 13.5176C22.6556 14.8594 19.9348 16.6732 17.6489 18.9591C15.3878 21.2202 13.5864 23.9285 12.2447 27.0841C10.9029 30.2397 10.2321 33.5443 10.2321 36.9981C10.2321 40.4518 10.9029 43.7564 12.2447 46.912C13.5864 50.0676 15.3878 52.7883 17.6489 55.0742C19.9348 57.3353 22.6556 59.1367 25.8111 60.4785C28.9667 61.8202 32.2714 62.4911 35.7251 62.4911C40.0485 62.4911 44.0613 61.4848 47.7635 59.4722C51.4657 57.4596 54.4846 54.7388 56.8202 51.3099L58.9819 52.9126C56.3978 56.6893 53.0559 59.6834 48.9561 61.8947C44.8812 64.0813 40.4709 65.1746 35.7251 65.1746C30.6315 65.1746 25.923 63.9198 21.5996 61.4102C17.2762 58.8758 13.8473 55.4469 11.3129 51.1236C8.80337 46.8002 7.5486 42.0917 7.5486 36.9981C7.5486 31.9044 8.80337 27.1959 11.3129 22.8725C13.8473 18.5491 17.2762 15.1327 21.5996 12.6231C25.923 10.0887 30.6315 8.82154 35.7251 8.82154C40.4957 8.82154 44.9309 9.93966 49.0307 12.1759C53.1304 14.3873 56.4724 17.3938 59.0564 21.1954ZM63.4544 18.1392L61.2181 19.5927C58.3856 15.4433 54.7206 12.1635 50.2233 9.75331C45.7509 7.34315 40.9181 6.13807 35.7251 6.13807C31.5508 6.13807 27.5504 6.95802 23.724 8.59792C19.9224 10.213 16.6426 12.3995 13.8846 15.1575C11.1266 17.9155 8.9276 21.2078 7.2877 25.0342C5.67265 28.8358 4.86512 32.8238 4.86512 36.9981C4.86512 41.1723 5.67265 45.1727 7.2877 48.9992C8.9276 52.8007 11.1266 56.0806 13.8846 58.8386C16.6426 61.5966 19.9224 63.7955 23.724 65.4354C27.5504 67.0505 31.5508 67.858 35.7251 67.858C40.9181 67.858 45.7633 66.6405 50.2606 64.2055C54.7579 61.7705 58.4229 58.4783 61.2554 54.3288L63.4171 55.9687C60.3361 60.4412 56.3605 63.9943 51.4905 66.6281C46.6205 69.237 41.3654 70.5415 35.7251 70.5415C31.1781 70.5415 26.8299 69.647 22.6804 67.858C18.5558 66.0939 14.9903 63.721 11.9838 60.7394C9.00215 57.7329 6.61683 54.1673 4.82785 50.0427C3.06371 45.8933 2.18164 41.5451 2.18164 36.9981C2.18164 32.451 3.06371 28.1152 4.82785 23.9906C6.61683 19.8412 9.00215 16.2756 11.9838 13.294C14.9903 10.2875 18.5558 7.9022 22.6804 6.13807C26.8299 4.34908 31.1781 3.45459 35.7251 3.45459C41.3902 3.45459 46.6578 4.77148 51.5278 7.40526C56.3978 10.039 60.3733 13.617 63.4544 18.1392Z" fill="#161A1D"/>
</g>
<circle cx="45.8186" cy="50.7273" r="7.27273" fill="#70E000"/>
<path d="M99.456 16.736C99.2427 14.7307 98.5387 13.1733 97.344 12.064C96.1707 10.9547 94.656 10.4 92.8 10.4C91.6693 10.4 90.6027 10.6453 89.6 11.136C88.6187 11.6053 87.7547 12.288 87.008 13.184C86.2613 14.08 85.6747 15.1573 85.248 16.416C84.8213 17.6747 84.608 19.0933 84.608 20.672C84.608 22.6773 84.992 24.448 85.76 25.984C86.528 27.52 87.5627 28.7147 88.864 29.568C90.1653 30.4213 91.6053 30.848 93.184 30.848C94.5707 30.848 95.936 30.5387 97.28 29.92C98.624 29.28 99.7227 28.3627 100.576 27.168L101.408 27.84C100.491 29.0987 99.4987 30.0693 98.432 30.752C97.3653 31.4347 96.2987 31.8933 95.232 32.128C94.1867 32.384 93.2267 32.512 92.352 32.512C90.752 32.512 89.28 32.224 87.936 31.648C86.6133 31.072 85.4613 30.272 84.48 29.248C83.52 28.2027 82.7733 26.9973 82.24 25.632C81.728 24.2453 81.472 22.752 81.472 21.152C81.472 19.6373 81.696 18.1653 82.144 16.736C82.6133 15.3067 83.3067 14.016 84.224 12.864C85.1413 11.712 86.2933 10.7947 87.68 10.112C89.088 9.42933 90.72 9.088 92.576 9.088C93.7707 9.088 94.9013 9.248 95.968 9.568C97.0347 9.888 98.0587 10.3787 99.04 11.04L98.88 9.312H100.608V16.736H99.456ZM111.527 32.512C110.055 32.512 108.722 32.1707 107.527 31.488C106.354 30.784 105.426 29.8027 104.743 28.544C104.06 27.264 103.719 25.76 103.719 24.032C103.719 22.5387 104.05 21.1413 104.711 19.84C105.394 18.5387 106.343 17.4933 107.559 16.704C108.775 15.8933 110.183 15.488 111.783 15.488C112.679 15.488 113.511 15.6373 114.279 15.936C115.068 16.2133 115.762 16.6507 116.359 17.248C116.956 17.824 117.426 18.56 117.767 19.456C118.108 20.3307 118.279 21.3653 118.279 22.56L107.015 22.752C107.015 24.3733 107.186 25.8027 107.527 27.04C107.89 28.256 108.466 29.2053 109.255 29.888C110.044 30.5493 111.058 30.88 112.295 30.88C112.956 30.88 113.628 30.7627 114.311 30.528C115.015 30.2933 115.666 29.9733 116.263 29.568C116.86 29.1627 117.34 28.7147 117.703 28.224L118.471 28.864C117.895 29.76 117.202 30.4747 116.391 31.008C115.58 31.5413 114.748 31.9253 113.895 32.16C113.042 32.3947 112.252 32.512 111.527 32.512ZM107.111 21.408H115.271C115.271 20.64 115.154 19.904 114.919 19.2C114.706 18.4747 114.343 17.888 113.831 17.44C113.319 16.9707 112.647 16.736 111.815 16.736C110.578 16.736 109.543 17.1093 108.711 17.856C107.9 18.5813 107.367 19.7653 107.111 21.408ZM121.127 31.04C121.788 31.04 122.247 30.88 122.503 30.56C122.759 30.2187 122.908 29.76 122.951 29.184C122.993 28.5867 123.015 27.904 123.015 27.136V19.84C123.015 19.4987 123.015 19.1573 123.015 18.816C123.036 18.4747 123.079 18.1227 123.143 17.76C122.759 17.7813 122.375 17.8027 121.991 17.824C121.628 17.824 121.255 17.8347 120.871 17.856V16.544H121.863C122.78 16.544 123.409 16.4587 123.751 16.288C124.113 16.096 124.412 15.8933 124.647 15.68H125.575C125.617 16.0213 125.649 16.448 125.671 16.96C125.692 17.4507 125.713 18.08 125.735 18.848C126.055 18.3147 126.492 17.792 127.047 17.28C127.601 16.768 128.22 16.3413 128.903 16C129.607 15.6587 130.343 15.488 131.111 15.488C131.708 15.488 132.231 15.648 132.679 15.968C133.127 16.288 133.351 16.8 133.351 17.504C133.351 17.6747 133.297 17.888 133.191 18.144C133.084 18.3787 132.913 18.592 132.679 18.784C132.444 18.9547 132.135 19.04 131.751 19.04C131.281 19.0187 130.908 18.8373 130.631 18.496C130.353 18.1333 130.247 17.7173 130.311 17.248C129.777 17.2267 129.223 17.3653 128.647 17.664C128.092 17.9627 127.569 18.3787 127.079 18.912C126.588 19.424 126.151 20.032 125.767 20.736L125.799 28.608C125.799 29.0347 125.788 29.4187 125.767 29.76C125.767 30.08 125.735 30.4213 125.671 30.784C126.012 30.7627 126.343 30.752 126.663 30.752C127.004 30.7307 127.345 30.7093 127.687 30.688V32H121.127V31.04ZM142.496 32.512C141.024 32.512 139.69 32.1707 138.496 31.488C137.322 30.784 136.394 29.8027 135.712 28.544C135.029 27.264 134.688 25.76 134.688 24.032C134.688 22.5387 135.018 21.1413 135.68 19.84C136.362 18.5387 137.312 17.4933 138.528 16.704C139.744 15.8933 141.152 15.488 142.752 15.488C143.648 15.488 144.48 15.6373 145.248 15.936C146.037 16.2133 146.73 16.6507 147.328 17.248C147.925 17.824 148.394 18.56 148.736 19.456C149.077 20.3307 149.248 21.3653 149.248 22.56L137.984 22.752C137.984 24.3733 138.154 25.8027 138.496 27.04C138.858 28.256 139.434 29.2053 140.224 29.888C141.013 30.5493 142.026 30.88 143.264 30.88C143.925 30.88 144.597 30.7627 145.28 30.528C145.984 30.2933 146.634 29.9733 147.232 29.568C147.829 29.1627 148.309 28.7147 148.672 28.224L149.44 28.864C148.864 29.76 148.17 30.4747 147.36 31.008C146.549 31.5413 145.717 31.9253 144.864 32.16C144.01 32.3947 143.221 32.512 142.496 32.512ZM138.08 21.408H146.24C146.24 20.64 146.122 19.904 145.888 19.2C145.674 18.4747 145.312 17.888 144.8 17.44C144.288 16.9707 143.616 16.736 142.784 16.736C141.546 16.736 140.512 17.1093 139.68 17.856C138.869 18.5813 138.336 19.7653 138.08 21.408ZM158.656 32.512C157.589 32.512 156.64 32.3627 155.808 32.064C154.976 31.7867 154.293 31.4667 153.76 31.104L153.888 32.224H152.544L152.352 26.72H153.344C153.386 27.5947 153.632 28.384 154.08 29.088C154.528 29.7707 155.104 30.304 155.808 30.688C156.512 31.072 157.269 31.264 158.08 31.264C158.634 31.264 159.178 31.1787 159.712 31.008C160.245 30.816 160.693 30.5387 161.056 30.176C161.418 29.792 161.6 29.312 161.6 28.736C161.6 28.1387 161.418 27.648 161.056 27.264C160.714 26.8587 160.256 26.5067 159.68 26.208C159.104 25.9093 158.485 25.632 157.824 25.376C157.184 25.12 156.544 24.8533 155.904 24.576C155.264 24.2987 154.666 23.968 154.112 23.584C153.578 23.2 153.152 22.7307 152.832 22.176C152.512 21.6213 152.352 20.9387 152.352 20.128C152.352 19.68 152.437 19.1893 152.608 18.656C152.778 18.1227 153.066 17.6213 153.472 17.152C153.877 16.6613 154.432 16.2667 155.136 15.968C155.84 15.648 156.736 15.488 157.824 15.488C158.4 15.488 159.04 15.584 159.744 15.776C160.448 15.968 161.13 16.3307 161.792 16.864L161.728 15.648H163.072V21.248H162.048C162.005 20.5013 161.834 19.7867 161.536 19.104C161.237 18.4 160.8 17.824 160.224 17.376C159.648 16.9067 158.901 16.672 157.984 16.672C157.002 16.672 156.234 16.9173 155.68 17.408C155.125 17.8987 154.848 18.464 154.848 19.104C154.848 19.7653 155.05 20.32 155.456 20.768C155.882 21.1947 156.426 21.568 157.088 21.888C157.749 22.208 158.453 22.5173 159.2 22.816C160.01 23.1573 160.8 23.5307 161.568 23.936C162.336 24.3413 162.965 24.8533 163.456 25.472C163.946 26.0693 164.192 26.848 164.192 27.808C164.192 28.8747 163.914 29.76 163.36 30.464C162.826 31.168 162.133 31.68 161.28 32C160.448 32.3413 159.573 32.512 158.656 32.512ZM186.77 32.512C184.744 32.512 183.005 32.1707 181.554 31.488C180.104 30.8053 178.92 29.8987 178.002 28.768C177.106 27.616 176.445 26.3467 176.018 24.96C175.592 23.5733 175.378 22.1867 175.378 20.8C175.378 19.456 175.602 18.1013 176.05 16.736C176.498 15.3493 177.181 14.08 178.098 12.928C179.037 11.776 180.2 10.848 181.586 10.144C182.994 9.44 184.637 9.088 186.514 9.088C188.477 9.088 190.173 9.44 191.602 10.144C193.032 10.848 194.205 11.7867 195.122 12.96C196.061 14.112 196.754 15.3707 197.202 16.736C197.672 18.1013 197.906 19.456 197.906 20.8C197.906 22.1227 197.682 23.4773 197.234 24.864C196.786 26.2293 196.093 27.4987 195.154 28.672C194.237 29.824 193.085 30.752 191.698 31.456C190.312 32.16 188.669 32.512 186.77 32.512ZM186.834 31.2C188.157 31.2 189.309 30.9227 190.29 30.368C191.272 29.792 192.082 29.0347 192.722 28.096C193.384 27.136 193.874 26.08 194.194 24.928C194.536 23.7547 194.706 22.5813 194.706 21.408C194.706 20.0853 194.525 18.7733 194.162 17.472C193.8 16.1707 193.266 14.9867 192.562 13.92C191.858 12.8533 190.984 12 189.938 11.36C188.914 10.6987 187.741 10.368 186.418 10.368C185.096 10.368 183.933 10.656 182.93 11.232C181.949 11.808 181.128 12.576 180.466 13.536C179.826 14.4747 179.336 15.5307 178.994 16.704C178.674 17.856 178.514 19.0293 178.514 20.224C178.514 21.3973 178.674 22.624 178.994 23.904C179.336 25.184 179.848 26.3787 180.53 27.488C181.213 28.5973 182.077 29.4933 183.122 30.176C184.168 30.8587 185.405 31.2 186.834 31.2ZM200.721 32V31.04C201.382 31.04 201.841 30.88 202.097 30.56C202.353 30.2187 202.502 29.76 202.545 29.184C202.587 28.5867 202.609 27.904 202.609 27.136L202.641 19.84C202.641 19.4987 202.641 19.1573 202.641 18.816C202.662 18.4747 202.705 18.1227 202.769 17.76C202.385 17.7813 202.001 17.8027 201.617 17.824C201.254 17.8453 200.881 17.8667 200.497 17.888V16.544C201.435 16.544 202.139 16.5013 202.609 16.416C203.099 16.3307 203.462 16.224 203.697 16.096C203.931 15.968 204.123 15.8293 204.273 15.68H205.201C205.222 15.8293 205.233 16 205.233 16.192C205.254 16.384 205.275 16.5973 205.297 16.832C205.318 17.0667 205.329 17.3333 205.329 17.632C205.798 17.2267 206.31 16.864 206.865 16.544C207.441 16.224 208.038 15.968 208.657 15.776C209.297 15.584 209.926 15.488 210.545 15.488C212.401 15.488 213.755 16.0747 214.609 17.248C215.462 18.4 215.889 20.2027 215.889 22.656V28.608C215.889 29.0347 215.878 29.4187 215.857 29.76C215.857 30.08 215.825 30.4213 215.76 30.784C216.102 30.7627 216.433 30.752 216.753 30.752C217.094 30.7307 217.435 30.7093 217.777 30.688V32H211.249V31.04C211.91 31.04 212.369 30.88 212.625 30.56C212.881 30.2187 213.03 29.76 213.073 29.184C213.115 28.5867 213.137 27.904 213.137 27.136V22.656C213.115 20.8213 212.806 19.4347 212.209 18.496C211.633 17.5573 210.715 17.0987 209.457 17.12C208.689 17.1413 207.931 17.344 207.185 17.728C206.459 18.112 205.851 18.6027 205.361 19.2C205.382 19.3707 205.393 19.5627 205.393 19.776C205.393 19.9893 205.393 20.2133 205.393 20.448L205.361 28.608C205.361 29.0347 205.35 29.4187 205.329 29.76C205.329 30.08 205.297 30.4213 205.233 30.784C205.574 30.7627 205.905 30.752 206.225 30.752C206.566 30.7307 206.907 30.7093 207.249 30.688V32H200.721ZM219.838 31.04C220.499 31.04 220.958 30.88 221.214 30.56C221.47 30.2187 221.619 29.76 221.662 29.184C221.705 28.5867 221.726 27.904 221.726 27.136V12C221.726 11.6587 221.726 11.3387 221.726 11.04C221.747 10.72 221.779 10.3467 221.822 9.92C221.438 9.94133 221.054 9.96267 220.67 9.984C220.307 10.0053 219.934 10.0267 219.55 10.048V8.704C220.489 8.704 221.214 8.66133 221.726 8.576C222.259 8.49066 222.654 8.384 222.91 8.256C223.187 8.128 223.401 7.98933 223.55 7.84H224.478L224.51 28.608C224.51 29.0347 224.499 29.4187 224.478 29.76C224.457 30.08 224.414 30.4213 224.35 30.784C224.691 30.7627 225.022 30.752 225.342 30.752C225.683 30.7307 226.025 30.7093 226.366 30.688V32H219.838V31.04ZM228.877 31.04C229.538 31.04 229.997 30.88 230.253 30.56C230.509 30.2187 230.658 29.76 230.701 29.184C230.743 28.5867 230.765 27.904 230.765 27.136V19.84C230.765 19.4987 230.775 19.1787 230.797 18.88C230.818 18.56 230.85 18.1867 230.893 17.76C230.509 17.7813 230.125 17.8027 229.741 17.824C229.378 17.8453 229.005 17.8667 228.621 17.888V16.544C229.559 16.544 230.285 16.5013 230.797 16.416C231.309 16.3307 231.693 16.224 231.949 16.096C232.226 15.968 232.439 15.8293 232.589 15.68H233.517V28.608C233.517 29.0347 233.506 29.4187 233.485 29.76C233.485 30.08 233.453 30.4213 233.389 30.784C233.73 30.7627 234.061 30.752 234.381 30.752C234.722 30.7307 235.063 30.7093 235.405 30.688V32H228.877V31.04ZM231.949 12.512C231.501 12.512 231.106 12.3307 230.765 11.968C230.423 11.6053 230.253 11.1573 230.253 10.624C230.253 10.0907 230.423 9.64267 230.765 9.28C231.127 8.896 231.533 8.704 231.981 8.704C232.471 8.704 232.877 8.896 233.197 9.28C233.538 9.64267 233.709 10.0907 233.709 10.624C233.709 11.1573 233.527 11.6053 233.165 11.968C232.823 12.3307 232.418 12.512 231.949 12.512ZM237.877 32V31.04C238.538 31.04 238.997 30.88 239.253 30.56C239.509 30.2187 239.658 29.76 239.701 29.184C239.743 28.5867 239.765 27.904 239.765 27.136L239.797 19.84C239.797 19.4987 239.797 19.1573 239.797 18.816C239.818 18.4747 239.861 18.1227 239.925 17.76C239.541 17.7813 239.157 17.8027 238.773 17.824C238.41 17.8453 238.037 17.8667 237.653 17.888V16.544C238.591 16.544 239.295 16.5013 239.765 16.416C240.255 16.3307 240.618 16.224 240.853 16.096C241.087 15.968 241.279 15.8293 241.429 15.68H242.357C242.378 15.8293 242.389 16 242.389 16.192C242.41 16.384 242.431 16.5973 242.453 16.832C242.474 17.0667 242.485 17.3333 242.485 17.632C242.954 17.2267 243.466 16.864 244.021 16.544C244.597 16.224 245.194 15.968 245.813 15.776C246.453 15.584 247.082 15.488 247.701 15.488C249.557 15.488 250.911 16.0747 251.765 17.248C252.618 18.4 253.045 20.2027 253.045 22.656V28.608C253.045 29.0347 253.034 29.4187 253.013 29.76C253.013 30.08 252.981 30.4213 252.917 30.784C253.258 30.7627 253.589 30.752 253.909 30.752C254.25 30.7307 254.591 30.7093 254.933 30.688V32H248.405V31.04C249.066 31.04 249.525 30.88 249.781 30.56C250.037 30.2187 250.186 29.76 250.229 29.184C250.271 28.5867 250.293 27.904 250.293 27.136V22.656C250.271 20.8213 249.962 19.4347 249.365 18.496C248.789 17.5573 247.871 17.0987 246.613 17.12C245.845 17.1413 245.087 17.344 244.341 17.728C243.615 18.112 243.007 18.6027 242.517 19.2C242.538 19.3707 242.549 19.5627 242.549 19.776C242.549 19.9893 242.549 20.2133 242.549 20.448L242.517 28.608C242.517 29.0347 242.506 29.4187 242.485 29.76C242.485 30.08 242.453 30.4213 242.389 30.784C242.73 30.7627 243.061 30.752 243.381 30.752C243.722 30.7307 244.063 30.7093 244.405 30.688V32H237.877ZM265.058 32.512C263.586 32.512 262.253 32.1707 261.058 31.488C259.885 30.784 258.957 29.8027 258.274 28.544C257.592 27.264 257.25 25.76 257.25 24.032C257.25 22.5387 257.581 21.1413 258.242 19.84C258.925 18.5387 259.874 17.4933 261.09 16.704C262.306 15.8933 263.714 15.488 265.314 15.488C266.21 15.488 267.042 15.6373 267.81 15.936C268.6 16.2133 269.293 16.6507 269.89 17.248C270.488 17.824 270.957 18.56 271.298 19.456C271.64 20.3307 271.81 21.3653 271.81 22.56L260.546 22.752C260.546 24.3733 260.717 25.8027 261.058 27.04C261.421 28.256 261.997 29.2053 262.786 29.888C263.576 30.5493 264.589 30.88 265.826 30.88C266.488 30.88 267.16 30.7627 267.842 30.528C268.546 30.2933 269.197 29.9733 269.794 29.568C270.392 29.1627 270.872 28.7147 271.234 28.224L272.002 28.864C271.426 29.76 270.733 30.4747 269.922 31.008C269.112 31.5413 268.28 31.9253 267.426 32.16C266.573 32.3947 265.784 32.512 265.058 32.512ZM260.642 21.408H268.802C268.802 20.64 268.685 19.904 268.45 19.2C268.237 18.4747 267.874 17.888 267.362 17.44C266.85 16.9707 266.178 16.736 265.346 16.736C264.109 16.736 263.074 17.1093 262.242 17.856C261.432 18.5813 260.898 19.7653 260.642 21.408Z" fill="#161A1D"/>
<path d="M167 52L84 52" stroke="#161A1D" stroke-width="0.5"/>
<path d="M181.512 58.16C180.659 58.16 179.923 58 179.304 57.68C178.685 57.3493 178.152 56.896 177.704 56.32L178.296 55.744C178.712 56.3093 179.181 56.7253 179.704 56.992C180.237 57.248 180.851 57.376 181.544 57.376C182.291 57.376 182.899 57.2 183.368 56.848C183.837 56.496 184.072 56.0053 184.072 55.376C184.072 54.896 183.971 54.5067 183.768 54.208C183.565 53.9093 183.293 53.664 182.952 53.472C182.621 53.28 182.253 53.1093 181.848 52.96C181.453 52.8107 181.053 52.6613 180.648 52.512C180.253 52.352 179.891 52.16 179.56 51.936C179.229 51.7013 178.957 51.4027 178.744 51.04C178.541 50.6773 178.44 50.2187 178.44 49.664C178.44 49.1093 178.573 48.6293 178.84 48.224C179.117 47.808 179.491 47.488 179.96 47.264C180.44 47.04 180.989 46.928 181.608 46.928C182.312 46.928 182.941 47.0667 183.496 47.344C184.051 47.6107 184.515 47.9893 184.888 48.48L184.296 49.056C183.944 48.6187 183.549 48.288 183.112 48.064C182.685 47.8293 182.179 47.712 181.592 47.712C180.909 47.712 180.355 47.8827 179.928 48.224C179.512 48.5547 179.304 49.0187 179.304 49.616C179.304 50.064 179.405 50.4267 179.608 50.704C179.811 50.9813 180.077 51.216 180.408 51.408C180.749 51.5893 181.117 51.7493 181.512 51.888C181.917 52.0267 182.317 52.176 182.712 52.336C183.107 52.496 183.469 52.6987 183.8 52.944C184.141 53.1787 184.413 53.4827 184.616 53.856C184.819 54.2293 184.92 54.704 184.92 55.28C184.92 56.208 184.611 56.9227 183.992 57.424C183.384 57.9147 182.557 58.16 181.512 58.16ZM190.952 58.16C190.216 58.16 189.549 57.9893 188.952 57.648C188.365 57.3067 187.901 56.8427 187.56 56.256C187.218 55.6693 187.048 55.008 187.048 54.272C187.048 53.536 187.213 52.88 187.544 52.304C187.874 51.7173 188.328 51.2533 188.904 50.912C189.49 50.5707 190.141 50.4 190.856 50.4C191.538 50.4 192.136 50.5547 192.648 50.864C193.17 51.1627 193.576 51.5787 193.864 52.112C194.162 52.6453 194.312 53.2587 194.312 53.952C194.312 54.016 194.306 54.1013 194.296 54.208C194.285 54.304 194.269 54.4267 194.248 54.576H187.624V53.872H193.784L193.512 54.096C193.533 53.5093 193.437 52.9973 193.224 52.56C193.01 52.112 192.701 51.7653 192.296 51.52C191.89 51.2747 191.405 51.152 190.84 51.152C190.253 51.152 189.736 51.2853 189.288 51.552C188.84 51.808 188.488 52.1653 188.232 52.624C187.986 53.0827 187.864 53.616 187.864 54.224C187.864 54.864 187.992 55.424 188.248 55.904C188.514 56.3733 188.882 56.7413 189.352 57.008C189.821 57.264 190.37 57.392 191 57.392C191.48 57.392 191.922 57.3067 192.328 57.136C192.744 56.9547 193.09 56.688 193.368 56.336L193.912 56.864C193.57 57.2693 193.138 57.5893 192.616 57.824C192.104 58.048 191.549 58.16 190.952 58.16ZM196.808 58V50.56H197.624V58H196.808ZM197.624 53.552L197.224 53.408C197.224 52.4587 197.464 51.7227 197.944 51.2C198.424 50.6667 199.053 50.4 199.832 50.4C200.195 50.4 200.531 50.464 200.84 50.592C201.16 50.72 201.453 50.928 201.72 51.216L201.176 51.792C200.973 51.568 200.755 51.408 200.52 51.312C200.285 51.216 200.008 51.168 199.688 51.168C199.08 51.168 198.584 51.376 198.2 51.792C197.816 52.1973 197.624 52.784 197.624 53.552ZM206.151 58L202.679 50.56H203.575L206.647 57.312H206.151L209.239 50.56H210.119L206.631 58H206.151ZM212.354 58V50.56H213.154V58H212.354ZM212.754 48.832C212.573 48.832 212.418 48.768 212.29 48.64C212.173 48.5013 212.114 48.3413 212.114 48.16C212.114 47.9787 212.173 47.8293 212.29 47.712C212.418 47.584 212.573 47.52 212.754 47.52C212.935 47.52 213.09 47.584 213.218 47.712C213.346 47.8293 213.41 47.9787 213.41 48.16C213.41 48.3413 213.346 48.5013 213.218 48.64C213.09 48.768 212.935 48.832 212.754 48.832ZM219.604 58.16C218.879 58.16 218.223 57.9893 217.636 57.648C217.06 57.296 216.601 56.8267 216.26 56.24C215.919 55.6427 215.748 54.9813 215.748 54.256C215.748 53.5307 215.919 52.88 216.26 52.304C216.601 51.7173 217.06 51.2533 217.636 50.912C218.223 50.5707 218.879 50.4 219.604 50.4C220.148 50.4 220.66 50.5013 221.14 50.704C221.62 50.9067 222.031 51.1947 222.372 51.568L221.828 52.112C221.551 51.8133 221.22 51.584 220.836 51.424C220.463 51.2533 220.052 51.168 219.604 51.168C219.028 51.168 218.511 51.3067 218.052 51.584C217.604 51.8507 217.247 52.2133 216.98 52.672C216.713 53.1307 216.58 53.6587 216.58 54.256C216.58 54.8533 216.713 55.3867 216.98 55.856C217.247 56.3253 217.604 56.6987 218.052 56.976C218.511 57.2533 219.028 57.392 219.604 57.392C220.052 57.392 220.468 57.312 220.852 57.152C221.247 56.9813 221.583 56.7413 221.86 56.432L222.404 56.976C222.052 57.3493 221.631 57.6427 221.14 57.856C220.66 58.0587 220.148 58.16 219.604 58.16ZM228.042 58.16C227.306 58.16 226.639 57.9893 226.042 57.648C225.455 57.3067 224.991 56.8427 224.65 56.256C224.309 55.6693 224.138 55.008 224.138 54.272C224.138 53.536 224.303 52.88 224.634 52.304C224.965 51.7173 225.418 51.2533 225.994 50.912C226.581 50.5707 227.231 50.4 227.946 50.4C228.629 50.4 229.226 50.5547 229.738 50.864C230.261 51.1627 230.666 51.5787 230.954 52.112C231.253 52.6453 231.402 53.2587 231.402 53.952C231.402 54.016 231.397 54.1013 231.386 54.208C231.375 54.304 231.359 54.4267 231.338 54.576H224.714V53.872H230.874L230.602 54.096C230.623 53.5093 230.527 52.9973 230.314 52.56C230.101 52.112 229.791 51.7653 229.386 51.52C228.981 51.2747 228.495 51.152 227.93 51.152C227.343 51.152 226.826 51.2853 226.378 51.552C225.93 51.808 225.578 52.1653 225.322 52.624C225.077 53.0827 224.954 53.616 224.954 54.224C224.954 54.864 225.082 55.424 225.338 55.904C225.605 56.3733 225.973 56.7413 226.442 57.008C226.911 57.264 227.461 57.392 228.09 57.392C228.57 57.392 229.013 57.3067 229.418 57.136C229.834 56.9547 230.181 56.688 230.458 56.336L231.002 56.864C230.661 57.2693 230.229 57.5893 229.706 57.824C229.194 58.048 228.639 58.16 228.042 58.16ZM236.123 58.16C235.717 58.16 235.333 58.1067 234.971 58C234.619 57.8827 234.293 57.7227 233.995 57.52C233.707 57.3173 233.451 57.0827 233.227 56.816L233.771 56.272C234.069 56.6667 234.416 56.96 234.811 57.152C235.216 57.3333 235.659 57.424 236.139 57.424C236.693 57.424 237.131 57.312 237.451 57.088C237.771 56.864 237.931 56.5493 237.931 56.144C237.931 55.7813 237.829 55.4987 237.627 55.296C237.424 55.0827 237.157 54.9173 236.827 54.8C236.507 54.6827 236.165 54.5707 235.803 54.464C235.451 54.3573 235.109 54.2293 234.779 54.08C234.459 53.9307 234.197 53.7227 233.995 53.456C233.792 53.1893 233.691 52.832 233.691 52.384C233.691 51.9893 233.792 51.6427 233.995 51.344C234.197 51.0453 234.48 50.816 234.843 50.656C235.216 50.4853 235.653 50.4 236.155 50.4C236.709 50.4 237.205 50.496 237.643 50.688C238.091 50.88 238.448 51.1627 238.715 51.536L238.187 52.08C237.973 51.7813 237.685 51.552 237.323 51.392C236.96 51.2213 236.555 51.136 236.107 51.136C235.573 51.136 235.168 51.248 234.891 51.472C234.613 51.696 234.475 51.984 234.475 52.336C234.475 52.6667 234.576 52.928 234.779 53.12C234.981 53.312 235.243 53.4613 235.563 53.568C235.893 53.6747 236.235 53.7813 236.587 53.888C236.949 53.984 237.291 54.112 237.611 54.272C237.941 54.432 238.208 54.6507 238.411 54.928C238.613 55.2053 238.715 55.584 238.715 56.064C238.715 56.704 238.48 57.216 238.011 57.6C237.541 57.9733 236.912 58.16 236.123 58.16ZM245.748 58V47.088H246.596V58H245.748ZM246.292 58V57.232H252.452V58H246.292ZM255.377 58V47.408H256.193V58H255.377ZM253.457 51.28V50.56H258.113V51.28H253.457ZM263.331 58.16C262.627 58.16 261.998 57.9893 261.443 57.648C260.888 57.3067 260.451 56.848 260.131 56.272C259.811 55.6853 259.651 55.024 259.651 54.288C259.651 53.552 259.811 52.8907 260.131 52.304C260.451 51.7173 260.888 51.2533 261.443 50.912C261.998 50.5707 262.627 50.4 263.331 50.4C263.875 50.4 264.376 50.5067 264.835 50.72C265.304 50.9333 265.699 51.2427 266.019 51.648C266.339 52.0427 266.542 52.512 266.627 53.056V55.488C266.531 56.0213 266.328 56.4907 266.019 56.896C265.71 57.2907 265.32 57.6 264.851 57.824C264.392 58.048 263.886 58.16 263.331 58.16ZM263.475 57.392C264.04 57.392 264.536 57.2587 264.963 56.992C265.39 56.7253 265.72 56.3627 265.955 55.904C266.2 55.4347 266.323 54.896 266.323 54.288C266.323 53.6693 266.2 53.1307 265.955 52.672C265.71 52.2027 265.368 51.8347 264.931 51.568C264.504 51.3013 264.003 51.168 263.427 51.168C262.862 51.168 262.355 51.3013 261.907 51.568C261.47 51.8347 261.123 52.2027 260.867 52.672C260.611 53.1307 260.483 53.664 260.483 54.272C260.483 54.88 260.611 55.4187 260.867 55.888C261.123 56.3573 261.475 56.7253 261.923 56.992C262.371 57.2587 262.888 57.392 263.475 57.392ZM267.107 58H266.291V56L266.483 54.176L266.291 52.368V46.768H267.107V58ZM271.25 58.16C271.036 58.16 270.855 58.08 270.706 57.92C270.556 57.76 270.482 57.5787 270.482 57.376C270.482 57.152 270.556 56.9653 270.706 56.816C270.855 56.6667 271.036 56.592 271.25 56.592C271.474 56.592 271.66 56.6667 271.81 56.816C271.959 56.9653 272.034 57.152 272.034 57.376C272.034 57.5787 271.959 57.76 271.81 57.92C271.66 58.08 271.474 58.16 271.25 58.16Z" fill="#161A1D"/>
</svg>
