<svg width="56" height="56" viewBox="0 0 56 56" fill="none" xmlns="http://www.w3.org/2000/svg">
<path d="M12.4489 36.5484C11.2418 38.4933 10.2545 40.514 9.45988 42.5378C8.54554 44.8665 7.88639 47.1994 7.44133 49.4258C10.8237 49.953 14.5923 50.1446 18.4479 49.7649C20.6842 49.5446 22.9498 49.1322 25.1863 48.4814C27.0656 47.9346 28.9244 47.2195 30.728 46.3089C32.3172 45.5065 33.8635 44.5523 35.3433 43.4276C36.8518 42.281 38.2911 40.9573 39.6362 39.4365C40.6684 38.2695 41.6451 36.9864 42.5549 35.5784C43.4001 34.2703 44.1876 32.8545 44.9083 31.3236C46.2147 28.5486 47.3015 25.3956 48.1146 21.822C43.532 21.2832 39.421 21.3181 35.7393 21.8129C33.4632 22.1188 31.3511 22.6004 29.3932 23.2309C27.4116 23.869 25.5878 24.6596 23.9116 25.5747C22.0539 26.5889 20.3773 27.7562 18.8678 29.0385C17.3264 30.3479 15.9591 31.7772 14.7511 33.2861C13.9078 34.3393 13.1421 35.4314 12.4489 36.5484Z" fill="#DCF2C6"/>
<path d="M6.70613 48.7123C6.81791 44.9001 7.62514 40.2108 9.45978 35.5382M54.5019 15.8894C47.2675 14.3432 41.0557 14.0988 35.7392 14.8132M1.44078 41.0451C5.98247 42.466 12.0971 43.3907 18.4478 42.7652M49.2366 8.22213C48.4803 14.6394 46.9668 19.9509 44.9082 24.324M9.45978 35.5382L18.4478 42.7652M9.45978 35.5382C10.2544 33.5143 11.2417 31.4937 12.4488 29.5487C13.142 28.4317 13.9077 27.3397 14.751 26.2864M18.4478 42.7652C20.6841 42.545 22.9497 42.1325 25.1862 41.4818C27.0655 40.935 28.9243 40.2199 30.7279 39.3093M30.7279 39.3093L14.751 26.2864M30.7279 39.3093C32.3171 38.5069 33.8634 37.5527 35.3432 36.4279C36.8517 35.2814 38.291 33.9576 39.6361 32.4369M14.751 26.2864C15.959 24.7776 17.3262 23.3482 18.8677 22.0388C20.3772 20.7565 22.0538 19.5893 23.9115 18.5751M39.6361 32.4369L23.9115 18.5751M39.6361 32.4369C40.6683 31.2698 41.645 29.9868 42.5548 28.5787C43.4 27.2707 44.1875 25.8548 44.9082 24.324M23.9115 18.5751C25.5877 17.6599 27.4115 16.8694 29.3931 16.2313C31.351 15.6008 33.4631 15.1191 35.7392 14.8132M35.7392 14.8132L44.9082 24.324" stroke="#292D32" stroke-width="2.1" stroke-linecap="round" stroke-linejoin="round"/>
</svg>
