<svg width="40" height="40" viewBox="0 0 40 40" fill="none" xmlns="http://www.w3.org/2000/svg">
<circle opacity="0.2" cx="24" cy="23" r="11" fill="#70E000"/>
<path d="M19.9342 33.1578C15.5463 33.1578 11.6334 31.1238 9.08699 27.9473M19.9342 33.1578V38.8025M19.9342 33.1578C24.3221 33.1578 28.235 31.1238 30.7814 27.9473M19.9342 5.36832C24.3221 5.36832 28.235 7.40229 30.7814 10.5788M19.9342 5.36832V3.19727M19.9342 5.36832C15.5463 5.36832 11.6334 7.40229 9.08699 10.5788M30.7814 10.5788C32.6883 12.9576 33.8289 15.9771 33.8289 19.2631C33.8289 22.549 32.6883 25.5685 30.7814 27.9473M30.7814 10.5788L36 5.36832M9.08699 10.5788C7.18009 12.9576 6.03947 15.9771 6.03947 19.2631C6.03947 22.549 7.18009 25.5685 9.08699 27.9473M9.08699 10.5788L3 7.97358M9.08699 27.9473L6.03947 31.4209M30.7814 27.9473L33.8289 31.4209" stroke="#292D32" stroke-width="1.5" stroke-linecap="round" stroke-linejoin="round"/>
<circle cx="24.7105" cy="16.2238" r="3.03947" stroke="#292D32" stroke-width="1.5" stroke-linecap="round" stroke-linejoin="round"/>
<circle cx="14.7237" cy="23.6053" r="2.60526" stroke="#292D32" stroke-width="1.5" stroke-linecap="round" stroke-linejoin="round"/>
</svg>
