<svg width="40" height="41" viewBox="0 0 40 41" fill="none" xmlns="http://www.w3.org/2000/svg">
<path d="M36.6663 16.6666V24.9999C36.6663 33.3333 33.333 36.6666 24.9997 36.6666H14.9997C6.66634 36.6666 3.33301 33.3333 3.33301 24.9999V14.9999C3.33301 6.66659 6.66634 3.33325 14.9997 3.33325H23.333" stroke="#292D32" stroke-width="1.5" stroke-linecap="round" stroke-linejoin="round"/>
<path opacity="0.2" d="M33.3333 20.3333V28.6667C33.3333 37 30 40.3333 21.6667 40.3333H11.6667C3.33333 40.3333 0 37 0 28.6667V18.6667C0 10.3333 3.33333 7 11.6667 7H20" fill="#70E000"/>
<path d="M36.6663 16.6666H29.9997C24.9997 16.6666 23.333 14.9999 23.333 9.99992V3.33325L36.6663 16.6666Z" stroke="#292D32" stroke-width="1.5" stroke-linecap="round" stroke-linejoin="round"/>
<path d="M11.667 21.6667H21.667" stroke="#292D32" stroke-width="1.5" stroke-linecap="round" stroke-linejoin="round"/>
<path d="M11.667 28.3333H18.3337" stroke="#292D32" stroke-width="1.5" stroke-linecap="round" stroke-linejoin="round"/>
</svg>
