<svg width="56" height="56" viewBox="0 0 56 56" fill="none" xmlns="http://www.w3.org/2000/svg">
<circle cx="28.0002" cy="28" r="16.8" fill="#DCF2C6"/>
<path d="M28.0003 51.3332C40.887 51.3332 51.3337 40.8865 51.3337 27.9998C51.3337 15.1132 40.887 4.6665 28.0003 4.6665C15.1137 4.6665 4.66699 15.1132 4.66699 27.9998C4.66699 40.8865 15.1137 51.3332 28.0003 51.3332Z" stroke="black" stroke-width="2.1" stroke-linecap="round" stroke-linejoin="round"/>
<path d="M4.66699 28H51.3337" stroke="black" stroke-width="2.1" stroke-linecap="round" stroke-linejoin="round"/>
<path d="M28.0003 4.6665C33.8366 11.056 37.1534 19.3479 37.3337 27.9998C37.1534 36.6518 33.8366 44.9437 28.0003 51.3332C22.164 44.9437 18.8472 36.6518 18.667 27.9998C18.8472 19.3479 22.164 11.056 28.0003 4.6665Z" stroke="black" stroke-width="2.1" stroke-linecap="round" stroke-linejoin="round"/>
</svg>
