<svg width="161" height="177" viewBox="0 0 161 177" fill="none" xmlns="http://www.w3.org/2000/svg">
<path d="M25.8486 45.882C22.3322 41.1302 12.4396 31.7717 1.0001 32.3523M35.5078 43.2938L32.1432 30.7368" stroke="black" stroke-width="1.5"/>
<path d="M104.806 98.7717C112.45 100.474 127.001 104.009 136.49 107.163M136.49 107.163C139.343 108.111 141.738 109.024 143.35 109.843C150.326 113.386 150.418 118.226 149.592 120.203C137.491 114.583 119.449 111.467 111.94 110.612L111.775 111.518C118.764 115.047 125.529 118.235 129.741 122.077C137.625 129.269 137.114 134.984 135.873 136.942C132.367 131.792 85.3951 114.098 78.5722 110.14C73.1139 106.973 65.4478 95.7225 62.2971 90.493L51.0616 71.8446C48.2485 67.6221 41.2609 59.9974 35.8143 63.2789C29.0062 67.3808 69.5005 75.6632 82.1021 95.9092C87.9888 105.367 99.0089 114.285 108.242 117.867C111.312 115.149 113.841 106.401 99.4029 93.1513C82.112 77.2839 77.6792 42.1892 45.2764 35.5287M136.49 107.163C146.757 107.686 152.514 104.16 93.4036 85.8725C100.048 89.5348 115.233 96.1211 122.813 93.1676C122.457 92.5756 123.573 87.0618 109.342 83.5319C97.9577 80.7079 90.3681 78.8253 87.9964 78.237" stroke="#161A1D" stroke-width="1.5"/>
</svg>
