<svg width="126" height="151" viewBox="0 0 126 151" fill="none" xmlns="http://www.w3.org/2000/svg">
<path d="M104.5 130C106.667 135.5 113.8 147.1 125 149.5M94.5 130V143" stroke="black" stroke-width="1.5"/>
<path d="M41.9219 58.4767C34.9795 54.8541 21.839 47.6734 13.4895 42.1713M13.4895 42.1713C10.9796 40.5174 8.90262 39.0151 7.55711 37.8067C1.73562 32.5786 2.89957 27.8798 4.20924 26.184C14.443 34.7444 31.0643 42.4239 38.0957 45.1936L38.4896 44.3609C32.652 39.1439 26.9424 34.3134 23.8687 29.5119C18.115 20.5242 20.0876 15.1369 21.7931 13.5668C23.847 19.4485 64.6385 48.6966 70.2045 54.286C74.6572 58.7575 79.1502 71.6088 80.84 77.4756L86.8662 98.3965C88.4905 103.203 93.2667 112.377 99.3769 110.617C107.015 108.417 70.0439 89.9357 63.1117 67.118C59.8734 56.4589 51.537 44.9926 43.5454 39.1428C39.8772 40.9739 35.1698 48.7696 45.6866 65.3042C58.2816 85.1061 53.4802 120.152 83.055 134.972M13.4895 42.1713C3.7076 39.0085 -2.76547 40.9239 49.5976 73.8877C44.1273 68.6304 31.165 58.3385 23.0782 59.2294C23.2695 59.8935 20.7645 64.9306 33.5964 72.0234C43.862 77.6976 50.7057 81.4804 52.8444 82.6625" stroke="#161A1D" stroke-width="1.5"/>
</svg>
