<svg width="40" height="40" viewBox="0 0 40 40" fill="none" xmlns="http://www.w3.org/2000/svg">
<path opacity="0.2" d="M19.7454 11.2729C18 10.6729 16.1091 11.6002 15.5091 13.3456L12.2 22.9638C11.6 24.7093 12.5272 26.6002 14.2727 27.2002C16.0181 27.8002 17.9091 26.8729 18.5091 25.1274L21.8181 15.5093C22.4181 13.7638 21.4909 11.8729 19.7454 11.2729Z" fill="#70E000"/>
<path d="M23.4728 16.3635C25.2546 16.3999 26.8728 17.1453 28.0364 18.309C29.2364 19.5272 29.9819 21.1817 29.9819 23.0181C29.9819 26.6908 27 29.6726 23.3091 29.6726H12.6182" stroke="#292D32" stroke-width="1.5" stroke-linecap="round" stroke-linejoin="round"/>
<path d="M23.4728 16.3635C25.2546 16.3999 26.8728 17.1453 28.0364 18.309C29.2364 19.5272 29.9819 21.1817 29.9819 23.0181C29.9819 26.6908 27 29.6726 23.3091 29.6726H12.6182" stroke="#292D32" stroke-width="1.5" stroke-linecap="round" stroke-linejoin="round"/>
<path d="M30 36.3635H10" stroke="#292D32" stroke-width="1.5" stroke-linecap="round" stroke-linejoin="round"/>
<path d="M22.7454 8.2729C21 7.6729 19.1091 8.60017 18.5091 10.3456L15.2 19.9638C14.6 21.7093 15.5272 23.6002 17.2727 24.2002C19.0181 24.8002 20.9091 23.8729 21.5091 22.1274L24.8181 12.5093C25.4181 10.7638 24.4909 8.8729 22.7454 8.2729Z" stroke="#292D32" stroke-width="1.5" stroke-linecap="round" stroke-linejoin="round"/>
<path d="M22.7455 8.27284L24.3455 3.63647" stroke="#292D32" stroke-width="1.5" stroke-linecap="round" stroke-linejoin="round"/>
<path d="M24.3455 29.6729L26.6364 36.3638" stroke="#292D32" stroke-width="1.5" stroke-linecap="round" stroke-linejoin="round"/>
</svg>
