<svg width="15" height="16" viewBox="0 0 15 16" fill="none" xmlns="http://www.w3.org/2000/svg">
<g opacity="0.4">
<path d="M7.69383 1.90411C9.6071 1.90411 9.868 1.90411 10.6507 1.90411C11.3464 1.90411 11.6943 2.07805 11.9552 2.16501C12.3031 2.33895 12.564 2.42591 12.8249 2.68681C13.0858 2.94771 13.2597 3.20861 13.3467 3.55648C13.4336 3.81738 13.5206 4.16525 13.6076 4.86098C13.6076 5.64369 13.6076 5.81762 13.6076 7.81786C13.6076 9.81809 13.6076 9.99203 13.6076 10.7747C13.6076 11.4705 13.4336 11.8183 13.3467 12.0792C13.1727 12.4271 13.0858 12.688 12.8249 12.9489C12.564 13.2098 12.3031 13.3837 11.9552 13.4707C11.6943 13.5577 11.3464 13.6446 10.6507 13.7316C9.868 13.7316 9.69407 13.7316 7.69383 13.7316C5.6936 13.7316 5.51966 13.7316 4.73696 13.7316C4.04123 13.7316 3.69336 13.5577 3.43246 13.4707C3.08459 13.2968 2.82369 13.2098 2.56279 12.9489C2.30189 12.688 2.12796 12.4271 2.04099 12.0792C1.95402 11.8183 1.86706 11.4705 1.78009 10.7747C1.78009 9.99203 1.78009 9.81809 1.78009 7.81786C1.78009 5.81762 1.78009 5.64369 1.78009 4.86098C1.78009 4.16525 1.95402 3.81738 2.04099 3.55648C2.21492 3.20861 2.30189 2.94771 2.56279 2.68681C2.82369 2.42591 3.08459 2.25198 3.43246 2.16501C3.69336 2.07805 4.04123 1.99108 4.73696 1.90411C5.51966 1.90411 5.78056 1.90411 7.69383 1.90411ZM7.69383 0.599609C5.6936 0.599609 5.51966 0.599609 4.73696 0.599609C3.95426 0.599609 3.43246 0.773544 2.99762 0.947477C2.56279 1.12141 2.12796 1.38231 1.69312 1.81715C1.25829 2.25198 1.08435 2.59985 0.823454 3.12165C0.64952 3.55648 0.562553 4.07828 0.475586 4.86098C0.475586 5.64369 0.475586 5.90459 0.475586 7.81786C0.475586 9.81809 0.475586 9.99203 0.475586 10.7747C0.475586 11.5574 0.64952 12.0792 0.823454 12.5141C0.997387 12.9489 1.25829 13.3837 1.69312 13.8186C2.12796 14.2534 2.47582 14.4273 2.99762 14.6882C3.43246 14.8622 3.95426 14.9491 4.73696 15.0361C5.51966 15.0361 5.78056 15.0361 7.69383 15.0361C9.6071 15.0361 9.868 15.0361 10.6507 15.0361C11.4334 15.0361 11.9552 14.8622 12.39 14.6882C12.8249 14.5143 13.2597 14.2534 13.6945 13.8186C14.1294 13.3837 14.3033 13.0359 14.5642 12.5141C14.7381 12.0792 14.8251 11.5574 14.9121 10.7747C14.9121 9.99203 14.9121 9.73113 14.9121 7.81786C14.9121 5.90459 14.9121 5.64369 14.9121 4.86098C14.9121 4.07828 14.7381 3.55648 14.5642 3.12165C14.3903 2.68681 14.1294 2.25198 13.6945 1.81715C13.2597 1.38231 12.9118 1.20838 12.39 0.947477C11.9552 0.773544 11.4334 0.686576 10.6507 0.599609C9.868 0.599609 9.69407 0.599609 7.69383 0.599609Z" fill="#4F5353"/>
<path d="M7.69383 4.07828C5.60663 4.07828 3.95426 5.73065 3.95426 7.81786C3.95426 9.90506 5.60663 11.5574 7.69383 11.5574C9.78104 11.5574 11.4334 9.90506 11.4334 7.81786C11.4334 5.73065 9.78104 4.07828 7.69383 4.07828ZM7.69383 10.2529C6.38933 10.2529 5.25876 9.20932 5.25876 7.81786C5.25876 6.51335 6.30236 5.38278 7.69383 5.38278C8.99833 5.38278 10.1289 6.42639 10.1289 7.81786C10.1289 9.12236 8.99833 10.2529 7.69383 10.2529Z" fill="#4F5353"/>
<path d="M11.5204 4.86098C12.0007 4.86098 12.39 4.47162 12.39 3.99132C12.39 3.51101 12.0007 3.12165 11.5204 3.12165C11.0401 3.12165 10.6507 3.51101 10.6507 3.99132C10.6507 4.47162 11.0401 4.86098 11.5204 4.86098Z" fill="#4F5353"/>
</g>
</svg>
