<?xml version="1.0" standalone="no"?>
<!DOCTYPE svg PUBLIC "-//W3C//DTD SVG 20010904//EN"
 "http://www.w3.org/TR/2001/REC-SVG-20010904/DTD/svg10.dtd">
<svg version="1.0" xmlns="http://www.w3.org/2000/svg"
 width="372.000000pt" height="130.000000pt" viewBox="0 0 372.000000 130.000000"
 preserveAspectRatio="xMidYMid meet">

<g transform="translate(0.000000,130.000000) scale(0.100000,-0.100000)"
fill="#fff" stroke="none">
<path d="M1722 1283 c-14 -24 -213 -223 -224 -223 -4 0 -6 11 -3 25 17 84 23
75 -55 75 -40 0 -70 -4 -70 -10 0 -5 5 -10 10 -10 6 0 10 -38 10 -93 l0 -93
-65 -54 c-36 -30 -65 -56 -65 -58 0 -6 67 36 170 106 99 68 202 150 281 224
l46 44 44 -40 c60 -53 215 -170 327 -246 51 -34 91 -64 89 -66 -2 -2 -61 3
-133 11 -71 8 -151 17 -179 19 l-50 5 50 -14 c88 -26 450 -105 478 -105 22 0
27 5 27 24 0 16 -12 31 -42 51 -109 71 -390 275 -491 356 -112 90 -139 102
-155 72z"/>
<path d="M0 326 l0 -326 50 0 50 0 0 100 0 100 94 0 94 0 62 -100 62 -100 54
0 c30 0 54 2 54 5 0 3 -31 52 -69 108 l-68 102 36 23 c115 73 132 259 31 345
-58 49 -97 58 -282 64 l-168 6 0 -327z m361 201 c18 -12 40 -34 47 -47 17 -33
9 -106 -15 -139 -28 -38 -74 -50 -190 -50 l-103 -1 0 130 0 130 114 0 c101 0
117 -2 147 -23z"/>
<path d="M630 325 l0 -325 235 0 235 0 0 50 0 50 -185 0 -185 0 0 90 0 90 160
0 160 0 0 45 0 45 -160 0 -160 0 0 90 0 90 180 0 180 0 0 50 0 50 -230 0 -230
0 0 -325z"/>
<path d="M1124 633 c4 -10 62 -157 128 -326 l122 -308 55 3 54 3 123 305 c68
168 126 313 129 323 6 15 -1 17 -47 17 l-53 0 -100 -264 c-55 -146 -103 -262
-107 -258 -6 6 -147 371 -185 480 l-15 42 -55 0 c-48 0 -54 -2 -49 -17z"/>
<path d="M1800 325 l0 -325 235 0 235 0 0 50 0 50 -185 0 -185 0 0 90 0 90
160 0 160 0 0 45 0 45 -160 0 -160 0 0 90 0 90 180 0 180 0 0 50 0 50 -230 0
-230 0 0 -325z"/>
<path d="M2360 326 l0 -326 50 0 50 0 0 99 0 99 123 4 c152 4 204 25 252 102
26 42 29 58 29 120 0 78 -14 114 -61 158 -53 51 -94 61 -275 66 l-168 5 0
-327z m372 186 c29 -29 33 -39 33 -86 0 -103 -48 -135 -207 -135 l-98 -1 0
131 0 131 120 -3 120 -4 32 -33z"/>
<path d="M2950 325 l0 -325 50 0 50 0 0 325 0 325 -50 0 -50 0 0 -325z"/>
<path d="M3140 645 c0 -3 44 -69 98 -148 54 -78 102 -148 106 -154 4 -8 -36
-73 -102 -165 -59 -84 -111 -159 -116 -165 -5 -10 7 -13 53 -13 l60 0 86 120
c47 66 89 120 93 120 4 -1 45 -55 91 -120 l84 -120 63 0 63 0 -118 168 -118
169 94 134 c51 74 100 142 108 152 8 9 15 20 15 23 0 3 -28 4 -62 2 l-62 -3
-76 -107 c-41 -59 -79 -107 -85 -107 -5 0 -44 49 -85 109 l-75 110 -57 0 c-32
0 -58 -2 -58 -5z"/>
</g>
</svg>
