<svg width="80" height="80" viewBox="0 0 80 80" fill="none" xmlns="http://www.w3.org/2000/svg">
<mask id="mask0_151_3014" style="mask-type:alpha" maskUnits="userSpaceOnUse" x="-15" y="-23" width="95" height="96">
<circle cx="32.7273" cy="25.2273" r="47.2727" fill="#D9D9D9"/>
</mask>
<g mask="url(#mask0_151_3014)">
<path d="M62.6865 34.0415L59.9378 35.8584C58.2606 33.3737 56.071 31.417 53.3689 29.9883C50.6978 28.5285 47.7938 27.7987 44.6569 27.7987C39.5632 27.7987 35.215 29.6001 31.6122 33.2029C28.0094 36.8057 26.208 41.1539 26.208 46.2476C26.208 51.3412 28.0094 55.6894 31.6122 59.2922C35.215 62.8951 39.5632 64.6965 44.6569 64.6965C47.7938 64.6965 50.6978 63.9666 53.3689 62.5068C56.071 61.0471 58.2606 59.0748 59.9378 56.5901L62.6399 58.5468C60.6521 61.4664 58.0743 63.7802 54.9063 65.4885C51.7383 67.1967 48.3218 68.0508 44.6569 68.0508C41.7063 68.0508 38.8799 67.4762 36.1778 66.327C33.5068 65.1779 31.1929 63.6249 29.2362 61.6682C27.2795 59.7115 25.7266 57.3977 24.5774 54.7266C23.4282 52.0245 22.8536 49.1981 22.8536 46.2476C22.8536 43.297 23.4282 40.4862 24.5774 37.8151C25.7266 35.113 27.2795 32.7836 29.2362 30.8269C31.1929 28.8702 33.5068 27.3172 36.1778 26.1681C38.8799 25.0189 41.7063 24.4443 44.6569 24.4443C48.3529 24.4443 51.7849 25.314 54.9529 27.0532C58.1208 28.7615 60.6987 31.0909 62.6865 34.0415ZM68.2305 30.2212L65.4352 32.0382C63.1368 28.6838 60.1552 26.0283 56.4903 24.0716C52.8564 22.0838 48.9119 21.09 44.6569 21.09C40.0912 21.09 35.8828 22.2236 32.0315 24.4909C28.1802 26.7271 25.1209 29.7709 22.8536 33.6222C20.6174 37.4735 19.4993 41.6819 19.4993 46.2476C19.4993 50.8132 20.6174 55.0217 22.8536 58.8729C25.1209 62.7242 28.1802 65.7835 32.0315 68.0508C35.8828 70.287 40.0912 71.4052 44.6569 71.4052C48.9119 71.4052 52.8719 70.4113 56.5368 68.4235C60.2018 66.4357 63.1834 63.7492 65.4818 60.3638L68.2305 62.2739C65.6215 66.1252 62.2361 69.1689 58.0743 71.4052C53.9434 73.6414 49.471 74.7595 44.6569 74.7595C39.5011 74.7595 34.7336 73.4861 30.3543 70.9393C25.975 68.3925 22.512 64.9294 19.9652 60.5501C17.4183 56.1708 16.1449 51.4033 16.1449 46.2476C16.1449 41.0918 17.4183 36.3243 19.9652 31.945C22.512 27.5657 25.975 24.1027 30.3543 21.5558C34.7336 19.009 39.5011 17.7356 44.6569 17.7356C49.471 17.7356 53.9434 18.8537 58.0743 21.09C62.2361 23.3262 65.6215 26.37 68.2305 30.2212ZM73.821 26.4942L71.0258 28.3111C68.1062 24.025 64.3171 20.6396 59.6583 18.1549C55.0305 15.6392 50.03 14.3813 44.6569 14.3813C40.3397 14.3813 36.2089 15.2199 32.2644 16.897C28.32 18.5742 24.919 20.8415 22.0616 23.6989C19.2353 26.5252 16.9835 29.9107 15.3063 33.8551C13.6292 37.7996 12.7906 41.9304 12.7906 46.2476C12.7906 50.5647 13.6292 54.6955 15.3063 58.64C16.9835 62.5845 19.2353 65.9854 22.0616 68.8428C24.919 71.6692 28.32 73.9209 32.2644 75.5981C36.2089 77.2753 40.3397 78.1138 44.6569 78.1138C50.0611 78.1138 55.0771 76.856 59.7048 74.3402C64.3326 71.8244 68.1062 68.4235 71.0258 64.1374L73.7279 66.1407C70.4978 70.8616 66.3204 74.6042 61.1957 77.3684C56.102 80.1016 50.5891 81.4682 44.6569 81.4682C38.2898 81.4682 32.4042 79.8997 27 76.7628C21.5957 73.5948 17.3096 69.3087 14.1416 63.9045C11.0047 58.5002 9.43623 52.6146 9.43623 46.2476C9.43623 39.8805 11.0047 33.9949 14.1416 28.5907C17.3096 23.1864 21.5957 18.9159 27 15.7789C32.4042 12.6109 38.2898 11.0269 44.6569 11.0269C50.6202 11.0269 56.1641 12.4246 61.2888 15.2199C66.4135 17.9841 70.5909 21.7422 73.821 26.4942ZM79.3185 22.674L76.5232 24.4909C72.9825 19.3041 68.4013 15.2043 62.7797 12.1916C57.1891 9.17893 51.1482 7.67258 44.6569 7.67258C39.439 7.67258 34.4385 8.69752 29.6555 10.7474C24.9035 12.7662 20.8037 15.4994 17.3562 18.9469C13.9087 22.3944 11.16 26.5097 9.11012 31.2928C7.0913 36.0448 6.08189 41.0297 6.08189 46.2476C6.08189 51.4654 7.0913 56.4659 9.11012 61.2489C11.16 66.0009 13.9087 70.1007 17.3562 73.5482C20.8037 76.9957 24.9035 79.7444 29.6555 81.7943C34.4385 83.8131 39.439 84.8225 44.6569 84.8225C51.1482 84.8225 57.2046 83.3007 62.8263 80.2569C68.4479 77.2131 73.0291 73.0979 76.5698 67.911L79.2719 69.9609C75.4206 75.5515 70.4512 79.9929 64.3637 83.2851C58.2761 86.5463 51.7072 88.1769 44.6569 88.1769C38.9731 88.1769 33.5378 87.0588 28.351 84.8225C23.1953 82.6174 18.7383 79.6513 14.9802 75.9242C11.2532 72.1661 8.27153 67.7092 6.0353 62.5534C3.83013 57.3666 2.72754 51.9313 2.72754 46.2476C2.72754 40.5638 3.83013 35.1441 6.0353 29.9883C8.27153 24.8015 11.2532 20.3446 14.9802 16.6175C18.7383 12.8594 23.1953 9.87775 28.351 7.67258C33.5378 5.43635 38.9731 4.31824 44.6569 4.31824C51.7383 4.31824 58.3227 5.96435 64.4102 9.25658C70.4978 12.5488 75.4672 17.0213 79.3185 22.674Z" fill="#161A1D"/>
</g>
<circle cx="57.2725" cy="63.4091" r="9.09091" fill="#70E000"/>
</svg>
