<svg width="816" height="732" viewBox="0 0 816 732" fill="none" xmlns="http://www.w3.org/2000/svg">
<rect width="816" height="732" fill="white"/>
<path d="M551 332.5H606.5M606.5 332.5H612.5V103H277V304.178H283.5V109.5H606.5V332.5Z" stroke="#161A1D" stroke-width="1.5" stroke-miterlimit="10" stroke-linecap="round" stroke-linejoin="round"/>
<path d="M56 342.5H361.5V361.5H300M82 361.5H300M300 361.5V586.5M169 653H300V586.5M282.5 369.5V583M300 586.5H674" stroke="#161A1D" stroke-width="1.5" stroke-miterlimit="10" stroke-linecap="round" stroke-linejoin="round"/>
<path d="M434 394L454 618C476 626 497.5 620.333 505.5 616.5L495.5 439.5C494.5 426.167 494.3 405.5 501.5 429.5C508.7 453.5 537.833 566.5 551.5 620C569.1 621.6 592.167 617.333 601.5 615C594.3 569 564.5 415.167 550.5 344L434 394Z" fill="white" stroke="black" stroke-width="1.5"/>
<path d="M471 622C470.955 623.205 471.071 624.782 471.448 626.5M500 633C498.167 636.167 492.1 641.8 482.5 639C475.47 636.95 472.48 631.199 471.448 626.5M500 633L499.5 619M500 633L501.5 660L418.5 661.5V658M471.448 626.5L418.5 648.5V658M565.5 620.5C565.77 622.24 566.26 624.34 566.997 626.5M595.5 633C592.3 635.4 586.166 638 583.5 639C574.591 641.458 569.437 633.652 566.997 626.5M595.5 633L592.5 617M595.5 633L597 659L514 660V656M566.997 626.5L514 649V656M514 656L592.5 654M418.5 658L494 655" stroke="#161A1D" stroke-width="1.5" stroke-miterlimit="10" stroke-linecap="round" stroke-linejoin="round"/>
<path d="M236.5 341.5V319.5L329 301L344.056 278.5L338 273.5C335.716 267.408 334.25 257.773 333.399 249.5C332.908 244.736 332.622 240.423 332.5 237.5L314.5 223C311.833 225.167 304.4 227.9 296 221.5C287.6 215.1 279.167 203.167 276 198C277 194.333 279.2 185.7 280 180.5C281 174 294.5 168.5 304.5 174.5C304.333 172.833 304.8 169.4 308 169C312 168.5 315 174.5 316 183C324.712 190.333 342.821 205.5 345.567 207.5C345.703 206.174 345.85 205.002 346 204C355.6 196.8 363.667 200.333 366.5 203C373.667 199.833 402.1 201.7 458.5 234.5C529 275.5 547 314.5 589.5 425L516 495C513.333 497.333 505.8 502.2 497 503C488.2 503.8 481.333 505.333 479 506L458 401.5L463 508.5L439.5 511.5C439.243 460.127 433.887 418.514 428.409 390.5C425.356 374.889 422.266 363.501 420 357C418.821 356.632 416.912 355.499 414.5 353.82C403.812 346.383 383.242 328.237 372.5 318.427L351 341.5H236.5Z" fill="white"/>
<path d="M329 301C333.5 305 342.3 313.5 341.5 315.5M329 301L236.5 319.5V341.5H351L372.5 318.427M329 301L344.056 278.5M363.462 249.5L373.5 234.5C380.167 230.333 396.6 225.5 409 239.5C421.4 253.5 416.5 269.333 412.5 275.5L384.5 305.549M363.462 249.5L362.5 236L366.5 203M363.462 249.5L350.748 268.5M366.5 203C363.667 200.333 355.6 196.8 346 204C345.85 205.002 345.703 206.174 345.567 207.5M366.5 203C373.667 199.833 402.1 201.7 458.5 234.5C529 275.5 547 314.5 589.5 425L516 495C513.333 497.333 505.8 502.2 497 503C488.2 503.8 481.333 505.333 479 506L458 401.5M350.748 268.5C344.089 243.666 344.354 219.4 345.567 207.5M350.748 268.5L344.056 278.5M348.5 272.5C343.667 264.333 333.7 245.9 332.5 237.5M332.5 237.5L314.5 223C311.833 225.167 304.4 227.9 296 221.5C287.6 215.1 279.167 203.167 276 198C277 194.333 279.2 185.7 280 180.5C281 174 294.5 168.5 304.5 174.5C304.333 172.833 304.8 169.4 308 169C312 168.5 315 174.5 316 183C324.712 190.333 342.821 205.5 345.567 207.5M332.5 237.5C332.622 240.423 332.908 244.736 333.399 249.5M458 401.5L437.5 349L384.5 305.549M458 401.5L463 508.5L439.5 511.5C439.243 460.127 433.887 418.514 428.409 390.5M384.5 305.549L372.5 318.427M372.5 318.427C383.242 328.237 403.812 346.383 414.5 353.82M344.056 278.5L338 273.5C335.716 267.408 334.25 257.773 333.399 249.5M333.399 249.5L319.5 271.5M435.5 331.5C441.5 329 454.6 320.9 459 308.5C474.667 322.167 498.8 353 470 367M414.5 353.82C416.912 355.499 418.821 356.632 420 357C422.266 363.501 425.356 374.889 428.409 390.5M414.5 353.82L422.5 347C427.939 356.333 436.736 378.1 428.409 390.5" stroke="#161A1D" stroke-width="1.5" stroke-miterlimit="10" stroke-linecap="round" stroke-linejoin="round"/>
<path d="M280.79 195.908C281.479 194.399 283.503 191.43 286.091 191.623" stroke="#161A1D" stroke-width="1.5" stroke-miterlimit="10" stroke-linecap="round" stroke-linejoin="round"/>
<ellipse cx="1.67387" cy="2.39792" rx="1.67387" ry="2.39792" transform="matrix(0.777709 -0.628625 0.785361 0.619038 285.32 198.48)" fill="#161A1D"/>
<path d="M283 202C283.5 205.167 287.3 211.4 290.5 209" stroke="#161A1D" stroke-width="1.5" stroke-miterlimit="10" stroke-linecap="round" stroke-linejoin="round"/>
<rect x="263.752" y="214.178" width="21.2398" height="57.5419" transform="rotate(22.8207 263.752 214.178)" fill="white" stroke="#161A1D" stroke-width="1.5" stroke-miterlimit="10" stroke-linecap="round" stroke-linejoin="round"/>
<circle cx="269.301" cy="228.865" r="6.00222" stroke="#161A1D" stroke-width="1.5" stroke-miterlimit="10" stroke-linecap="round" stroke-linejoin="round"/>
<path d="M269.872 212.145L267.928 216.111L280.734 221.434L282.02 218.004L280.448 215.289L283.735 209.001L276.446 206L273.731 212.145H269.872Z" fill="white" stroke="#161A1D" stroke-width="1.5" stroke-miterlimit="10" stroke-linecap="round" stroke-linejoin="round"/>
<path d="M283.306 223.435H286.593L289.88 244.872C290.88 245.682 293.138 247.901 294.167 250.302C303.361 251.35 321.749 260.049 321.749 286.459C321.749 299.606 308.457 311.096 294.167 314.987V333.762H313.46V342.336H236.146C235.812 339.478 237.06 333.762 244.72 333.762H261.584C269.158 322.424 283.679 300.321 288.879 300.321C292.566 300.321 292.976 304.989 292.738 307.038C299.264 306.942 312.545 302.693 313.46 286.459C314.374 270.224 300.979 261.497 294.167 259.163C291.833 262.069 285.564 266.823 279.161 262.593C275.991 260.498 274.637 257.281 274.629 254.161H269.961L277.875 235.297L283.306 223.435Z" fill="white"/>
<path d="M282.305 244.872C280.596 244.872 279.09 245.505 277.875 246.547M277.875 246.547V235.297M277.875 246.547C275.84 248.292 274.622 251.183 274.629 254.161M277.875 235.297L283.306 223.435H286.593L289.88 244.872C290.88 245.682 293.138 247.901 294.167 250.302C303.361 251.35 321.749 260.049 321.749 286.459C321.749 299.606 308.457 311.096 294.167 314.987V333.762H313.46V342.336H236.146C235.812 339.478 237.06 333.762 244.72 333.762C252.38 333.762 259.154 333.762 261.584 333.762C269.158 322.424 283.679 300.321 288.879 300.321C292.566 300.321 292.976 304.989 292.738 307.038C299.264 306.942 312.545 302.693 313.46 286.459C314.374 270.224 300.979 261.497 294.167 259.163C291.833 262.069 285.564 266.823 279.161 262.593C275.991 260.498 274.637 257.281 274.629 254.161M277.875 235.297L269.961 254.161H274.629" stroke="#161A1D" stroke-width="1.5" stroke-miterlimit="10" stroke-linecap="round" stroke-linejoin="round"/>
<path d="M243.434 268.023L242.434 274.168L255.296 279.313L258.011 274.168" stroke="#161A1D" stroke-width="1.5" stroke-miterlimit="10" stroke-linecap="round" stroke-linejoin="round"/>
<path d="M282.917 304.322H258.154M258.154 304.322V297.176L265.3 293.461V287.03M258.154 304.322V311.039H243.006L241.148 308.038L248.151 297.176M265.3 287.03H269.015M265.3 287.03H231.001M228 287.03H231.001M231.001 287.03V293.461L239.719 297.176H248.151M248.151 297.176L255.868 288.316" stroke="#161A1D" stroke-width="1.5" stroke-miterlimit="10" stroke-linecap="round" stroke-linejoin="round"/>
<path d="M243.862 304.322H237.289V313.326H275.803" stroke="#161A1D" stroke-width="1.5" stroke-miterlimit="10" stroke-linecap="round" stroke-linejoin="round"/>
<circle cx="258.011" cy="265.307" r="2.14365" stroke="#161A1D" stroke-width="1.5" stroke-miterlimit="10" stroke-linecap="round" stroke-linejoin="round"/>
<circle cx="284.187" cy="254.471" r="3.8106" stroke="#161A1D" stroke-width="1.5" stroke-miterlimit="10" stroke-linecap="round" stroke-linejoin="round"/>
<circle cx="287.958" cy="306.879" r="2.14365" stroke="#161A1D" stroke-width="1.5" stroke-miterlimit="10" stroke-linecap="round" stroke-linejoin="round"/>
<path d="M253 197.5C258.6 205.1 270.667 202 276 199.5C277.167 194.333 279.6 183.5 280 181.5C280.4 179.5 281.5 177.667 282 177C289.2 169.4 300 172.167 304.5 174.5C304.5 168.5 308.167 168.667 310 169.5C303 160.5 293 155 280.5 157.5C270.5 159.5 266.333 168.333 265.5 172.5C253 177 246 188 253 197.5Z" fill="#161A1D"/>
<path d="M631.833 331.992H768.167" stroke="#161A1D" stroke-width="1.5" stroke-miterlimit="10" stroke-linecap="round" stroke-linejoin="round"/>
<path d="M703.911 329.199C703.911 321.198 716.204 314.112 720.674 306.849H737.995C740.789 313.554 754.199 319.141 755.316 328.64C755.842 333.11 703.911 333.11 703.911 329.199Z" fill="#70E000"/>
<path d="M724.585 279.47C724.771 286.175 724.25 301.038 720.674 306.849C716.204 314.112 703.911 321.198 703.911 329.199C703.911 333.11 755.842 333.11 755.316 328.64C754.199 319.141 740.789 313.554 737.995 306.849C735.76 301.485 735.201 286.361 735.201 279.47M724.585 279.47H735.201M724.585 279.47H721.791C720.557 279.47 719.556 278.469 719.556 277.235V277.235C719.556 276.001 720.557 275 721.791 275H737.436C738.67 275 739.671 276.001 739.671 277.235V277.235C739.671 278.469 738.67 279.47 737.436 279.47H735.201" stroke="#161A1D" stroke-width="1.5" stroke-miterlimit="10" stroke-linecap="round" stroke-linejoin="round"/>
<path d="M644.684 329.199C644.685 321.198 656.977 314.112 661.447 306.849H678.768C681.562 313.554 694.972 319.141 696.089 328.64C696.615 333.11 644.684 333.11 644.684 329.199Z" fill="#70E000"/>
<path d="M665.358 279.47C665.544 286.175 665.023 301.038 661.447 306.849C656.977 314.112 644.685 321.198 644.684 329.199C644.684 333.11 696.615 333.11 696.089 328.64C694.972 319.141 681.562 313.554 678.768 306.849C676.533 301.485 675.974 286.361 675.974 279.47M665.358 279.47H675.974M665.358 279.47H662.564C661.33 279.47 660.329 278.469 660.329 277.235V277.235C660.329 276.001 661.33 275 662.564 275H678.209C679.444 275 680.444 276.001 680.444 277.235V277.235C680.444 278.469 679.444 279.47 678.209 279.47H675.974" stroke="#161A1D" stroke-width="1.5" stroke-miterlimit="10" stroke-linecap="round" stroke-linejoin="round"/>
<path d="M403.5 148H436L447 176M447 176H477L492 202M447 176L431 202L445.5 228.5H477M492 202L477 228.5M492 202H522M477 228.5L492 256H522L537 228.5M522 202L537 228.5M522 202L537 176H568M537 228.5H568L582.5 202L568 176M568 176L590.5 148" stroke="#161A1D" stroke-width="1.5" stroke-miterlimit="10" stroke-linecap="round" stroke-linejoin="round"/>
<path d="M406.108 134.197C405.139 134.197 404.235 134.02 403.396 133.666C402.57 133.312 401.85 132.814 401.234 132.172C400.618 131.53 400.14 130.79 399.799 129.951C399.472 129.099 399.308 128.189 399.308 127.219C399.308 126.25 399.472 125.345 399.799 124.507C400.14 123.655 400.612 122.915 401.214 122.286C401.83 121.657 402.551 121.166 403.376 120.812C404.202 120.458 405.093 120.281 406.049 120.281C407.084 120.281 408.008 120.465 408.821 120.832C409.646 121.198 410.367 121.703 410.983 122.345L410 123.328C409.528 122.804 408.958 122.397 408.29 122.109C407.622 121.808 406.875 121.657 406.049 121.657C405.289 121.657 404.588 121.795 403.946 122.07C403.317 122.345 402.76 122.738 402.276 123.249C401.804 123.747 401.437 124.337 401.175 125.018C400.926 125.686 400.802 126.42 400.802 127.219C400.802 128.018 400.933 128.759 401.195 129.44C401.457 130.122 401.824 130.718 402.295 131.229C402.767 131.727 403.324 132.113 403.966 132.388C404.608 132.663 405.309 132.801 406.069 132.801C406.934 132.801 407.7 132.65 408.369 132.349C409.05 132.048 409.626 131.635 410.098 131.111L411.081 132.113C410.478 132.755 409.757 133.266 408.919 133.646C408.08 134.013 407.143 134.197 406.108 134.197ZM414.39 134V120.478H415.825V134H414.39ZM423.254 134V120.478H424.689V134H423.254ZM415.333 127.671V126.354H423.647V127.671H415.333ZM427.995 126.63L430.628 123.937C430.969 123.596 431.192 123.328 431.297 123.131C431.414 122.921 431.473 122.705 431.473 122.482C431.473 122.168 431.369 121.919 431.159 121.736C430.962 121.539 430.687 121.441 430.333 121.441C430.032 121.441 429.764 121.519 429.528 121.677C429.292 121.834 429.062 122.076 428.84 122.404L428.014 121.657C428.289 121.225 428.63 120.904 429.036 120.694C429.456 120.471 429.921 120.36 430.432 120.36C431.126 120.36 431.677 120.55 432.083 120.93C432.489 121.297 432.692 121.808 432.692 122.463C432.692 122.856 432.607 123.216 432.437 123.544C432.266 123.858 431.958 124.238 431.513 124.684L429.528 126.649L427.995 126.63ZM427.995 127.317V126.63L429.017 126.276H432.849V127.317H427.995Z" fill="#161A1D"/>
<ellipse opacity="0.4" cx="700" cy="602.5" rx="40" ry="9.5" fill="#D9D9D9"/>
<path d="M659.524 525.193C673.775 530.444 707.116 537.794 726.467 525.193M659.524 525.193C661.257 530.444 663.977 539.058 666.075 546.57M659.524 525.193C656.959 518.829 664.061 516.718 674.994 516.877M689.339 574.979C693.851 574.881 699.013 574.646 703.965 573.821M689.339 574.979L687.089 596.074M689.339 574.979C686.237 575.046 683.474 574.612 681.063 573.821M726.467 525.193C726.749 532.412 726.636 549.495 723.936 560.071C722.592 565.335 718.884 568.726 714.091 570.919M726.467 525.193C721.242 523.872 714.985 522.44 708.418 521.142M666.075 546.57C667.724 552.473 668.988 557.695 669.087 560.071C669.301 565.203 673.417 571.311 681.063 573.821M666.075 546.57C674.111 549.383 693.558 554.164 707.059 550.789M714.091 570.919L739.969 603.387M714.091 570.919C711.045 572.313 707.56 573.222 703.965 573.821M703.965 573.821L717.185 615.482M681.063 573.821L659.524 617.17M708.418 521.142C710.122 501.303 721.124 456.701 738 440.5M708.418 521.142C704.739 520.415 700.962 519.73 697.215 519.13M697.215 519.13C696.09 480.366 695.865 400.307 703.965 390.181M697.215 519.13C693.782 518.58 690.374 518.103 687.089 517.729M687.089 517.729C682.682 496.684 667.652 450.201 646.5 434M687.089 517.729C682.772 517.239 678.667 516.93 674.994 516.877M674.994 516.877C666.743 507.085 645.854 487.277 628.302 486.377" stroke="#161A1D" stroke-width="1.5"/>
<path d="M726.467 525.193C707.116 537.794 673.775 530.444 659.524 525.193C656.959 518.829 664.061 516.718 674.994 516.877C678.667 516.93 682.772 517.239 687.089 517.729C690.374 518.103 693.782 518.58 697.215 519.13C700.962 519.729 704.738 520.415 708.418 521.142C714.985 522.44 721.242 523.872 726.467 525.193Z" fill="#161A1D"/>
<path d="M719.717 439.123C709.028 457.031 692.489 494.084 711.841 499.035C729.096 503.449 732.182 467.361 748.969 447.633M719.717 439.123C721.123 437.717 727.592 416.34 758.251 420.559C788.91 424.778 797.911 501.991 748.969 447.633M719.717 439.123C732.093 437.548 742.097 440 748.969 447.633" stroke="#161A1D" stroke-width="1.5"/>
<path d="M684.48 395.588C673.004 454.093 686.261 472.095 694.324 473.783C715.701 475.752 698.262 424.278 715.701 399.245C733.14 374.211 698.825 322.457 684.48 395.588Z" stroke="#161A1D" stroke-width="1.5"/>
<path d="M659.554 431.81C686.367 457.521 685.122 483.54 680.901 493.69C669.65 497.291 646.208 462.375 635.894 444.467M659.554 431.81C658.38 430.684 657.151 429.558 655.867 428.435C617.614 394.963 594.268 454.031 614.801 459.375C625.867 462.255 630.088 453.045 635.894 444.467M659.554 431.81C646.988 430.254 640.861 437.129 635.894 444.467" stroke="#161A1D" stroke-width="1.5"/>
<path d="M631.584 474.399C665.814 477.756 670.185 500.127 667.869 511.442C664.212 515.38 655.493 517.63 644.523 505.536C635.747 495.86 620.052 491.681 613.302 490.801M631.584 474.399C629.792 474.224 627.918 474.1 625.959 474.033C582.239 472.534 571.582 523.093 613.302 490.801M631.584 474.399C624.635 481.359 618.553 486.736 613.302 490.801" stroke="#161A1D" stroke-width="1.5"/>
<path d="M78.0536 337.042H170.231V341.167H78.0536M78.0536 337.042L63 337.042V341.167L78.0536 341.167M78.0536 337.042V341.167" stroke="#161A1D" stroke-width="1.5"/>
<path d="M69.0492 256V337.179M158.271 256V337.012M64.5125 268.373H77.6628M164.045 268.373H149.144M86.8271 268.373H98.1908M108.088 268.373H119.085M128.616 268.373H139.613" stroke="#161A1D" stroke-width="1.5"/>
<path d="M77.4351 258.268V326.059C77.4351 328.813 78.3199 331.708 81.0569 332.021C81.4561 332.067 81.8971 332.093 82.3842 332.093C83.733 332.093 84.6849 331.894 85.3551 331.627C86.6895 331.095 86.9209 329.512 86.9209 328.076V258.268M77.4351 258.268V258.268C80.5068 259.337 83.8492 259.337 86.9209 258.268V258.268M77.4351 258.268C77.4351 256.825 86.9209 256.825 86.9209 258.268" stroke="#161A1D" stroke-width="1.5"/>
<path d="M98.2627 258.268V326.059C98.2627 328.813 99.1475 331.708 101.885 332.021C102.284 332.067 102.725 332.093 103.212 332.093C104.561 332.093 105.512 331.894 106.183 331.627C107.517 331.095 107.749 329.512 107.749 328.076V258.268M98.2627 258.268V258.268C101.334 259.337 104.677 259.337 107.749 258.268V258.268M98.2627 258.268C98.2627 256.825 107.749 256.825 107.749 258.268" stroke="#161A1D" stroke-width="1.5"/>
<path d="M119.09 258.268V326.059C119.09 328.813 119.975 331.708 122.712 332.021C123.111 332.067 123.552 332.093 124.039 332.093C125.388 332.093 126.34 331.894 127.01 331.627C128.345 331.095 128.576 329.512 128.576 328.076V258.268M119.09 258.268V258.268C122.162 259.337 125.504 259.337 128.576 258.268V258.268M119.09 258.268C119.09 256.825 128.576 256.825 128.576 258.268" stroke="#161A1D" stroke-width="1.5"/>
<path d="M139.918 258.268V326.059C139.918 328.813 140.803 331.708 143.54 332.021C143.939 332.067 144.38 332.093 144.867 332.093C146.216 332.093 147.168 331.894 147.838 331.627C149.172 331.095 149.404 329.512 149.404 328.076V258.268M139.918 258.268V258.268C142.99 259.337 146.332 259.337 149.404 258.268V258.268M139.918 258.268C139.918 256.825 149.404 256.825 149.404 258.268" stroke="#161A1D" stroke-width="1.5"/>
<path d="M82.3842 332.093C81.8971 332.093 81.4561 332.067 81.0569 332.021C78.3199 331.708 77.4351 328.814 77.4351 326.059V294.253H86.9209V328.076C86.9209 329.512 86.6895 331.095 85.3551 331.627C84.6849 331.894 83.733 332.093 82.3842 332.093Z" fill="#70E000" stroke="#161A1D" stroke-width="1.5"/>
<path d="M103.14 332.093C102.653 332.093 102.212 332.067 101.813 332.022C99.0758 331.708 98.1909 328.814 98.1909 326.059V312.085H107.677V328.076C107.677 329.512 107.445 331.095 106.111 331.627C105.441 331.895 104.489 332.093 103.14 332.093Z" fill="#70E000" stroke="#161A1D" stroke-width="1.5"/>
<path d="M193.123 216C219.275 202.413 237.139 175.078 237.139 143.57C237.139 98.52 200.619 62 155.57 62C110.52 62 74 98.52 74 143.57C74 181.694 100.155 213.71 135.5 222.652" stroke="#161A1D" stroke-width="1.5"/>
<path d="M94.3824 181.376C96.536 172.761 100.709 162.496 107.21 152.782M219.454 130.53C203.768 123.408 189.761 119.758 177.312 118.734M86.2258 161.313C95.8485 166.808 109.296 171.958 124.053 173.699M211.297 110.466C206.38 124.686 200.291 136.014 193.429 144.935M107.21 152.782L124.053 173.699M107.21 152.782C110.026 148.574 113.278 144.47 116.993 140.648M124.053 173.699C129.25 174.312 134.609 174.503 140.02 174.137M116.993 140.648L140.02 174.137M116.993 140.648C119.126 138.452 121.412 136.35 123.855 134.374M140.02 174.137C144.567 173.829 149.152 173.129 153.708 171.956M153.708 171.956L123.855 134.374M153.708 171.956C157.723 170.923 161.715 169.523 165.642 167.702M123.855 134.374C127.354 131.544 131.177 128.974 135.335 126.763M135.335 126.763L165.642 167.702M135.335 126.763C139.408 124.599 143.803 122.779 148.534 121.398M165.642 167.702C169.644 165.846 173.578 163.552 177.395 160.763M177.395 160.763L148.534 121.398M177.395 160.763C180.324 158.622 183.185 156.19 185.956 153.441M148.534 121.398C152.802 120.151 157.345 119.262 162.17 118.797M162.17 118.797L185.956 153.441M162.17 118.797C166.938 118.339 171.982 118.296 177.312 118.734M185.956 153.441C188.53 150.887 191.027 148.059 193.429 144.935M177.312 118.734L193.429 144.935" stroke="#161A1D" stroke-width="1.5"/>
<circle cx="176.151" cy="83.7647" r="3.65657" transform="rotate(-22.1237 176.151 83.7647)" fill="white" stroke="#161A1D" stroke-width="1.5"/>
<path d="M176.641 87.209L164.398 139.249" stroke="#161A1D" stroke-width="1.5"/>
<rect x="129.034" y="82" width="37.6908" height="5.06295" transform="rotate(0.38288 129.034 82)" stroke="#161A1D" stroke-width="1.5"/>
<rect x="149.236" y="90.4482" width="17.439" height="5.06295" transform="rotate(0.38288 149.236 90.4482)" stroke="#161A1D" stroke-width="1.5"/>
<circle cx="163.161" cy="142.181" r="5.06295" transform="rotate(-22.1237 163.161 142.181)" fill="#70E000" stroke="#161A1D" stroke-width="1.5"/>
<path d="M190.667 324.232C187.21 321.931 180.515 317.658 175.824 315.183M175.824 315.183C174.414 314.439 173.185 313.858 172.28 313.541C168.362 312.172 166.476 313.913 166.022 314.955C172.616 317.524 180.432 323.287 183.516 325.847L183.23 326.243C179.313 324.863 175.609 323.444 172.592 323.242C166.945 322.865 164.945 325.158 164.651 326.352C167.909 325.803 191.926 337.289 195.946 338.448C199.162 339.374 206.283 338.179 209.442 337.465L220.705 334.92C223.354 334.447 228.838 334.323 229.582 337.613C230.511 341.725 212.474 329.264 200.098 331.872C194.316 333.091 186.857 332.146 182.096 329.926C182.01 327.754 184.43 323.574 194.803 324.237C207.224 325.031 222.286 313.844 236.731 323.803M175.824 315.183C171.854 311.445 171.091 307.947 199.791 323.861C195.95 322.662 187.854 319.267 186.202 315.281C186.56 315.201 188.261 312.749 194.836 316.901C200.096 320.222 203.603 322.436 204.699 323.128" stroke="#161A1D" stroke-width="1.44116"/>
<rect x="652" y="120" width="96" height="115" stroke="#161A1D" stroke-width="1.5" stroke-miterlimit="10" stroke-linecap="round" stroke-linejoin="round"/>
<path d="M735 151H664V138H704" stroke="#161A1D" stroke-width="1.5" stroke-miterlimit="10" stroke-linecap="round" stroke-linejoin="round"/>
<path d="M735 159H664V172H723" stroke="#161A1D" stroke-width="1.5" stroke-miterlimit="10" stroke-linecap="round" stroke-linejoin="round"/>
<path d="M715 180H664V193H684" stroke="#161A1D" stroke-width="1.5" stroke-miterlimit="10" stroke-linecap="round" stroke-linejoin="round"/>
<path d="M710.026 223.679C712.901 223.228 718.391 219.774 717.344 209.575C716.036 196.826 709.511 215.791 718.065 220.619C726.62 225.448 726.993 214.173 724.908 216.211C722.823 218.248 724.837 222.395 727.405 220.484C729.974 218.574 729.618 217.963 733.614 218.494C736.81 218.919 736.045 214.48 735.263 212.207" stroke="#161A1D" stroke-width="1.5" stroke-miterlimit="10" stroke-linecap="round" stroke-linejoin="round"/>
<path d="M318 210.304C317.6 217.504 315.167 221.304 314 222.304L318 225.304C323 221.304 318.5 201.304 318 210.304Z" fill="#161A1D"/>
</svg>
