<svg width="816" height="757" viewBox="0 0 816 757" fill="none" xmlns="http://www.w3.org/2000/svg">
<path d="M860 565.716L681.953 648.129M860 565.716V589.343L681.953 683.288M860 565.716L764.5 551.396L740.5 547.797M681.953 648.129L21.2383 487.521M681.953 648.129V683.288M21.2383 487.521L117.153 454.331L154.962 460L160.481 460.828M21.2383 487.521V504.679L681.953 683.288M572.5 522.607L527.5 515.86M298.5 481.523L372 492.5M396 496.142L403 497.192L446.5 503.714M473.5 507.763L484 509.337" stroke="#161A1D" stroke-width="1.5"/>
<ellipse opacity="0.4" cx="120" cy="476.5" rx="40" ry="9.5" fill="#D9D9D9"/>
<path d="M79.5242 399.193C93.7755 404.444 127.116 411.794 146.468 399.193M79.5242 399.193C81.2569 404.444 83.9774 413.058 86.0756 420.57M79.5242 399.193C76.9596 392.829 84.0613 390.718 94.9943 390.877M109.339 448.979C113.851 448.881 119.013 448.646 123.966 447.821M109.339 448.979L107.089 470.074M109.339 448.979C106.237 449.046 103.475 448.612 101.063 447.821M146.468 399.193C146.749 406.412 146.636 423.495 143.936 434.071C142.592 439.335 138.884 442.726 134.092 444.919M146.468 399.193C141.242 397.872 134.985 396.44 128.418 395.142M86.0756 420.57C87.7242 426.473 88.9885 431.695 89.0876 434.071C89.3014 439.203 93.4169 445.311 101.063 447.821M86.0756 420.57C94.1115 423.383 113.558 428.164 127.06 424.789M134.092 444.919L159.969 477.387M134.092 444.919C131.045 446.313 127.56 447.222 123.966 447.821M123.966 447.821L137.186 489.482M101.063 447.821L79.5242 491.17M128.418 395.142C130.122 375.303 141.124 330.701 158 314.5M128.418 395.142C124.739 394.415 120.962 393.73 117.215 393.13M117.215 393.13C116.09 354.366 115.865 274.307 123.966 264.181M117.215 393.13C113.782 392.58 110.375 392.103 107.089 391.729M107.089 391.729C102.683 370.684 87.6522 324.201 66.5003 308M107.089 391.729C102.773 391.239 98.6673 390.93 94.9943 390.877M94.9943 390.877C86.7436 381.085 65.8543 361.277 48.3027 360.377" stroke="#161A1D" stroke-width="1.5"/>
<path d="M146.467 399.193C127.116 411.794 93.7751 404.444 79.5239 399.193C76.9593 392.829 84.0609 390.718 94.994 390.877C98.6669 390.93 102.772 391.239 107.089 391.729C110.374 392.103 113.782 392.58 117.215 393.13C120.962 393.729 124.738 394.415 128.418 395.142C134.985 396.44 141.242 397.872 146.467 399.193Z" fill="#161A1D"/>
<path d="M139.717 313.123C129.029 331.031 112.49 368.084 131.841 373.035C149.096 377.449 152.182 341.361 168.97 321.633M139.717 313.123C141.124 311.717 147.593 290.34 178.252 294.559C208.911 298.778 217.912 375.991 168.97 321.633M139.717 313.123C152.093 311.548 162.097 314 168.97 321.633" stroke="#161A1D" stroke-width="1.5"/>
<path d="M104.48 269.588C93.0035 328.093 106.261 346.095 114.324 347.783C135.701 349.752 118.262 298.278 135.701 273.245C153.14 248.211 118.825 196.457 104.48 269.588Z" stroke="#161A1D" stroke-width="1.5"/>
<path d="M79.5542 305.81C106.367 331.521 105.123 357.54 100.901 367.69C89.6499 371.291 66.2083 336.375 55.8938 318.467M79.5542 305.81C78.3798 304.684 77.1516 303.558 75.8675 302.435C37.6141 268.963 14.2683 328.031 34.8014 333.375C45.8671 336.255 50.0881 327.045 55.8938 318.467M79.5542 305.81C66.9881 304.254 60.861 311.129 55.8938 318.467" stroke="#161A1D" stroke-width="1.5"/>
<path d="M51.5844 348.399C85.8135 351.756 90.1853 374.127 87.8689 385.442C84.2123 389.38 75.4928 391.63 64.5231 379.536C55.7473 369.86 40.0522 365.681 33.3016 364.801M51.5844 348.399C49.7922 348.224 47.9182 348.1 45.9589 348.033C2.23916 346.534 -8.41814 397.093 33.3016 364.801M51.5844 348.399C44.6346 355.359 38.5531 360.736 33.3016 364.801" stroke="#161A1D" stroke-width="1.5"/>
<path d="M160 497.29L180.533 508.541M160 497.29V502.916L180.533 514.167M160 497.29H236M306.263 508.541L284.042 497.29H277.771M306.263 508.541H180.533M306.263 508.541V514.167H180.533M180.533 508.541V514.167M265 497.29H249.5" stroke="#161A1D" stroke-width="1.5"/>
<path d="M168.251 398V496.727M289.948 398V500.103M162.062 414.876H180M297.824 414.876H277.5M192.5 414.876H208M221.5 414.876H236.5M249.5 414.876H264.5" stroke="#161A1D" stroke-width="1.5"/>
<path d="M179.689 401.094V495.08C179.689 497.835 180.461 500.755 183.133 501.426C184.009 501.646 185.096 501.79 186.44 501.79C188.819 501.79 190.292 501.338 191.201 500.815C192.446 500.099 192.628 498.534 192.628 497.097V401.094M179.689 401.094V401.094C183.879 402.551 188.439 402.551 192.628 401.094V401.094M179.689 401.094C179.689 399.125 192.628 399.125 192.628 401.094" stroke="#161A1D" stroke-width="1.5"/>
<path d="M208.098 401.094V495.08C208.098 497.835 208.869 500.755 211.541 501.426C212.418 501.646 213.505 501.79 214.848 501.79C217.227 501.79 218.7 501.338 219.609 500.815C220.854 500.099 221.036 498.534 221.036 497.097V401.094M208.098 401.094V401.094C212.287 402.551 216.847 402.551 221.036 401.094V401.094M208.098 401.094C208.098 399.125 221.036 399.125 221.036 401.094" stroke="#161A1D" stroke-width="1.5"/>
<path d="M236.507 401.094V495.08C236.507 497.835 237.279 500.755 239.951 501.426C240.827 501.646 241.914 501.79 243.257 501.79C245.636 501.79 247.11 501.338 248.018 500.815C249.263 500.099 249.445 498.534 249.445 497.097V401.094M236.507 401.094V401.094C240.696 402.551 245.256 402.551 249.445 401.094V401.094M236.507 401.094C236.507 399.125 249.445 399.125 249.445 401.094" stroke="#161A1D" stroke-width="1.5"/>
<path d="M264.915 401.094V495.08C264.915 497.835 265.687 500.755 268.359 501.426C269.235 501.646 270.322 501.79 271.666 501.79C274.044 501.79 275.518 501.338 276.426 500.815C277.672 500.099 277.854 498.534 277.854 497.097V401.094M264.915 401.094V401.094C269.104 402.551 273.665 402.551 277.854 401.094V401.094M264.915 401.094C264.915 399.125 277.854 399.125 277.854 401.094" stroke="#161A1D" stroke-width="1.5"/>
<path d="M186.44 501.79C185.096 501.79 184.009 501.646 183.133 501.426C180.461 500.755 179.689 497.835 179.689 495.08V450.176H192.628V497.097C192.628 498.534 192.446 500.099 191.201 500.815C190.292 501.338 188.819 501.79 186.44 501.79Z" fill="#70E000" stroke="#161A1D" stroke-width="1.5"/>
<path d="M214.751 501.79C213.407 501.79 212.32 501.646 211.444 501.426C208.772 500.755 208 497.835 208 495.08V474.5H220.939V497.097C220.939 498.534 220.757 500.099 219.511 500.815C218.603 501.338 217.129 501.79 214.751 501.79Z" fill="#70E000" stroke="#161A1D" stroke-width="1.5"/>
<path d="M375.97 485.157V478.125C375.97 477.504 376.473 477 377.095 477H390.596C391.217 477 391.721 477.504 391.721 478.125V485.157" stroke="#161A1D" stroke-width="1.5"/>
<path d="M365 551.72V512.798C365 509.251 365.959 505.769 367.774 502.721L370.102 498.814C371.917 495.767 372.876 492.285 372.876 488.737V485.72C372.876 485.098 373.379 484.594 374.001 484.594H392.846C393.468 484.594 393.971 485.098 393.971 485.72V487.632C393.971 491.869 395.338 495.993 397.869 499.392L399.918 502.144C402.449 505.542 403.816 509.666 403.816 513.903V551.463C403.816 553.06 402.913 554.521 401.484 555.235L400.377 555.789C389.844 561.055 377.4 560.833 367.062 555.194C365.791 554.501 365 553.168 365 551.72Z" stroke="#161A1D" stroke-width="1.5"/>
<path d="M396.502 521.16H370.906C370.285 521.16 369.781 521.664 369.781 522.285V540.006C369.781 540.627 370.285 541.131 370.906 541.131H396.502C397.124 541.131 397.627 540.627 397.627 540.006V522.285C397.627 521.664 397.124 521.16 396.502 521.16Z" stroke="#161A1D" stroke-width="1.5"/>
<path d="M493.991 487.23V478.621C493.991 477.86 494.608 477.243 495.369 477.243H511.899C512.659 477.243 513.276 477.86 513.276 478.621V487.23" stroke="#161A1D" stroke-width="1.5"/>
<path d="M480.561 568.725V521.072C480.561 516.728 481.734 512.466 483.957 508.734L486.806 503.951C489.029 500.22 490.203 495.957 490.203 491.614V487.919C490.203 487.158 490.82 486.542 491.58 486.542H514.653C515.414 486.542 516.031 487.158 516.031 487.919V490.26C516.031 495.448 517.704 500.497 520.803 504.658L523.312 508.028C526.41 512.188 528.084 517.238 528.084 522.425V568.41C528.084 570.366 526.979 572.154 525.229 573.028L523.873 573.706C510.978 580.154 495.743 579.882 483.085 572.978C481.529 572.129 480.561 570.498 480.561 568.725Z" stroke="#161A1D" stroke-width="1.5"/>
<path d="M519.13 531.31H487.793C487.032 531.31 486.415 531.927 486.415 532.687V554.383C486.415 555.143 487.032 555.76 487.793 555.76H519.13C519.891 555.76 520.508 555.143 520.508 554.383V532.687C520.508 531.927 519.891 531.31 519.13 531.31Z" stroke="#161A1D" stroke-width="1.5"/>
<path d="M453.277 492.584H447.933C447.311 492.584 446.808 493.088 446.808 493.709V547.433C446.808 548.054 447.311 548.558 447.933 548.558H472.122C472.744 548.558 473.247 548.054 473.247 547.433V493.709C473.247 493.088 472.744 492.584 472.122 492.584H466.059M453.277 492.584V482.52C453.277 481.899 453.781 481.395 454.402 481.395H464.934C465.556 481.395 466.059 481.899 466.059 482.52V492.584M453.277 492.584H466.059" stroke="#161A1D" stroke-width="1.5"/>
<path d="M466.653 502.147H453.151C452.53 502.147 452.026 502.651 452.026 503.273V538.713C452.026 539.335 452.53 539.838 453.151 539.838H466.653C467.274 539.838 467.778 539.335 467.778 538.713V503.273C467.778 502.651 467.274 502.147 466.653 502.147Z" stroke="#161A1D" stroke-width="1.5"/>
<path d="M534.378 25.7236C535.326 25.517 536.247 25.4972 537.142 25.6642C538.023 25.834 538.834 26.1669 539.572 26.663C540.311 27.1592 540.936 27.7806 541.447 28.5273C541.949 29.2897 542.303 30.1446 542.509 31.0919C542.716 32.0393 542.748 32.9575 542.607 33.8466C542.456 34.7514 542.152 35.5752 541.698 36.3181C541.23 37.0638 540.63 37.6974 539.899 38.2189C539.168 38.7405 538.335 39.1031 537.401 39.3069C536.389 39.5274 535.448 39.545 534.576 39.3596C533.691 39.177 532.879 38.8377 532.141 38.3416L532.892 37.172C533.464 37.5836 534.108 37.8591 534.822 37.9983C535.539 38.1504 536.301 38.1385 537.108 37.9627C537.85 37.8008 538.506 37.517 539.074 37.1114C539.63 36.7085 540.091 36.2058 540.455 35.6033C540.81 35.0163 541.043 34.362 541.154 33.6405C541.255 32.9345 541.22 32.1911 541.05 31.4101C540.88 30.6292 540.594 29.9338 540.193 29.3239C539.791 28.714 539.306 28.2097 538.736 27.8109C538.169 27.4249 537.543 27.1659 536.857 27.0338C536.171 26.9018 535.457 26.9167 534.714 27.0786C533.869 27.2629 533.152 27.5734 532.564 28.0102C531.962 28.4498 531.487 28.9759 531.138 29.5885L529.964 28.8185C530.416 28.0628 531.011 27.41 531.75 26.86C532.491 26.3229 533.367 25.9441 534.378 25.7236ZM526.329 27.6799L529.21 40.8918L527.808 41.1975L524.927 27.9856L526.329 27.6799ZM517.668 29.5684L520.549 42.7802L519.147 43.0859L516.266 29.8741L517.668 29.5684ZM526.755 34.0644L527.036 35.351L518.913 37.1222L518.632 35.8356L526.755 34.0644ZM514.607 37.7796L512.607 40.9715C512.347 41.377 512.186 41.6869 512.126 41.9012C512.055 42.1312 512.044 42.355 512.091 42.5726C512.158 42.8799 512.314 43.1008 512.558 43.2353C512.792 43.3855 513.081 43.4229 513.427 43.3475C513.721 43.2833 513.967 43.1493 514.164 42.9454C514.361 42.7415 514.533 42.4558 514.681 42.0883L515.647 42.6422C515.47 43.1233 515.206 43.5095 514.853 43.8009C514.491 44.1079 514.061 44.3158 513.561 44.4246C512.883 44.5726 512.305 44.5042 511.827 44.2195C511.352 43.9476 511.044 43.4915 510.905 42.8514C510.821 42.4674 510.828 42.0972 510.924 41.7408C511.024 41.3973 511.243 40.9604 511.584 40.4302L513.105 38.087L514.607 37.7796ZM514.46 37.1075L514.607 37.7796L513.683 38.343L509.939 39.1595L509.717 38.1417L514.46 37.1075Z" fill="#161A1D"/>
<path d="M584.503 98.7057C584.902 97.822 585.435 97.0709 586.103 96.4523C586.765 95.8457 587.516 95.3939 588.354 95.097C589.193 94.8 590.064 94.669 590.969 94.7037C591.88 94.7558 592.777 94.9814 593.661 95.3806C594.545 95.7798 595.301 96.3013 595.93 96.945C596.566 97.6061 597.047 98.3408 597.372 99.149C597.692 99.9691 597.843 100.828 597.825 101.726C597.808 102.624 597.602 103.509 597.208 104.381C596.782 105.324 596.235 106.09 595.566 106.68C594.892 107.281 594.135 107.73 593.297 108.027L592.806 106.727C593.478 106.513 594.082 106.16 594.62 105.67C595.17 105.185 595.615 104.566 595.955 103.814C596.267 103.122 596.431 102.426 596.444 101.728C596.452 101.041 596.323 100.372 596.057 99.7197C595.798 99.0849 595.411 98.5078 594.898 97.9885C594.392 97.4865 593.774 97.071 593.046 96.7419C592.318 96.4129 591.589 96.2275 590.86 96.1858C590.131 96.1442 589.437 96.2331 588.777 96.4526C588.129 96.6775 587.548 97.0258 587.033 97.4977C586.517 97.9695 586.103 98.5517 585.791 99.2443C585.435 100.032 585.256 100.793 585.256 101.526C585.25 102.271 585.389 102.966 585.672 103.612L584.354 104.095C584.017 103.281 583.848 102.414 583.847 101.494C583.858 100.578 584.077 99.649 584.503 98.7057ZM581.272 106.334L593.596 111.901L593.005 113.208L580.682 107.641L581.272 106.334ZM577.623 114.412L589.947 119.979L589.356 121.286L577.033 115.72L577.623 114.412ZM586.652 109.799L587.852 110.341L584.429 117.918L583.229 117.376L586.652 109.799ZM582.389 121.766L583.758 125.275C583.928 125.726 584.082 126.039 584.218 126.216C584.36 126.41 584.533 126.552 584.736 126.644C585.022 126.774 585.292 126.781 585.546 126.665C585.806 126.567 586.009 126.356 586.154 126.034C586.278 125.759 586.317 125.482 586.271 125.203C586.225 124.923 586.099 124.614 585.892 124.276L586.912 123.831C587.193 124.26 587.345 124.703 587.369 125.159C587.399 125.633 587.309 126.103 587.099 126.569C586.813 127.202 586.414 127.625 585.9 127.839C585.398 128.058 584.849 128.032 584.252 127.763C583.894 127.601 583.601 127.375 583.372 127.085C583.156 126.8 582.936 126.363 582.714 125.774L581.74 123.155L582.389 121.766ZM581.762 121.483L582.389 121.766L582.29 122.844L580.712 126.336L579.763 125.907L581.762 121.483Z" fill="#161A1D"/>
<path d="M522.676 127.112C523.486 127.646 524.144 128.291 524.649 129.048C525.144 129.797 525.472 130.609 525.633 131.484C525.794 132.359 525.786 133.241 525.609 134.128C525.414 135.02 525.05 135.87 524.517 136.68C523.984 137.49 523.349 138.155 522.615 138.675C521.862 139.199 521.06 139.557 520.211 139.751C519.351 139.938 518.479 139.951 517.595 139.793C516.711 139.634 515.869 139.292 515.071 138.765C514.206 138.196 513.536 137.535 513.059 136.781C512.571 136.021 512.247 135.203 512.086 134.328L513.447 134.048C513.553 134.745 513.805 135.398 514.205 136.006C514.597 136.626 515.138 137.162 515.827 137.617C516.462 138.035 517.123 138.305 517.811 138.429C518.487 138.545 519.169 138.523 519.854 138.363C520.522 138.207 521.153 137.916 521.747 137.491C522.322 137.07 522.83 136.526 523.27 135.858C523.709 135.191 524.007 134.501 524.163 133.787C524.319 133.074 524.341 132.375 524.228 131.688C524.108 131.013 523.855 130.384 523.47 129.801C523.086 129.218 522.576 128.717 521.941 128.299C521.219 127.824 520.496 127.528 519.772 127.412C519.037 127.289 518.329 127.316 517.647 127.494L517.377 126.117C518.234 125.912 519.117 125.882 520.026 126.026C520.928 126.181 521.812 126.543 522.676 127.112ZM515.652 122.721L508.213 134.013L507.015 133.224L514.454 121.932L515.652 122.721ZM508.25 117.845L500.811 129.137L499.613 128.348L507.051 117.055L508.25 117.845ZM511.383 127.487L510.658 128.587L503.715 124.013L504.44 122.913L511.383 127.487ZM500.236 121.392L496.556 122.192C496.084 122.289 495.75 122.391 495.554 122.497C495.34 122.607 495.172 122.755 495.05 122.941C494.877 123.204 494.827 123.47 494.902 123.738C494.958 124.01 495.133 124.244 495.429 124.438C495.68 124.604 495.948 124.686 496.231 124.685C496.515 124.683 496.84 124.607 497.206 124.456L497.484 125.534C497.017 125.743 496.556 125.824 496.101 125.776C495.628 125.731 495.179 125.568 494.752 125.287C494.172 124.905 493.817 124.444 493.687 123.903C493.549 123.373 493.661 122.835 494.021 122.287C494.238 121.959 494.507 121.705 494.829 121.525C495.145 121.356 495.611 121.208 496.228 121.081L498.967 120.532L500.236 121.392ZM500.615 120.817L500.236 121.392L499.188 121.125L495.988 119.017L496.561 118.147L500.615 120.817Z" fill="#161A1D"/>
<circle cx="541.57" cy="87.5697" r="81.5697" stroke="#161A1D" stroke-width="1.5"/>
<path d="M537.28 61.9938L522.907 75.2609M537.28 61.9938L557.181 67.7982M537.28 61.9938L534.792 50.938M522.907 75.2609L527.053 99.0309M522.907 75.2609L511.575 73.0497M527.053 99.0309L545.296 105.388M527.053 99.0309L519.867 110.363M545.296 105.388L561.05 89.6335M545.296 105.388V114.233M561.05 89.6335L557.181 67.7982M561.05 89.6335L571 93.503M557.181 67.7982L566.578 57.2951" stroke="#161A1D" stroke-width="1.5"/>
<circle cx="542.016" cy="83.0155" r="8.01549" stroke="#161A1D" stroke-width="1.5"/>
<path d="M694.123 328C720.275 314.413 738.139 287.078 738.139 255.57C738.139 210.52 701.619 174 656.57 174C611.52 174 575 210.52 575 255.57C575 293.694 601.155 325.71 636.5 334.652" stroke="#161A1D" stroke-width="1.5"/>
<path d="M595.382 293.376C597.536 284.761 601.709 274.496 608.21 264.782M720.454 242.53C704.768 235.408 690.761 231.758 678.312 230.734M587.226 273.313C596.848 278.808 610.296 283.958 625.053 285.699M712.297 222.466C707.38 236.686 701.291 248.014 694.429 256.935M608.21 264.782L625.053 285.699M608.21 264.782C611.026 260.574 614.278 256.47 617.993 252.648M625.053 285.699C630.25 286.312 635.609 286.503 641.02 286.137M617.993 252.648L641.02 286.137M617.993 252.648C620.126 250.452 622.412 248.35 624.855 246.374M641.02 286.137C645.567 285.829 650.152 285.129 654.708 283.956M654.708 283.956L624.855 246.374M654.708 283.956C658.723 282.923 662.715 281.523 666.642 279.702M624.855 246.374C628.354 243.544 632.177 240.974 636.335 238.763M636.335 238.763L666.642 279.702M636.335 238.763C640.408 236.599 644.803 234.779 649.534 233.398M666.642 279.702C670.644 277.846 674.578 275.552 678.395 272.763M678.395 272.763L649.534 233.398M678.395 272.763C681.324 270.622 684.185 268.19 686.956 265.441M649.534 233.398C653.802 232.151 658.345 231.262 663.17 230.797M663.17 230.797L686.956 265.441M663.17 230.797C667.938 230.339 672.982 230.296 678.312 230.734M686.956 265.441C689.53 262.887 692.027 260.059 694.429 256.935M678.312 230.734L694.429 256.935" stroke="#161A1D" stroke-width="1.5"/>
<circle cx="677.151" cy="195.764" r="3.65657" transform="rotate(-22.1237 677.151 195.764)" fill="white" stroke="#161A1D" stroke-width="1.5"/>
<path d="M677.641 199.209L665.398 251.249" stroke="#161A1D" stroke-width="1.5"/>
<rect x="630.034" y="194" width="37.6908" height="5.06295" transform="rotate(0.38288 630.034 194)" stroke="#161A1D" stroke-width="1.5"/>
<rect x="650.236" y="202.448" width="17.439" height="5.06295" transform="rotate(0.38288 650.236 202.448)" stroke="#161A1D" stroke-width="1.5"/>
<circle cx="664.161" cy="254.181" r="5.06295" transform="rotate(-22.1237 664.161 254.181)" fill="#70E000" stroke="#161A1D" stroke-width="1.5"/>
<rect x="188.5" y="168" width="86" height="5" stroke="#161A1D" stroke-width="1.5"/>
<rect x="188.501" y="181" width="37.6908" height="5.06295" stroke="#161A1D" stroke-width="1.5"/>
<rect x="188.5" y="195.383" width="17.439" height="5.06295" stroke="#161A1D" stroke-width="1.5"/>
<path d="M186.5 145H225.878L230.941 152.313L225.878 159.626H186.5V145Z" fill="#70E000" stroke="#161A1D" stroke-width="1.5"/>
<path d="M235.441 145H274.82V152.313V159.626H235.441L240.504 152.313L235.441 145Z" stroke="#161A1D" stroke-width="1.5"/>
<rect x="646.28" y="340.198" width="41.804" height="113.254" transform="rotate(22.8207 646.28 340.198)" stroke="#161A1D" stroke-width="1.5"/>
<circle cx="657.201" cy="369.105" r="11.8135" stroke="#161A1D" stroke-width="1.5"/>
<path d="M654.5 344L658.017 336.825C658.206 336.44 658.598 336.195 659.028 336.195H665.188C665.633 336.195 666.037 335.933 666.217 335.525L670.821 325.104C671.068 324.546 671.715 324.286 672.279 324.518L684.47 329.538C685.082 329.79 685.345 330.513 685.039 331.1L679.427 341.835C679.249 342.176 679.258 342.586 679.451 342.919L681.968 347.267C682.137 347.559 682.166 347.91 682.048 348.226L679.703 354.478" stroke="#161A1D" stroke-width="1.5"/>
<path d="M684.765 358.416H690.269C690.825 358.416 691.297 358.821 691.381 359.371L697.638 400.177C697.681 400.454 697.824 400.703 698.037 400.884C700.044 402.586 703.865 406.456 705.874 410.7C706.047 411.066 706.377 411.321 706.778 411.373C725.071 413.759 760.428 431.08 760.428 482.458C760.428 508.082 734.78 530.506 706.97 538.378C706.481 538.516 706.142 538.96 706.142 539.468V574.435C706.142 575.056 706.646 575.56 707.267 575.56H742.989C743.611 575.56 744.114 576.064 744.114 576.685V591.312C744.114 591.933 743.611 592.437 742.989 592.437H592.946C592.375 592.437 591.891 592.011 591.865 591.441C591.604 585.585 594.59 575.56 608.821 575.56C623.311 575.56 636.189 575.56 641.415 575.56C641.791 575.56 642.13 575.383 642.339 575.071C657.334 552.616 685.574 509.742 695.735 509.742C702.302 509.742 703.587 517.265 703.424 521.684C703.399 522.363 703.932 522.954 704.61 522.918C717.832 522.211 742.372 513.383 744.114 482.458C745.882 451.079 720.487 433.95 706.876 428.994C706.431 428.832 705.948 428.981 705.638 429.34C700.694 435.08 688.774 443.523 676.609 435.485C670.368 431.362 667.704 425.032 667.689 418.89M682.797 400.607C679.432 400.607 676.468 401.854 674.077 403.904M674.077 403.904V381.762M674.077 403.904C670.072 407.339 667.674 413.029 667.689 418.89M667.689 418.89H658.5" stroke="#161A1D" stroke-width="1.5"/>
<path d="M606.29 446.174L604.466 457.378C604.382 457.899 604.669 458.408 605.159 458.604L628.696 468.018C629.23 468.232 629.84 468.008 630.109 467.499L634.98 458.269" stroke="#161A1D" stroke-width="1.5"/>
<path d="M684 517.618H635.262M635.262 517.618V504.237C635.262 503.817 635.495 503.433 635.868 503.239L648.719 496.556C649.092 496.362 649.325 495.978 649.325 495.558V483.583M635.262 517.618V529.713C635.262 530.334 634.758 530.838 634.136 530.838H606.073C605.684 530.838 605.322 530.636 605.117 530.305L602.164 525.535C601.935 525.166 601.94 524.698 602.175 524.333L615.572 503.554M649.325 483.583H656.638M649.325 483.583H581.819M575.913 483.583H581.819M581.819 483.583V495.497C581.819 495.948 582.089 496.356 582.503 496.532L598.766 503.464C598.905 503.523 599.055 503.554 599.207 503.554H615.572M615.572 503.554L630.761 486.115" stroke="#161A1D" stroke-width="1.5"/>
<path d="M607.134 517.618H595.32C594.699 517.618 594.195 518.121 594.195 518.743V534.213C594.195 534.834 594.699 535.338 595.32 535.338H670" stroke="#161A1D" stroke-width="1.5"/>
<circle cx="634.98" cy="440.829" r="4.21912" stroke="#161A1D" stroke-width="1.5"/>
<circle cx="686.5" cy="419.5" r="7.5" stroke="#161A1D" stroke-width="1.5"/>
<circle cx="693.923" cy="522.65" r="4.21912" stroke="#161A1D" stroke-width="1.5"/>
<path d="M170 125.5V267L162.64 248.354C162.547 248.12 162.5 247.871 162.5 247.62V121H268.283C268.427 121 268.571 121.016 268.712 121.047L289 125.5H170Z" fill="#161A1D"/>
<path d="M170 125.5V267L162.64 248.354C162.547 248.12 162.5 247.871 162.5 247.62V121M170 125.5H289M170 125.5L162.5 121M289 125.5V210.5M289 125.5L268.712 121.047C268.571 121.016 268.427 121 268.283 121H162.5" stroke="#161A1D" stroke-width="1.5"/>
<path opacity="0.4" d="M656.385 610.777C687.077 616.4 712.25 601.269 721 593H616C616.673 596.583 625.692 605.155 656.385 610.777Z" fill="#D9D9D9"/>
<path d="M436.611 126.484C423.56 136.61 411.296 136.891 402.577 136.891C359.823 136.891 355.604 91.8871 368.261 95.825C380.918 99.7628 389.357 96.3876 411.296 88.7931C433.236 81.1987 442.236 100.044 445.33 102.294C461.982 100.944 460.332 129.297 457.425 143.642C450.675 145.892 444.487 151.892 442.236 154.611C441.392 152.174 439.705 144.879 439.705 135.204C439.705 125.528 437.642 125.359 436.611 126.484Z" fill="#161A1D"/>
<path d="M450.464 174.181C450.464 174.181 448.678 190.18 453.839 202.59C459 215 480.5 214 480.5 214M409.398 200.902C409.398 200.902 411.5 207.5 409.398 212C407.296 216.5 403.5 221 403.5 221" stroke="#161A1D" stroke-width="1.5"/>
<path d="M412.492 314.256C411.93 317.35 411.086 371.355 415.305 391.044M418.399 456.581C418.399 460.406 416.336 480.302 415.305 489.771" stroke="#161A1D" stroke-width="1.5"/>
<path d="M438.932 158.43C414.179 169.681 392.052 169.306 384.083 167.712C388.302 184.026 398.428 198.371 411.085 199.496C421.211 200.396 432.744 192.37 437.244 188.245L438.932 158.43Z" fill="#161A1D"/>
<path d="M388.865 151.961C390.647 150.836 394.997 148.923 398.147 150.273" stroke="#161A1D" stroke-width="1.5"/>
<path d="M406.023 159.273L404.054 167.993" stroke="#161A1D" stroke-width="1.5"/>
<path d="M403.21 173.619C402.367 178.494 402.817 189.708 411.367 195.558" stroke="white" stroke-width="1.5"/>
<path d="M381.552 226.498C369.457 229.124 343.861 239.943 338.235 262.22C332.61 284.497 327.813 309.531 326.5 316L285 271M285 271C285 284 271.405 300.924 254.978 302.724M285 271C284 271 281.4 271.3 279 272.5M254.978 302.724C250.144 303.254 250.875 299.135 254.978 292.391M254.978 302.724C273.73 333.851 315.621 395.376 333.173 392.45C350.724 389.525 361.112 367.792 364.113 357.291L352.299 488.365" stroke="#161A1D" stroke-width="1.5"/>
<path d="M529.221 403.701C530.44 435.579 535.015 503.048 543.566 517.899" stroke="#161A1D" stroke-width="1.5"/>
<path d="M416.711 146.897C418.961 145.866 423.968 144.422 425.993 146.897" stroke="#161A1D" stroke-width="1.5"/>
<path d="M411.93 289.785L396.178 214.403L377.333 232.686L402.085 268.689L399.272 280.784L411.93 289.785Z" stroke="#161A1D" stroke-width="1.5"/>
<path d="M443.713 269.252L497.437 229.874C494.683 227.018 488.051 220.665 480.531 213.56L407.71 297.098L447.37 284.722L443.713 269.252Z" stroke="#161A1D" stroke-width="1.5"/>
<path d="M485.5 214C501.345 216.625 533.159 226.442 539.91 250.969C548.348 281.628 559.88 334.789 562.412 346.04C564.943 357.291 572.537 382.324 531.753 401.17C499.125 416.246 466.028 432.579 453.558 438.861M453.558 438.861C449.995 420.484 424.587 395.263 424.587 395.263M453.558 438.861C449.828 436.852 446.481 434.207 443.5 431.185M424.587 395.263C446.526 381.949 495.018 354.985 513.47 353.634C507.75 345.852 496.537 326.126 497.437 309.474M424.587 395.263C424.958 396.942 425.499 398.947 426.216 401.17" stroke="#161A1D" stroke-width="1.5"/>
<path d="M434.712 130.021C421.661 140.147 409.398 140.428 400.678 140.428C357.924 140.428 353.705 95.4243 366.363 99.3621C379.02 103.3 387.458 99.9247 409.398 92.3303C431.337 84.7358 440.338 103.581 443.432 105.831C460.083 104.481 458.433 132.834 455.527 147.179C448.776 149.429 442.588 155.43 440.338 158.149C439.494 155.711 437.806 148.416 437.806 138.741C437.806 129.065 435.744 128.896 434.712 130.021Z" stroke="#161A1D" stroke-width="1.5"/>
<path d="M383.802 140.147C383.708 146.804 384.646 161.636 389.146 167.712" stroke="#161A1D" stroke-width="1.5"/>
<path d="M450.745 167.993C460.871 165.518 460.965 155.711 459.746 151.117C459.281 149.764 457.731 147.652 455.251 150.022M453.839 156.18C454.495 157.492 455.077 160.793 452.151 163.493" stroke="#161A1D" stroke-width="1.5"/>
<path d="M438.088 177.275C442.87 176.338 453.22 172.887 456.371 166.587" stroke="#161A1D" stroke-width="1.5"/>
<ellipse cx="420.086" cy="156.461" rx="1.96892" ry="2.81275" fill="#161A1D"/>
<ellipse cx="393.084" cy="161.524" rx="1.96892" ry="2.81275" fill="#161A1D"/>
<path d="M383.521 317.35V306.662H405.741V317.35H383.521Z" stroke="#161A1D" stroke-width="1.5"/>
<path d="M480.561 299.348C464.622 300.567 432.351 303.174 430.775 303.849V315.662L480.561 312.568V299.348Z" stroke="#161A1D" stroke-width="1.5"/>
<path d="M476.504 350.441V320.907L456.252 321.891L436 322.876V350.441H476.504Z" fill="#70E000"/>
<path d="M456.252 321.891L436 322.876V350.441H476.504V320.907L456.252 321.891ZM456.252 321.891V315" stroke="#161A1D" stroke-width="1.5"/>
<path d="M394.074 443.677C388.718 444.505 378.508 446.284 371.812 448.03M371.812 448.03C369.799 448.555 368.103 449.077 366.952 449.569C361.973 451.698 361.69 455.036 362.17 456.439C370.783 453.109 383.385 451.778 388.609 451.529L388.682 452.162C383.695 454.281 378.877 456.175 375.794 458.637C370.022 463.245 370.115 467.215 370.883 468.623C373.539 465.226 406.782 455.144 411.674 452.721C415.588 450.783 421.394 443.362 423.808 439.894L432.416 427.527C434.551 424.738 439.723 419.791 443.335 422.305C447.85 425.447 419.508 429.325 409.884 442.733C405.389 448.997 397.372 454.654 390.833 456.708C388.837 454.691 387.488 448.534 398.062 440.041C409.598 430.776 414.49 410.005 432.416 404.017M371.812 448.03C364.697 447.924 360.882 445.227 402.536 435.287C397.781 437.514 386.995 441.372 381.894 438.987C382.167 438.595 381.647 434.736 391.636 432.946C399.626 431.514 404.953 430.559 406.618 430.26" stroke="#161A1D" stroke-width="1.44116"/>
<path d="M397.5 219L428.5 242.5M428.5 242.5L480.5 214.5M428.5 242.5L414 286.5" stroke="#161A1D" stroke-width="1.5"/>
<path d="M238.014 246.058C233.209 243.55 224.115 238.581 218.336 234.773M218.336 234.773C216.599 233.628 215.162 232.588 214.231 231.752C210.202 228.134 211.007 224.882 211.913 223.708C218.996 229.632 230.5 234.947 235.366 236.864L235.639 236.288C231.599 232.677 227.647 229.334 225.52 226.011C221.538 219.791 222.903 216.062 224.083 214.975C225.505 219.046 253.736 239.289 257.589 243.157C260.67 246.252 263.78 255.146 264.949 259.207L269.12 273.686C270.244 277.013 273.55 283.362 277.779 282.143C283.065 280.621 257.477 267.83 252.68 252.038C250.439 244.661 244.669 236.725 239.138 232.677C236.599 233.944 233.341 239.339 240.62 250.783C249.337 264.488 246.014 288.743 266.482 299M218.336 234.773C211.566 232.584 207.086 233.909 243.327 256.723C239.541 253.085 230.57 245.962 224.973 246.578C225.105 247.038 223.371 250.524 232.252 255.433C239.357 259.36 244.094 261.978 245.574 262.796" stroke="#161A1D" stroke-width="1.44116"/>
<path d="M21.249 505V757M682 683.147V757" stroke="url(#paint0_linear_129_397)" stroke-width="1.5"/>
<defs>
<linearGradient id="paint0_linear_129_397" x1="352" y1="576" x2="352" y2="705" gradientUnits="userSpaceOnUse">
<stop stop-color="#161A1D"/>
<stop offset="1" stop-color="#161A1D" stop-opacity="0"/>
</linearGradient>
</defs>
</svg>
