<svg width="42" height="42" viewBox="0 0 42 42" fill="none" xmlns="http://www.w3.org/2000/svg">
<path opacity="0.2" d="M10.1824 39.9999C9.69825 39.9999 9.2327 39.8696 8.8044 39.5905C7.96643 39.0507 7.51952 38.12 7.63125 37.1335L8.00368 34.267C5.48975 32.2195 4 29.1855 4 26.0027C4 22.3731 5.89943 18.9855 9.08375 16.9567C11.0018 15.7096 13.2736 15.0396 15.6386 15.0396C22.063 15.0396 27.2771 19.9534 27.2771 26.0027C27.2771 28.4596 26.3833 30.8794 24.7446 32.7966C22.6403 35.3466 19.4933 36.8356 16.0296 36.9473L11.4859 39.6462C11.0763 39.8882 10.6293 39.9999 10.1824 39.9999Z" fill="#70E000"/>
<path d="M22.7885 34.4666L30.2557 38.8966C30.7772 39.213 31.3544 39.3619 31.9317 39.3619C32.5462 39.3619 33.1607 39.1758 33.6821 38.8408C34.7436 38.1521 35.3022 36.9609 35.1533 35.6951L34.5201 30.6323C38.6541 27.4494 41.0005 22.7961 41.0005 17.7333C41.0005 8.50113 32.9931 1 23.1609 1C13.3286 1 5.32129 8.50113 5.32129 17.7333" stroke="#292D32" stroke-width="1.5" stroke-linecap="round" stroke-linejoin="round"/>
<path d="M7.18242 40.9999C6.69825 40.9999 6.2327 40.8696 5.8044 40.5905C4.96643 40.0507 4.51952 39.12 4.63125 38.1335L5.00368 35.267C2.48975 33.2195 1 30.1855 1 27.0027C1 23.3731 2.89943 19.9855 6.08375 17.9567C8.00178 16.7096 10.2736 16.0396 12.6386 16.0396C19.0631 16.0396 24.2771 20.9534 24.2771 27.0027C24.2771 29.4596 23.3833 31.8794 21.7446 33.7966C19.6403 36.3466 16.4933 37.8356 13.0296 37.9473L8.48593 40.6462C8.07625 40.8882 7.62934 40.9999 7.18242 40.9999Z" stroke="#292D32" stroke-width="1.5" stroke-linecap="round" stroke-linejoin="round"/>
<path d="M20 10H31" stroke="#292D32" stroke-width="1.5" stroke-linecap="round" stroke-linejoin="round"/>
<path d="M24 17L31 17" stroke="#292D32" stroke-width="1.5" stroke-linecap="round" stroke-linejoin="round"/>
<path d="M8.5 24.75H16" stroke="#292D32" stroke-width="1.5" stroke-linecap="round" stroke-linejoin="round"/>
<path d="M11 29.75L16 29.75" stroke="#292D32" stroke-width="1.5" stroke-linecap="round" stroke-linejoin="round"/>
</svg>
