<svg width="66" height="66" viewBox="0 0 66 66" fill="none" xmlns="http://www.w3.org/2000/svg">
<circle cx="33" cy="33" r="32" fill="#70E000" stroke="#161A1D" stroke-width="1.5"/>
<circle cx="29.5" cy="29.5" r="28.5" fill="white" stroke="#161A1D" stroke-width="1.5"/>
<path d="M21.9335 42V40.24C22.5095 40.2187 22.9682 40.1227 23.3095 39.952C23.6722 39.7813 23.9388 39.4827 24.1095 39.056C24.2802 38.608 24.3655 37.9787 24.3655 37.168L24.3335 23.568L20.7495 25.776L19.7575 24.208L26.7335 19.088H28.3655V37.328C28.3655 37.8613 28.3548 38.3733 28.3335 38.864C28.3335 39.3333 28.3122 39.7067 28.2695 39.984C28.6535 39.9627 29.0908 39.9413 29.5815 39.92C30.0935 39.8987 30.4882 39.888 30.7655 39.888V42H21.9335ZM35.7768 42.512C35.1581 42.512 34.6354 42.288 34.2088 41.84C33.8034 41.3707 33.6008 40.816 33.6008 40.176C33.6008 39.5147 33.8141 38.96 34.2408 38.512C34.6888 38.0427 35.2008 37.808 35.7768 37.808C36.3954 37.808 36.9074 38.0427 37.3128 38.512C37.7181 38.96 37.9208 39.5147 37.9208 40.176C37.9208 40.816 37.7181 41.3707 37.3128 41.84C36.9074 42.288 36.3954 42.512 35.7768 42.512Z" fill="#161A1D"/>
</svg>
