<svg width="66" height="66" viewBox="0 0 66 66" fill="none" xmlns="http://www.w3.org/2000/svg">
<circle cx="33" cy="33" r="32" fill="#70E000" stroke="#161A1D" stroke-width="1.5"/>
<circle cx="29.5" cy="29.5" r="28.5" fill="white" stroke="#161A1D" stroke-width="1.5"/>
<path d="M18.4683 42C18.4683 40.8907 18.6176 39.8987 18.9163 39.024C19.2363 38.1493 19.6523 37.36 20.1643 36.656C20.6976 35.9307 21.2843 35.2587 21.9243 34.64C22.5643 34 23.2256 33.36 23.9083 32.72C25.4016 31.312 26.4683 30.032 27.1083 28.88C27.7483 27.7067 28.0683 26.5653 28.0683 25.456C28.0683 24.7307 27.9723 24.0267 27.7803 23.344C27.6096 22.6613 27.2789 22.1067 26.7883 21.68C26.2976 21.232 25.6043 21.008 24.7083 21.008C24.0469 21.008 23.4496 21.1787 22.9163 21.52C22.3829 21.84 21.9989 22.224 21.7643 22.672C21.9776 22.9067 22.1269 23.1733 22.2123 23.472C22.3189 23.7493 22.3723 24.0053 22.3723 24.24C22.3723 24.4747 22.3083 24.7413 22.1803 25.04C22.0523 25.3387 21.8389 25.5947 21.5403 25.808C21.2629 26.0213 20.8789 26.128 20.3883 26.128C19.7909 26.0853 19.3323 25.8613 19.0123 25.456C18.6923 25.0293 18.5323 24.5387 18.5323 23.984C18.5323 23.4933 18.6816 22.9707 18.9803 22.416C19.2789 21.8613 19.7163 21.328 20.2923 20.816C20.8896 20.304 21.6149 19.888 22.4683 19.568C23.3216 19.248 24.3029 19.088 25.4123 19.088C26.2656 19.088 27.1083 19.1947 27.9403 19.408C28.7723 19.6213 29.5296 19.9627 30.2123 20.432C30.8949 20.88 31.4389 21.488 31.8443 22.256C32.2496 23.0027 32.4523 23.9307 32.4523 25.04C32.4523 25.5733 32.3456 26.1387 32.1323 26.736C31.9403 27.3333 31.5883 27.984 31.0763 28.688C30.5643 29.392 29.8709 30.1813 28.9963 31.056C28.1216 31.9093 27.0123 32.8907 25.6683 34C24.3883 35.0453 23.4069 36.0053 22.7243 36.88C22.0629 37.7547 21.6683 38.4587 21.5403 38.992L27.6203 39.152C28.2816 39.1733 28.8576 39.152 29.3483 39.088C29.8603 39.0027 30.2549 38.8107 30.5323 38.512C30.8309 38.192 30.9803 37.7013 30.9803 37.04H32.6763L32.4523 42H18.4683ZM38.058 42.512C37.4393 42.512 36.9167 42.288 36.49 41.84C36.0847 41.3707 35.882 40.816 35.882 40.176C35.882 39.5147 36.0953 38.96 36.522 38.512C36.97 38.0427 37.482 37.808 38.058 37.808C38.6767 37.808 39.1887 38.0427 39.594 38.512C39.9993 38.96 40.202 39.5147 40.202 40.176C40.202 40.816 39.9993 41.3707 39.594 41.84C39.1887 42.288 38.6767 42.512 38.058 42.512Z" fill="#161A1D"/>
</svg>
