<svg width="66" height="66" viewBox="0 0 66 66" fill="none" xmlns="http://www.w3.org/2000/svg">
<circle cx="33" cy="33" r="32" fill="#70E000" stroke="#161A1D" stroke-width="1.5"/>
<circle cx="29.5" cy="29.5" r="28.5" fill="white" stroke="#161A1D" stroke-width="1.5"/>
<path d="M24.8616 42.512C23.283 42.512 21.9816 42.2773 20.9576 41.808C19.955 41.3387 19.2083 40.752 18.7176 40.048C18.227 39.3227 17.9816 38.6187 17.9816 37.936C17.9816 37.3387 18.1523 36.8267 18.4936 36.4C18.8563 35.9733 19.3363 35.7493 19.9336 35.728C20.403 35.7067 20.7763 35.8027 21.0536 36.016C21.331 36.208 21.523 36.4533 21.6296 36.752C21.7576 37.0507 21.8216 37.3173 21.8216 37.552C21.8216 37.7653 21.779 38 21.6936 38.256C21.6083 38.512 21.491 38.7467 21.3416 38.96C21.5763 39.472 22.003 39.856 22.6216 40.112C23.2403 40.368 23.891 40.496 24.5736 40.496C25.9816 40.496 27.059 40.0907 27.8056 39.28C28.5736 38.4693 28.9576 37.4027 28.9576 36.08C28.9576 35.2693 28.8083 34.4907 28.5096 33.744C28.2323 32.976 27.731 32.3467 27.0056 31.856C26.2803 31.344 25.2456 31.0987 23.9016 31.12C23.7523 31.12 23.5176 31.1307 23.1976 31.152C22.8776 31.1733 22.611 31.1947 22.3976 31.216V29.2C22.5896 29.2213 22.771 29.232 22.9416 29.232C23.1123 29.232 23.283 29.232 23.4536 29.232C24.4563 29.232 25.2776 29.0293 25.9176 28.624C26.579 28.2187 27.0696 27.7067 27.3896 27.088C27.731 26.448 27.9123 25.7653 27.9336 25.04C27.9336 24.2507 27.827 23.5573 27.6136 22.96C27.4216 22.3413 27.0803 21.8613 26.5896 21.52C26.1203 21.1787 25.4803 21.008 24.6696 21.008C23.9656 21.008 23.3363 21.1893 22.7816 21.552C22.2483 21.8933 21.8963 22.2667 21.7256 22.672C21.9176 22.8853 22.0456 23.1307 22.1096 23.408C22.195 23.6853 22.2376 23.9307 22.2376 24.144C22.2376 24.3787 22.1736 24.6453 22.0456 24.944C21.939 25.2213 21.7363 25.4667 21.4376 25.68C21.1603 25.8933 20.787 25.9893 20.3176 25.968C19.7203 25.9467 19.2616 25.7333 18.9416 25.328C18.643 24.9227 18.4936 24.4427 18.4936 23.888C18.4936 23.2693 18.739 22.5867 19.2296 21.84C19.7203 21.072 20.4563 20.4213 21.4376 19.888C22.4403 19.3547 23.6776 19.088 25.1496 19.088C26.4296 19.088 27.5923 19.2693 28.6376 19.632C29.683 19.9947 30.515 20.592 31.1336 21.424C31.7523 22.256 32.0616 23.3547 32.0616 24.72C32.0616 25.3173 31.9016 25.9573 31.5816 26.64C31.2616 27.3227 30.739 27.952 30.0136 28.528C29.2883 29.104 28.3176 29.552 27.1016 29.872C29.1496 30.192 30.6856 30.9067 31.7096 32.016C32.755 33.104 33.2776 34.384 33.2776 35.856C33.2776 37.3067 32.9043 38.5333 32.1576 39.536C31.411 40.5173 30.3976 41.264 29.1176 41.776C27.859 42.2667 26.4403 42.512 24.8616 42.512ZM38.4486 42.512C37.83 42.512 37.3073 42.288 36.8806 41.84C36.4753 41.3707 36.2726 40.816 36.2726 40.176C36.2726 39.5147 36.486 38.96 36.9126 38.512C37.3606 38.0427 37.8726 37.808 38.4486 37.808C39.0673 37.808 39.5793 38.0427 39.9846 38.512C40.39 38.96 40.5926 39.5147 40.5926 40.176C40.5926 40.816 40.39 41.3707 39.9846 41.84C39.5793 42.288 39.0673 42.512 38.4486 42.512Z" fill="#161A1D"/>
</svg>
