<svg width="66" height="66" viewBox="0 0 66 66" fill="none" xmlns="http://www.w3.org/2000/svg">
<circle cx="33" cy="33" r="32" fill="#70E000" stroke="#161A1D" stroke-width="1.5"/>
<circle cx="29.5" cy="29.5" r="28.5" fill="white" stroke="#161A1D" stroke-width="1.5"/>
<path d="M30.2004 37.328C30.2004 37.8613 30.1897 38.3733 30.1684 38.864C30.147 39.3333 30.115 39.7173 30.0724 40.016C30.4564 39.9733 30.883 39.952 31.3524 39.952C31.843 39.9307 32.227 39.92 32.5044 39.92V42H23.7364V40.24H23.9284C24.5044 40.2187 24.963 40.1227 25.3044 39.952C25.667 39.76 25.9337 39.44 26.1044 38.992C26.2964 38.5227 26.3924 37.872 26.3924 37.04V36.08H17.3684V33.552L28.5364 19.088H30.2004V33.52H33.3684V36.08H30.2004V37.328ZM26.3604 25.072L20.0564 33.392L26.3924 33.456L26.4244 25.072H26.3604ZM38.2299 42.512C37.6112 42.512 37.0885 42.288 36.6619 41.84C36.2565 41.3707 36.0539 40.816 36.0539 40.176C36.0539 39.5147 36.2672 38.96 36.6939 38.512C37.1419 38.0427 37.6539 37.808 38.2299 37.808C38.8485 37.808 39.3605 38.0427 39.7659 38.512C40.1712 38.96 40.3739 39.5147 40.3739 40.176C40.3739 40.816 40.1712 41.3707 39.7659 41.84C39.3605 42.288 38.8485 42.512 38.2299 42.512Z" fill="#161A1D"/>
</svg>
