<svg width="784" height="667" viewBox="0 0 784 667" fill="none" xmlns="http://www.w3.org/2000/svg">
<g clip-path="url(#clip0_152_3523)">
<path d="M813.564 0H-253.314V711.252H813.564V0Z" fill="white"/>
<path opacity="0.4" d="M688.235 498.388C824.147 510.25 771.421 628.587 546.264 611.25C435.284 602.705 463.73 606.692 375.295 624.259C123.979 674.182 181.957 564.043 92.077 582.895C10.0856 600.093 -33.3812 534.189 85.4119 511.454C133.877 502.179 85.7745 504.918 342.355 501.319C598.936 497.72 620.396 492.467 688.235 498.388Z" fill="#F0F0F0"/>
<path d="M379 550.083H482.103V446.012H379V550.083Z" fill="black"/>
<path d="M362.671 536.916H465.774V446.012H362.671V536.916Z" fill="white"/>
<path d="M466.345 537.487H362.099V445.441H466.345V537.487ZM363.242 536.344H465.203V446.583H363.242V536.344Z" fill="black"/>
<path d="M409.033 521.172H313.618C299.767 521.172 288.538 532.401 288.538 546.252V549.116H409.033V521.172Z" fill="white"/>
<path d="M409.604 549.687H287.967V546.252C287.967 532.108 299.474 520.601 313.618 520.601H409.604V549.687ZM289.109 548.544H408.461V521.744H313.618C300.104 521.744 289.109 532.738 289.109 546.252V548.544Z" fill="black"/>
<path d="M468.168 520.144H393.69C380.768 520.144 370.293 530.62 370.293 543.541V550.083H468.168V520.144Z" fill="black"/>
<path d="M188.931 477.04H649.133C652.882 477.04 655.95 473.972 655.95 470.223V184.105C655.95 180.355 652.882 177.288 649.133 177.288H188.931C185.182 177.288 182.114 180.355 182.114 184.105V470.223C182.114 473.972 185.182 477.04 188.931 477.04Z" fill="black"/>
<path d="M169.403 477.04H629.606C633.355 477.04 636.423 473.972 636.423 470.223V184.105C636.423 180.355 633.355 177.288 629.606 177.288H169.403C165.654 177.288 162.586 180.355 162.586 184.105V470.223C162.586 473.972 165.654 477.04 169.403 477.04Z" fill="white"/>
<path d="M629.605 477.611H169.403C165.329 477.611 162.015 474.297 162.015 470.223V184.104C162.015 180.03 165.329 176.716 169.403 176.716H629.605C633.679 176.716 636.994 180.03 636.994 184.104V470.223C636.994 474.297 633.679 477.611 629.605 477.611ZM169.403 177.859C165.959 177.859 163.157 180.661 163.157 184.105V470.223C163.157 473.667 165.959 476.469 169.403 476.469H629.605C633.05 476.469 635.851 473.667 635.851 470.223V184.104C635.851 180.66 633.049 177.858 629.605 177.858L169.403 177.859Z" fill="black"/>
<path d="M186.753 436.187H614.564C619.451 436.187 623.412 432.225 623.412 427.339V203.491C623.412 198.605 619.451 194.644 614.564 194.644H186.753C181.867 194.644 177.906 198.605 177.906 203.491V427.339C177.906 432.225 181.867 436.187 186.753 436.187Z" fill="white" stroke="black"/>
<path d="M614.564 436.758H186.753C181.56 436.758 177.334 432.532 177.334 427.339V203.491C177.334 198.298 181.56 194.072 186.753 194.072H614.564C619.758 194.072 623.983 198.297 623.983 203.491V427.339C623.983 432.532 619.758 436.758 614.564 436.758ZM186.753 195.215C182.19 195.215 178.477 198.928 178.477 203.491V427.339C178.477 431.903 182.19 435.615 186.753 435.615H614.564C619.128 435.615 622.84 431.903 622.84 427.339V203.491C622.84 198.927 619.128 195.215 614.564 195.215H186.753Z" fill="black"/>
<path d="M702.321 251.743H514.828C510.801 251.743 507.537 248.479 507.537 244.452V123.181C507.537 119.154 510.801 115.889 514.828 115.889H702.321C706.348 115.889 709.613 119.154 709.613 123.181V244.452C709.613 248.479 706.348 251.743 702.321 251.743Z" fill="white"/>
<path d="M702.32 115.416H514.827C510.545 115.416 507.064 118.898 507.064 123.179V244.451C507.064 248.733 510.545 252.218 514.827 252.218H702.32C706.602 252.218 710.087 248.733 710.087 244.451V123.179C710.087 118.898 706.602 115.416 702.32 115.416ZM709.138 244.451C709.138 248.21 706.079 251.269 702.32 251.269H514.827C511.068 251.269 508.01 248.21 508.01 244.451V123.179C508.01 119.42 511.068 116.362 514.827 116.362H702.32C706.079 116.362 709.138 119.42 709.138 123.179V244.451Z" fill="black"/>
<path d="M507.564 123.156C507.576 119.161 510.829 115.916 514.827 115.916H702.32C706.318 115.916 709.575 119.161 709.587 123.156H507.564Z" fill="white" stroke="black"/>
<path d="M516.624 119.817C516.624 119.192 517.131 118.684 517.757 118.684C518.383 118.684 518.89 119.191 518.89 119.817C518.89 120.443 518.383 120.95 517.757 120.95C517.131 120.95 516.624 120.443 516.624 119.817Z" fill="black"/>
<path d="M521.472 119.817C521.472 119.192 521.979 118.684 522.605 118.684C523.23 118.684 523.738 119.191 523.738 119.817C523.738 120.443 523.23 120.95 522.605 120.95C521.979 120.95 521.472 120.443 521.472 119.817Z" fill="black"/>
<path d="M526.451 119.817C526.451 119.192 526.958 118.684 527.584 118.684C528.21 118.684 528.717 119.191 528.717 119.817C528.717 120.443 528.21 120.95 527.584 120.95C526.958 120.95 526.451 120.443 526.451 119.817Z" fill="black"/>
<path d="M571.253 140.751C571.253 140.751 574.271 167.867 569.656 172.959C565.041 178.051 568.769 181.361 568.769 181.361C568.769 181.361 572.883 176.099 576.933 176.1C580.983 176.102 582.968 181.488 582.968 181.488L584.92 175.37C584.92 175.37 578.353 171.11 579.063 159.049C579.774 146.988 579.773 140.242 579.773 140.242C579.773 140.242 571.608 138.841 571.253 140.751Z" fill="white"/>
<path d="M582.983 182.182L582.756 181.567C582.736 181.514 580.777 176.328 576.933 176.326H576.931C573.037 176.326 568.986 181.449 568.946 181.5L568.798 181.689L568.619 181.53C568.563 181.48 567.241 180.284 567.129 178.211C567.034 176.459 567.828 174.641 569.489 172.808C573.983 167.849 571.059 141.046 571.03 140.776L571.026 140.743L571.032 140.71C571.409 138.684 578.411 139.78 579.811 140.02L579.998 140.052V140.242C579.998 140.31 579.991 147.134 579.288 159.063C578.594 170.856 584.978 175.14 585.043 175.182L585.187 175.275L582.983 182.182ZM571.482 140.763C571.653 142.312 574.411 168.049 569.824 173.111C568.249 174.849 567.494 176.553 567.579 178.178C567.655 179.64 568.412 180.641 568.753 181.023C569.569 180.037 573.228 175.876 576.932 175.876H576.933C580.33 175.877 582.289 179.418 582.939 180.839L584.655 175.459C583.692 174.736 578.187 170.096 578.838 159.037C579.475 148.223 579.54 141.614 579.547 140.433C576.491 139.927 571.778 139.591 571.482 140.763Z" fill="black" stroke="black"/>
<path d="M571.462 182.707V182.709C571.419 183.623 571.325 184.5 571.176 185.325C569.046 197.113 572.419 208.499 571.176 217.728C569.934 226.957 533.18 241.333 525.563 237.961C521.33 236.087 522.191 214.178 525.563 191.517C528.935 168.856 552.895 150.994 558.575 151.285C559.084 151.311 559.62 151.51 560.172 151.863H560.174C565.354 155.158 571.998 171.735 571.462 182.707Z" fill="white" stroke="black"/>
<path d="M580.444 182.707V182.709C580.487 183.623 580.581 184.5 580.73 185.325C582.859 197.113 579.487 208.499 580.73 217.728C581.972 226.957 618.725 241.333 626.343 237.961C630.576 236.087 629.715 214.178 626.343 191.517C622.971 168.856 599.01 150.994 593.331 151.285C592.822 151.311 592.285 151.51 591.733 151.863H591.732C586.551 155.158 579.908 171.735 580.444 182.707Z" fill="white" stroke="black"/>
<path d="M575.463 145.826C573.099 145.826 571.645 145.209 571.554 145.17L571.735 144.756C571.767 144.77 574.987 146.127 579.625 144.747L579.753 145.179C578.125 145.664 576.674 145.826 575.463 145.826Z" fill="black" stroke="black"/>
<path d="M575.606 151.679C573.386 151.679 571.98 150.788 571.893 150.731L572.138 150.353C572.169 150.373 575.217 152.291 579.398 150.338L579.589 150.747C578.093 151.445 576.743 151.679 575.606 151.679Z" fill="black" stroke="black"/>
<path d="M575.87 156.973C573.787 156.973 572.195 156.126 572.096 156.071L572.311 155.675C572.346 155.694 575.828 157.542 579.13 155.677L579.351 156.07C578.152 156.747 576.946 156.973 575.87 156.973Z" fill="black" stroke="black"/>
<path d="M575.663 161.839C573.585 161.839 572.097 160.817 572.074 160.802L572.334 160.433C572.46 160.521 575.469 162.575 578.891 160.426L579.13 160.808C577.9 161.581 576.707 161.839 575.663 161.839Z" fill="black" stroke="black"/>
<path d="M575.504 166.51C573.355 166.51 571.976 165.615 571.891 165.558L572.14 165.182C572.17 165.202 575.152 167.123 579.141 165.167L579.34 165.573C577.906 166.275 576.604 166.51 575.504 166.51Z" fill="black" stroke="black"/>
<path d="M575.749 170.879C572.977 170.879 571.162 169.451 571.134 169.429L571.417 169.078C571.573 169.203 575.289 172.11 580.296 169.061L580.531 169.446C578.767 170.52 577.137 170.879 575.749 170.879Z" fill="black" stroke="black"/>
<path d="M574.208 176.777C574.196 176.746 573.021 173.684 570.538 171.328L570.849 171.001C573.409 173.431 574.581 176.489 574.629 176.618L574.208 176.777Z" fill="black" stroke="black"/>
<path d="M578.593 176.426L578.173 176.26C578.184 176.231 579.308 173.4 580.938 170.551L581.33 170.775C579.715 173.596 578.604 176.398 578.593 176.426Z" fill="black" stroke="black"/>
<path d="M696.233 142.326H610.924C610.503 142.326 610.162 141.985 610.162 141.564C610.162 141.143 610.503 140.802 610.924 140.802H696.233C696.654 140.802 696.995 141.143 696.995 141.564C696.994 141.985 696.653 142.326 696.233 142.326Z" fill="black"/>
<path d="M696.233 151.304H669.193C668.772 151.304 668.431 150.963 668.431 150.542C668.431 150.121 668.772 149.78 669.193 149.78H696.233C696.653 149.78 696.994 150.121 696.994 150.542C696.994 150.963 696.653 151.304 696.233 151.304Z" fill="black"/>
<path d="M696.233 170.72H669.193C668.772 170.72 668.431 170.379 668.431 169.958C668.431 169.537 668.772 169.196 669.193 169.196H696.233C696.653 169.196 696.994 169.537 696.994 169.958C696.994 170.379 696.653 170.72 696.233 170.72Z" fill="black"/>
<path d="M696.233 191.596H669.193C668.772 191.596 668.431 191.255 668.431 190.834C668.431 190.413 668.772 190.072 669.193 190.072H696.233C696.653 190.072 696.994 190.413 696.994 190.834C696.994 191.255 696.653 191.596 696.233 191.596Z" fill="black"/>
<path d="M696.233 181.158H645.755C645.334 181.158 644.993 180.817 644.993 180.396C644.993 179.975 645.334 179.634 645.755 179.634H696.233C696.654 179.634 696.995 179.975 696.995 180.396C696.995 180.817 696.653 181.158 696.233 181.158Z" fill="black"/>
<path d="M661.195 170.72H634.155C633.734 170.72 633.393 170.379 633.393 169.958C633.393 169.537 633.734 169.196 634.155 169.196H661.195C661.615 169.196 661.957 169.537 661.957 169.958C661.957 170.379 661.615 170.72 661.195 170.72Z" fill="black"/>
<path d="M696.233 160.282H651.42C650.999 160.282 650.658 159.941 650.658 159.52C650.658 159.099 650.999 158.758 651.42 158.758H696.233C696.653 158.758 696.994 159.099 696.994 159.52C696.994 159.941 696.653 160.282 696.233 160.282Z" fill="black"/>
<path d="M661.195 151.304H634.155C633.734 151.304 633.393 150.963 633.393 150.542C633.393 150.121 633.734 149.78 634.155 149.78H661.195C661.615 149.78 661.957 150.121 661.957 150.542C661.957 150.963 661.615 151.304 661.195 151.304Z" fill="black"/>
<path d="M313.368 278.033H61.6777C56.2718 278.033 51.8895 273.65 51.8895 268.244V105.45C51.8895 100.044 56.2718 95.6621 61.6777 95.6621H313.368C318.773 95.6621 323.156 100.044 323.156 105.45V268.244C323.156 273.65 318.773 278.033 313.368 278.033Z" fill="white"/>
<path d="M313.368 278.669H61.6778C55.9295 278.669 51.253 273.992 51.253 268.244V105.45C51.253 99.7017 55.9295 95.0249 61.6778 95.0249H313.368C319.116 95.0249 323.793 99.7014 323.793 105.45V268.244C323.793 273.992 319.116 278.669 313.368 278.669ZM61.6778 96.2984C56.6315 96.2984 52.5261 100.404 52.5261 105.45V268.244C52.5261 273.29 56.6315 277.396 61.6778 277.396H313.368C318.414 277.396 322.519 273.29 322.519 268.244V105.45C322.519 100.404 318.414 96.2984 313.368 96.2984H61.6778Z" fill="black"/>
<path d="M323.156 104.813H51.8895V106.087H323.156V104.813Z" fill="black"/>
<path d="M64.0873 100.935C64.0873 100.095 64.7683 99.4146 65.6079 99.4146C66.4479 99.4146 67.1286 100.096 67.1286 100.935C67.1286 101.775 66.4476 102.456 65.6079 102.456C64.7683 102.456 64.0873 101.775 64.0873 100.935Z" fill="black"/>
<path d="M70.5952 100.935C70.5952 100.095 71.2762 99.4146 72.1159 99.4146C72.9555 99.4146 73.6365 100.096 73.6365 100.935C73.6365 101.775 72.9555 102.456 72.1159 102.456C71.2762 102.456 70.5952 101.775 70.5952 100.935Z" fill="black"/>
<path d="M77.2796 100.935C77.2796 100.095 77.9606 99.4146 78.8003 99.4146C79.6399 99.4146 80.3209 100.096 80.3209 100.935C80.3209 101.775 79.6399 102.456 78.8003 102.456C77.9606 102.456 77.2796 101.775 77.2796 100.935Z" fill="black"/>
<path d="M83.1172 191.031C83.1172 191.031 68.6076 178.124 77.8098 163.523C87.0116 148.922 100.919 146.153 106.921 150.873C112.923 155.592 83.1172 191.031 83.1172 191.031Z" stroke="black"/>
<path d="M98.444 163.135C96.9297 166.409 94.9603 169.449 92.6558 172.224C86.5518 179.573 76.1071 196.621 86.4722 218.678C100.459 248.441 132.35 259.888 140.65 257.628C148.95 255.369 148.319 243.865 157.101 230.951C165.883 218.038 167.747 192.029 154.885 180.019C154.885 180.019 163.959 157.633 148.18 147.042C133.402 137.122 109.461 139.319 98.444 163.135Z" stroke="black"/>
<path d="M120.106 148.762C120.106 148.762 124.98 133.787 131.394 126.86C137.807 119.934 129.854 115.316 125.75 115.829C121.645 116.342 111.384 137.122 108.818 145.588C106.253 154.053 120.106 148.762 120.106 148.762Z" fill="white" stroke="black"/>
<path d="M145.779 156.209C145.779 156.209 156.174 151.297 166.517 156.209C166.517 156.209 168.776 160.73 166.09 163.523C163.404 166.317 155.709 162.42 148.398 166.003C141.086 169.587 145.779 156.209 145.779 156.209Z" fill="white" stroke="black"/>
<path d="M147.833 163.479C147.833 163.479 159.292 162.54 167.243 170.779C167.243 170.779 167.766 175.806 164.269 177.475C160.772 179.143 154.941 172.786 146.836 173.567C138.731 174.348 147.833 163.479 147.833 163.479Z" fill="white" stroke="black"/>
<path d="M98.5173 190.382C99.3373 194.405 97.0755 198.163 96.663 202.099C96.242 206.115 97.907 210.279 99.2008 214.005C99.47 214.78 100.709 214.447 100.438 213.664C98.9817 209.471 97.2391 204.985 98.2196 200.506C98.9881 196.996 100.499 193.696 99.7541 190.041C99.5895 189.232 98.3526 189.575 98.5173 190.382Z" fill="black"/>
<path d="M156.26 171.121C155.955 169.014 154.906 166.978 153.206 165.697C152.118 164.877 150.821 164.392 149.544 163.919C148.341 163.473 147.139 163.027 145.936 162.581C145.087 162.266 144.21 161.946 143.305 161.974C142.263 162.006 141.287 162.497 140.438 163.101C138.896 164.2 137.611 165.805 137.348 167.68C137.106 169.41 137.763 171.169 138.779 172.589C139.795 174.009 141.15 175.145 142.49 176.265C143.475 177.089 144.46 177.912 145.444 178.736C146.884 179.939 148.406 181.183 150.245 181.553C152.084 181.922 153.959 181.225 154.885 180.476C156.889 178.855 156.565 173.228 156.26 171.121Z" fill="white" stroke="black"/>
<path d="M132.758 198.687C135.28 194.849 138.154 191.335 139.685 186.946C140.327 185.107 140.878 183.063 141.11 181C141.522 180.667 142.36 180.1 142.422 180.5C142.265 182.483 141.819 184.457 141.249 186.293C138.417 195.425 129.443 201.774 129.535 211.877C129.583 217.153 131.334 222.244 131.482 227.513C131.55 229.934 131.174 232.237 130.48 234.551C129.637 237.365 128.538 240.18 129.299 243.141C129.505 243.942 128.268 244.281 128.062 243.482C127.378 240.819 127.989 238.281 128.779 235.71C129.709 232.685 130.355 229.805 130.16 226.615C129.851 221.564 128.229 216.659 128.249 211.578C128.269 206.8 130.178 202.613 132.758 198.687Z" fill="black"/>
<path d="M130.934 202.324C130.391 208.832 137.499 211.651 139.186 217.25C139.605 218.642 139.48 220.099 139.715 221.52C139.922 222.761 140.39 223.93 140.963 225.044C142.291 227.626 144.189 229.868 144.993 232.703C145.217 233.495 146.455 233.159 146.229 232.362C145.54 229.929 144.116 227.901 142.836 225.754C142.076 224.478 141.363 223.15 141.048 221.686C140.748 220.291 140.876 218.846 140.565 217.452C139.269 211.655 131.685 208.687 132.217 202.324C132.286 201.501 131.003 201.506 130.934 202.324Z" fill="black"/>
<path d="M139.647 187.352C136.838 189.001 133.74 189.988 130.475 190.114C127.625 190.225 124.793 189.759 121.952 190.182C117.302 190.873 113.079 193.36 110.135 197.005C109.62 197.642 110.522 198.554 111.041 197.912C114.391 193.765 119.329 191.3 124.677 191.262C127.411 191.242 130.104 191.584 132.827 191.169C135.485 190.764 137.981 189.817 140.295 188.459C141.006 188.042 140.361 186.933 139.647 187.352Z" fill="black"/>
<path d="M135.864 194.55C138.348 198.318 142.285 200.929 146.785 201.534C149.641 201.918 151.957 202.105 154.211 204.077C156.141 205.765 157.48 208.028 158.596 210.307C158.959 211.048 160.065 210.398 159.703 209.659C157.876 205.927 155.164 201.953 150.921 200.799C148.326 200.093 145.682 200.319 143.162 199.199C140.618 198.068 138.5 196.219 136.972 193.903C136.519 193.216 135.407 193.858 135.864 194.55Z" fill="black"/>
<path d="M128.611 219.817C128.039 222.605 126.578 224.798 124.331 226.519C122.612 227.836 120.852 228.966 119.524 230.715C116.918 234.146 116.134 238.598 116.426 242.815C116.483 243.634 117.766 243.64 117.709 242.815C117.387 238.169 118.42 233.182 121.979 229.917C123.676 228.36 125.771 227.32 127.28 225.547C128.604 223.991 129.44 222.15 129.848 220.157C130.013 219.352 128.777 219.008 128.611 219.817Z" fill="black"/>
<path d="M111.099 134.893C112.933 137.822 114.155 140.981 114.779 144.379C114.927 145.189 116.164 144.846 116.015 144.038C115.373 140.537 114.095 137.262 112.206 134.245C111.769 133.548 110.659 134.191 111.099 134.893Z" fill="#DB705A"/>
<path d="M125.559 117.052C125.94 119.728 128.077 121.929 130.731 122.414C131.538 122.562 131.885 121.326 131.073 121.177C128.805 120.763 127.12 118.989 126.795 116.712C126.679 115.898 125.443 116.244 125.559 117.052Z" fill="black"/>
<path d="M102.355 159.016C102.355 159.016 97.9765 140.537 91.0098 132.813C84.0434 125.089 92.7537 119.088 97.8392 119.604C102.925 120.12 116.273 137.72 117.009 151.356C117.744 164.991 102.355 159.016 102.355 159.016Z" fill="white" stroke="black"/>
<path d="M299.323 163.446H188.682C184.896 163.446 181.826 160.376 181.826 156.59V128.361C181.826 124.574 184.896 121.504 188.682 121.504H299.323C303.11 121.504 306.179 124.574 306.179 128.361V156.59C306.18 160.377 303.11 163.446 299.323 163.446Z" fill="white"/>
<path d="M299.323 163.871H188.683C184.668 163.871 181.402 160.605 181.402 156.59V128.361C181.402 124.346 184.668 121.08 188.683 121.08H299.323C303.338 121.08 306.604 124.346 306.604 128.361V156.59C306.604 160.605 303.338 163.871 299.323 163.871ZM188.682 121.929C185.136 121.929 182.251 124.814 182.251 128.361V156.59C182.251 160.137 185.136 163.022 188.682 163.022H299.323C302.87 163.022 305.755 160.137 305.755 156.59V128.361C305.755 124.814 302.87 121.929 299.323 121.929H188.682Z" fill="black"/>
<path d="M211.621 155.55C211.601 155.55 211.582 155.549 211.562 155.548C211.122 155.524 210.744 155.231 210.61 154.812L204.828 136.72L200.96 144.383C200.78 144.741 200.413 144.966 200.013 144.966H190.186C189.6 144.966 189.125 144.492 189.125 143.906C189.125 143.319 189.6 142.845 190.186 142.845H199.359L204.101 133.449C204.296 133.065 204.706 132.836 205.132 132.869C205.562 132.904 205.928 133.194 206.059 133.604L211.784 151.518L218.437 136.619C218.604 136.244 218.973 135.999 219.384 135.991C219.793 135.985 220.173 136.212 220.356 136.579L223.293 142.491L228.652 142.395C229.139 142.375 229.579 142.718 229.7 143.196L230.816 147.611L234.785 134.505C234.921 134.058 235.333 133.751 235.8 133.751C236.268 133.751 236.681 134.057 236.816 134.505L239.185 142.331H249.024C249.61 142.331 250.085 142.806 250.085 143.392C250.085 143.978 249.61 144.452 249.024 144.452H238.398C237.931 144.452 237.518 144.147 237.383 143.699L235.801 138.473L231.74 151.882C231.602 152.338 231.181 152.647 230.7 152.635C230.224 152.624 229.813 152.297 229.696 151.835L227.849 144.531L222.661 144.624C222.251 144.629 221.874 144.402 221.692 144.036L219.457 139.538L212.589 154.921C212.418 155.305 212.037 155.55 211.621 155.55Z" fill="#70E000"/>
<path d="M260.633 155.55C260.614 155.55 260.594 155.55 260.574 155.549C260.135 155.525 259.756 155.232 259.622 154.812L253.817 136.647L249.962 143.891C249.687 144.409 249.044 144.605 248.527 144.33C248.009 144.055 247.813 143.412 248.089 142.895L253.125 133.429C253.325 133.052 253.732 132.833 254.157 132.871C254.582 132.909 254.942 133.198 255.072 133.605L260.797 151.519L267.449 136.62C267.617 136.245 267.986 136 268.396 135.991C268.812 135.986 269.186 136.212 269.368 136.58L272.306 142.492L277.665 142.396C278.151 142.386 278.592 142.718 278.713 143.196L279.829 147.612L283.798 134.506C283.934 134.058 284.346 133.752 284.814 133.752C285.281 133.752 285.694 134.058 285.829 134.506L288.198 142.332H292.584C293.169 142.332 293.644 142.806 293.644 143.392C293.644 143.978 293.169 144.453 292.584 144.453H287.411C286.943 144.453 286.53 144.147 286.395 143.7L284.814 138.474L280.753 151.883C280.614 152.339 280.189 152.648 279.712 152.636C279.236 152.625 278.825 152.298 278.708 151.836L276.862 144.532L271.673 144.625C271.26 144.63 270.887 144.403 270.704 144.037L268.469 139.54L261.601 154.922C261.43 155.306 261.049 155.55 260.633 155.55Z" fill="#70E000"/>
<path d="M296.559 190.823H201.491C201.022 190.823 200.642 190.443 200.642 189.974C200.642 189.506 201.022 189.125 201.491 189.125H296.559C297.028 189.125 297.408 189.505 297.408 189.974C297.408 190.443 297.028 190.823 296.559 190.823Z" fill="black"/>
<path d="M296.559 200.828H266.426C265.957 200.828 265.577 200.449 265.577 199.98C265.577 199.511 265.957 199.131 266.426 199.131H296.559C297.028 199.131 297.408 199.51 297.408 199.98C297.408 200.448 297.029 200.828 296.559 200.828Z" fill="black"/>
<path opacity="0.1" d="M296.559 222.466H266.426C265.957 222.466 265.577 222.086 265.577 221.617C265.577 221.148 265.957 220.768 266.426 220.768H296.559C297.028 220.768 297.408 221.148 297.408 221.617C297.408 222.086 297.029 222.466 296.559 222.466Z" fill="black"/>
<path d="M296.559 245.729H266.426C265.957 245.729 265.577 245.35 265.577 244.881C265.577 244.412 265.957 244.032 266.426 244.032H296.559C297.028 244.032 297.408 244.412 297.408 244.881C297.408 245.35 297.029 245.729 296.559 245.729Z" fill="black"/>
<path d="M296.559 234.098H240.307C239.838 234.098 239.458 233.718 239.458 233.249C239.458 232.78 239.838 232.4 240.307 232.4H296.559C297.028 232.4 297.408 232.78 297.408 233.249C297.408 233.717 297.028 234.098 296.559 234.098Z" fill="black"/>
<path d="M257.514 222.466H227.38C226.912 222.466 226.531 222.086 226.531 221.617C226.531 221.148 226.911 220.768 227.38 220.768H257.514C257.982 220.768 258.362 221.148 258.362 221.617C258.362 222.086 257.982 222.466 257.514 222.466Z" fill="black"/>
<path d="M296.559 210.834H246.62C246.152 210.834 245.771 210.454 245.771 209.985C245.771 209.516 246.151 209.136 246.62 209.136H296.559C297.028 209.136 297.408 209.516 297.408 209.985C297.408 210.454 297.028 210.834 296.559 210.834Z" fill="black"/>
<path d="M257.514 200.828H227.38C226.912 200.828 226.531 200.449 226.531 199.98C226.531 199.511 226.911 199.131 227.38 199.131H257.514C257.982 199.131 258.362 199.51 258.362 199.98C258.362 200.448 257.982 200.828 257.514 200.828Z" fill="black"/>
<path d="M738.491 406.003H550.998C546.971 406.003 543.707 402.739 543.707 398.712V277.441C543.707 273.414 546.971 270.149 550.998 270.149H738.491C742.518 270.149 745.783 273.414 745.783 277.441V398.712C745.783 402.739 742.518 406.003 738.491 406.003Z" fill="white"/>
<path d="M738.491 406.478H550.998C546.716 406.478 543.232 402.994 543.232 398.712V277.441C543.232 273.159 546.716 269.675 550.998 269.675H738.491C742.773 269.675 746.257 273.159 746.257 277.441V398.712C746.257 402.994 742.773 406.478 738.491 406.478ZM550.998 270.624C547.239 270.624 544.181 273.682 544.181 277.441V398.712C544.181 402.471 547.239 405.529 550.998 405.529H738.491C742.25 405.529 745.309 402.471 745.309 398.712V277.441C745.309 273.682 742.25 270.624 738.491 270.624H550.998Z" fill="black"/>
<path d="M745.783 276.967H543.707V277.915H745.783V276.967Z" fill="black"/>
<path d="M552.793 274.077C552.793 273.452 553.301 272.944 553.926 272.944C554.552 272.944 555.059 273.451 555.059 274.077C555.059 274.703 554.552 275.21 553.926 275.21C553.301 275.21 552.793 274.703 552.793 274.077Z" fill="black"/>
<path d="M557.641 274.077C557.641 273.452 558.148 272.944 558.774 272.944C559.4 272.944 559.907 273.451 559.907 274.077C559.907 274.703 559.4 275.21 558.774 275.21C558.148 275.21 557.641 274.703 557.641 274.077Z" fill="black"/>
<path d="M562.621 274.077C562.621 273.452 563.128 272.944 563.754 272.944C564.379 272.944 564.887 273.451 564.887 274.077C564.887 274.703 564.379 275.21 563.754 275.21C563.128 275.21 562.621 274.703 562.621 274.077Z" fill="black"/>
<path d="M654.129 353.21C655.843 351.703 657.87 350.605 660.066 349.986C666.501 348.169 683.12 342.089 684.958 327.386C687.243 309.105 702.857 303.773 715.806 312.152C728.755 320.531 727.086 362.491 698.141 376.201C669.197 389.912 652.205 377.658 648.396 368.136C645.903 361.902 650.594 356.321 654.129 353.21Z" fill="white" stroke="black"/>
<path d="M683.815 290.571C683.815 290.571 676.186 309.184 686.983 319.682L691 313.5C691 313.5 683.561 307.328 689.909 290.571C689.909 290.571 684.822 287.554 683.815 290.571Z" fill="white" stroke="black"/>
<path d="M660.066 349.986C660.066 349.986 628.973 350.237 633.163 380.704C633.163 380.704 637.425 382.358 640.126 380.454C640.126 380.454 634.159 360.777 653.583 357.604C660.88 356.411 660.066 349.986 660.066 349.986Z" fill="white" stroke="black"/>
<path d="M638.805 295.808H553.495C553.074 295.808 552.733 295.467 552.733 295.046C552.733 294.626 553.074 294.285 553.495 294.285H638.805C639.225 294.285 639.566 294.625 639.566 295.046C639.566 295.467 639.225 295.808 638.805 295.808Z" fill="black"/>
<path d="M580.536 304.786H553.495C553.075 304.786 552.734 304.446 552.734 304.025C552.734 303.604 553.075 303.263 553.495 303.263H580.536C580.956 303.263 581.297 303.604 581.297 304.025C581.297 304.446 580.956 304.786 580.536 304.786Z" fill="black"/>
<path d="M580.536 324.202H553.495C553.075 324.202 552.734 323.862 552.734 323.441C552.734 323.02 553.075 322.679 553.495 322.679H580.536C580.956 322.679 581.297 323.02 581.297 323.441C581.297 323.862 580.956 324.202 580.536 324.202Z" fill="black"/>
<path d="M580.536 345.078H553.495C553.075 345.078 552.734 344.738 552.734 344.317C552.734 343.896 553.075 343.555 553.495 343.555H580.536C580.956 343.555 581.297 343.896 581.297 344.317C581.297 344.738 580.956 345.078 580.536 345.078Z" fill="black"/>
<path d="M603.974 334.64H553.495C553.075 334.64 552.734 334.3 552.734 333.879C552.734 333.458 553.075 333.117 553.495 333.117H603.974C604.394 333.117 604.735 333.458 604.735 333.879C604.735 334.299 604.394 334.64 603.974 334.64Z" fill="black"/>
<path d="M615.573 324.202H588.533C588.113 324.202 587.771 323.862 587.771 323.441C587.771 323.02 588.113 322.679 588.533 322.679H615.573C615.994 322.679 616.335 323.02 616.335 323.441C616.335 323.862 615.994 324.202 615.573 324.202Z" fill="black"/>
<path d="M598.308 313.764H553.495C553.075 313.764 552.734 313.424 552.734 313.003C552.734 312.582 553.075 312.241 553.495 312.241H598.308C598.729 312.241 599.07 312.582 599.07 313.003C599.07 313.424 598.729 313.764 598.308 313.764Z" fill="black"/>
<path d="M615.573 304.786H588.533C588.113 304.786 587.771 304.446 587.771 304.025C587.771 303.604 588.113 303.263 588.533 303.263H615.573C615.994 303.263 616.335 303.604 616.335 304.025C616.335 304.446 615.994 304.786 615.573 304.786Z" fill="black"/>
<path d="M285.467 289.392C285.397 290.336 285.647 291.261 286.151 292.012C286.048 292.106 285.939 292.203 285.836 292.298C281.874 295.892 276.686 300.555 271.784 304.948C271.681 305.043 271.576 305.131 271.474 305.226C271.455 305.202 271.429 305.174 271.41 305.15C269.359 302.774 263.128 295.589 259.247 291.473C254.957 286.928 250.191 282.206 251.07 280.443C252.346 277.898 259.154 283.973 260.809 285.501C261.013 285.697 261.32 285.683 261.514 285.475L261.683 285.296C261.826 285.146 261.834 284.897 261.698 284.739C258.322 280.777 250.235 271.401 252.768 269.276C255.083 267.344 262.762 276.916 264.674 279.375C264.91 279.679 265.326 279.684 265.574 279.395C265.755 279.183 265.793 278.867 265.662 278.614C263.088 273.747 256.922 264.442 258.821 262.759C261.264 260.587 267.258 272.282 268.534 274.865C268.67 275.138 268.985 275.245 269.241 275.099C269.48 274.966 269.596 274.649 269.497 274.365C267.962 269.908 265.149 262.411 267.138 261.51C270.585 259.939 275.201 275.263 276.987 277.184C279.24 279.604 279.59 266.362 281.498 265.986C284.954 265.3 283.573 274.864 284.504 278.846C285.541 283.284 285.661 286.813 285.467 289.392Z" fill="white"/>
<path d="M285.871 289.43C285.914 288.861 285.941 288.292 285.949 287.707V287.703C285.992 284.909 285.637 281.903 284.901 278.734C284.608 277.483 284.55 275.655 284.491 273.721C284.382 270.318 284.281 267.102 282.975 265.933C282.542 265.555 282.028 265.426 281.427 265.547C280.359 265.766 279.86 267.999 279.151 271.636C278.948 272.669 278.691 273.963 278.414 275.031C278.137 276.099 277.837 276.926 277.537 277.027C277.455 277.05 277.311 276.91 277.276 276.859C276.738 276.294 275.826 274.162 274.851 271.909C272.419 266.265 269.651 259.884 266.981 261.096C264.95 262.016 266.494 266.986 268.72 273.386L269.117 274.521C269.141 274.591 269.113 274.669 269.055 274.7C268.997 274.731 268.926 274.708 268.891 274.646C267.122 271.079 262.701 262.706 259.86 262.082C259.377 261.981 258.928 262.094 258.566 262.41C256.932 263.864 259.458 268.584 263.204 275.086C263.992 276.462 264.744 277.76 265.313 278.836C265.348 278.913 265.34 279.015 265.278 279.085C265.227 279.151 265.165 279.163 265.13 279.155C265.099 279.159 265.036 279.147 264.986 279.081C261.365 274.427 254.937 266.912 252.528 268.923C252.146 269.235 251.927 269.687 251.888 270.253C251.67 273.195 256.238 278.992 261.216 284.823L261.372 285.006L261.235 285.154C261.188 285.205 261.114 285.209 261.064 285.158C259.033 283.28 254.051 278.945 251.752 279.421C251.296 279.514 250.937 279.791 250.715 280.224C249.818 282.028 252.773 285.279 257.672 290.436C258.101 290.888 258.538 291.34 258.959 291.796C262.288 295.324 267.511 301.304 270.142 304.336C270.602 304.866 270.98 305.307 271.257 305.626C271.616 306.032 271.889 306.344 271.908 306.359C271.986 306.285 272.017 305.225 272.013 304.745V304.742C272.013 304.609 272.009 304.523 272.001 304.515C271.689 304.157 271.245 303.661 270.707 303.065C267.986 300.083 262.791 294.614 259.528 291.153C259.099 290.693 258.663 290.241 258.234 289.785C254.912 286.292 250.781 281.942 251.428 280.66C251.517 280.473 251.65 280.364 251.837 280.313C251.861 280.305 251.88 280.298 251.903 280.298C253.501 279.966 257.563 283.081 260.545 285.844C260.915 286.184 261.453 286.168 261.796 285.801L261.963 285.622C262.268 285.294 262.279 284.768 261.995 284.429L261.804 284.207C259.009 280.937 252.468 273.273 252.698 270.327C252.718 270.019 252.823 269.792 253.014 269.633C254.296 268.557 258.865 272.587 264.365 279.666C264.552 279.904 264.821 280.044 265.109 280.056C265.398 280.064 265.674 279.935 265.869 279.701C266.173 279.347 266.232 278.805 266.01 278.384C265.433 277.304 264.684 275.99 263.889 274.61C261.636 270.705 257.878 264.168 259.071 263.108C259.247 262.956 259.446 262.909 259.703 262.963C261.745 263.415 265.55 269.773 268.181 275.082C268.427 275.569 268.965 275.752 269.421 275.499C269.85 275.261 270.045 274.704 269.873 274.205L269.475 273.059C268.29 269.66 265.827 262.589 267.293 261.922C267.336 261.903 267.37 261.887 267.413 261.875C269.386 261.314 272.341 268.163 274.118 272.291C275.209 274.824 276.075 276.824 276.706 277.502C277.139 277.97 277.533 277.974 277.77 277.884C278.78 277.553 279.252 275.366 279.941 271.823C280.327 269.859 280.963 266.596 281.555 266.428C281.559 266.424 281.567 266.424 281.567 266.424C281.937 266.354 282.226 266.416 282.464 266.631C283.481 267.543 283.586 270.845 283.676 273.749C283.738 275.741 283.801 277.612 284.113 278.956C284.88 282.239 285.22 285.345 285.126 288.202C285.114 288.592 285.091 288.978 285.064 289.356C285.021 289.832 285.064 290.315 285.169 290.771C285.298 291.317 285.524 291.839 285.836 292.3C285.941 292.202 286.05 292.109 286.151 292.011C286.261 291.914 286.603 292.354 286.705 292.26C286.265 291.594 285.813 290.245 285.871 289.43Z" fill="black"/>
<path d="M277.106 279.869C277.106 279.869 275.954 281.771 274.135 285.761C272.316 289.751 273.619 291.79 273.619 291.79L277.106 279.869Z" fill="white"/>
<path d="M273.619 292.245C273.702 292.245 273.785 292.219 273.857 292.163C274.044 292.018 274.09 291.734 273.958 291.528C273.914 291.455 272.837 289.624 274.505 285.965C276.289 282.054 277.44 280.141 277.452 280.122C277.579 279.913 277.527 279.63 277.336 279.491C277.146 279.351 276.889 279.408 276.761 279.618C276.714 279.696 275.574 281.588 273.764 285.557C271.856 289.742 273.22 291.959 273.28 292.052C273.36 292.178 273.489 292.245 273.619 292.245Z" fill="black"/>
<path d="M395.375 227C395.375 227 352.46 235.278 338.244 269.417C324.028 303.556 321.478 317.301 318.216 316.217C314.954 315.134 286.731 287.036 286.731 287.036C286.731 287.036 271.575 295.059 269 307.728C269 307.728 299.823 370.916 326.586 369.823C353.349 368.731 379.465 306.235 379.465 306.235L395.375 227Z" fill="white" stroke="black"/>
<path d="M475.546 435.615H339.57C340.622 425.118 343.202 399.929 346.937 367.268C347.292 364.166 347.654 361 348.032 357.769C349.872 341.893 351.958 324.535 354.245 306.433C354.358 305.541 354.472 304.648 354.589 303.755C354.772 302.294 354.959 300.828 355.146 299.358C355.267 298.415 355.388 297.468 355.508 296.521C356.249 290.783 357.005 284.987 357.781 279.156C360.334 259.958 371.548 246.674 386.01 240.079C388.387 238.991 390.851 238.087 393.377 237.373C394.215 237.128 395.061 236.91 395.911 236.715C397.018 236.454 398.132 236.232 399.259 236.048C399.551 235.994 399.843 235.947 400.14 235.908C401.29 235.729 402.447 235.592 403.609 235.491C404.416 235.421 405.223 235.37 406.033 235.335C407.386 235.277 408.75 235.265 410.115 235.308C410.867 235.327 411.619 235.362 412.371 235.413C412.753 235.44 413.131 235.467 413.513 235.502C416.702 235.783 419.727 236.43 422.603 237.405C422.849 237.486 423.091 237.572 423.336 237.662C423.477 237.713 423.617 237.764 423.753 237.818C430.232 240.247 435.919 244.382 440.912 249.847C452.961 263.03 460.955 283.934 466.217 307.213C466.79 309.747 467.332 312.312 467.843 314.896C467.843 314.9 467.843 314.908 467.847 314.912C467.979 315.594 468.112 316.272 468.245 316.958C468.79 319.827 469.297 322.719 469.773 325.623C469.87 326.212 469.964 326.801 470.057 327.393C470.116 327.759 470.174 328.13 470.229 328.5C472.045 340.194 473.316 352.067 474.185 363.519C474.216 363.886 474.244 364.252 474.271 364.619C474.407 366.435 474.532 368.244 474.649 370.037C476.497 398.686 475.978 423.851 475.546 435.615Z" fill="white" stroke="black"/>
<path d="M355.042 389.784H422.508L391.54 303.755H324.074L355.042 389.784Z" fill="#70E000" stroke="black"/>
<path d="M423.18 339.384C418.695 336.551 410.699 332.147 407.275 327.884C404.395 324.866 393.211 313.584 391.488 316.606C389.627 319.87 395.892 328.058 400.478 333.16C396.022 333.742 389.586 336.054 386.776 338.297C383.835 340.645 383.036 343.951 384.898 346.251C382.212 349.179 382.049 351.405 382.572 352.783C383.869 356.199 387.474 355.768 391.182 352.926C389.627 355.243 388.23 356.638 387.662 358.634C387.281 359.974 387.615 362.24 388.378 363.367C389.14 364.494 391.67 363.99 393.159 363.022C395.038 361.801 397.229 359.802 398.391 358.498C399.153 357.645 398.691 358.235 399.777 357.69C401.136 358.979 405.042 361.852 405.726 362.393C408.272 364.409 412.86 362.947 416.178 361.958C417.785 361.479 427.394 342.046 423.18 339.384Z" fill="white"/>
<path d="M384.898 346.769C385.007 346.769 385.116 346.728 385.205 346.644C391.423 340.781 400.414 340.724 400.557 340.724C400.558 340.724 400.558 340.724 400.56 340.724C400.819 340.724 401.03 340.493 401.031 340.208C401.031 339.922 400.821 339.689 400.561 339.688C400.557 339.688 400.553 339.688 400.549 339.688C400.021 339.688 391.035 339.782 384.591 345.858C384.393 346.044 384.371 346.371 384.541 346.588C384.634 346.708 384.766 346.769 384.898 346.769Z" fill="black"/>
<path d="M392.14 352.631C392.249 352.631 392.359 352.59 392.447 352.506C396.334 348.836 401.103 348.475 401.151 348.472C401.411 348.454 401.609 348.209 401.593 347.923C401.577 347.638 401.351 347.426 401.094 347.438C400.886 347.452 395.957 347.825 391.833 351.72C391.636 351.907 391.613 352.234 391.783 352.45C391.876 352.57 392.008 352.631 392.14 352.631Z" fill="black"/>
<path d="M416.654 336.527C416.654 336.527 447.828 338.66 468.319 328.756C472.842 326.57 458.188 268.552 458.188 268.552L473.834 262.79C473.834 262.79 522.369 330.342 499.012 352.423C474.205 375.876 416.814 362.015 416.814 362.015L416.654 336.527Z" fill="white"/>
<path d="M468.32 329.309C468.389 329.309 468.459 329.294 468.526 329.26C475.77 325.686 481.973 327.121 482.034 327.135C482.306 327.2 482.574 327.012 482.634 326.714C482.693 326.416 482.522 326.121 482.25 326.056C481.984 325.992 475.658 324.531 468.113 328.253C467.86 328.378 467.747 328.705 467.86 328.983C467.944 329.188 468.127 329.309 468.32 329.309Z" fill="black"/>
<path d="M410.588 364.05C417.034 364.05 421.974 358.466 422.185 358.225C422.377 358.004 422.37 357.655 422.169 357.444C421.969 357.233 421.65 357.241 421.458 357.461C421.409 357.517 416.439 363.12 410.285 362.941C406.817 362.838 403.601 360.926 400.728 357.259C400.547 357.028 400.23 357.002 400.019 357.201C399.808 357.4 399.784 357.749 399.966 357.98C403.033 361.895 406.499 363.936 410.265 364.045C410.373 364.048 410.482 364.05 410.588 364.05Z" fill="black"/>
<path d="M453.753 366.54C469.871 366.54 490.138 363.5 501.88 350.249C509.894 341.204 510.74 323.223 504.393 296.805C499.689 277.23 519.71 328.543 501.159 349.478C488.824 363.398 466.733 365.814 450.367 365.391C432.573 364.93 417.519 361.1 417.369 361.061C417.1 360.99 416.828 361.175 416.765 361.473C416.701 361.77 416.869 362.067 417.14 362.137C417.29 362.176 432.431 366.03 450.326 366.496C451.443 366.524 452.588 366.54 453.753 366.54Z" fill="black"/>
<path d="M390.161 364.796C391.728 364.796 393.764 363.509 396.224 360.962C399.43 357.643 402.761 357.178 402.794 357.173C403.053 357.14 403.238 356.883 403.208 356.599C403.178 356.316 402.947 356.113 402.687 356.144C402.539 356.163 399.023 356.64 395.577 360.208C392.54 363.354 390.821 363.87 389.916 363.745C389.387 363.673 388.97 363.363 388.641 362.797C386.267 358.717 390.591 354.212 392 352.904C392.258 352.684 392.417 352.535 392.447 352.507C392.64 352.326 392.667 352.009 392.509 351.791C392.351 351.573 392.063 351.531 391.86 351.698C391.837 351.715 391.666 351.857 391.399 352.102C390.345 352.993 387.588 355.114 385.468 354.924C384.779 354.861 384.237 354.559 383.811 354.001C382.978 352.91 382.626 351.777 382.763 350.633C383.037 348.341 385.148 346.692 385.169 346.675C385.366 346.524 385.427 346.234 385.313 346.003C384.409 344.186 384.312 342.576 385.015 341.08C387.669 335.43 400.666 333.677 400.797 333.66C400.973 333.637 401.123 333.508 401.184 333.325C401.245 333.142 401.208 332.937 401.087 332.794C395.793 326.522 390.723 319.15 391.402 317.671C391.685 317.053 392.056 316.722 392.569 316.63C394.604 316.26 398.809 319.522 405.077 326.312C406.794 328.171 408.481 329.798 410.093 331.148C412.04 332.779 417.24 337.113 423.459 337.048C426.359 337.02 452.266 336.559 468.499 329.236C469.444 328.809 471.958 327.676 465.565 297.701C462.448 283.086 458.679 268.556 458.641 268.412C458.57 268.137 458.308 267.978 458.058 268.056C457.808 268.134 457.663 268.421 457.734 268.696C467.448 306.063 470.346 327.283 468.14 328.278C455.089 334.166 433.908 335.91 423.45 336.013C423.407 336.013 423.363 336.013 423.319 336.013C418.127 336.013 413.832 332.978 410.664 330.325C409.085 329.001 407.427 327.403 405.739 325.574C399.061 318.339 394.823 315.176 392.416 315.608C391.603 315.755 390.978 316.292 390.56 317.205C389.356 319.829 397.053 329.473 399.785 332.769C396.684 333.283 386.656 335.328 384.176 340.606C383.383 342.293 383.425 344.142 384.299 346.107C383.614 346.73 382.086 348.34 381.827 350.499C381.655 351.943 382.079 353.344 383.088 354.667C383.676 355.438 384.451 355.872 385.391 355.957C386.496 356.057 387.706 355.654 388.805 355.09C388.755 355.163 388.706 355.238 388.656 355.313C386.757 358.222 386.477 361.003 387.846 363.356C388.329 364.186 388.986 364.663 389.8 364.774C389.918 364.788 390.038 364.796 390.161 364.796Z" fill="black"/>
<path d="M437.521 225.705C384.349 214.746 349.303 255.498 349.303 255.498C348.483 287.045 357.747 300.989 357.747 300.989L375.149 263.007L423.213 262.644L461.888 294.668C464.897 308.493 467.511 322.274 466.826 325.72C465.345 333.175 423.451 336.012 423.451 336.012C416.326 347.921 429.406 368.928 429.406 368.928C429.406 368.928 480.469 381.402 501.503 354.771C512.479 340.875 510.526 315.707 506.148 294.815C498.902 260.241 472.12 232.836 437.521 225.705Z" fill="white" stroke="black"/>
<path d="M372.266 302.814L373.291 306.433H346.279L345.488 302.265C345.229 300.903 346.156 299.617 347.421 299.581L367.427 299.007C369.634 298.944 371.61 300.499 372.266 302.814Z" fill="black"/>
<path d="M396.078 234.466C396.078 234.466 392.377 276.935 402.543 283.152C412.71 289.369 424.24 235.638 424.24 235.638L396.078 234.466Z" fill="white"/>
<path d="M397.071 279.132C397.071 279.132 404.946 243.025 405.823 239.419H410.403C410.403 239.419 409.267 272.945 409.396 279.132C409.526 285.318 401.51 289.93 401.51 289.93L397.071 279.132Z" fill="#70E000" stroke="black"/>
<path d="M415.801 234.13L411.506 234.447C407.291 234.758 403.735 231.274 403.605 226.704L403.118 209.633C402.988 205.06 406.332 201.063 410.551 200.752L414.845 200.435C419.06 200.124 422.616 203.608 422.746 208.178L423.233 225.25C423.364 229.823 420.019 233.819 415.801 234.13Z" fill="white"/>
<path d="M423.769 223.945L423.676 220.635V220.631L423.317 208.135C423.302 207.608 423.247 207.098 423.15 206.603C423.103 206.353 423.044 206.108 422.978 205.87C422.912 205.632 422.838 205.398 422.752 205.172C421.517 201.804 418.398 199.551 414.828 199.816L410.532 200.132C408.544 200.288 406.681 201.185 405.227 202.701C405.075 202.857 404.927 203.02 404.787 203.188C403.757 204.416 403.06 205.874 402.744 207.433C402.592 208.162 402.526 208.914 402.549 209.674L402.767 217.369L402.787 217.988L402.803 218.616L402.966 224.303C402.966 224.303 402.966 224.303 402.966 224.307L402.997 225.399L403.036 226.747C403.106 229.211 404.096 231.374 405.636 232.879C405.972 233.21 406.33 233.506 406.716 233.767C407.698 234.438 408.825 234.878 410.033 235.026C410.166 235.046 410.298 235.057 410.431 235.061L410.941 235.085H410.961C411.148 235.085 411.335 235.081 411.526 235.065L412.247 235.011L415.818 234.75C415.915 234.742 416.013 234.734 416.11 234.722C418.192 234.488 420.117 233.42 421.563 231.694C423.076 229.889 423.871 227.585 423.804 225.208L423.769 223.945ZM420.733 230.879C419.427 232.438 417.673 233.374 415.783 233.51L411.865 233.803L411.491 233.83C410.821 233.881 410.165 233.826 409.546 233.682C408.712 233.491 407.936 233.132 407.246 232.645C407.016 232.481 406.798 232.302 406.588 232.107C405.461 231.078 404.647 229.651 404.323 228.002C404.327 227.998 404.327 227.998 404.323 227.998C404.237 227.565 404.186 227.121 404.175 226.661L404.132 225.188L403.944 218.624L403.929 218L403.909 217.38L403.687 209.588C403.664 208.738 403.769 207.896 403.991 207.093C404.307 205.966 404.856 204.91 405.621 204.002C406.186 203.328 406.829 202.778 407.535 202.345C407.538 202.345 407.542 202.345 407.542 202.345C408.396 201.827 409.335 201.504 410.318 201.395C410.399 201.383 410.485 201.375 410.567 201.371L414.863 201.055C418.172 200.81 421.025 203.071 421.902 206.337C421.968 206.582 422.023 206.836 422.062 207.093C422.109 207.35 422.14 207.616 422.159 207.884C422.167 207.994 422.171 208.107 422.175 208.22L422.576 222.272L422.623 223.898L422.663 225.293C422.721 227.34 422.035 229.324 420.733 230.879Z" fill="black"/>
<path d="M428.037 196.669C421.61 212.459 408.015 221.455 397.672 216.763C387.33 212.071 385.462 192.809 390.583 179.677C396.779 163.784 410.605 154.89 420.948 159.582C431.291 164.274 434.465 180.878 428.037 196.669Z" fill="white"/>
<path d="M403.57 236.691C403.57 236.691 404.79 242.343 407.499 242.733C410.208 243.122 413.175 237.958 413.175 237.958L411.085 231.331L408.015 231.136C408.015 231.136 402.794 234.232 403.57 236.691Z" fill="#70E000" stroke="black"/>
<path d="M421.185 159.008C416.975 157.098 412.145 157.285 407.223 159.55C400.705 162.544 394.819 168.956 391.116 176.97C390.742 177.781 390.387 178.611 390.06 179.453C384.767 193.026 386.836 212.527 397.435 217.337C399.138 218.105 400.939 218.534 402.802 218.616C403.181 218.631 403.562 218.635 403.944 218.623C404.381 218.612 404.817 218.577 405.258 218.53C407.156 218.319 409.097 217.774 411.058 216.893C415.081 215.08 418.908 211.934 422.159 207.884C422.495 207.467 422.822 207.038 423.149 206.602C423.613 205.967 424.069 205.316 424.51 204.642C426.065 202.264 427.433 199.664 428.559 196.9C435.104 180.821 431.795 163.822 421.185 159.008ZM424.666 202.205C424.065 203.235 423.426 204.225 422.752 205.172C422.475 205.569 422.19 205.955 421.902 206.337C418.651 210.601 414.757 213.903 410.653 215.747C408.361 216.78 406.088 217.325 403.909 217.38C403.523 217.392 403.145 217.388 402.767 217.368C401.075 217.279 399.45 216.889 397.91 216.191C389.678 212.453 384.914 195.789 391.108 179.901C391.451 179.024 391.818 178.163 392.211 177.325C395.79 169.658 401.422 163.546 407.635 160.688C409.573 159.796 411.49 159.246 413.354 159.04C415.946 158.747 418.429 159.121 420.713 160.154C427.215 163.105 430.79 170.971 430.79 180.346C430.79 185.448 429.733 190.991 427.515 196.437C426.693 198.459 425.737 200.389 424.666 202.205Z" fill="black"/>
<path d="M414.557 166.523C414.557 166.523 409.231 174.282 413.611 177.374C417.991 180.466 421.265 175.196 421.265 175.196C421.265 175.196 412.454 185.486 418.394 189.844C424.335 194.202 429.348 181.824 429.348 181.824L427.673 170.233L414.557 166.523Z" fill="black"/>
<path d="M415.178 171.537C415.178 171.537 392.84 186.408 384.018 170.632C381.59 166.29 386.476 158.067 398.128 152.203C427.043 137.65 440.697 153.033 440.691 159.141C440.691 159.141 444.512 162.501 446.092 167.924C448.788 177.176 448.267 191.344 435.086 197.188C435.086 197.188 441.393 205.589 429.065 202.618C429.065 202.618 428.578 209.635 424.129 204.192C424.129 204.192 425.454 202.548 424.336 194.202C423.812 190.295 415.178 171.537 415.178 171.537Z" fill="black"/>
<path d="M384.018 170.632C392.84 186.408 415.178 171.537 415.178 171.537C416 171.5 427.685 161.848 446.092 167.924C444.512 162.501 440.691 159.141 440.691 159.141C440.697 153.033 427.043 137.65 398.128 152.203C386.476 158.067 381.59 166.29 384.018 170.632Z" fill="white" stroke="black"/>
<path d="M424.123 197.465C421.712 199.061 418.951 198.83 417.955 196.948C416.959 195.067 418.543 192.006 420.516 190.653C422.904 189.015 425.688 189.288 426.684 191.169C427.68 193.05 426.533 195.869 424.123 197.465Z" fill="white"/>
<path d="M410.824 244.779C410.824 244.779 411.855 235.611 408.015 231.137C408.015 231.137 421.816 225.582 423.808 220.32C423.808 220.32 427.164 224.023 428.918 228.018C430.673 232.014 418.163 244.292 410.824 244.779Z" fill="white" stroke="black"/>
<path d="M402.911 223.985C402.911 223.985 403.711 229.837 408.015 231.137C408.015 231.137 404.471 237.568 403.685 243.35C403.685 243.35 399.326 238.972 399.131 235.087C398.937 231.201 402.911 223.985 402.911 223.985Z" fill="white" stroke="black"/>
<path d="M425.149 221.94C425.149 221.94 419.365 277.849 392.729 296.123C392.729 296.123 411.638 291.296 422.666 284.312L422.324 274.551L431.919 274.209C431.919 274.209 443.979 245.803 446.243 228.043C446.243 228.043 435.819 223.158 433.04 222.58C426.543 221.227 425.149 221.94 425.149 221.94Z" fill="white" stroke="black"/>
<path d="M402.911 223.984C402.911 223.984 391.545 262.125 401.51 289.931C401.51 289.931 388.347 279.276 385.748 272L388.281 266.542L383.497 260.293C383.497 260.293 382.59 222.719 402.911 223.984Z" fill="white" stroke="black"/>
<path d="M255.51 382.275H146.592C144.253 382.275 142.356 380.379 142.356 378.039V307.591C142.356 305.251 144.253 303.355 146.592 303.355H255.51C257.849 303.355 259.746 305.251 259.746 307.591V378.039C259.746 380.379 257.849 382.275 255.51 382.275Z" fill="white"/>
<path d="M255.509 303H146.591C144.059 303 142 305.059 142 307.591V378.041C142 380.569 144.059 382.632 146.591 382.632H255.509C258.041 382.632 260.1 380.569 260.1 378.041V307.591C260.1 305.059 258.041 303 255.509 303ZM259.389 378.041C259.389 380.178 257.65 381.921 255.509 381.921H146.591C144.454 381.921 142.711 380.178 142.711 378.041V307.591C142.711 305.45 144.454 303.711 146.591 303.711H255.509C257.65 303.711 259.389 305.45 259.389 307.591V378.041Z" fill="black"/>
<path d="M259.6 307.591V308.215H142.5V307.591C142.5 305.335 144.335 303.5 146.591 303.5H255.509C257.765 303.5 259.6 305.335 259.6 307.591Z" fill="white" stroke="black"/>
<path d="M147.843 306.686C148.309 306.686 148.686 306.309 148.686 305.843C148.686 305.378 148.309 305 147.843 305C147.378 305 147 305.378 147 305.843C147 306.309 147.378 306.686 147.843 306.686Z" fill="black"/>
<path d="M151.451 306.686C151.917 306.686 152.294 306.309 152.294 305.843C152.294 305.378 151.917 305 151.451 305C150.985 305 150.608 305.378 150.608 305.843C150.608 306.309 150.985 306.686 151.451 306.686Z" fill="black"/>
<path d="M154.314 305.843C154.314 305.378 154.691 305 155.157 305C155.622 305 156 305.377 156 305.843C156 306.309 155.622 306.686 155.157 306.686C154.691 306.686 154.314 306.309 154.314 305.843Z" fill="black"/>
<path d="M197.6 318.261H148.043C147.798 318.261 147.6 318.063 147.6 317.818C147.6 317.574 147.798 317.376 148.043 317.376H197.6C197.845 317.376 198.043 317.574 198.043 317.818C198.043 318.063 197.845 318.261 197.6 318.261Z" fill="black"/>
<path d="M163.751 323.476H148.043C147.798 323.476 147.6 323.278 147.6 323.034C147.6 322.789 147.798 322.591 148.043 322.591H163.751C163.995 322.591 164.193 322.789 164.193 323.034C164.193 323.278 163.995 323.476 163.751 323.476Z" fill="black"/>
<path d="M163.751 334.755H148.043C147.798 334.755 147.6 334.557 147.6 334.313C147.6 334.069 147.798 333.871 148.043 333.871H163.751C163.995 333.871 164.193 334.069 164.193 334.313C164.193 334.557 163.995 334.755 163.751 334.755Z" fill="black"/>
<path d="M163.751 346.883H148.043C147.798 346.883 147.6 346.685 147.6 346.44C147.6 346.196 147.798 345.998 148.043 345.998H163.751C163.995 345.998 164.193 346.196 164.193 346.44C164.193 346.685 163.995 346.883 163.751 346.883Z" fill="black"/>
<path d="M177.366 340.819H148.043C147.798 340.819 147.6 340.621 147.6 340.377C147.6 340.132 147.798 339.934 148.043 339.934H177.366C177.611 339.934 177.809 340.132 177.809 340.377C177.809 340.621 177.611 340.819 177.366 340.819Z" fill="black"/>
<path d="M184.105 334.755H168.397C168.152 334.755 167.954 334.557 167.954 334.313C167.954 334.069 168.152 333.871 168.397 333.871H184.105C184.349 333.871 184.547 334.069 184.547 334.313C184.547 334.557 184.349 334.755 184.105 334.755Z" fill="black"/>
<path d="M174.075 328.692H148.043C147.798 328.692 147.6 328.494 147.6 328.249C147.6 328.005 147.798 327.807 148.043 327.807H174.075C174.319 327.807 174.517 328.005 174.517 328.249C174.517 328.494 174.319 328.692 174.075 328.692Z" fill="black"/>
<path d="M184.105 323.476H168.397C168.152 323.476 167.954 323.278 167.954 323.034C167.954 322.789 168.152 322.591 168.397 322.591H184.105C184.349 322.591 184.547 322.789 184.547 323.034C184.547 323.278 184.349 323.476 184.105 323.476Z" fill="black"/>
<path d="M537.333 513.147L537.261 512.958C534.244 505.076 524.296 495.175 514.676 485.6C503.061 474.04 492.09 463.121 493.444 456.139C493.876 453.912 495.574 452.182 498.491 450.997C503.413 448.997 509.142 450.933 515.518 456.749C520.576 461.363 526.062 468.426 531.823 477.742C541.62 493.585 548.923 510.701 548.996 510.872L549.122 511.169L537.333 513.147Z" fill="white"/>
<path d="M536.844 512.641L536.772 512.452C533.755 504.57 523.807 494.669 514.186 485.094C502.572 473.534 491.601 462.615 492.955 455.633C493.387 453.406 495.085 451.676 498.002 450.491C502.924 448.491 508.653 450.427 515.029 456.244C520.087 460.858 525.572 467.921 531.333 477.236C541.131 493.08 548.433 510.195 548.506 510.366L548.632 510.663L536.844 512.641ZM501.913 450.234C500.619 450.234 499.375 450.476 498.183 450.96C495.392 452.093 493.839 453.654 493.437 455.732C492.135 462.444 503.012 473.27 514.529 484.732C524.11 494.268 534.016 504.127 537.155 512.078L547.929 510.271C546.914 507.926 539.985 492.166 530.917 477.502C525.181 468.227 519.725 461.201 514.702 456.619C510.043 452.37 505.759 450.234 501.913 450.234Z" fill="white" stroke="black"/>
<path d="M542.023 511.566C532.287 484.704 503.867 460.035 503.581 459.789L503.897 459.402C503.968 459.464 511.167 465.685 519.477 475.155C527.15 483.899 537.37 497.284 542.483 511.39L542.023 511.566Z" fill="white" stroke="black"/>
<path d="M553.776 507.713C553.776 507.713 550.562 422.122 527.972 423.89C505.382 425.658 542.504 480.754 542.671 505.7L553.776 507.713Z" fill="white" stroke="black"/>
<path d="M550.461 512.651C550.461 512.651 554.295 410.556 581.24 412.665C608.186 414.774 563.906 480.493 563.707 510.249L550.461 512.651Z" fill="white" stroke="black"/>
<path d="M533.286 552.613H578.918C580.543 552.613 581.864 551.256 581.864 549.589V533.423C581.864 519.107 570.52 507.461 556.576 507.461C542.11 507.461 530.341 519.544 530.341 534.395V549.589C530.341 551.256 531.662 552.613 533.286 552.613Z" fill="white" stroke="black"/>
<path d="M551.323 498.13C551.323 498.13 557.29 458.811 587.098 456.191C616.906 453.57 654.874 497.658 625.708 516.054C598.858 532.99 582.113 491.512 582.886 467.787C582.986 464.721 579.886 462.625 577.176 463.92C570.604 467.061 560.532 475.611 555.186 498.87L551.323 498.13Z" fill="white" stroke="black"/>
<path d="M620.764 507.732C619.435 489.133 611.693 477.423 605.432 470.876C598.646 463.778 592.087 461.043 592.022 461.016L592.203 460.547C592.27 460.574 598.909 463.339 605.766 470.505C612.091 477.114 619.913 488.931 621.254 507.695L620.764 507.732Z" fill="white" stroke="black"/>
<path d="M549.037 479.012C549.037 479.012 559.178 472.892 570.043 480.026C580.908 487.159 572.082 527.665 562.474 534.712C547.761 545.504 525.299 534.211 525.886 512.548C526.18 501.707 539.248 483.256 549.037 479.012Z" fill="white" stroke="black"/>
<path d="M544.95 525.382L544.461 525.333C545.973 509.391 550.736 498.674 554.465 492.491C558.514 485.776 562.267 482.794 562.304 482.764L562.602 483.165C562.565 483.194 558.87 486.136 554.867 492.782C551.171 498.917 546.451 509.553 544.95 525.382Z" fill="white" stroke="black"/>
</g>
<defs>
<clipPath id="clip0_152_3523">
<rect width="784" height="667" fill="white"/>
</clipPath>
</defs>
</svg>
