<svg width="816" height="732" viewBox="0 0 816 732" fill="none" xmlns="http://www.w3.org/2000/svg">
<rect width="816" height="732" fill="white"/>
<ellipse opacity="0.4" cx="689" cy="679.5" rx="40" ry="9.5" fill="#D9D9D9"/>
<path d="M648.524 602.193C662.775 607.444 696.116 614.794 715.467 602.193M648.524 602.193C650.256 607.444 652.977 616.058 655.075 623.57M648.524 602.193C645.959 595.829 653.061 593.718 663.994 593.877M678.339 651.979C682.851 651.881 688.012 651.646 692.965 650.821M678.339 651.979L676.089 673.074M678.339 651.979C675.237 652.046 672.474 651.612 670.063 650.821M715.467 602.193C715.749 609.412 715.636 626.495 712.936 637.071C711.592 642.335 707.884 645.726 703.091 647.919M715.467 602.193C710.242 600.872 703.985 599.44 697.418 598.142M655.075 623.57C656.724 629.473 657.988 634.695 658.087 637.071C658.301 642.203 662.417 648.311 670.063 650.821M655.075 623.57C663.111 626.383 682.558 631.164 696.059 627.789M703.091 647.919L728.968 680.387M703.091 647.919C700.045 649.313 696.56 650.222 692.965 650.821M692.965 650.821L706.185 692.482M670.063 650.821L648.524 694.17M697.418 598.142C699.121 578.303 710.123 533.701 727 517.5M697.418 598.142C693.738 597.415 689.962 596.73 686.215 596.13M686.215 596.13C685.09 557.366 684.865 477.307 692.965 467.181M686.215 596.13C682.782 595.58 679.374 595.103 676.089 594.729M676.089 594.729C671.682 573.684 656.652 527.201 635.5 511M676.089 594.729C671.772 594.239 667.667 593.93 663.994 593.877M663.994 593.877C655.743 584.085 634.854 564.277 617.302 563.377" stroke="#161A1D" stroke-width="1.5"/>
<path d="M715.467 602.193C696.116 614.794 662.775 607.444 648.524 602.193C645.959 595.829 653.061 593.718 663.994 593.877C667.667 593.93 671.772 594.239 676.089 594.729C679.374 595.103 682.782 595.58 686.215 596.13C689.962 596.729 693.738 597.415 697.418 598.142C703.985 599.44 710.242 600.872 715.467 602.193Z" fill="#161A1D"/>
<path d="M708.717 516.123C698.028 534.031 681.489 571.084 700.841 576.035C718.096 580.449 721.182 544.361 737.969 524.633M708.717 516.123C710.123 514.717 716.592 493.34 747.251 497.559C777.91 501.778 786.911 578.991 737.969 524.633M708.717 516.123C721.093 514.548 731.097 517 737.969 524.633" stroke="#161A1D" stroke-width="1.5"/>
<path d="M673.48 472.588C662.004 531.093 675.261 549.095 683.324 550.783C704.701 552.752 687.262 501.278 704.701 476.245C722.14 451.211 687.825 399.457 673.48 472.588Z" stroke="#161A1D" stroke-width="1.5"/>
<path d="M648.554 508.81C675.367 534.521 674.122 560.54 669.901 570.69C658.65 574.291 635.208 539.375 624.894 521.467M648.554 508.81C647.38 507.684 646.151 506.558 644.867 505.435C606.614 471.963 583.268 531.031 603.801 536.375C614.867 539.255 619.088 530.045 624.894 521.467M648.554 508.81C635.988 507.254 629.861 514.129 624.894 521.467" stroke="#161A1D" stroke-width="1.5"/>
<path d="M620.584 551.399C654.814 554.756 659.185 577.127 656.869 588.442C653.212 592.38 644.493 594.63 633.523 582.536C624.747 572.86 609.052 568.681 602.302 567.801M620.584 551.399C618.792 551.224 616.918 551.1 614.959 551.033C571.239 549.534 560.582 600.093 602.302 567.801M620.584 551.399C613.635 558.359 607.553 563.736 602.302 567.801" stroke="#161A1D" stroke-width="1.5"/>
<path d="M106.203 481.14C104.828 481.14 103.496 480.691 102.384 479.842C101.008 478.789 100.129 477.25 99.9102 475.51C99.4615 471.958 101.95 468.664 105.454 468.171C107.142 467.934 108.818 468.371 110.172 469.406C111.547 470.459 112.426 471.998 112.645 473.738C113.094 477.29 110.605 480.583 107.101 481.077C106.801 481.121 106.5 481.14 106.203 481.14ZM105.681 469.792C103.055 470.163 101.197 472.636 101.531 475.306C101.694 476.608 102.35 477.758 103.378 478.544C104.379 479.311 105.621 479.634 106.875 479.46C109.5 479.089 111.358 476.615 111.025 473.945C110.861 472.644 110.205 471.494 109.178 470.708C108.173 469.94 106.93 469.614 105.681 469.792Z" fill="#161A1D"/>
<path d="M654.16 119.982H278.069C266.206 119.982 255.84 129.576 254.921 141.41L215.411 649.241C214.491 661.074 223.362 670.668 235.225 670.668H611.316C623.179 670.668 633.545 661.074 634.464 649.241L673.974 141.41C674.894 129.576 666.023 119.982 654.16 119.982Z" fill="#161A1D"/>
<path d="M642.979 119.983H266.892C255.028 119.983 244.663 129.577 243.744 141.41L204.233 649.241C203.314 661.075 212.184 670.669 224.048 670.669H600.139C612.002 670.669 622.367 661.075 623.287 649.241L662.797 141.41C663.717 129.577 654.846 119.983 642.979 119.983Z" fill="white"/>
<path d="M224.048 671.488H600.139C612.399 671.488 623.15 661.539 624.103 649.304L663.609 141.473C664.073 135.521 662.178 129.918 658.276 125.701C654.379 121.488 648.946 119.167 642.979 119.167H266.892C254.628 119.167 243.88 129.117 242.927 141.347L203.417 649.182C202.954 655.134 204.849 660.737 208.75 664.954C212.648 669.167 218.081 671.488 224.048 671.488Z" stroke="#161A1D" stroke-width="1.5"/>
<path d="M297.1 326.504C296.874 326.504 296.655 326.408 296.5 326.241C296.344 326.074 296.266 325.848 296.285 325.621L304.54 219.548C304.573 219.122 304.929 218.795 305.355 218.795H411.7C411.926 218.795 412.145 218.892 412.3 219.058C412.456 219.225 412.534 219.452 412.515 219.678L406.537 296.5" stroke="#161A1D" stroke-width="1.5"/>
<path d="M427.182 217.753C427.216 217.326 427.572 217 427.998 217H565.033C565.26 217 565.478 217.096 565.634 217.263C565.79 217.43 565.868 217.656 565.849 217.882L564.67 233.02C564.637 233.443 564.284 233.773 563.854 233.773H537.5" stroke="#161A1D" stroke-width="1.5"/>
<path d="M553.835 582.863H276.645C276.419 582.863 276.2 582.766 276.044 582.599C275.889 582.432 275.811 582.206 275.829 581.98L291.149 385.053C291.182 384.626 291.538 384.3 291.965 384.3H569.155C569.381 384.3 569.6 384.396 569.755 384.563C569.911 384.73 569.989 384.956 569.97 385.182L554.651 582.11C554.617 582.536 554.265 582.863 553.835 582.863Z" stroke="#161A1D" stroke-width="1.5"/>
<path d="M264.366 402.219C264.34 402.219 264.314 402.219 264.288 402.216C263.839 402.175 263.509 401.774 263.55 401.326L267.229 362.09C267.27 361.641 267.67 361.311 268.119 361.352C268.568 361.393 268.898 361.793 268.857 362.242L265.178 401.478C265.141 401.904 264.785 402.219 264.366 402.219Z" fill="#161A1D"/>
<path d="M369.327 616.528C368.878 616.528 368.515 616.168 368.511 615.72C368.507 615.267 368.867 614.9 369.319 614.893L413.461 614.44C413.465 614.44 413.469 614.44 413.469 614.44C413.918 614.44 414.281 614.8 414.285 615.249C414.288 615.701 413.929 616.068 413.476 616.076L369.334 616.528C369.331 616.528 369.331 616.528 369.327 616.528Z" fill="#161A1D"/>
<path d="M274.587 267.691L283.524 153.919C283.557 153.492 283.913 153.166 284.34 153.166H612.747C612.974 153.166 613.189 153.259 613.344 153.422C613.5 153.585 613.578 153.808 613.563 154.034L609.714 216.31" stroke="#161A1D" stroke-width="1.5"/>
<path d="M562.483 180.832H346.52C338.529 180.832 332.551 174.368 333.174 166.398L335.273 139.438C336.686 121.281 352.587 106.562 370.789 106.562H549.774C567.979 106.562 581.589 121.281 580.176 139.438L578.077 166.398C577.458 174.368 570.475 180.832 562.483 180.832Z" fill="#161A1D"/>
<path d="M562.483 181.647H346.521C342.426 181.647 338.696 180.053 336.018 177.16C333.341 174.264 332.039 170.418 332.358 166.331L334.457 139.371C335.899 120.828 352.198 105.742 370.789 105.742H549.774C558.805 105.742 567.03 109.254 572.926 115.629C578.83 122.008 581.693 130.485 580.992 139.5L578.897 166.457C578.241 174.835 570.879 181.647 562.483 181.647ZM370.785 107.378C353.029 107.378 337.461 121.789 336.081 139.5L333.982 166.461C333.7 170.088 334.846 173.496 337.212 176.051C339.578 178.606 342.879 180.015 346.513 180.015H562.476C570.037 180.015 576.668 173.878 577.254 166.335L579.349 139.374C580.017 130.819 577.302 122.783 571.714 116.742C566.129 110.704 558.334 107.381 549.763 107.381H370.785V107.378Z" fill="#161A1D"/>
<path d="M466.408 27.8159C444.112 27.8159 424.635 45.8428 422.907 68.0825L418.019 130.874C417.467 137.954 422.777 143.695 429.875 143.695H484.905C492.003 143.695 498.208 137.954 498.756 130.874L503.641 68.0825C505.372 45.8465 488.703 27.8159 466.408 27.8159ZM462.996 71.6649C456.061 71.6649 450.873 66.0577 451.41 59.1377C451.948 52.2177 458.008 46.6105 464.943 46.6105C471.877 46.6105 477.066 52.2177 476.528 59.1377C475.99 66.054 469.931 71.6649 462.996 71.6649Z" fill="#161A1D"/>
<path d="M484.906 144.514H429.876C426.212 144.514 422.878 143.086 420.482 140.498C418.086 137.906 416.922 134.468 417.207 130.811L422.091 68.0231C423.849 45.4014 443.73 27 466.404 27C477.414 27 487.435 31.2796 494.625 39.0488C501.82 46.8255 505.31 57.1573 504.457 68.1455L499.573 130.937C498.99 138.425 492.412 144.514 484.906 144.514ZM466.404 28.6354C444.561 28.6354 425.411 46.3619 423.716 68.1492L418.832 130.941C418.583 134.138 419.592 137.138 421.676 139.393C423.76 141.644 426.668 142.882 429.872 142.882H484.902C491.573 142.882 497.422 137.468 497.937 130.815L502.821 68.0231C503.641 57.4948 500.303 47.6006 493.42 40.1614C486.552 32.7296 476.955 28.6354 466.404 28.6354ZM462.996 72.4807C459.414 72.4807 456.146 71.0863 453.803 68.5497C451.455 66.0131 450.317 62.6495 450.595 59.0709C451.166 51.7466 457.6 45.7908 464.943 45.7908C468.525 45.7908 471.792 47.1852 474.136 49.7218C476.484 52.2584 477.622 55.622 477.344 59.2007C476.773 66.5212 470.339 72.4807 462.996 72.4807ZM464.943 47.4263C458.435 47.4263 452.727 52.7071 452.223 59.2007C451.982 62.3195 452.965 65.2455 455 67.4446C457.033 69.64 459.87 70.849 462.992 70.849C469.501 70.849 475.208 65.5681 475.712 59.0746C475.953 55.9557 474.971 53.0298 472.935 50.8343C470.906 48.6352 468.065 47.4263 464.943 47.4263Z" fill="#161A1D"/>
<path d="M558.184 180.831H342.221C334.23 180.831 328.252 174.367 328.875 166.398L330.974 139.437C332.387 121.28 348.289 106.562 366.49 106.562H545.475C563.68 106.562 577.29 121.28 575.877 139.437L573.778 166.398C573.155 174.367 566.176 180.831 558.184 180.831Z" fill="white"/>
<path d="M328.807 166.39L328.807 166.389L330.906 139.429L330.906 139.429C332.318 121.277 348.291 106.492 366.49 106.492H545.476C554.306 106.492 562.329 109.924 568.077 116.138L568.077 116.138C573.833 122.357 576.631 130.626 575.946 139.442L573.851 166.399C573.225 174.386 566.189 180.897 558.185 180.897H342.222C338.328 180.897 334.8 179.383 332.27 176.651C329.74 173.914 328.504 170.277 328.807 166.39Z" fill="white" stroke="#161A1D" stroke-width="1.5"/>
<path d="M462.106 27.8159C439.81 27.8159 420.333 45.8428 418.605 68.0825L413.721 130.874C413.169 137.954 418.479 143.695 425.577 143.695H480.607C487.705 143.695 493.91 137.954 494.458 130.874L499.342 68.0825C501.074 45.8465 484.401 27.8159 462.106 27.8159ZM458.694 71.6649C451.759 71.6649 446.571 66.0577 447.109 59.1377C447.646 52.2177 453.706 46.6105 460.641 46.6105C467.576 46.6105 472.764 52.2177 472.226 59.1377C471.692 66.054 465.632 71.6649 458.694 71.6649Z" fill="white"/>
<path d="M480.607 144.514H425.577C421.913 144.514 418.579 143.086 416.183 140.498C413.788 137.906 412.623 134.468 412.905 130.811L417.789 68.0194C419.547 45.4014 439.428 27 462.105 27C473.116 27 483.136 31.2796 490.327 39.0488C497.521 46.8255 501.011 57.1573 500.158 68.1455L495.27 130.937C494.688 138.425 488.109 144.514 480.607 144.514ZM462.105 28.6354C440.262 28.6354 421.112 46.3619 419.417 68.1492L414.533 130.941C414.284 134.138 415.297 137.138 417.381 139.393C419.465 141.644 422.373 142.882 425.577 142.882H480.607C487.278 142.882 493.127 137.468 493.642 130.815L498.526 68.0231C499.346 57.4948 496.008 47.6006 489.125 40.1614C482.25 32.7296 472.656 28.6354 462.105 28.6354ZM458.693 72.4807C455.111 72.4807 451.844 71.0863 449.5 68.5497C447.153 66.0131 446.014 62.6495 446.292 59.0709C446.863 51.7466 453.298 45.7908 460.64 45.7908C464.223 45.7908 467.49 47.1852 469.834 49.7218C472.181 52.2584 473.32 55.622 473.042 59.2007C472.474 66.5212 466.036 72.4807 458.693 72.4807ZM460.644 47.4263C454.136 47.4263 448.428 52.7071 447.924 59.2007C447.683 62.3195 448.666 65.2455 450.702 67.4446C452.734 69.64 455.571 70.849 458.693 70.849C465.202 70.849 470.909 65.5681 471.413 59.0746C471.655 55.9557 470.672 53.0298 468.636 50.8343C466.607 48.6352 463.767 47.4263 460.644 47.4263Z" fill="#161A1D"/>
<path d="M583.328 212.208L578.616 212.291L580.846 339.684L585.558 339.602L583.328 212.208Z" fill="white"/>
<path d="M583.402 262.5L583.402 339.598" stroke="#161A1D" stroke-width="1.5"/>
<path d="M591.197 348.943L575.539 349.217L575.848 366.877L591.506 366.603L591.197 348.943Z" fill="white"/>
<path d="M575.875 367.705C575.663 367.705 575.459 367.623 575.307 367.475C575.151 367.323 575.063 367.119 575.059 366.9L574.751 349.24C574.744 348.788 575.103 348.417 575.556 348.41L591.213 348.135C591.421 348.128 591.639 348.213 591.795 348.365C591.951 348.517 592.04 348.721 592.044 348.94L592.351 366.6C592.359 367.052 591.999 367.423 591.547 367.43L575.889 367.705C575.886 367.705 575.878 367.705 575.875 367.705ZM576.398 350.03L576.679 366.055L590.701 365.81L590.419 349.785L576.398 350.03Z" fill="#161A1D"/>
<path d="M588.228 325.358L594.531 350.918L572.329 351.307L577.732 325.541L588.228 325.358Z" fill="#70E000" stroke="#161A1D" stroke-width="1.5"/>
<path d="M609.574 363.783L557.688 364.691L560.884 547.271L612.769 546.363L609.574 363.783Z" fill="white"/>
<path d="M609.574 363.781L557.688 364.689L559.706 479.981L611.592 479.073L609.574 363.781Z" fill="white"/>
<path d="M598.574 541.53L574.904 541.944L576.917 656.914L600.587 656.499L598.574 541.53Z" fill="white"/>
<path d="M588.983 654.581L586.036 486.224L597.415 486.025L600.362 654.382L588.983 654.581Z" stroke="#161A1D" stroke-width="0.370847"/>
<path d="M576.835 657.377C576.39 657.377 576.026 657.021 576.019 656.572L573 484.247C572.993 483.794 573.353 483.423 573.805 483.416L597.476 483.001C597.914 482.982 598.299 483.353 598.307 483.805L601.326 656.131C601.329 656.346 601.248 656.557 601.096 656.713C600.944 656.869 600.74 656.958 600.521 656.961L576.85 657.377C576.842 657.377 576.838 657.377 576.835 657.377Z" stroke="#161A1D" stroke-width="1.5"/>
<path d="M560.91 548.107C560.699 548.107 560.495 548.026 560.343 547.877C560.187 547.725 560.098 547.521 560.095 547.302L556.898 364.716C556.89 364.263 557.25 363.893 557.703 363.885L609.591 362.977C610.029 362.962 610.415 363.329 610.422 363.778L613.619 546.364C613.626 546.817 613.267 547.187 612.814 547.195L560.925 548.103C560.922 548.107 560.918 548.107 560.91 548.107Z" stroke="#161A1D" stroke-width="1.5"/>
<path d="M629.005 535.959L544.294 537.442L544.487 548.454L629.198 546.971L629.005 535.959Z" fill="white"/>
<path d="M544.515 549.29C544.07 549.29 543.706 548.934 543.699 548.485L543.506 537.475C543.503 537.26 543.584 537.048 543.736 536.893C543.888 536.737 544.092 536.648 544.311 536.644L629.024 535.161C629.465 535.139 629.847 535.513 629.854 535.966L630.047 546.976C630.051 547.191 629.969 547.402 629.817 547.558C629.665 547.714 629.461 547.803 629.242 547.807L544.53 549.29C544.526 549.29 544.519 549.29 544.515 549.29ZM545.153 538.265L545.316 547.644L628.393 546.19L628.23 536.811L545.153 538.265Z" fill="#161A1D"/>
<path d="M617.151 654.92L560.308 655.915L560.501 666.927L617.344 665.932L617.151 654.92Z" fill="white"/>
<path d="M560.529 667.768C560.317 667.768 560.113 667.686 559.961 667.538C559.805 667.386 559.716 667.182 559.713 666.963L559.52 655.953C559.512 655.5 559.872 655.129 560.325 655.122L617.172 654.128C617.609 654.113 617.995 654.48 618.002 654.929L618.195 665.94C618.199 666.155 618.117 666.366 617.965 666.522C617.813 666.678 617.609 666.767 617.391 666.77L560.543 667.764C560.54 667.768 560.532 667.768 560.529 667.768ZM561.166 656.743L561.33 666.121L616.541 665.153L616.378 655.775L561.166 656.743Z" fill="#161A1D"/>
<path d="M568.48 377.187C568.035 377.187 567.671 376.831 567.664 376.383C567.656 375.93 568.016 375.559 568.468 375.552L578.915 375.37C579.342 375.344 579.738 375.722 579.746 376.171C579.753 376.624 579.394 376.994 578.941 377.002L568.494 377.184C568.491 377.187 568.483 377.187 568.48 377.187Z" fill="#161A1D"/>
<path d="M568.702 389.834C568.257 389.834 567.893 389.478 567.886 389.029C567.878 388.577 568.238 388.206 568.69 388.198L585.182 387.909C585.642 387.894 586.005 388.261 586.013 388.71C586.02 389.163 585.66 389.533 585.208 389.541L568.716 389.83C568.709 389.834 568.705 389.834 568.702 389.834Z" fill="#161A1D"/>
<path d="M568.943 403.577C568.498 403.577 568.134 403.221 568.127 402.772C568.119 402.32 568.479 401.949 568.932 401.942L579.378 401.76C579.79 401.741 580.202 402.112 580.209 402.561C580.216 403.013 579.857 403.384 579.404 403.392L568.958 403.573C568.95 403.577 568.946 403.577 568.943 403.577Z" fill="#161A1D"/>
<path d="M569.162 416.223C568.717 416.223 568.353 415.867 568.346 415.418C568.338 414.966 568.698 414.595 569.151 414.588L585.642 414.298C586.091 414.269 586.465 414.651 586.473 415.103C586.48 415.555 586.121 415.926 585.668 415.934L569.177 416.223C569.173 416.223 569.169 416.223 569.162 416.223Z" fill="#161A1D"/>
<path d="M569.403 429.966C568.958 429.966 568.594 429.61 568.587 429.162C568.579 428.709 568.939 428.338 569.392 428.331L579.838 428.149C580.317 428.134 580.662 428.501 580.669 428.95C580.677 429.403 580.317 429.773 579.864 429.781L569.418 429.963C569.414 429.966 569.41 429.966 569.403 429.966Z" fill="#161A1D"/>
<path d="M569.637 443.161C569.192 443.161 568.828 442.805 568.821 442.356C568.813 441.904 569.173 441.533 569.625 441.526L586.117 441.236C586.543 441.207 586.94 441.589 586.948 442.041C586.955 442.494 586.595 442.865 586.143 442.872L569.651 443.161C569.644 443.161 569.64 443.161 569.637 443.161Z" fill="#161A1D"/>
<path d="M569.855 455.807C569.41 455.807 569.047 455.451 569.039 455.003C569.032 454.55 569.391 454.179 569.844 454.172L580.291 453.99C580.765 453.968 581.114 454.343 581.121 454.791C581.129 455.244 580.769 455.615 580.317 455.622L569.87 455.804C569.866 455.807 569.862 455.807 569.855 455.807Z" fill="#161A1D"/>
<path d="M570.107 470.1C569.662 470.1 569.299 469.744 569.291 469.295C569.284 468.843 569.644 468.472 570.096 468.465L586.588 468.175C587.066 468.164 587.411 468.528 587.418 468.976C587.426 469.429 587.066 469.8 586.614 469.807L570.122 470.096C570.115 470.1 570.111 470.1 570.107 470.1Z" fill="#161A1D"/>
<path d="M570.571 496.489C570.126 496.489 569.762 496.133 569.755 495.684C569.747 495.232 570.107 494.861 570.559 494.854L587.051 494.564C587.518 494.542 587.874 494.917 587.882 495.365C587.889 495.818 587.529 496.189 587.077 496.196L570.585 496.485C570.578 496.489 570.574 496.489 570.571 496.489Z" fill="#161A1D"/>
<path d="M611.572 477.956L559.686 478.864L559.894 490.699L611.78 489.791L611.572 477.956Z" fill="#161A1D"/>
<path d="M674.768 687.609L674.575 688.903C673.415 696.717 666.142 702.109 658.328 700.952L604.411 692.949C598.426 692.059 594.294 686.489 595.184 680.503L596.074 674.51C597.061 667.865 603.25 663.274 609.896 664.26L663.339 672.193C670.752 673.294 675.87 680.195 674.768 687.609Z" fill="white"/>
<path d="M595.722 676.877C593.757 689.297 601.548 692.412 611.365 693.869L633.567 697.166L637.828 668.459L615.626 665.162C605.809 663.705 597.84 665.329 595.722 676.877Z" fill="#70E000"/>
<path d="M660.298 701.902C659.552 701.902 658.803 701.846 658.043 701.735L606.336 694.058C598.785 692.938 593.553 685.885 594.676 678.334L594.992 676.209C596.193 668.121 603.747 662.521 611.835 663.719L663.624 671.407C671.379 672.557 676.756 679.807 675.603 687.561L675.41 688.855C674.282 696.439 667.744 701.902 660.298 701.902ZM609.651 665.195C603.228 665.195 597.58 669.909 596.612 676.45L596.297 678.575C595.311 685.232 599.92 691.455 606.581 692.441L658.288 700.118C665.727 701.223 672.688 696.064 673.797 688.618L673.99 687.324C675.009 680.459 670.251 674.044 663.387 673.028L611.598 665.34C610.942 665.243 610.293 665.195 609.651 665.195Z" fill="#161A1D"/>
<path d="M627.355 670.735L627.214 672.037C626.361 679.892 619.304 685.566 611.45 684.709L557.261 678.82C551.246 678.167 546.9 672.76 547.553 666.745L548.205 660.723C548.932 654.044 554.936 649.215 561.615 649.942L615.329 655.779C622.783 656.588 628.164 663.285 627.355 670.735Z" fill="white"/>
<path d="M547.95 663.107C546.47 675.594 554.38 678.405 564.245 679.476L586.559 681.902L589.696 653.05L567.382 650.624C557.514 649.549 549.615 651.481 547.95 663.107Z" fill="#70E000"/>
<path d="M612.877 685.595C612.321 685.595 611.757 685.566 611.197 685.503L559.231 679.854C551.643 679.031 546.14 672.185 546.963 664.598L547.197 662.462C548.079 654.333 555.415 648.444 563.536 649.326L615.585 654.982C619.36 655.393 622.749 657.248 625.13 660.211C627.511 663.17 628.594 666.882 628.186 670.657L628.045 671.959C627.604 676.02 625.609 679.662 622.427 682.22C619.686 684.427 616.345 685.595 612.877 685.595ZM561.923 650.877C555.281 650.877 549.552 655.894 548.821 662.643L548.587 664.78C547.86 671.473 552.715 677.507 559.405 678.234L611.372 683.882C614.991 684.275 618.559 683.233 621.399 680.948C624.24 678.664 626.024 675.408 626.417 671.785L626.558 670.483C626.921 667.142 625.961 663.856 623.854 661.238C621.748 658.62 618.748 656.977 615.403 656.614L563.354 650.958C562.876 650.902 562.398 650.877 561.923 650.877Z" fill="#161A1D"/>
<path d="M605.958 689.404L605.884 690.709C605.439 698.597 598.682 704.627 590.798 704.182L536.376 701.104C530.335 700.763 525.714 695.589 526.055 689.548L526.396 683.5C526.775 676.791 532.523 671.659 539.231 672.037L593.175 675.085C600.658 675.512 606.381 681.92 605.958 689.404Z" fill="white"/>
<path d="M526.262 685.892C525.432 698.438 533.475 700.833 543.381 701.393L565.791 702.662L567.43 673.684L545.02 672.415C535.115 671.855 527.327 674.199 526.262 685.892Z" fill="#70E000"/>
<path d="M549.481 698.337C549.466 698.337 549.452 698.337 549.433 698.337L544.219 698.045C536.78 697.625 531.009 692.304 531.354 686.185C531.38 685.732 531.766 685.388 532.215 685.413C532.663 685.439 533.008 685.825 532.986 686.274C532.693 691.492 537.77 696.042 544.312 696.409L549.526 696.702C549.974 696.728 550.319 697.114 550.297 697.562C550.275 698 549.911 698.337 549.481 698.337Z" fill="white"/>
<path d="M591.469 705.013C591.176 705.013 590.883 705.005 590.586 704.987L538.397 702.035C534.707 701.827 531.317 700.192 528.855 697.436C526.392 694.677 525.15 691.125 525.361 687.435L525.484 685.291C525.706 681.338 527.457 677.707 530.412 675.071C533.364 672.434 537.158 671.099 541.122 671.329L593.393 674.284C597.187 674.499 600.666 676.176 603.199 679.009C605.728 681.842 607.003 685.491 606.788 689.285L606.714 690.59C606.484 694.666 604.682 698.412 601.634 701.13C598.804 703.652 595.225 705.013 591.469 705.013ZM540.273 672.938C533.338 672.938 527.509 678.375 527.112 685.384L526.989 687.527C526.804 690.783 527.902 693.917 530.071 696.346C532.244 698.779 535.233 700.218 538.486 700.403L590.675 703.355C594.313 703.559 597.818 702.335 600.54 699.906C603.258 697.477 604.871 694.136 605.079 690.494L605.153 689.189C605.342 685.833 604.215 682.602 601.975 680.095C599.735 677.589 596.653 676.102 593.297 675.912L541.026 672.957C540.774 672.946 540.522 672.938 540.273 672.938Z" fill="#161A1D"/>
<path d="M477.047 543.211C477.047 543.211 484.623 552.216 507.041 552.905C526.733 553.51 527.037 547.895 526.818 544.947C526.584 541.847 524.422 537.838 507.345 535.939C488.257 533.818 477.047 543.211 477.047 543.211Z" fill="#161A1D"/>
<path d="M504.378 700.176C496.657 700.176 490.535 698.459 490.179 698.359C489.745 698.236 489.493 697.784 489.615 697.35C489.741 696.916 490.19 696.664 490.627 696.79C490.746 696.823 502.517 700.113 513.742 697.554C514.187 697.454 514.621 697.728 514.721 698.17C514.821 698.611 514.547 699.049 514.106 699.149C510.787 699.901 507.456 700.176 504.378 700.176Z" fill="#161A1D"/>
<path d="M506.151 656.1L504.368 673.115L492.86 674.465V654.287L506.151 656.1Z" fill="white"/>
<path d="M492.86 675.281C492.66 675.281 492.467 675.207 492.315 675.073C492.141 674.917 492.041 674.695 492.041 674.461V654.283C492.041 654.046 492.144 653.823 492.322 653.668C492.5 653.512 492.738 653.442 492.971 653.475L506.263 655.285C506.7 655.344 507.012 655.741 506.963 656.178L505.176 673.197C505.135 673.579 504.838 673.879 504.456 673.923L492.949 675.273C492.923 675.281 492.893 675.281 492.86 675.281ZM493.68 655.225V673.545L503.622 672.381L505.258 656.801L493.68 655.225Z" fill="#161A1D"/>
<path d="M491.05 704.088C495.841 704.763 503.696 705.357 512.919 704.081C515.952 703.662 517.97 700.736 517.239 697.765C515.207 689.507 511.706 673.831 505.695 666.566L504.2 670.504L502.138 666.796C501.856 666.288 501.348 665.943 500.774 665.872L496.257 665.301C495.315 665.183 494.436 665.806 494.239 666.737L493.52 670.152L491.261 665.665L489.337 683.009C488.955 686.454 488.417 689.877 487.723 693.274L486.692 698.325C485.992 702 488.261 703.695 491.05 704.088Z" fill="white"/>
<path d="M501.926 705.65C497.517 705.65 493.76 705.294 490.935 704.897C489.014 704.626 487.53 703.832 486.648 702.601C485.809 701.429 485.554 699.942 485.887 698.177L486.922 693.115C487.608 689.759 488.146 686.328 488.524 682.924L490.449 665.58C490.49 665.22 490.76 664.931 491.116 664.864C491.472 664.801 491.828 664.979 491.992 665.301L493.2 667.701L493.438 666.57C493.72 665.231 494.999 664.319 496.356 664.489L500.873 665.06C501.704 665.164 502.446 665.665 502.85 666.399L504.055 668.569L504.927 666.273C505.031 666.002 505.272 665.806 505.557 665.758C505.843 665.709 506.136 665.817 506.321 666.043C512.043 672.959 515.518 687.248 517.598 695.789L518.032 697.569C518.433 699.197 518.125 700.929 517.183 702.316C516.23 703.717 514.717 704.656 513.03 704.889C509.032 705.442 505.29 705.65 501.926 705.65ZM491.161 703.28C496.041 703.966 503.758 704.522 512.803 703.272C514.031 703.102 515.132 702.419 515.826 701.4C516.519 700.38 516.738 699.16 516.441 697.962L516.008 696.178C514.075 688.231 510.912 675.222 505.935 668.231L504.96 670.797C504.849 671.094 504.574 671.302 504.255 671.324C503.922 671.346 503.636 671.183 503.48 670.905L501.418 667.196C501.263 666.918 500.981 666.725 500.662 666.685L496.145 666.114C495.633 666.051 495.14 666.395 495.032 666.907L494.313 670.326C494.243 670.668 493.964 670.923 493.62 670.968C493.282 671.012 492.941 670.834 492.785 670.523L491.765 668.498L490.145 683.106C489.759 686.562 489.214 690.041 488.517 693.445L487.486 698.496C487.241 699.794 487.404 700.858 487.971 701.652C488.754 702.735 490.137 703.135 491.161 703.28Z" fill="#161A1D"/>
<path d="M507.123 687.522C507.112 687.522 507.104 687.522 507.093 687.522L496.309 687.166C495.856 687.152 495.504 686.773 495.519 686.321C495.534 685.868 495.919 685.52 496.364 685.531L507.149 685.887C507.601 685.902 507.953 686.28 507.939 686.733C507.927 687.174 507.564 687.522 507.123 687.522Z" fill="#161A1D"/>
<path d="M507.122 700.491C507.115 700.491 507.104 700.491 507.097 700.491L496.312 700.135C496.153 700.139 491.057 700.139 490.494 696.571C490.423 696.126 490.727 695.707 491.172 695.637C491.617 695.566 492.036 695.87 492.107 696.315C492.448 698.477 496.234 698.5 496.331 698.5L507.093 698.856C510.735 698.488 511.013 697.046 511.013 697.031C511.027 696.579 511.447 696.234 511.858 696.241C512.311 696.256 512.663 696.634 512.648 697.087C512.637 697.383 512.4 699.987 507.2 700.487C507.174 700.491 507.148 700.491 507.122 700.491Z" fill="#161A1D"/>
<path d="M452.263 647.041L450.538 671.873H436.691L436.049 647.041H452.263Z" fill="white"/>
<path d="M450.539 672.689H436.695C436.254 672.689 435.89 672.336 435.879 671.891L435.234 647.059C435.227 646.841 435.312 646.625 435.468 646.466C435.62 646.307 435.831 646.218 436.054 646.218H452.267C452.493 646.218 452.708 646.31 452.864 646.477C453.02 646.644 453.098 646.867 453.083 647.093L451.359 671.925C451.321 672.355 450.965 672.689 450.539 672.689ZM437.489 671.053H449.775L451.384 647.857H436.888L437.489 671.053Z" fill="#161A1D"/>
<path d="M454.155 685.89C454.188 688.238 452.586 690.303 450.298 690.834C442.339 692.688 424.409 696.812 419.295 697.572C412.657 698.562 404.498 696.526 400.994 692.644C397.485 688.761 408.848 679.49 414.24 676.119C422.251 671.108 429.946 661.203 433.172 660.758C436.398 660.313 442.421 669.673 442.421 669.673L452.267 665.538C452.263 665.538 453.977 673.975 454.155 685.89Z" fill="white"/>
<path d="M415.828 698.636C409.694 698.636 403.375 696.5 400.382 693.192C399.674 692.406 399.395 691.427 399.555 690.281C400.241 685.36 409.449 678.147 413.803 675.425C417.726 672.97 421.542 669.351 424.906 666.158C428.548 662.705 431.177 660.209 433.053 659.95C436.269 659.508 441.105 666.224 442.725 668.657L451.944 664.786C452.171 664.689 452.427 664.7 452.645 664.815C452.86 664.93 453.016 665.134 453.064 665.375C453.083 665.461 454.796 674.023 454.974 685.876C455.015 688.594 453.127 691.012 450.483 691.627C442.866 693.4 424.587 697.609 419.414 698.377C418.242 698.555 417.04 698.636 415.828 698.636ZM433.421 661.559C433.372 661.559 433.324 661.563 433.28 661.57C431.922 661.759 429.063 664.47 426.033 667.344C422.61 670.589 418.735 674.268 414.671 676.812C409.349 680.139 401.702 686.751 401.175 690.508C401.083 691.171 401.216 691.676 401.598 692.095C404.795 695.636 412.683 697.728 419.173 696.764C424.287 696.003 442.514 691.805 450.112 690.037C452.011 689.595 453.368 687.856 453.339 685.902C453.198 676.515 452.085 669.236 451.644 666.684L442.736 670.426C442.373 670.578 441.946 670.448 441.731 670.115C439.402 666.503 435.349 661.559 433.421 661.559Z" fill="#161A1D"/>
<path d="M415.957 694.079C410.892 694.079 406.43 693.119 403.571 690.538C403.237 690.234 403.211 689.718 403.512 689.384C403.812 689.051 404.331 689.021 404.665 689.325C414.908 698.574 449.871 684.445 450.224 684.3C450.635 684.13 451.117 684.33 451.288 684.749C451.459 685.168 451.258 685.643 450.839 685.813C449.753 686.262 430.398 694.079 415.957 694.079Z" fill="#161A1D"/>
<path d="M431.303 679.041C431.106 679.041 430.913 678.971 430.754 678.83L423.711 672.477C423.378 672.173 423.348 671.658 423.652 671.324C423.956 670.987 424.472 670.964 424.805 671.265L431.848 677.617C432.182 677.921 432.211 678.437 431.907 678.771C431.748 678.949 431.525 679.041 431.303 679.041Z" fill="#161A1D"/>
<path d="M463.448 508.752C462.699 508.712 462.699 508.712 462.699 508.713L462.699 508.718L462.698 508.737L462.694 508.812L462.678 509.11L462.616 510.271L462.379 514.69C462.176 518.502 461.884 523.96 461.531 530.544C460.826 543.711 459.879 561.381 458.909 579.392C457.036 614.171 455.081 650.209 454.628 657.555C454.613 657.555 454.597 657.555 454.581 657.556C454.116 657.569 453.443 657.583 452.616 657.588C450.962 657.599 448.697 657.574 446.247 657.433C443.795 657.291 441.172 657.032 438.8 656.579C436.561 656.151 434.609 655.561 433.235 654.773C433.22 654.701 433.202 654.617 433.183 654.522C433.105 654.146 432.992 653.591 432.848 652.874C432.561 651.441 432.151 649.362 431.665 646.78C430.692 641.617 429.41 634.448 428.177 626.42C425.706 610.345 423.44 590.9 424.201 577.233L424.201 577.233C424.966 563.453 424.929 539.469 424.701 518.951C424.587 508.687 424.425 499.284 424.292 492.446C424.225 489.027 424.165 486.25 424.122 484.327C424.101 483.383 424.084 482.645 424.073 482.138L509.367 485.874L509.378 486.075C509.41 486.65 509.457 487.497 509.518 488.585C509.64 490.76 509.816 493.897 510.035 497.746C510.472 505.442 511.079 515.984 511.755 527.364C513.108 550.118 514.742 576.235 515.865 589.644C516.98 602.965 515.675 620.372 514.083 634.484C513.288 641.532 512.422 647.745 511.756 652.196C511.422 654.421 511.139 656.205 510.939 657.433C510.855 657.946 510.786 658.362 510.734 658.673L490.719 657.62C490.717 657.55 490.715 657.476 490.713 657.396C490.707 657.182 490.7 656.933 490.691 656.65C490.66 655.579 490.614 654.026 490.554 652.098C490.435 648.244 490.263 642.893 490.051 636.907C489.626 624.937 489.04 610.42 488.394 600.255L488.394 600.255C488.052 594.889 486.878 589.616 484.894 584.617L484.894 584.617C482.014 577.374 477.686 565.233 475.979 554.001C474.634 545.158 471.675 533.779 469.061 524.632C467.752 520.054 466.528 516.027 465.63 513.144C465.181 511.702 464.814 510.546 464.559 509.751C464.431 509.353 464.332 509.045 464.264 508.836L464.187 508.599L464.167 508.539L464.162 508.523L464.161 508.519L464.161 508.518C464.16 508.518 464.16 508.518 463.448 508.752ZM463.448 508.752L462.699 508.712L464.16 508.518L463.448 508.752Z" fill="white" stroke="black" stroke-width="1.5"/>
<path d="M494.955 595.04C493.594 595.04 492.233 594.822 490.913 594.38C490.487 594.236 490.253 593.776 490.398 593.346C490.542 592.919 490.998 592.686 491.432 592.83C493.624 593.561 495.953 593.598 498.163 592.93C498.597 592.801 499.053 593.045 499.179 593.479C499.309 593.913 499.064 594.366 498.63 594.495C497.425 594.862 496.19 595.04 494.955 595.04Z" fill="white"/>
<path d="M444.346 632.548C443.901 632.548 443.538 632.192 443.53 631.747C443.304 619.331 428.993 595.964 428.848 595.73C428.611 595.344 428.73 594.844 429.115 594.606C429.497 594.369 430.002 594.488 430.239 594.873C430.84 595.845 444.928 618.86 445.162 631.717C445.169 632.169 444.81 632.54 444.361 632.548C444.353 632.548 444.35 632.548 444.346 632.548Z" fill="white"/>
<path d="M352.108 365.283C347.476 360.388 344.78 356.446 344.78 356.446C344.78 356.446 336.525 342.528 330.265 337.499C324.002 332.467 323.019 331.803 323.019 331.803C323.019 331.803 321.057 334.417 323.019 337.499C324.135 339.25 326.372 341.868 328.092 343.8C329.223 345.072 329.246 346.967 328.166 348.283C326.817 349.93 325.622 352.637 327.124 356.446C329.375 362.149 334.593 363.381 337.286 363.625C338.291 363.718 339.136 364.412 339.411 365.387C339.863 367.015 340.668 369.715 341.858 373.093L352.108 365.283Z" fill="white"/>
<path d="M497.577 332.945C497.577 332.945 471.591 320.381 435.304 334.113C404.932 345.606 440.563 428.92 434.859 484.035C434.859 484.035 482.635 491.234 496.03 473.055C503.099 463.461 497.577 332.945 497.577 332.945Z" fill="white"/>
<path d="M455.665 486C444.536 486 435.466 484.664 434.621 484.537C434.193 484.47 433.891 484.079 433.935 483.64C436.215 461.407 431.902 435.065 427.729 409.589C421.57 372.019 416.257 339.57 434.898 332.452C470.915 318.704 497.239 331.183 497.501 331.309C497.771 331.44 497.948 331.712 497.959 332.013C498.184 337.374 503.383 463.436 496.261 473.186C488.605 483.673 470.347 486 455.665 486Z" fill="white" stroke="#161A1D" stroke-width="1.5"/>
<path d="M399.321 366.47C399.321 366.47 415.101 343.796 430.776 334.71C432.638 333.631 435.542 332.444 439.254 331.35C445.629 346.974 455.386 375.952 450.546 397.454C444.813 422.942 446.463 514.894 447.216 546.227C416.024 545.544 407.884 544.836 407.884 544.836C403.949 523.238 421.09 396.864 421.09 396.864L399.321 366.47Z" fill="white"/>
<path d="M447.197 547.042H447.215C447.434 547.042 447.642 546.953 447.79 546.805C447.946 546.646 448.031 546.431 448.028 546.208C447.349 517.827 445.576 423.246 451.339 397.632C456.238 375.871 446.34 346.57 440.006 331.042C439.85 330.653 439.42 330.449 439.02 330.568C435.385 331.64 432.393 332.83 430.364 334.006C414.711 343.076 399.295 365.075 398.646 366.006C398.449 366.288 398.453 366.666 398.653 366.948L420.233 397.076C419.076 405.653 403.226 523.839 407.079 544.984C407.145 545.348 407.446 545.618 407.813 545.652C407.895 545.655 416.339 546.368 447.197 547.042Z" stroke="#161A1D" stroke-width="1.5"/>
<path d="M462.905 408.483C465.105 380.985 481.025 346.789 489.996 329.396C497.461 330.783 505.171 332.99 512.862 336.283C544.796 349.956 533.467 396.475 533.467 396.475L511.791 393.175L511.709 420.361C511.631 446.232 513.43 472.076 517.09 497.687L525.115 543.798C522.2 534.289 477.35 540.813 456.464 542.785C460.009 491.167 460.432 439.39 462.905 408.483Z" fill="white"/>
<path d="M524.189 544.422C524.296 544.77 524.616 545 524.966 545C525.029 545 525.091 544.993 525.15 544.974C525.566 544.874 525.835 544.466 525.761 544.04L517.802 497.963C514.19 472.483 512.393 446.514 512.471 420.771L512.548 394.538L533.136 397.694C533.548 397.757 533.946 397.49 534.045 397.078C534.071 396.959 536.872 385.165 535.724 371.85C534.192 354.079 526.372 341.669 513.119 335.951C505.903 332.841 498.208 330.505 490.248 329.014C489.899 328.947 489.545 329.125 489.379 329.444C480.242 347.282 464.58 381.32 462.397 408.824C461.234 423.471 460.538 442.509 459.733 464.554L459.731 464.601C458.851 488.679 457.854 515.968 456.002 543.109C455.987 543.35 456.075 543.584 456.245 543.751C456.418 543.921 456.65 544.003 456.889 543.981C459.85 543.698 463.335 543.32 467.032 542.918L467.29 542.89L467.33 542.886C487.764 540.665 521.915 536.952 524.189 544.422Z" stroke="#161A1D" stroke-width="1.5"/>
<path d="M426.04 513.188C425.61 513.188 425.25 512.851 425.224 512.417C425.198 511.964 425.543 511.579 425.996 511.556C426.945 511.504 427.761 511.074 428.488 510.24C432.474 505.686 432.003 491.735 431.807 488.1C429.686 488.36 424.149 488.79 418.33 487.24C417.893 487.125 417.637 486.676 417.752 486.239C417.867 485.801 418.315 485.545 418.753 485.66C425.677 487.507 432.363 486.376 432.43 486.361C432.66 486.32 432.89 486.379 433.071 486.52C433.253 486.661 433.368 486.873 433.387 487.103C433.446 487.855 434.751 505.571 429.723 511.312C428.703 512.476 427.479 513.106 426.088 513.184C426.07 513.188 426.055 513.188 426.04 513.188Z" fill="#161A1D"/>
<path d="M484.938 518.317C481.526 518.317 478.648 517.056 476.39 514.571C468.773 506.183 470.672 486.643 470.753 485.816C470.779 485.575 470.909 485.359 471.105 485.222C471.306 485.085 471.554 485.048 471.788 485.111C487.096 489.431 502.791 484.347 502.946 484.299C503.373 484.158 503.836 484.392 503.977 484.818C504.118 485.248 503.885 485.708 503.458 485.849C502.813 486.064 487.756 490.933 472.303 486.943C472.025 490.982 471.387 506.635 477.599 513.473C479.55 515.621 482.005 516.703 485.005 516.681C485.446 516.64 485.824 517.041 485.828 517.493C485.832 517.946 485.465 518.313 485.016 518.317C484.99 518.317 484.964 518.317 484.938 518.317Z" fill="#161A1D"/>
<path d="M337.389 372.785C343.386 389.777 359.306 416.256 390.179 417.602C400.904 418.069 411.351 407.43 425.495 396.86C425.495 396.86 410.683 352.314 409.701 353.523C405.083 359.201 393.532 375.592 383.448 375.863C368.514 376.267 361.327 367.467 353.61 359.308L337.389 372.785Z" fill="white"/>
<path d="M409.938 351.974C409.256 352.745 408.343 353.906 407.19 355.378C401.865 362.172 391.956 374.822 383.422 375.051C369.809 375.426 362.963 368.094 355.698 360.344C355.201 359.813 354.704 359.283 354.203 358.753C353.907 358.441 353.417 358.412 353.087 358.686L336.866 372.159C336.603 372.378 336.503 372.737 336.618 373.06C340.237 383.31 354.789 416.879 390.146 418.422C390.391 418.433 390.639 418.437 390.884 418.437C399.395 418.437 407.45 412.062 417.555 404.052C419.387 402.602 421.275 401.107 423.237 399.598" stroke="#161A1D" stroke-width="1.5"/>
<path d="M326.249 343.877C323.889 342.646 319.423 340.205 316.585 338.335M316.585 338.335C315.732 337.772 315.026 337.262 314.568 336.851C312.59 335.074 312.985 333.477 313.43 332.9C316.909 335.81 322.559 338.42 324.949 339.362L325.083 339.079C323.098 337.306 321.158 335.664 320.113 334.032C318.157 330.977 318.828 329.145 319.407 328.612C320.105 330.611 333.971 340.553 335.863 342.453C337.376 343.972 338.903 348.341 339.478 350.335L341.526 357.446C342.078 359.08 343.702 362.198 345.779 361.6C348.375 360.852 335.808 354.57 333.452 346.814C332.351 343.191 329.517 339.294 326.801 337.305C325.554 337.928 323.954 340.577 327.529 346.198C331.81 352.929 330.178 364.841 340.231 369.878M316.585 338.335C313.26 337.26 311.06 337.911 328.858 349.115C326.999 347.328 322.593 343.83 319.844 344.133C319.909 344.359 319.058 346.071 323.419 348.482C326.909 350.41 329.235 351.696 329.962 352.098" stroke="#161A1D" stroke-width="1.44116"/>
<path d="M425.269 429.984H465.928C468.669 429.984 470.668 427.392 469.971 424.741L454.888 367.404C454.406 365.568 452.745 364.289 450.846 364.289H410.183C407.442 364.289 405.443 366.881 406.141 369.533L421.223 426.869C421.709 428.705 423.37 429.984 425.269 429.984Z" fill="white" stroke="#161A1D" stroke-width="1.5"/>
<path d="M476.865 398.092L471.61 395.979C469.507 395.133 467.891 393.394 467.212 391.232C466.934 390.349 466.619 389.251 466.259 387.887C464.85 382.535 460.685 379.346 459.076 381.549C458.111 382.869 460.529 386.885 460.058 389.522C459.25 394.046 451.21 390.713 449.882 390.204C446.86 389.04 446.344 388.079 444.015 386.555C442.284 385.421 440.047 386.904 440.385 388.944C441.008 392.722 442.536 397.54 446.259 399.861C452.219 403.577 455.234 403.703 458.26 403.93C459.966 404.056 461.605 404.623 463.044 405.554C465.224 406.97 468.755 409.218 473.06 411.821L476.865 398.092Z" fill="white"/>
<path d="M473.057 412.636C472.908 412.636 472.764 412.596 472.634 412.518C468.332 409.918 464.798 407.667 462.595 406.236C461.264 405.372 459.743 404.856 458.197 404.741L457.941 404.723C454.915 404.5 451.789 404.274 445.825 400.554C441.813 398.051 440.214 392.93 439.58 389.076C439.369 387.801 439.91 386.57 440.993 385.865C442.065 385.168 443.396 385.168 444.464 385.869C445.251 386.38 445.84 386.84 446.363 387.241C447.416 388.053 448.247 388.698 450.175 389.44L450.361 389.51C455.289 391.435 457.448 391.209 458.393 390.679C458.872 390.412 459.146 389.996 459.257 389.377C459.454 388.275 459.016 386.733 458.631 385.372C458.126 383.595 457.692 382.064 458.419 381.066C459.031 380.232 459.947 379.88 461.004 380.08C463.433 380.54 466.033 383.807 467.053 387.678C467.379 388.921 467.694 390.033 467.995 390.986C468.599 392.918 470.031 394.461 471.918 395.218L477.173 397.332C477.559 397.487 477.766 397.906 477.655 398.307L473.847 412.036C473.776 412.28 473.598 412.481 473.361 412.577C473.261 412.618 473.16 412.636 473.057 412.636ZM442.725 386.978C442.436 386.978 442.147 387.063 441.883 387.233C441.345 387.582 441.086 388.172 441.19 388.809C441.772 392.333 443.196 396.987 446.689 399.167C452.308 402.672 455.23 402.887 458.056 403.095L458.315 403.113C460.136 403.247 461.92 403.855 463.481 404.867C465.517 406.187 468.688 408.212 472.556 410.563L475.882 398.578L471.306 396.738C468.962 395.796 467.186 393.879 466.433 391.48C466.126 390.501 465.803 389.362 465.469 388.097C464.527 384.519 462.258 381.982 460.696 381.689C460.144 381.585 459.892 381.819 459.736 382.034C459.476 382.39 459.91 383.918 460.199 384.93C460.633 386.462 461.126 388.198 460.863 389.67C460.667 390.764 460.088 391.606 459.191 392.11C457.348 393.145 454.262 392.792 449.764 391.038L449.586 390.972C447.435 390.145 446.474 389.403 445.362 388.542C444.839 388.138 444.297 387.723 443.567 387.245C443.304 387.063 443.014 386.978 442.725 386.978Z" fill="#161A1D"/>
<path d="M470.427 412.896C486.336 422.512 512.87 436.953 521.422 432.002C532.384 425.657 535.411 382.936 535.411 380.38L502.22 373.42L500.655 389.503C500.239 393.045 497.154 395.652 493.594 395.47C487.987 395.181 485.932 395.237 476.72 392.956L470.427 412.896Z" fill="white"/>
<path d="M501.255 374.955L499.85 389.407C499.486 392.507 496.75 394.814 493.642 394.651L492.374 394.587C487.686 394.358 485.331 394.243 476.92 392.162C476.509 392.058 476.075 392.299 475.945 392.711L469.652 412.651C469.537 413.011 469.685 413.401 470.008 413.597C486.043 423.287 505.965 433.812 516.875 433.812C518.848 433.812 520.528 433.467 521.834 432.714C533.567 425.92 536 380.442 536 380" stroke="#161A1D" stroke-width="1.5"/>
<path d="M466.897 340.288H466.971C473.35 340.288 478.868 337.877 482.383 335.845C483.266 335.337 483.733 334.388 483.6 333.375C483.466 332.359 482.765 331.558 481.775 331.291L481.23 331.143C479.22 330.601 477.811 327.879 477.503 325.621L474.933 300.236C474.889 299.81 474.64 299.432 474.266 299.22C473.891 299.009 473.435 298.998 473.049 299.183L458.568 306.174C458.16 306.37 457.885 306.76 457.833 307.208L455.742 325.024C455.653 325.562 455.601 326.111 455.549 326.637C455.33 328.918 455.1 330.36 453.313 331.173L450.057 332.5C449.089 332.897 448.484 333.824 448.51 334.866C448.536 335.905 449.189 336.798 450.172 337.143C454.247 338.567 460.459 340.269 466.897 340.288Z" fill="white"/>
<path d="M466.901 338.656C466.923 338.656 466.971 338.656 466.971 338.656M466.971 340.288C466.945 340.288 466.923 340.288 466.897 340.288C460.459 340.269 454.247 338.567 450.172 337.143C449.189 336.798 448.536 335.905 448.51 334.866C448.484 333.824 449.089 332.897 450.057 332.5L453.313 331.173C455.1 330.36 455.33 328.918 455.549 326.637C455.601 326.111 455.653 325.562 455.742 325.024L457.833 307.208C457.885 306.76 458.16 306.37 458.568 306.174L473.049 299.183C473.435 298.998 473.891 299.009 474.266 299.22C474.64 299.432 474.889 299.81 474.933 300.236L477.503 325.621C477.811 327.879 479.22 330.601 481.23 331.143L481.775 331.291C482.765 331.558 483.466 332.359 483.6 333.375C483.733 334.388 483.266 335.337 482.383 335.845C478.868 337.877 473.35 340.288 466.971 340.288Z" stroke="#161A1D" stroke-width="1.5"/>
<path d="M441.701 275.045C446.804 273.487 441.605 280.4 459.376 270.157C466.452 266.077 464.779 275.92 466.619 274.867C473.409 270.976 473.175 271.102 476.973 271.173C479.487 271.221 482.094 275.204 482.446 278.568C482.914 283.007 479.643 284.98 478.73 294.822C478.089 301.734 479.58 305.476 477.254 307.026C474.903 308.595 472.144 305.591 469.444 307.108C465.951 309.074 468.287 315.389 465.295 318.971C463.411 321.23 458.245 323.318 448.636 321.226C447.079 320.885 445.977 319.479 446.018 317.881C446.074 315.834 446.159 313.246 446.448 310.779C447.82 299.035 451.054 295.667 448.981 293.212C445.803 289.456 438.323 293.869 436.124 290.683C433.839 287.375 434.715 277.177 441.701 275.045Z" fill="#161A1D"/>
<path d="M464.245 285.981L463.444 289.107C463.065 290.579 462.791 292.074 462.617 293.587C462.294 296.424 461.704 301.293 461.163 303.997C460.373 307.965 447.938 306.374 447.938 306.374L446.715 304.338L445.261 304.119C444.979 304.078 444.705 303.978 444.482 303.8C443.926 303.355 443.744 302.632 443.974 302.012C445.231 298.616 447.746 291.061 447.783 284.82C447.783 284.82 455.682 280.592 464.245 285.981Z" fill="white"/>
<path d="M449 291.694C450.141 291.17 452.681 290.438 453.709 291.694" stroke="#161A1D" stroke-width="0.761017"/>
<ellipse cx="450.712" cy="296.546" rx="0.998922" ry="1.42703" fill="#161A1D"/>
<path d="M453.227 307.535C450.842 307.535 448.684 307.294 447.835 307.182C447.586 307.149 447.367 307.008 447.238 306.793L446.214 305.087L445.142 304.928C444.697 304.861 444.293 304.69 443.978 304.438C443.162 303.789 442.85 302.699 443.214 301.727C444.33 298.712 446.933 291.028 446.971 284.813C446.971 284.513 447.137 284.238 447.401 284.097C447.742 283.916 455.823 279.71 464.682 285.288C464.983 285.477 465.127 285.84 465.038 286.181L464.234 289.308C463.866 290.743 463.596 292.211 463.429 293.676C463.047 297.018 462.483 301.549 461.964 304.153C461.415 306.919 457.032 307.535 453.227 307.535ZM448.435 305.61C453.26 306.174 459.932 305.999 460.362 303.837C460.896 301.156 461.493 296.209 461.804 293.494C461.979 291.955 462.264 290.413 462.65 288.903L463.303 286.363C456.461 282.351 450.256 284.594 448.595 285.336C448.435 291.462 446.129 298.553 444.745 302.295C444.631 302.602 444.731 302.951 444.994 303.159C445.087 303.233 445.224 303.285 445.387 303.311L446.841 303.53C447.082 303.567 447.293 303.708 447.419 303.915L448.435 305.61Z" fill="#161A1D"/>
<path d="M464.571 296.15C464.571 296.15 466.492 288.629 469.715 290.25C472.941 291.866 470.619 300.092 464.571 296.15Z" fill="white"/>
<path d="M352.117 559.034V558.967H352.107C351.155 538.327 343.384 508.058 343.74 495.334C344.124 481.484 343.807 473.164 341.479 464.902C340.45 461.247 336.641 452.196 332.698 443.203C334.718 442.319 336.738 441.876 338.748 441.876C340.758 441.876 342.768 442.319 344.769 443.203C350.944 436.461 351.973 428.536 348.481 419.581C348.481 419.581 333.881 415.205 333.487 410.954C333.083 406.703 343.172 401.268 343.172 401.268C343.557 391.381 340.316 383.138 332.332 377.05C322.887 381.493 312.009 382.83 301.766 380.82C287.012 377.925 274.037 368.432 259.139 366.355C264.881 359.583 271.806 352.899 280.145 346.512C308.085 325.141 317.751 306.866 317.751 306.866C313.962 295.238 306.479 286.774 293.745 282.86C279.596 295.402 264.005 307.434 246.952 318.399C246.866 318.456 246.77 318.514 246.673 318.572L246.577 318.043L246.943 318.399C243.403 301.932 233.458 289.083 219.8 279.965C218.579 276.483 219.041 273.309 220.493 270.298C216.088 264.21 210.211 261.575 202.988 262.065C202.949 265.585 201.622 268.981 198.41 272.212L198.996 272.77L198.737 272.703C198.631 272.539 198.506 272.385 198.41 272.212C196.746 269.308 196.361 264.758 196.813 259.151C191.446 257.035 185.743 256.65 179.837 257.266C179.837 257.266 178.115 266.528 174.865 271.501C173.374 273.77 169.507 274.973 165.737 275.627L164.891 275.761C164.852 275.771 164.814 275.771 164.765 275.781L156.734 276.223C155.282 274.396 154.061 271.962 153.079 268.942C145.51 268.634 140.028 271.376 136.094 276.377C139.008 282.119 140.586 287.486 140.701 292.487L140.364 292.901L139.691 289.361C139.691 289.361 135.536 292.959 130.958 299.855L131.227 299.153C130.583 290.342 129.352 282.359 127.765 274.877C106.682 268.163 90.4174 272.01 76.9905 282.061C78.8371 294.209 80.4241 306.866 81.7899 319.976C73.8549 320.601 64.7562 316.109 55.3593 310.31C47.5494 320.832 43.529 333.797 43 349.003C57.0906 358.102 71.1811 362.276 85.2717 361.526C85.7045 368.124 86.0892 374.828 86.4355 381.609C77.4906 378.531 68.2476 378.675 58.8507 380.551C53.6665 387.293 53.2048 394.43 57.7927 401.951C68.6227 401.211 78.7217 402.019 87.4261 405.77L86.4643 382.157C86.9356 391.564 87.3299 401.124 87.6473 410.838C78.7025 407.761 66.1027 408.376 56.6962 410.242C51.5217 416.984 51.06 424.131 55.6382 431.652C63.7655 431.094 73.1624 430.671 80.1837 431.652L81.7995 427.132C81.0589 430.132 80.2606 433.114 79.0103 435.894C76.8077 440.828 73.2682 445.04 70.7098 449.792C67.0068 456.678 65.4583 464.69 66.3143 472.462C66.6798 475.77 67.4781 479.031 67.632 482.359C68.036 491.044 64.0926 499.912 66.5644 508.251C67.9109 512.829 71.0561 516.638 74.1146 520.293C74.1146 520.293 71.3061 537.528 85.6083 560.266H85.5987C83.7712 586.129 80.4434 616.782 77.0001 639.432C85.8295 646.05 95.8901 649.974 107.749 649.974C113.914 649.974 120.561 648.916 127.774 646.617C129.361 639.134 132.526 612.819 133.17 604.009L133.141 603.98C134.747 604.951 136.373 605.913 138.056 606.875C161.909 620.494 184.223 632.026 204.912 640.952L199.804 639.202C200.458 648.021 203.613 674.337 205.2 681.81C226.293 688.533 242.557 684.686 255.984 674.635C253.993 667.2 253.627 662.227 252.848 657.38L252.694 657.322C273.748 662.247 292.485 662.939 308.739 658.419C350.28 646.886 351.819 584.571 352.203 564.18C352.232 562.555 352.194 560.823 352.117 559.034Z" fill="white"/>
<path d="M131.236 299.134C130.592 290.323 129.361 282.34 127.764 274.858C106.681 268.134 90.417 271.982 76.9901 282.042C82.8283 320.428 86.1273 363.873 87.6374 410.839" stroke="#161A1D" stroke-width="1.5" stroke-miterlimit="10" stroke-linecap="round" stroke-linejoin="round"/>
<path d="M81.8568 283.562C87.1275 279.734 93.3601 277.243 99.8139 276.367" stroke="#161A1D" stroke-width="1.5" stroke-miterlimit="10" stroke-linecap="round" stroke-linejoin="round"/>
<path d="M103.892 275.772C105.989 275.647 108.086 275.512 110.182 275.387" stroke="#161A1D" stroke-width="1.5" stroke-miterlimit="10" stroke-linecap="round" stroke-linejoin="round"/>
<path d="M133.17 603.999C132.525 612.819 129.361 639.134 127.774 646.608C106.691 653.331 90.4269 649.483 77 639.423C80.4433 616.772 83.7808 586.11 85.6082 560.256" stroke="#161A1D" stroke-width="1.5" stroke-miterlimit="10" stroke-linecap="round" stroke-linejoin="round"/>
<path d="M77 639.433C95.034 631.777 112.125 632.633 127.774 646.617" stroke="#161A1D" stroke-width="1.5" stroke-miterlimit="10" stroke-linecap="round" stroke-linejoin="round"/>
<path d="M199.804 639.202C200.448 648.021 203.613 674.337 205.2 681.81C226.283 688.533 242.547 684.686 255.974 674.625C253.983 667.19 253.627 662.227 252.848 657.37" stroke="#161A1D" stroke-width="1.5" stroke-miterlimit="10" stroke-linecap="round" stroke-linejoin="round"/>
<path d="M255.984 674.625C237.95 666.969 220.858 667.825 205.21 681.81" stroke="#161A1D" stroke-width="1.5" stroke-miterlimit="10" stroke-linecap="round" stroke-linejoin="round"/>
<path d="M210.788 680.723C224.234 683.916 237.324 681.492 250.213 675.818C236.026 671.653 222.676 672.163 210.788 680.723Z" stroke="#161A1D" stroke-width="1.5" stroke-miterlimit="10" stroke-linecap="round" stroke-linejoin="round"/>
<path d="M225.898 667.19C222.359 667.883 218.906 669.027 215.655 670.586" stroke="#161A1D" stroke-width="1.5" stroke-miterlimit="10" stroke-linecap="round" stroke-linejoin="round"/>
<path d="M212.875 672.442C212.115 673.144 211.269 673.76 210.374 674.279" stroke="#161A1D" stroke-width="1.5" stroke-miterlimit="10" stroke-linecap="round" stroke-linejoin="round"/>
<path d="M81.7993 319.947C73.8643 320.572 64.7656 316.081 55.3687 310.291C47.5491 320.832 43.5288 333.797 42.9998 348.994C57.0903 358.093 71.1809 362.267 85.281 361.517" stroke="#161A1D" stroke-width="1.5" stroke-miterlimit="10" stroke-linecap="round" stroke-linejoin="round"/>
<path d="M55.3687 310.291C58.4368 325.16 54.3107 338.058 42.9998 348.994" stroke="#161A1D" stroke-width="1.5" stroke-miterlimit="10" stroke-linecap="round" stroke-linejoin="round"/>
<path d="M59.5044 353.793C64.0538 356.179 69.0937 357.612 74.2201 357.958" stroke="#161A1D" stroke-width="1.5" stroke-miterlimit="10" stroke-linecap="round" stroke-linejoin="round"/>
<path d="M86.4451 381.609C77.5002 378.531 68.2572 378.675 58.8506 380.551C53.6665 387.293 53.2048 394.43 57.7927 401.951C68.6227 401.211 78.7313 402.019 87.4261 405.77" stroke="#161A1D" stroke-width="1.5" stroke-miterlimit="10" stroke-linecap="round" stroke-linejoin="round"/>
<path d="M58.8511 380.551C63.6313 388.255 62.958 395.257 57.7931 401.951" stroke="#161A1D" stroke-width="1.5" stroke-miterlimit="10" stroke-linecap="round" stroke-linejoin="round"/>
<path d="M66.9496 382.475C71.6913 382.023 76.5004 382.311 81.1459 383.331" stroke="#161A1D" stroke-width="1.5" stroke-miterlimit="10" stroke-linecap="round" stroke-linejoin="round"/>
<path d="M87.6474 410.839C78.7025 407.761 66.1028 408.376 56.7059 410.242C51.5217 416.985 51.06 424.121 55.6479 431.643C63.7752 431.085 73.1721 430.671 80.1933 431.643" stroke="#161A1D" stroke-width="1.5" stroke-miterlimit="10" stroke-linecap="round" stroke-linejoin="round"/>
<path d="M56.6962 410.242C61.4764 417.947 60.8031 424.949 55.6382 431.643" stroke="#161A1D" stroke-width="1.5" stroke-miterlimit="10" stroke-linecap="round" stroke-linejoin="round"/>
<path d="M64.8044 412.166C69.5462 411.714 74.3552 412.002 79.0008 413.022" stroke="#161A1D" stroke-width="1.5" stroke-miterlimit="10" stroke-linecap="round" stroke-linejoin="round"/>
<path d="M74.1147 520.293C71.0561 516.628 67.911 512.829 66.5549 508.251C64.083 499.912 68.0264 491.044 67.6225 482.359C67.4686 479.031 66.6703 475.77 66.3048 472.452C65.4391 464.69 66.9973 456.669 70.7003 449.792C73.2587 445.031 76.7982 440.828 79.0103 435.894C82.6556 427.737 82.5402 417.869 88.0898 410.877C89.3594 409.271 90.8887 407.886 92.3988 406.501C101.228 398.344 110.423 379.945 112.126 377.088C113.828 374.232 116.685 378.05 118.127 379.733C119.58 381.417 120.397 383.533 121.272 385.581C124.446 393.006 128.726 399.96 133.911 406.164C136.517 409.28 139.374 412.233 141.326 415.792C143.779 420.283 144.644 425.468 145.029 430.575C146.02 443.482 143.558 457.871 133.555 466.095C128.928 469.894 123.1 472.01 118.522 475.867C110.163 482.907 107.047 494.785 98.5544 501.662C93.1971 506 85.9546 508.107 81.8188 513.627C80.6935 515.128 79.8279 516.859 78.4332 518.119C77.0386 519.36 75.3266 521.735 74.1147 520.293Z" stroke="#161A1D" stroke-width="1.5" stroke-miterlimit="10" stroke-linecap="round" stroke-linejoin="round"/>
<path d="M111.173 393.17C108.124 401.528 98.3426 405.635 94.3126 413.57" stroke="#161A1D" stroke-width="1.5" stroke-miterlimit="10" stroke-linecap="round" stroke-linejoin="round"/>
<path d="M91.2831 418.36C89.1286 421.736 88.0033 425.766 88.0899 429.767" stroke="#161A1D" stroke-width="1.5" stroke-miterlimit="10" stroke-linecap="round" stroke-linejoin="round"/>
<path d="M139.701 289.342C139.701 289.342 125.985 301.173 120.974 323.121C115.963 345.07 120.032 356.044 125.052 364.508C130.073 372.972 132.266 373.405 134.141 380.551C136.026 387.707 140.008 400.201 145.231 408.684C150.454 417.167 168.632 440.539 168.632 440.539" stroke="#161A1D" stroke-width="1.5" stroke-miterlimit="10" stroke-linecap="round" stroke-linejoin="round"/>
<path d="M140.73 293.805C140.874 288.448 139.277 282.619 136.094 276.377C140.028 271.375 145.51 268.634 153.079 268.932C155.099 275.098 158.052 278.81 161.995 279.964" stroke="#161A1D" stroke-width="1.5" stroke-miterlimit="10" stroke-linecap="round" stroke-linejoin="round"/>
<path d="M156.859 276.367C156.859 276.367 171.613 276.464 174.864 271.501C178.125 266.528 179.837 257.266 179.837 257.266C185.742 256.65 191.446 257.035 196.822 259.151C196.255 266.163 196.996 271.51 199.91 274.078" stroke="#161A1D" stroke-width="1.5" stroke-miterlimit="10" stroke-linecap="round" stroke-linejoin="round"/>
<path d="M198.419 272.203C201.632 268.971 202.959 265.576 202.997 262.065C210.221 261.575 216.097 264.21 220.493 270.299C219.05 273.299 218.588 276.483 219.81 279.965C233.468 289.083 243.028 301.182 246.567 317.649" stroke="#161A1D" stroke-width="1.5" stroke-miterlimit="10" stroke-linecap="round" stroke-linejoin="round"/>
<path d="M207.335 264.903C209.143 265.566 210.923 266.336 212.644 267.201" stroke="#161A1D" stroke-width="1.5" stroke-miterlimit="10" stroke-linecap="round" stroke-linejoin="round"/>
<path d="M215.386 268.894C216.04 269.221 216.626 269.683 217.098 270.25" stroke="#161A1D" stroke-width="1.5" stroke-miterlimit="10" stroke-linecap="round" stroke-linejoin="round"/>
<path d="M177.664 272.645C179.183 270.808 180.27 268.615 180.799 266.288" stroke="#161A1D" stroke-width="1.5" stroke-miterlimit="10" stroke-linecap="round" stroke-linejoin="round"/>
<path d="M181.28 263.874C181.674 262.806 181.924 261.681 182.02 260.546" stroke="#161A1D" stroke-width="1.5" stroke-miterlimit="10" stroke-linecap="round" stroke-linejoin="round"/>
<path d="M140.961 278.858C142.403 282.109 143.23 285.629 143.365 289.178" stroke="#161A1D" stroke-width="1.5" stroke-miterlimit="10" stroke-linecap="round" stroke-linejoin="round"/>
<mask id="mask0_129_957" style="mask-type:luminance" maskUnits="userSpaceOnUse" x="233" y="387" width="93" height="216">
<path d="M234.256 463.074C234.256 463.074 226.321 424.419 252.569 398.133C274.614 376.049 320.185 391.458 322.695 408.674C325.205 425.9 313.712 444.098 313.365 463.036C313.019 481.974 310.393 513.406 317.751 531.026C325.109 548.647 328.591 562.805 323.051 578.703C317.511 594.592 311.288 605.99 302.997 602.191C294.706 598.392 289.868 599.084 283.309 579.386C276.749 559.688 273.979 556.928 268.112 548.637C262.235 540.346 243.24 527.564 239.787 510.29C236.334 493.035 234.256 463.074 234.256 463.074Z" fill="white"/>
</mask>
<g mask="url(#mask0_129_957)">
<path d="M231.342 449.715C233.467 440.116 235.737 430.18 241.662 422.332C244.893 418.061 249.087 414.589 253.588 411.704C263.149 405.567 274.2 401.922 285.463 400.422C288.983 399.95 292.561 399.691 296.081 400.191C305.728 401.557 313.952 408.722 318.212 417.484C322.473 426.246 323.166 436.403 321.954 446.069" stroke="#161A1D" stroke-width="1.5" stroke-miterlimit="10" stroke-linecap="round" stroke-linejoin="round"/>
</g>
<mask id="mask1_129_957" style="mask-type:luminance" maskUnits="userSpaceOnUse" x="233" y="387" width="93" height="216">
<path d="M234.256 463.074C234.256 463.074 226.321 424.419 252.569 398.133C274.614 376.049 320.185 391.458 322.695 408.674C325.205 425.9 313.712 444.098 313.365 463.036C313.019 481.974 310.393 513.406 317.751 531.026C325.109 548.647 328.591 562.805 323.051 578.703C317.511 594.592 311.288 605.99 302.997 602.191C294.706 598.392 289.868 599.084 283.309 579.386C276.749 559.688 273.979 556.928 268.112 548.637C262.235 540.346 243.24 527.564 239.787 510.29C236.334 493.035 234.256 463.074 234.256 463.074Z" fill="white"/>
</mask>
<g mask="url(#mask1_129_957)">
<path d="M230.255 460.006C232.582 464.161 238.017 466.258 242.537 464.757C248.597 462.737 251.617 455.697 257.33 452.84C264.043 449.484 272.199 452.917 278.143 457.496C284.087 462.074 289.358 467.95 296.466 470.345C302.593 472.404 309.518 471.519 315.231 468.499C320.944 465.479 325.465 460.448 328.427 454.706" stroke="#161A1D" stroke-width="1.5" stroke-miterlimit="10" stroke-linecap="round" stroke-linejoin="round"/>
</g>
<path d="M321.175 538.403C317.636 542.635 318.059 548.964 319.925 554.158C320.06 554.533 320.204 554.937 320.127 555.331C320.04 555.745 319.723 556.062 319.434 556.37C316.164 559.89 315.347 565.488 317.482 569.787C314.818 570.557 312.606 572.528 311.163 574.894C309.72 577.261 309.008 580.011 308.681 582.762C308.297 586.071 308.162 589.995 305.382 591.832C304.267 592.573 302.901 592.813 301.737 593.467C298.707 595.169 297.803 599.132 297.88 602.614" stroke="#161A1D" stroke-width="1.5" stroke-miterlimit="10" stroke-linecap="round" stroke-linejoin="round"/>
<path d="M234.256 463.074C234.256 463.074 226.321 424.419 252.569 398.133C274.614 376.049 320.185 391.458 322.695 408.674C325.205 425.9 313.712 444.098 313.365 463.036C313.019 481.974 310.393 513.406 317.751 531.026C325.109 548.647 328.591 562.805 323.051 578.703C317.511 594.592 311.288 605.99 302.997 602.191C294.706 598.392 289.868 599.084 283.309 579.386C276.749 559.688 273.979 556.928 268.112 548.637C262.235 540.346 243.24 527.564 239.787 510.29C236.334 493.035 234.256 463.074 234.256 463.074Z" stroke="#161A1D" stroke-width="1.5" stroke-miterlimit="10" stroke-linecap="round" stroke-linejoin="round"/>
<path d="M172.989 442.001C170.286 463.045 167.689 473.481 157.628 485.696C147.568 497.911 133.208 505.404 120.339 514.608C100.122 529.074 103.113 555.735 119.945 568.729C156.378 596.833 194.1 623.524 236.738 640.836C242.97 643.366 249.491 645.819 256.214 645.501C262.937 645.184 269.949 641.375 271.95 634.94C273.642 629.506 271.469 623.658 268.833 618.619C265.409 612.059 261.139 605.971 256.464 600.238C248.972 591.043 240.277 582.522 235.478 571.682C232.804 565.642 231.448 559.102 230.63 552.552C229.284 541.847 229.293 531.017 229.312 520.225C229.351 494.67 229.399 469.114 229.437 443.559C211.692 432.421 192.735 433.306 172.989 442.001Z" stroke="#161A1D" stroke-width="1.5" stroke-miterlimit="10" stroke-linecap="round" stroke-linejoin="round"/>
<path d="M259.167 366.365C274.056 368.442 287.012 377.925 301.766 380.821C312.009 382.831 322.887 381.484 332.332 377.05C340.306 383.139 343.557 391.372 343.172 401.259C343.172 401.259 333.083 406.703 333.486 410.945C333.881 415.196 348.481 419.572 348.481 419.572C351.973 428.526 350.943 436.452 344.769 443.194C340.758 441.415 336.737 441.434 332.707 443.194" stroke="#161A1D" stroke-width="1.5" stroke-miterlimit="10" stroke-linecap="round" stroke-linejoin="round"/>
<path d="M332.332 377.05C330.428 389.054 334.044 397.123 343.172 401.259" stroke="#161A1D" stroke-width="1.5" stroke-miterlimit="10" stroke-linecap="round" stroke-linejoin="round"/>
<path d="M348.481 419.582C343.211 426.545 341.441 434.307 344.769 443.204" stroke="#161A1D" stroke-width="1.5" stroke-miterlimit="10" stroke-linecap="round" stroke-linejoin="round"/>
<path d="M232.813 330.421C221.137 334.528 211.144 333.23 201.756 329.94C181.491 340.761 174.277 353.938 184.434 370.25C188.262 373.568 192.302 375.578 196.572 376.059" stroke="#161A1D" stroke-width="1.5" stroke-miterlimit="10" stroke-linecap="round" stroke-linejoin="round"/>
<path d="M183.559 359.911C182.876 355.217 184.165 350.273 187.05 346.522" stroke="#161A1D" stroke-width="1.5" stroke-miterlimit="10" stroke-linecap="round" stroke-linejoin="round"/>
<path d="M189.474 344.425C190.897 342.646 192.455 340.963 194.139 339.424" stroke="#161A1D" stroke-width="1.5" stroke-miterlimit="10" stroke-linecap="round" stroke-linejoin="round"/>
<path d="M222.493 332.768C249.357 318.399 273.085 301.173 293.735 282.85C306.479 286.765 313.952 295.229 317.751 306.867C317.751 306.867 308.075 325.141 280.144 346.512C221.426 391.439 232.89 451.158 233.15 451.283" stroke="#161A1D" stroke-width="1.5" stroke-miterlimit="10" stroke-linecap="round" stroke-linejoin="round"/>
<path d="M188.801 373.318C174.979 395.671 169.16 422.236 168.045 448.494C167.795 454.341 164.438 459.362 162.082 464.719C159.898 469.682 156.311 473.895 152.463 477.714C139.95 490.121 124.398 498.921 110.192 509.348C105.719 512.627 101.247 516.224 98.6404 521.12C96.5148 525.112 95.7934 529.709 95.5722 534.23C95.3029 539.798 95.7742 545.425 97.3804 550.763C101.776 565.306 113.981 576.001 126.196 585.033C145.702 599.469 166.717 611.857 188.791 621.937C200.727 627.391 224.311 636.576 236.728 640.827" stroke="#161A1D" stroke-width="1.5" stroke-miterlimit="10" stroke-linecap="round" stroke-linejoin="round"/>
<path d="M293.744 282.86C296.255 296.344 303.689 304.914 317.761 306.876" stroke="#161A1D" stroke-width="1.5" stroke-miterlimit="10" stroke-linecap="round" stroke-linejoin="round"/>
<path d="M314.192 303.741C304.112 300.268 300.256 293.997 297.139 286.264C305.026 290.266 310.614 295.421 314.192 303.741Z" fill="#70E000" stroke="#161A1D" stroke-width="1.5" stroke-miterlimit="10" stroke-linecap="round" stroke-linejoin="round"/>
<path d="M293.475 290.997C294.244 294.084 295.62 297.018 297.505 299.586" stroke="#161A1D" stroke-width="1.5" stroke-miterlimit="10" stroke-linecap="round" stroke-linejoin="round"/>
<path d="M299.669 301.644C300.794 302.894 302.15 303.933 303.651 304.683" stroke="#161A1D" stroke-width="1.5" stroke-miterlimit="10" stroke-linecap="round" stroke-linejoin="round"/>
<path d="M74.1147 520.293C74.1147 520.293 66.6125 566.104 138.056 606.875C209.499 647.647 267.199 669.961 308.739 658.419C350.28 646.877 351.819 584.571 352.204 564.18C352.588 543.79 343.355 509.174 343.74 495.334C344.124 481.484 343.797 473.164 341.479 464.902C339.152 456.64 322.532 420.601 322.532 420.601" stroke="#161A1D" stroke-width="1.5" stroke-miterlimit="10" stroke-linecap="round" stroke-linejoin="round"/>
<path d="M262.408 644.212C266.525 643.472 272.556 646.8 276.624 645.857C280.769 644.895 282.837 640.298 286.156 637.643C288.752 635.566 292.148 634.7 295.476 634.614C298.794 634.527 302.093 635.152 305.353 635.777" stroke="#161A1D" stroke-width="1.5" stroke-miterlimit="10" stroke-linecap="round" stroke-linejoin="round"/>
<path d="M352.117 558.958C352.117 566.873 349.972 574.26 348.212 582.003C347.596 584.686 346.894 587.418 345.346 589.697C343.509 592.39 340.662 594.227 338.632 596.776C336.939 598.892 335.862 601.498 335.545 604.192C335.314 606.211 335.458 608.395 334.381 610.116C332.352 613.358 327.302 613.079 324.648 615.839C322.32 618.273 322.445 622.437 319.877 624.62C317.799 626.381 314.779 626.188 312.057 626.342C309.335 626.496 301.785 632.382 301.218 635.047" stroke="#161A1D" stroke-width="1.5" stroke-miterlimit="10" stroke-linecap="round" stroke-linejoin="round"/>
<path d="M326.398 621.475C326.84 620.321 327.59 619.282 328.562 618.513" stroke="#161A1D" stroke-width="1.5" stroke-miterlimit="10" stroke-linecap="round" stroke-linejoin="round"/>
<path d="M320.377 430.662C324.369 443.627 334.737 454.274 337.997 467.441C340.239 476.502 338.796 486.062 339.863 495.334C340.546 501.268 344.971 515.07 346.856 520.735" stroke="#161A1D" stroke-width="1.5" stroke-miterlimit="10" stroke-linecap="round" stroke-linejoin="round"/>
<circle cx="140" cy="171" r="63" stroke="#161A1D" stroke-width="1.5"/>
<rect width="51.6781" height="5.06305" transform="matrix(0.999988 0.00487377 -0.00916229 0.999958 115.046 133)" stroke="#161A1D" stroke-width="1.5"/>
<rect width="23.9108" height="5.06305" transform="matrix(0.999988 0.00487377 -0.00916229 0.999958 142.746 141.448)" stroke="#161A1D" stroke-width="1.5"/>
<path d="M83 175.417H103.868L111.983 183.51L122.031 160L131.305 197L136.715 175.417L145.217 190.062L155.264 160L166.085 197L171.881 175.417H197" stroke="#161A1D" stroke-width="1.5" stroke-miterlimit="10" stroke-linecap="round" stroke-linejoin="round"/>
<path d="M197 175.5L282.586 298.238" stroke="#161A1D" stroke-width="1.5"/>
<circle cx="281.071" cy="294.793" r="5.54791" transform="rotate(-68.7647 281.071 294.793)" fill="#70E000" stroke="#161A1D" stroke-width="1.5"/>
</svg>
