<svg width="40" height="40" viewBox="0 0 40 40" fill="none" xmlns="http://www.w3.org/2000/svg">
<path opacity="0.2" d="M22.0931 11.3367L32.4005 18.0303L21.9816 34.0739C20.1307 36.9241 16.3282 37.7169 13.4959 35.8776C10.6457 34.0267 9.85295 30.2242 11.6923 27.3919L22.1111 11.3483L22.0931 11.3367Z" fill="#70E000"/>
<path d="M24.8945 11.1909L29.9388 3.43213" stroke="#292D32" stroke-width="1.5" stroke-linecap="round" stroke-linejoin="round"/>
<path d="M34 6.08251L25.8564 0.781738" stroke="#292D32" stroke-width="1.5" stroke-linecap="round" stroke-linejoin="round"/>
<path d="M11.1296 32.3723L6.74792 39.1265" stroke="#292D32" stroke-width="1.5" stroke-linecap="round" stroke-linejoin="round"/>
<path d="M16.58 5.7832L33.209 16.5771" stroke="#292D32" stroke-width="1.5" stroke-linecap="round" stroke-linejoin="round"/>
<path d="M15.7678 13.948L19.9999 16.6839" stroke="#292D32" stroke-width="1.5" stroke-linecap="round" stroke-linejoin="round"/>
<path d="M11.835 20.0396L16.0456 22.7754" stroke="#292D32" stroke-width="1.5" stroke-linecap="round" stroke-linejoin="round"/>
<path d="M19.7598 7.83667L30.0671 14.5303L19.6483 30.5739C17.7973 33.4241 13.9948 34.2169 11.1626 32.3776C8.31237 30.5267 7.51958 26.7242 9.35888 23.8919L19.7777 7.84831L19.7598 7.83667Z" stroke="#292D32" stroke-width="1.5" stroke-linecap="round" stroke-linejoin="round"/>
</svg>
