<svg width="16" height="16" viewBox="0 0 16 16" fill="none" xmlns="http://www.w3.org/2000/svg">
<path opacity="0.4" fill-rule="evenodd" clip-rule="evenodd" d="M12.9683 2.67486C11.6149 1.32143 9.8103 0.599609 7.91551 0.599609C3.94548 0.599609 0.697266 3.84782 0.697266 7.81786C0.697266 9.08105 1.05818 10.3442 1.68978 11.427L0.697266 15.0361L4.48686 14.0436C5.56959 14.585 6.74255 14.9459 7.91551 14.9459C11.8855 14.9459 15.1338 11.6977 15.1338 7.72763C15.1338 5.83284 14.3217 4.02828 12.9683 2.67486ZM7.91551 13.7729C6.83277 13.7729 5.75004 13.5022 4.84776 12.9609L4.6673 12.8706L2.41159 13.5022L3.0432 11.3368L2.86273 11.0661C2.23114 10.0736 1.96045 8.99082 1.96045 7.90808C1.96045 4.65987 4.6673 1.95303 7.91551 1.95303C9.53962 1.95303 10.9833 2.58463 12.1562 3.66736C13.3292 4.84033 13.8706 6.28398 13.8706 7.90808C13.8706 11.0661 11.254 13.7729 7.91551 13.7729ZM11.1637 9.26151C10.9833 9.17128 10.081 8.72014 9.90054 8.72014C9.72008 8.62991 9.62983 8.62991 9.53961 8.81036C9.44938 8.99082 9.08849 9.35173 8.99826 9.53219C8.90803 9.62242 8.81778 9.62242 8.63733 9.62242C8.45687 9.53219 7.91552 9.35173 7.1937 8.72014C6.65233 8.269 6.29141 7.6374 6.20118 7.45694C6.11096 7.27649 6.20119 7.18626 6.29142 7.09603C6.38165 7.0058 6.47186 6.91557 6.56209 6.82535C6.65232 6.73512 6.65233 6.64489 6.74256 6.55466C6.83279 6.46443 6.74256 6.37421 6.74256 6.28398C6.74256 6.19375 6.38164 5.29147 6.20118 4.93056C6.11096 4.65987 5.9305 4.65987 5.84028 4.65987C5.75005 4.65987 5.6598 4.65987 5.47934 4.65987C5.38911 4.65987 5.20866 4.65987 5.0282 4.84033C4.84775 5.02078 4.39662 5.47193 4.39662 6.37421C4.39662 7.27649 5.02821 8.08854 5.11844 8.269C5.20866 8.35922 6.38162 10.254 8.18618 10.9758C9.72006 11.6074 9.99077 11.427 10.3517 11.427C10.7126 11.427 11.4344 10.9758 11.5246 10.6149C11.7051 10.1638 11.7051 9.80287 11.6149 9.80287C11.5246 9.35173 11.3442 9.35173 11.1637 9.26151Z" fill="#4F5353"/>
</svg>
