<svg width="40" height="40" viewBox="0 0 40 40" fill="none" xmlns="http://www.w3.org/2000/svg">
<path d="M20.28 26.077C26.2005 26.077 31 21.2775 31 15.357C31 9.43647 26.2005 4.63696 20.28 4.63696C14.3595 4.63696 9.56 9.43647 9.56 15.357C9.56 21.2775 14.3595 26.077 20.28 26.077Z" stroke="#292D32" stroke-width="1.5" stroke-linecap="round" stroke-linejoin="round"/>
<path opacity="0.2" d="M18.28 30.077C24.2005 30.077 29 25.2775 29 19.357C29 13.4365 24.2005 8.63696 18.28 8.63696C12.3595 8.63696 7.56 13.4365 7.56 19.357C7.56 25.2775 12.3595 30.077 18.28 30.077Z" fill="#70E000"/>
<path d="M20.28 26.0771V35.3633" stroke="#292D32" stroke-width="1.5" stroke-linecap="round" stroke-linejoin="round"/>
<path d="M24.0183 32.1541H16.5587" stroke="#292D32" stroke-width="1.5" stroke-linecap="round" stroke-linejoin="round"/>
</svg>
